<svg width="26" height="26" viewBox="0 0 26 26" fill="none" xmlns="http://www.w3.org/2000/svg">
<path d="M12.5921 0C15.9317 0 19.1346 1.32666 21.4961 3.68814C23.8575 6.04962 25.1842 9.25247 25.1842 12.5921C25.1842 15.9317 23.8575 19.1346 21.4961 21.4961C19.1346 23.8575 15.9317 25.1842 12.5921 25.1842C9.25247 25.1842 6.04962 23.8575 3.68814 21.4961C1.32666 19.1346 0 15.9317 0 12.5921C0 9.25247 1.32666 6.04962 3.68814 3.68814C6.04962 1.32666 9.25247 0 12.5921 0ZM12.5921 11.0649L9.66714 8.1399C9.46461 7.93737 9.18993 7.82359 8.90352 7.82359C8.6171 7.82359 8.34242 7.93737 8.1399 8.1399C7.93737 8.34242 7.82359 8.6171 7.82359 8.90352C7.82359 9.18993 7.93737 9.46461 8.1399 9.66714L11.0649 12.5921L8.1399 15.5171C8.03962 15.6174 7.96007 15.7364 7.9058 15.8674C7.85153 15.9984 7.82359 16.1389 7.82359 16.2807C7.82359 16.4225 7.85153 16.5629 7.9058 16.694C7.96007 16.825 8.03962 16.944 8.1399 17.0443C8.24018 17.1446 8.35923 17.2241 8.49025 17.2784C8.62127 17.3327 8.7617 17.3606 8.90352 17.3606C9.04533 17.3606 9.18576 17.3327 9.31679 17.2784C9.44781 17.2241 9.56686 17.1446 9.66714 17.0443L12.5921 14.1193L15.5171 17.0443C15.6174 17.1446 15.7364 17.2241 15.8674 17.2784C15.9984 17.3327 16.1389 17.3606 16.2807 17.3606C16.4225 17.3606 16.5629 17.3327 16.694 17.2784C16.825 17.2241 16.944 17.1446 17.0443 17.0443C17.1446 16.944 17.2241 16.825 17.2784 16.694C17.3327 16.5629 17.3606 16.4225 17.3606 16.2807C17.3606 16.1389 17.3327 15.9984 17.2784 15.8674C17.2241 15.7364 17.1446 15.6174 17.0443 15.5171L14.1193 12.5921L17.0443 9.66714C17.1446 9.56686 17.2241 9.44781 17.2784 9.31679C17.3327 9.18576 17.3606 9.04533 17.3606 8.90352C17.3606 8.7617 17.3327 8.62127 17.2784 8.49025C17.2241 8.35923 17.1446 8.24018 17.0443 8.1399C16.944 8.03962 16.825 7.96007 16.694 7.9058C16.5629 7.85153 16.4225 7.82359 16.2807 7.82359C16.1389 7.82359 15.9984 7.85153 15.8674 7.9058C15.7364 7.96007 15.6174 8.03962 15.5171 8.1399L12.5921 11.0649Z" fill="black"/>
</svg>
