<svg width="50" height="50" viewBox="0 0 50 50" fill="none" xmlns="http://www.w3.org/2000/svg">
<circle cx="25" cy="25" r="25" fill="#14988B"/>
<path d="M25 25C25.55 25 26.021 24.804 26.413 24.412C26.805 24.02 27.0007 23.5493 27 23C27 22.45 26.804 21.979 26.412 21.587C26.02 21.195 25.5493 20.9993 25 21C24.45 21 23.979 21.196 23.587 21.588C23.195 21.98 22.9993 22.4507 23 23C23 23.55 23.196 24.021 23.588 24.413C23.98 24.805 24.4507 25.0007 25 25ZM25 35C22.3167 32.7167 20.3127 30.596 18.988 28.638C17.6633 26.68 17.0007 24.8673 17 23.2C17 20.7 17.8043 18.7083 19.413 17.225C21.0217 15.7417 22.884 15 25 15C27.1167 15 28.9793 15.7417 30.588 17.225C32.1967 18.7083 33.0007 20.7 33 23.2C33 24.8667 32.3373 26.6793 31.012 28.638C29.6867 30.5967 27.6827 32.7173 25 35Z" fill="#FFFEFF"/>
</svg>
