<svg width="64" height="64" viewBox="0 0 64 64" fill="none" xmlns="http://www.w3.org/2000/svg">
<circle cx="32.1609" cy="31.8245" r="31.2308" fill="#FF8F62"/>
<path d="M44.6531 19.332H19.6685C17.9508 19.332 16.561 20.7374 16.561 22.4551L16.5454 41.1936C16.5454 42.9113 17.9508 44.3166 19.6685 44.3166H44.6531C46.3708 44.3166 47.7762 42.9113 47.7762 41.1936V22.4551C47.7762 20.7374 46.3708 19.332 44.6531 19.332ZM44.0285 25.9686L32.9884 32.8706C32.4887 33.1829 31.8329 33.1829 31.3332 32.8706L20.2931 25.9686C20.1365 25.8807 19.9994 25.7619 19.8901 25.6195C19.7807 25.4771 19.7014 25.3139 19.6569 25.14C19.6124 24.966 19.6037 24.7848 19.6313 24.6074C19.6588 24.43 19.7221 24.26 19.8173 24.1077C19.9124 23.9554 20.0375 23.824 20.1849 23.7215C20.3323 23.619 20.499 23.5474 20.6749 23.5112C20.8508 23.4749 21.0322 23.4747 21.2081 23.5106C21.384 23.5465 21.5509 23.6177 21.6985 23.72L32.1608 30.2628L42.6231 23.72C42.7707 23.6177 42.9376 23.5465 43.1135 23.5106C43.2894 23.4747 43.4708 23.4749 43.6467 23.5112C43.8226 23.5474 43.9892 23.619 44.1367 23.7215C44.2841 23.824 44.4091 23.9554 44.5043 24.1077C44.5995 24.26 44.6628 24.43 44.6903 24.6074C44.7179 24.7848 44.7092 24.966 44.6647 25.14C44.6202 25.3139 44.5409 25.4771 44.4315 25.6195C44.3222 25.7619 44.1851 25.8807 44.0285 25.9686Z" fill="#FFFEFF"/>
</svg>
