<svg width="64" height="63" viewBox="0 0 64 63" fill="none" xmlns="http://www.w3.org/2000/svg">
<circle cx="32.1609" cy="31.7269" r="31.2308" fill="#FF8F62"/>
<g clip-path="url(#clip0_150_8909)">
<path d="M29.2673 34.4744C31.4404 36.6789 34.0698 38.3809 36.9709 39.4609L40.8956 36.3378C41.0119 36.2577 41.1499 36.2148 41.2911 36.2148C41.4324 36.2148 41.5704 36.2577 41.6867 36.3378L48.9739 41.0328C49.2506 41.1992 49.4848 41.4275 49.658 41.6999C49.8312 41.9723 49.9387 42.2812 49.972 42.6023C50.0054 42.9234 49.9636 43.2478 49.85 43.55C49.7364 43.8521 49.5541 44.1237 49.3175 44.3433L45.9029 47.7162C45.4139 48.1994 44.8129 48.554 44.1535 48.7483C43.4941 48.9427 42.7969 48.9708 42.124 48.8301C35.4116 47.4438 29.2248 44.197 24.2704 39.4609C19.4259 34.6776 16.0736 28.5914 14.6201 21.9404C14.4765 21.2779 14.5064 20.5896 14.7071 19.9421C14.9077 19.2947 15.2722 18.71 15.7652 18.2448L19.3047 14.8302C19.5237 14.6051 19.7908 14.4325 20.086 14.3253C20.3812 14.2181 20.6968 14.179 21.0093 14.2111C21.3217 14.2431 21.6228 14.3454 21.8901 14.5103C22.1574 14.6752 22.3839 14.8985 22.5527 15.1633L27.4039 22.3568C27.4875 22.4698 27.5327 22.6066 27.5327 22.7472C27.5327 22.8878 27.4875 23.0246 27.4039 23.1376L24.2079 26.979C25.3172 29.822 27.0455 32.3823 29.2673 34.4744Z" fill="#FFFEFF"/>
</g>
<defs>
<clipPath id="clip0_150_8909">
<rect width="37.4769" height="37.4769" fill="white" transform="translate(13.4224 12.9883)"/>
</clipPath>
</defs>
</svg>
