<svg width="70" height="70" viewBox="0 0 70 70" fill="none" xmlns="http://www.w3.org/2000/svg">
<g clip-path="url(#clip0_727_10096)">
<path d="M35.0001 70.0002C54.3301 70.0002 70.0002 54.3301 70.0002 35.0001C70.0002 15.6701 54.3301 0 35.0001 0C15.6701 0 0 15.6701 0 35.0001C0 54.3301 15.6701 70.0002 35.0001 70.0002Z" fill="#E24C4B"/>
<path d="M70.0001 34.9999C70.0001 54.25 54.2501 70 35 70C23.8438 70 14.0001 64.9687 7.65625 56.875C13.5625 61.6875 21.2188 64.5313 29.5312 64.5313C48.7813 64.5313 64.5313 48.7813 64.5313 29.5312C64.5313 21.2188 61.6875 13.5625 56.875 7.65625C64.9689 13.9998 70.0001 23.8435 70.0001 34.9999Z" fill="#D1403F"/>
<path d="M30.1885 46.686C29.6419 46.6836 29.1178 46.4678 28.7279 46.0846L19.105 36.4617C18.7176 36.0743 18.5 35.5489 18.5 35.001C18.5 34.4532 18.7176 33.9278 19.105 33.5404C19.4924 33.153 20.0178 32.9354 20.5656 32.9354C21.1135 32.9354 21.6389 33.153 22.0263 33.5404L30.1885 41.7027L47.9737 23.9175C48.1656 23.7257 48.3933 23.5735 48.6439 23.4697C48.8945 23.3659 49.1631 23.3125 49.4344 23.3125C49.7056 23.3125 49.9742 23.3659 50.2249 23.4697C50.4755 23.5735 50.7032 23.7257 50.895 23.9175C51.0868 24.1093 51.239 24.337 51.3428 24.5876C51.4466 24.8383 51.5 25.1069 51.5 25.3781C51.5 25.6494 51.4466 25.918 51.3428 26.1686C51.239 26.4192 51.0868 26.6469 50.895 26.8388L31.6492 46.0846C31.2593 46.4678 30.7352 46.6836 30.1885 46.686Z" fill="white"/>
</g>
<defs>
<clipPath id="clip0_727_10096">
<rect width="70" height="70" fill="white"/>
</clipPath>
</defs>
</svg>
