<svg width="63" height="64" viewBox="0 0 63 64" fill="none" xmlns="http://www.w3.org/2000/svg">
<circle cx="31.7469" cy="31.9183" r="31.2308" fill="#FF8F62"/>
<path d="M16.1376 47.5335L18.2488 39.7758C16.8577 37.3911 16.1268 34.6789 16.1314 31.9181C16.1314 23.2937 23.1224 16.3027 31.7468 16.3027C40.3711 16.3027 47.3621 23.2937 47.3621 31.9181C47.3621 40.5425 40.3711 47.5335 31.7468 47.5335C28.9872 47.538 26.2761 46.8077 23.8922 45.4176L16.1376 47.5335ZM26.1112 24.5914C25.9095 24.6039 25.7125 24.657 25.5318 24.7475C25.3624 24.8435 25.2078 24.9634 25.0727 25.1036C24.8854 25.28 24.7792 25.433 24.6652 25.5814C24.088 26.3325 23.7776 27.2545 23.7829 28.2017C23.786 28.9668 23.9859 29.7117 24.2982 30.4081C24.9369 31.8166 25.9878 33.3079 27.376 34.6898C27.7102 35.0225 28.0365 35.3566 28.3879 35.6674C30.1109 37.1843 32.1641 38.2783 34.3842 38.8623L35.2727 38.9981C35.5616 39.0138 35.8505 38.9919 36.1409 38.9778C36.5957 38.9544 37.0398 38.8312 37.4417 38.6171C37.6462 38.5118 37.8457 38.3972 38.0398 38.2736C38.0398 38.2736 38.1069 38.2299 38.2349 38.133C38.4458 37.9769 38.5754 37.866 38.7503 37.6833C38.8799 37.549 38.9923 37.3913 39.0782 37.2117C39.2 36.9572 39.3218 36.4716 39.3717 36.0671C39.4092 35.7579 39.3983 35.5893 39.3936 35.4847C39.3874 35.3176 39.2484 35.1443 39.0969 35.0709L38.1881 34.6633C38.1881 34.6633 36.8296 34.0715 36.0004 33.6936C35.913 33.6555 35.8193 33.6338 35.724 33.6296C35.6172 33.6186 35.5092 33.6306 35.4074 33.6648C35.3056 33.699 35.2123 33.7546 35.1337 33.8279V33.8248C35.1259 33.8248 35.0213 33.9138 33.8923 35.2817C33.8275 35.3687 33.7382 35.4346 33.6359 35.4707C33.5336 35.5069 33.4228 35.5117 33.3177 35.4847C33.2159 35.4575 33.1162 35.423 33.0194 35.3816C32.8258 35.3004 32.7586 35.2692 32.6259 35.2114L32.6181 35.2083C31.7247 34.8182 30.8976 34.2914 30.1665 33.6467C29.9697 33.475 29.787 33.2876 29.5996 33.1064C28.9853 32.5181 28.4499 31.8526 28.0069 31.1264L27.9147 30.9781C27.8486 30.8784 27.7951 30.7709 27.7555 30.658C27.6961 30.4284 27.8507 30.2442 27.8507 30.2442C27.8507 30.2442 28.2302 29.8288 28.4066 29.6039C28.5535 29.417 28.6906 29.2226 28.8173 29.0215C29.0016 28.7248 29.0593 28.4203 28.9625 28.1845C28.5253 27.1164 28.0725 26.053 27.6071 24.9974C27.515 24.7881 27.2417 24.6382 26.9934 24.6086C26.9091 24.5992 26.8248 24.5898 26.7405 24.5836C26.5308 24.5732 26.3206 24.5768 26.1112 24.5914Z" fill="#FFFEFF"/>
</svg>
