<svg width="120" height="119" viewBox="0 0 120 119" fill="none" xmlns="http://www.w3.org/2000/svg">
<g filter="url(#filter0_d_72_2055)">
<circle cx="59.9619" cy="55.3779" r="50.042" fill="black"/>
</g>
<path fill-rule="evenodd" clip-rule="evenodd" d="M57.1148 52.5301C57.3322 45.585 47.0671 44.6538 50.9367 44.6538C54.8358 44.6538 59.9001 36.9283 54.3152 34.1529C48.7304 31.3774 48.67 39.6645 49.5714 37.9698C50.4723 36.2756 52.05 34.8288 53.5335 35.8117C55.0166 36.7948 56.5763 39.6841 51.3977 42.4086C46.2195 45.1328 43.1508 35.8117 47.1951 32.0859C51.2398 28.3604 57.108 31.5122 57.108 31.5122C57.108 31.5122 56.5816 28.8373 57.108 27.0984C57.6209 25.4024 59.8504 23.4757 59.9602 23.3815V23.3779C59.9602 23.3779 59.9611 23.3784 59.9624 23.3797C59.9638 23.3784 59.9647 23.3779 59.9647 23.3779V23.3815C60.0745 23.4757 62.304 25.4025 62.8169 27.0984C63.3433 28.8373 62.8169 31.5122 62.8169 31.5122C62.8169 31.5122 68.6853 28.3605 72.7298 32.0859C76.7741 35.8118 73.7053 45.1328 68.5272 42.4086C63.3487 39.6841 64.9085 36.7948 66.3914 35.8117C67.8749 34.8287 69.4526 36.2756 70.3535 37.9698C71.2548 39.6644 71.1946 31.3773 65.6097 34.1529C60.0249 36.9283 65.0892 44.6538 68.9882 44.6538C72.8578 44.6538 62.5927 45.585 62.8101 52.5301C69.7552 52.7475 70.6864 42.4824 70.6864 46.352C70.6864 50.251 78.4119 55.3154 81.1873 49.7305C83.9627 44.1457 75.6757 44.0853 77.3704 44.9867C79.0646 45.8876 80.5114 47.4653 79.5285 48.9488C78.5454 50.4318 75.6561 51.9916 72.9315 46.813C70.2074 41.6348 79.5285 38.5661 83.2543 42.6104C86.9798 46.655 83.8279 52.5233 83.8279 52.5233C83.8279 52.5233 86.5029 51.9969 88.2418 52.5233C89.9378 53.0362 91.8645 55.2657 91.9587 55.3755H91.9623C91.9623 55.3755 91.9618 55.3764 91.9605 55.3777C91.9618 55.3791 91.9623 55.38 91.9623 55.38H91.9587C91.8645 55.4898 89.9377 57.7193 88.2418 58.2322C86.5029 58.7585 83.8279 58.2322 83.8279 58.2322C83.8279 58.2322 86.9797 64.1005 83.2543 68.1451C79.5283 72.1893 70.2074 69.1206 72.9315 63.9425C75.6561 58.764 78.5454 60.3237 79.5285 61.8067C80.5115 63.2901 79.0646 64.8679 77.3704 65.7688C75.6758 66.6701 83.9629 66.6098 81.1873 61.025C78.4119 55.4402 70.6864 60.5045 70.6864 64.4035C70.6864 68.2731 69.7551 58.008 62.8101 58.2253C62.5926 65.1705 72.8578 66.1017 68.9882 66.1017C65.0891 66.1017 60.0248 73.8272 65.6097 76.6026C71.1945 79.378 71.2549 71.0909 70.3535 72.7857C69.4526 74.4799 67.8749 75.9267 66.3914 74.9437C64.9083 73.9607 63.3486 71.0714 68.5272 68.3468C73.7054 65.6227 76.7741 74.9437 72.7298 78.6696C68.6851 82.3951 62.8169 79.2432 62.8169 79.2432C62.8169 79.2432 63.3433 81.9182 62.8169 83.6571C62.304 85.3531 60.0745 87.2798 59.9647 87.374V87.3775C59.9647 87.3775 59.9638 87.3771 59.9624 87.3758C59.9611 87.3771 59.9602 87.3775 59.9602 87.3775V87.374C59.8504 87.2798 57.6209 85.3529 57.108 83.6571C56.5816 81.9182 57.108 79.2432 57.108 79.2432C57.108 79.2432 51.2396 82.395 47.1951 78.6696C43.1508 74.9436 46.2196 65.6227 51.3977 68.3468C56.5762 71.0714 55.0164 73.9607 53.5335 74.9437C52.05 75.9268 50.4723 74.4799 49.5714 72.7857C48.6701 71.091 48.7303 79.3781 54.3152 76.6026C59.9 73.8272 54.8357 66.1017 50.9367 66.1017C47.0671 66.1017 57.3322 65.1704 57.1148 58.2253C50.1697 58.0079 49.2385 68.2731 49.2385 64.4035C49.2385 60.5044 41.513 55.4401 38.7376 61.025C35.9622 66.6098 44.2492 66.6701 42.5545 65.7688C40.8603 64.8679 39.4135 63.2901 40.3964 61.8067C41.3795 60.3236 44.2688 58.7638 46.9934 63.9425C49.7175 69.1206 40.3964 72.1893 36.6706 68.1451C32.9451 64.1004 36.097 58.2322 36.097 58.2322C36.097 58.2322 33.422 58.7585 31.6831 58.2322C29.9871 57.7192 28.0604 55.4898 27.9662 55.38H27.9626C27.9626 55.38 27.9631 55.3791 27.9644 55.3777C27.9631 55.3764 27.9626 55.3755 27.9626 55.3755H27.9662C28.0604 55.2657 29.9872 53.0362 31.6831 52.5233C33.422 51.9969 36.097 52.5233 36.097 52.5233C36.097 52.5233 32.9452 46.6549 36.6706 42.6104C40.3966 38.5661 49.7175 41.6349 46.9934 46.813C44.2688 51.9915 41.3795 50.4317 40.3964 48.9488C39.4134 47.4653 40.8603 45.8876 42.5545 44.9867C44.2491 44.0854 35.962 44.1456 38.7376 49.7305C41.513 55.3153 49.2385 50.251 49.2385 46.352C49.2385 42.4824 50.1697 52.7475 57.1148 52.5301Z" fill="#FFFEFF"/>
<defs>
<filter id="filter0_d_72_2055" x="0.912363" y="0.832158" width="118.099" height="118.099" filterUnits="userSpaceOnUse" color-interpolation-filters="sRGB">
<feFlood flood-opacity="0" result="BackgroundImageFix"/>
<feColorMatrix in="SourceAlpha" type="matrix" values="0 0 0 0 0 0 0 0 0 0 0 0 0 0 0 0 0 0 127 0" result="hardAlpha"/>
<feOffset dy="4.50378"/>
<feGaussianBlur stdDeviation="4.50378"/>
<feComposite in2="hardAlpha" operator="out"/>
<feColorMatrix type="matrix" values="0 0 0 0 0.8 0 0 0 0 0.8 0 0 0 0 0.8 0 0 0 0.4 0"/>
<feBlend mode="normal" in2="BackgroundImageFix" result="effect1_dropShadow_72_2055"/>
<feBlend mode="normal" in="SourceGraphic" in2="effect1_dropShadow_72_2055" result="shape"/>
</filter>
</defs>
</svg>
