<svg width="98" height="95" viewBox="0 0 98 95" fill="none" xmlns="http://www.w3.org/2000/svg">
<path d="M82.75 62L51.922 3.25429C51.1856 1.851 49.1874 1.82081 48.4089 3.20121L15.25 62" stroke="white" stroke-width="4" stroke-linecap="round"/>
<path d="M50.25 15L35.25 41.2088M35.25 41.2088L52.9163 57.017C54.2047 58.1698 56.25 57.2554 56.25 55.5265V43.2088C56.25 42.1042 55.3546 41.2088 54.25 41.2088H35.25Z" stroke="white" stroke-width="2" stroke-linecap="round"/>
<path d="M9.94 86.34H4.38L3.46 89H0.52L5.54 75.02H8.8L13.82 89H10.86L9.94 86.34ZM9.18 84.1L7.16 78.26L5.14 84.1H9.18ZM20.0364 77.74C20.8631 77.74 21.5897 77.9067 22.2164 78.24C22.8431 78.56 23.3364 78.98 23.6964 79.5V77.92H26.5164V89.08C26.5164 90.1067 26.3097 91.02 25.8964 91.82C25.4831 92.6333 24.8631 93.2733 24.0364 93.74C23.2097 94.22 22.2097 94.46 21.0364 94.46C19.4631 94.46 18.1697 94.0933 17.1564 93.36C16.1564 92.6267 15.5897 91.6267 15.4564 90.36H18.2364C18.3831 90.8667 18.6964 91.2667 19.1764 91.56C19.6697 91.8667 20.2631 92.02 20.9564 92.02C21.7697 92.02 22.4297 91.7733 22.9364 91.28C23.4431 90.8 23.6964 90.0667 23.6964 89.08V87.36C23.3364 87.88 22.8364 88.3133 22.1964 88.66C21.5697 89.0067 20.8497 89.18 20.0364 89.18C19.1031 89.18 18.2497 88.94 17.4764 88.46C16.7031 87.98 16.0897 87.3067 15.6364 86.44C15.1964 85.56 14.9764 84.5533 14.9764 83.42C14.9764 82.3 15.1964 81.3067 15.6364 80.44C16.0897 79.5733 16.6964 78.9067 17.4564 78.44C18.2297 77.9733 19.0897 77.74 20.0364 77.74ZM23.6964 83.46C23.6964 82.78 23.5631 82.2 23.2964 81.72C23.0297 81.2267 22.6697 80.8533 22.2164 80.6C21.7631 80.3333 21.2764 80.2 20.7564 80.2C20.2364 80.2 19.7564 80.3267 19.3164 80.58C18.8764 80.8333 18.5164 81.2067 18.2364 81.7C17.9697 82.18 17.8364 82.7533 17.8364 83.42C17.8364 84.0867 17.9697 84.6733 18.2364 85.18C18.5164 85.6733 18.8764 86.0533 19.3164 86.32C19.7697 86.5867 20.2497 86.72 20.7564 86.72C21.2764 86.72 21.7631 86.5933 22.2164 86.34C22.6697 86.0733 23.0297 85.7 23.2964 85.22C23.5631 84.7267 23.6964 84.14 23.6964 83.46ZM32.0511 79.64C32.4111 79.0533 32.8778 78.5933 33.4511 78.26C34.0378 77.9267 34.7044 77.76 35.4511 77.76V80.7H34.7111C33.8311 80.7 33.1644 80.9067 32.7111 81.32C32.2711 81.7333 32.0511 82.4533 32.0511 83.48V89H29.2511V77.92H32.0511V79.64ZM38.757 76.6C38.2637 76.6 37.8504 76.4467 37.517 76.14C37.197 75.82 37.037 75.4267 37.037 74.96C37.037 74.4933 37.197 74.1067 37.517 73.8C37.8504 73.48 38.2637 73.32 38.757 73.32C39.2504 73.32 39.657 73.48 39.977 73.8C40.3104 74.1067 40.477 74.4933 40.477 74.96C40.477 75.4267 40.3104 75.82 39.977 76.14C39.657 76.4467 39.2504 76.6 38.757 76.6ZM40.137 77.92V89H37.337V77.92H40.137ZM47.2434 77.74C48.0701 77.74 48.7968 77.9067 49.4234 78.24C50.0501 78.56 50.5434 78.98 50.9034 79.5V77.92H53.7234V89.08C53.7234 90.1067 53.5168 91.02 53.1034 91.82C52.6901 92.6333 52.0701 93.2733 51.2434 93.74C50.4168 94.22 49.4168 94.46 48.2434 94.46C46.6701 94.46 45.3768 94.0933 44.3634 93.36C43.3634 92.6267 42.7968 91.6267 42.6634 90.36H45.4434C45.5901 90.8667 45.9034 91.2667 46.3834 91.56C46.8768 91.8667 47.4701 92.02 48.1634 92.02C48.9768 92.02 49.6368 91.7733 50.1434 91.28C50.6501 90.8 50.9034 90.0667 50.9034 89.08V87.36C50.5434 87.88 50.0434 88.3133 49.4034 88.66C48.7768 89.0067 48.0568 89.18 47.2434 89.18C46.3101 89.18 45.4568 88.94 44.6834 88.46C43.9101 87.98 43.2968 87.3067 42.8434 86.44C42.4034 85.56 42.1834 84.5533 42.1834 83.42C42.1834 82.3 42.4034 81.3067 42.8434 80.44C43.2968 79.5733 43.9034 78.9067 44.6634 78.44C45.4368 77.9733 46.2968 77.74 47.2434 77.74ZM50.9034 83.46C50.9034 82.78 50.7701 82.2 50.5034 81.72C50.2368 81.2267 49.8768 80.8533 49.4234 80.6C48.9701 80.3333 48.4834 80.2 47.9634 80.2C47.4434 80.2 46.9634 80.3267 46.5234 80.58C46.0834 80.8333 45.7234 81.2067 45.4434 81.7C45.1768 82.18 45.0434 82.7533 45.0434 83.42C45.0434 84.0867 45.1768 84.6733 45.4434 85.18C45.7234 85.6733 46.0834 86.0533 46.5234 86.32C46.9768 86.5867 47.4568 86.72 47.9634 86.72C48.4834 86.72 48.9701 86.5933 49.4234 86.34C49.8768 86.0733 50.2368 85.7 50.5034 85.22C50.7701 84.7267 50.9034 84.14 50.9034 83.46ZM59.2581 79.64C59.6181 79.0533 60.0848 78.5933 60.6581 78.26C61.2448 77.9267 61.9115 77.76 62.6581 77.76V80.7H61.9181C61.0381 80.7 60.3715 80.9067 59.9181 81.32C59.4781 81.7333 59.2581 82.4533 59.2581 83.48V89H56.4581V77.92H59.2581V79.64ZM63.8241 83.42C63.8241 82.3 64.0441 81.3067 64.4841 80.44C64.9374 79.5733 65.5441 78.9067 66.3041 78.44C67.0774 77.9733 67.9374 77.74 68.8841 77.74C69.7107 77.74 70.4307 77.9067 71.0441 78.24C71.6707 78.5733 72.1707 78.9933 72.5441 79.5V77.92H75.3641V89H72.5441V87.38C72.1841 87.9 71.6841 88.3333 71.0441 88.68C70.4174 89.0133 69.6907 89.18 68.8641 89.18C67.9307 89.18 67.0774 88.94 66.3041 88.46C65.5441 87.98 64.9374 87.3067 64.4841 86.44C64.0441 85.56 63.8241 84.5533 63.8241 83.42ZM72.5441 83.46C72.5441 82.78 72.4107 82.2 72.1441 81.72C71.8774 81.2267 71.5174 80.8533 71.0641 80.6C70.6107 80.3333 70.1241 80.2 69.6041 80.2C69.0841 80.2 68.6041 80.3267 68.1641 80.58C67.7241 80.8333 67.3641 81.2067 67.0841 81.7C66.8174 82.18 66.6841 82.7533 66.6841 83.42C66.6841 84.0867 66.8174 84.6733 67.0841 85.18C67.3641 85.6733 67.7241 86.0533 68.1641 86.32C68.6174 86.5867 69.0974 86.72 69.6041 86.72C70.1241 86.72 70.6107 86.5933 71.0641 86.34C71.5174 86.0733 71.8774 85.7 72.1441 85.22C72.4107 84.7267 72.5441 84.14 72.5441 83.46ZM91.8588 77.76C93.2188 77.76 94.3121 78.18 95.1388 79.02C95.9788 79.8467 96.3988 81.0067 96.3988 82.5V89H93.5988V82.88C93.5988 82.0133 93.3788 81.3533 92.9388 80.9C92.4988 80.4333 91.8988 80.2 91.1388 80.2C90.3788 80.2 89.7721 80.4333 89.3188 80.9C88.8788 81.3533 88.6588 82.0133 88.6588 82.88V89H85.8588V82.88C85.8588 82.0133 85.6388 81.3533 85.1988 80.9C84.7588 80.4333 84.1588 80.2 83.3988 80.2C82.6254 80.2 82.0121 80.4333 81.5588 80.9C81.1188 81.3533 80.8988 82.0133 80.8988 82.88V89H78.0988V77.92H80.8988V79.26C81.2588 78.7933 81.7188 78.4267 82.2788 78.16C82.8521 77.8933 83.4788 77.76 84.1588 77.76C85.0254 77.76 85.7988 77.9467 86.4788 78.32C87.1588 78.68 87.6854 79.2 88.0588 79.88C88.4188 79.24 88.9388 78.7267 89.6188 78.34C90.3121 77.9533 91.0588 77.76 91.8588 77.76Z" fill="white"/>
</svg>
