<svg width="21" height="21" viewBox="0 0 21 21" fill="none" xmlns="http://www.w3.org/2000/svg">
<path d="M10.7422 0.390625C5.22219 0.390625 0.742188 4.87063 0.742188 10.3906C0.742188 15.9106 5.22219 20.3906 10.7422 20.3906C16.2622 20.3906 20.7422 15.9106 20.7422 10.3906C20.7422 4.87063 16.2622 0.390625 10.7422 0.390625ZM14.7422 11.3906H11.7422V14.3906C11.7422 14.9406 11.2922 15.3906 10.7422 15.3906C10.1922 15.3906 9.74219 14.9406 9.74219 14.3906V11.3906H6.74219C6.19219 11.3906 5.74219 10.9406 5.74219 10.3906C5.74219 9.84062 6.19219 9.39062 6.74219 9.39062H9.74219V6.39062C9.74219 5.84062 10.1922 5.39062 10.7422 5.39062C11.2922 5.39062 11.7422 5.84062 11.7422 6.39062V9.39062H14.7422C15.2922 9.39062 15.7422 9.84062 15.7422 10.3906C15.7422 10.9406 15.2922 11.3906 14.7422 11.3906Z" fill="#FF5714"/>
</svg>
