<svg width="26" height="26" viewBox="0 0 26 26" fill="none" xmlns="http://www.w3.org/2000/svg">
<circle cx="13.2214" cy="12.8943" r="12.4519" fill="black"/>
<g clip-path="url(#clip0_870_12379)">
<path d="M17.612 13.0678H13.855V16.6459C13.855 17.0395 13.5169 17.3615 13.1036 17.3615C12.6903 17.3615 12.3522 17.0395 12.3522 16.6459V13.0678H8.59516C8.18188 13.0678 7.84375 12.7457 7.84375 12.3522C7.84375 11.9586 8.18188 11.6365 8.59516 11.6365H12.3522V8.0584C12.3522 7.66481 12.6903 7.34277 13.1036 7.34277C13.5169 7.34277 13.855 7.66481 13.855 8.0584V11.6365H17.612C18.0253 11.6365 18.3635 11.9586 18.3635 12.3522C18.3635 12.7457 18.0253 13.0678 17.612 13.0678Z" fill="#FAFAFA"/>
</g>
<defs>
<clipPath id="clip0_870_12379">
<rect width="18.0338" height="17.175" fill="white" transform="translate(4.08984 3.76367)"/>
</clipPath>
</defs>
</svg>
