<svg width="239" height="271" viewBox="0 0 239 271" fill="none" xmlns="http://www.w3.org/2000/svg">
<path d="M211.247 131.226H24.2773V233.686H211.247V131.226Z" fill="#FF5714"/>
<path d="M13.0455 79.9368C13.4539 74.5621 15.8774 69.5401 19.8307 65.876C23.784 62.212 28.9754 60.1764 34.3655 60.1768H204.816C210.219 60.1752 215.422 62.2194 219.379 65.8983C223.336 69.5772 225.754 74.6179 226.146 80.0068L238.326 247.407C238.538 250.338 238.145 253.282 237.17 256.055C236.194 258.828 234.658 261.37 232.656 263.522C230.655 265.675 228.231 267.392 225.537 268.566C222.842 269.74 219.935 270.346 216.995 270.347H21.5955C18.6517 270.345 15.7398 269.737 13.0421 268.558C10.3444 267.38 7.91904 265.657 5.91777 263.498C3.91649 261.339 2.3824 258.79 1.41154 256.011C0.440678 253.232 0.0539438 250.282 0.275524 247.347L13.0455 79.9368Z" fill="#FF5714"/>
<path fill-rule="evenodd" clip-rule="evenodd" d="M157.516 102.226C155.84 102.327 154.17 102.524 152.516 102.816C152.336 102.996 166.686 196.816 166.916 196.956C167.146 197.096 180.716 196.026 180.916 195.786C181.116 195.546 177.916 174.696 173.986 149.216C170.056 123.736 166.846 102.606 166.836 102.276C166.836 101.586 164.846 101.576 157.516 102.226ZM195.816 156.696L206.686 232.946H32.6862L41.2362 172.946C45.9362 139.946 50.8162 105.646 52.0762 96.6861L54.2862 80.4061H184.906L195.816 156.696ZM131.736 16.4061C139.841 18.3982 147.328 22.3617 153.531 27.9443C159.735 33.5269 164.463 40.5558 167.296 48.4061C169.003 53.1206 169.985 58.067 170.206 63.0761V65.9161H69.0462V63.0761C69.12 60.8308 69.364 58.5944 69.7762 56.3861C73.8462 34.9161 90.7762 18.7261 112.686 15.2561C117.396 14.5561 126.516 15.0961 131.736 16.4061ZM112.406 0.826086C109.446 1.1748 106.51 1.70916 103.616 2.42606C90.3402 5.83778 78.4723 13.3359 69.6901 23.8605C60.908 34.3851 55.6559 47.4037 54.6762 61.0761L54.3562 65.6261L51.7062 66.1661C48.864 66.6122 46.2467 67.9788 44.2562 70.0561C40.7462 73.5761 41.4362 69.6961 29.4962 153.196C23.3962 195.856 18.4062 231.996 18.4062 233.496C18.5037 236.266 19.4071 238.948 21.0056 241.213C22.6042 243.477 24.8286 245.227 27.4062 246.246C29.7362 247.146 32.2462 247.166 119.636 247.166C207.026 247.166 209.546 247.166 211.876 246.246C214.455 245.228 216.68 243.479 218.278 241.214C219.877 238.949 220.78 236.267 220.876 233.496C220.876 231.996 215.876 195.856 209.796 153.196C200.916 91.1361 198.506 75.2561 197.716 73.6961C196.661 71.6884 195.158 69.9506 193.323 68.617C191.489 67.2835 189.372 66.3902 187.136 66.0061L184.926 65.6861L184.616 61.1061C183.543 45.7497 177.069 31.2686 166.342 20.2281C155.614 9.18764 141.325 2.30029 126.006 0.786078C121.488 0.243352 116.92 0.263503 112.406 0.846075V0.826086Z" fill="#FF5714"/>
<path fill-rule="evenodd" clip-rule="evenodd" d="M171.516 220.006C171.5 221.663 171.373 223.316 171.136 224.956L170.746 227.276H161.026V217.406H171.516V220.006ZM79.4456 210.406V215.206L74.6556 215.006C72.7945 214.969 70.9375 214.815 69.0956 214.546C68.5756 214.376 68.3156 212.876 68.3156 209.946V205.596H79.4456V210.406ZM134.446 208.336V213.546L131.156 213.956C127.086 214.466 124.846 214.186 124.926 213.176C124.926 212.746 125.036 210.316 125.086 207.766L125.176 203.126H134.446V208.336ZM157.306 201.526C157.306 203.346 157.556 203.696 159.046 204.026C160.816 204.416 167.196 209.556 167.196 210.596C167.196 210.906 164.826 211.166 161.936 211.166H156.686V231.166L161.786 230.766C164.586 230.556 169.036 230.376 171.676 230.366H176.456V225.406C176.456 222.686 176.716 220.456 177.026 220.456C178.026 220.456 182.676 226.286 183.026 228.036C183.336 229.486 183.706 229.736 185.476 229.736H187.566V236.406L184.006 236.796C180.806 237.136 155.716 238.366 151.566 238.376H149.876V231.056C149.876 227.056 150.056 218.256 150.276 211.576L150.686 199.416H157.286L157.306 201.526ZM89.9456 194.406L93.3456 194.806V197.866C93.3456 200.626 93.1857 200.966 91.7957 201.296C91.3615 201.367 90.9603 201.572 90.6483 201.882C90.3363 202.192 90.1291 202.592 90.0556 203.026C89.9456 203.786 88.4956 205.856 86.8356 207.646L83.8356 210.886V208.026C83.8236 206.418 83.6899 204.814 83.4356 203.226L83.0456 201.296H63.3756V210.116C63.3756 214.956 63.6456 219.346 63.9756 219.856C64.4156 220.546 65.5556 220.746 68.5956 220.626C71.6356 220.506 72.5956 220.626 72.5956 221.346C72.5956 222.706 67.0456 227.276 65.4056 227.276C64.4056 227.276 63.9456 227.626 63.9456 228.386C63.9456 230.176 62.6556 230.986 59.8056 230.986H57.1456V222.786C57.1456 218.286 56.8656 210.426 56.5356 205.326C56.2214 201.882 56.1346 198.421 56.2756 194.966C56.5956 193.966 57.8156 193.886 71.5656 193.966C79.8256 193.976 88.0756 194.176 89.9456 194.406ZM146.036 204.406C146.126 211.726 146.036 220.076 145.726 222.956L145.246 228.216H142.156C139.246 228.216 139.056 228.116 138.876 226.506C138.736 225.346 138.326 224.806 137.536 224.806C136.306 224.806 129.536 219.546 129.536 218.596C129.536 218.266 131.616 218.006 134.166 218.006H138.796V198.206H119.796L119.396 199.816C119.173 201.227 119.173 202.665 119.396 204.076C119.626 205.596 119.536 206.876 119.186 207.076C118.266 207.646 113.466 202.546 113.076 200.586C112.984 200.035 112.736 199.521 112.36 199.108C111.983 198.695 111.496 198.399 110.956 198.256C109.346 197.696 109.166 197.356 109.166 194.886V192.146L123.536 191.546C131.436 191.216 139.706 190.976 141.916 191.006L145.916 191.076L146.036 204.406ZM136.286 180.246C136.286 181.096 136.686 181.516 137.506 181.516C139.026 181.516 139.996 183.276 139.996 186.026V188.146L126.656 188.596C119.326 188.846 113.226 188.946 113.096 188.816C112.966 188.686 114.576 187.206 116.656 185.516C120.236 182.616 120.656 182.426 124.816 182.136L129.186 181.826L129.376 178.446C129.666 173.226 130.466 172.806 133.636 176.166C135.096 177.696 136.286 179.536 136.286 180.236V180.246ZM90.7156 168.916L93.0356 169.296V179.086L87.9356 178.906L82.8356 178.726L82.6556 174.456C82.5268 172.756 82.5703 171.047 82.7856 169.356C83.1356 168.456 86.7256 168.256 90.7156 168.916ZM127.176 154.696L129.496 155.076V164.976L124.956 164.676C123.184 164.632 121.422 164.387 119.706 163.946C118.936 163.466 118.706 155.436 119.396 154.706C119.916 154.196 124.106 154.186 127.176 154.696ZM101.966 153.826C102.376 155.666 103.536 178.976 103.536 185.256V190.166H96.5856C92.7656 190.166 84.0056 189.976 77.1256 189.756L64.6156 189.406V182.866L66.8956 182.676C68.8456 182.516 69.2456 182.216 69.6556 180.626C69.9156 179.626 71.5256 177.386 73.2456 175.706L76.3556 172.636V183.406H96.1256V179.166C96.1256 176.836 95.9456 172.386 95.7256 169.276L95.3256 163.616H85.3256L88.3956 160.476C90.0856 158.756 92.2256 157.196 93.1556 157.006C94.5056 156.726 94.8557 156.306 94.8557 155.006C94.8557 152.746 95.2156 152.506 98.6556 152.506C101.266 152.406 101.706 152.626 101.966 153.826ZM66.7956 150.626L69.8656 153.766L66.2856 157.126C65.0464 158.406 63.6562 159.531 62.1456 160.476C60.6476 159.554 59.2703 158.449 58.0456 157.186L54.5156 153.896L58.3556 150.696C60.4756 148.936 62.5456 147.496 62.9656 147.496C63.3856 147.496 65.1156 148.906 66.7956 150.626ZM137.676 143.776H144.316V146.926C144.316 149.846 144.186 150.126 142.486 150.766C141.937 150.974 141.438 151.295 141.02 151.706C140.602 152.117 140.273 152.611 140.056 153.156C139.436 154.936 134.656 160.476 133.736 160.476C133.446 160.476 133.196 158.256 133.196 155.536V150.586H113.606L113.906 159.706C114.096 165.406 114.466 168.996 114.906 169.286C116.391 169.667 117.924 169.822 119.456 169.746C121.586 169.746 123.326 169.986 123.326 170.266C123.326 171.346 117.806 176.466 116.426 176.666C115.296 176.826 114.936 177.306 114.786 178.876C114.596 180.876 114.576 180.876 111.236 180.876C109.386 180.876 107.866 180.666 107.866 180.416C107.866 180.166 107.446 174.106 106.956 166.966C106.466 159.826 106.046 151.496 106.036 148.466V142.956L118.516 143.406C125.406 143.596 134.026 143.776 137.676 143.776ZM70.0656 136.956C75.8356 142.046 82.0656 147.646 83.8156 149.396L87.0756 152.576L81.8456 157.576C78.9756 160.346 72.7056 166.286 67.9256 170.776L59.2256 178.926L57.2856 176.926C55.2156 174.786 54.8856 173.526 56.1056 172.306C56.6956 171.706 56.6756 171.256 55.9956 170.176C54.9956 168.636 54.2656 159.826 55.0856 159.826C56.5564 160.787 57.9004 161.929 59.0856 163.226L62.5156 166.626L69.5156 159.626L76.5156 152.626L69.9456 146.506C66.3256 143.136 63.1356 140.296 62.8456 140.196C62.5556 140.096 60.8456 141.326 59.0156 142.936L55.7256 145.866L55.2856 143.436C54.8156 140.746 55.2856 137.156 56.0956 136.626C56.9056 136.096 56.7256 134.386 55.6056 133.146C54.6056 132.066 54.6856 131.886 56.6556 129.856C57.3744 129.002 58.2293 128.272 59.1856 127.696C59.3856 127.696 64.3056 131.866 70.0656 136.956ZM81.3656 129.166C82.59 127.922 83.8855 126.75 85.2456 125.656L87.6556 123.736L87.3456 128.056C87.2817 129.982 86.8999 131.884 86.2156 133.686C85.5156 134.806 85.5556 135.246 86.4956 136.686C87.5856 138.346 87.5756 138.366 85.5556 140.456C84.8426 141.296 83.9901 142.006 83.0356 142.556C82.5256 142.556 73.7456 134.876 65.5356 127.236L60.5956 122.646L63.3056 120.226L66.0056 117.816L72.9456 124.286L79.8856 130.766L81.3656 129.166ZM142.546 118.166C143.546 118.446 144.316 120.896 144.316 123.996C144.316 127.446 143.966 127.676 138.756 127.676C133.146 127.676 133.196 127.746 133.196 121.396V117.066L137.366 117.476C139.093 117.623 140.812 117.86 142.516 118.186L142.546 118.166ZM81.7356 114.166C83.5356 115.946 85.0056 117.716 85.0056 118.116C85.0056 118.876 78.6656 124.546 77.8156 124.546C76.9656 124.546 71.4056 118.826 71.4056 118.096C71.4056 117.366 77.5756 110.946 78.1656 110.946C79.4451 111.938 80.6393 113.035 81.7356 114.226V114.166ZM180.156 108.466V113.416H170.276V103.516H180.156V108.466ZM192.516 103.136C192.516 103.576 191.126 105.306 189.426 106.986L186.336 109.986V102.306H189.426C191.516 102.346 192.516 102.596 192.516 103.136ZM167.046 110.846L167.216 119.046H177.326L174.576 121.846C173.28 123.244 171.711 124.36 169.966 125.126C168.456 125.516 168.076 125.976 167.916 127.586C167.726 129.536 167.686 129.586 164.406 129.586H161.096L160.746 126.336C160.136 120.726 159.146 107.336 159.146 104.786V102.316L163.016 102.496L166.876 102.686L167.046 110.846ZM155.856 113.476C156.806 127.686 156.856 138.636 156.016 139.176C155.486 139.496 119.016 138.316 118.556 137.956C118.572 136.902 118.675 135.852 118.866 134.816C119.236 132.276 119.546 131.716 120.806 131.416C121.318 131.288 121.78 131.012 122.136 130.623C122.492 130.233 122.725 129.747 122.806 129.226C123.066 128.226 124.676 126.006 126.386 124.316L129.506 121.256V132.026H149.276V127.176C149.276 124.506 149.096 120.176 148.876 117.636L148.486 112.946L143.936 112.516L139.396 112.096L141.396 109.586C142.572 108.148 144.046 106.981 145.716 106.166C147.136 105.616 148.056 104.836 148.056 104.166C148.056 102.526 148.726 102.236 152.056 102.426L155.176 102.616L155.856 113.476ZM87.3356 105.716C87.5056 108.356 87.3856 110.386 87.0656 110.386C85.7514 109.564 84.5654 108.553 83.5456 107.386L80.5456 104.386L83.2156 102.166C84.7956 100.856 86.1156 100.166 86.4456 100.496C86.7756 100.826 87.1756 103.146 87.3356 105.716Z" fill="white"/>
</svg>