<svg width="532" height="444" viewBox="0 0 532 444" fill="none" xmlns="http://www.w3.org/2000/svg">
<path d="M358.431 131.253H171.461V233.713H358.431V131.253Z" fill="#FF5714"/>
<path d="M160.229 79.9636C160.638 74.589 163.061 69.5669 167.014 65.9029C170.968 62.2389 176.159 60.2032 181.549 60.2036H351.999C357.402 60.202 362.606 62.2463 366.563 65.9251C370.52 69.604 372.937 74.6448 373.329 80.0336L385.509 247.434C385.722 250.365 385.329 253.309 384.353 256.082C383.378 258.855 381.841 261.396 379.84 263.549C377.839 265.701 375.415 267.418 372.72 268.593C370.026 269.767 367.118 270.373 364.179 270.374H168.779C165.835 270.372 162.923 269.763 160.226 268.585C157.528 267.406 155.103 265.684 153.101 263.525C151.1 261.366 149.566 258.817 148.595 256.038C147.624 253.259 147.238 250.309 147.459 247.374L160.229 79.9636Z" fill="black"/>
<path fill-rule="evenodd" clip-rule="evenodd" d="M304.7 102.253C303.023 102.354 301.354 102.551 299.7 102.843C299.52 103.023 313.87 196.843 314.1 196.983C314.33 197.123 327.9 196.053 328.1 195.813C328.3 195.573 325.1 174.723 321.17 149.243C317.24 123.763 314.03 102.633 314.02 102.303C314.02 101.613 312.03 101.603 304.7 102.253ZM343 156.723L353.87 232.973H179.87L188.42 172.973C193.12 139.973 198 105.673 199.26 96.7134L201.47 80.4334H332.09L343 156.723ZM278.92 16.4334C287.024 18.4255 294.511 22.389 300.715 27.9717C306.919 33.5543 311.647 40.5831 314.48 48.4334C316.187 53.1479 317.168 58.0943 317.39 63.1034V65.9434H216.23V63.1034C216.304 60.8582 216.548 58.6217 216.96 56.4134C221.03 34.9434 237.96 18.7534 259.87 15.2834C264.58 14.5834 273.7 15.1234 278.92 16.4334ZM259.59 0.85343C256.629 1.20214 253.693 1.73651 250.8 2.45341C237.524 5.86512 225.656 13.3633 216.874 23.8879C208.092 34.4124 202.839 47.4311 201.86 61.1034L201.54 65.6534L198.89 66.1934C196.048 66.6395 193.43 68.0061 191.44 70.0834C187.93 73.6034 188.62 69.7234 176.68 153.223C170.58 195.883 165.59 232.023 165.59 233.523C165.687 236.294 166.591 238.975 168.189 241.24C169.788 243.505 172.012 245.254 174.59 246.273C176.92 247.173 179.43 247.193 266.82 247.193C354.21 247.193 356.73 247.193 359.06 246.273C361.638 245.255 363.863 243.506 365.462 241.241C367.061 238.976 367.964 236.294 368.06 233.523C368.06 232.023 363.06 195.883 356.98 153.223C348.1 91.1634 345.69 75.2834 344.9 73.7234C343.845 71.7158 342.341 69.9779 340.507 68.6444C338.672 67.3109 336.555 66.4175 334.32 66.0334L332.11 65.7134L331.8 61.1334C330.727 45.777 324.253 31.296 313.525 20.2555C302.798 9.21498 288.509 2.32764 273.19 0.813421C268.671 0.270696 264.103 0.290847 259.59 0.873419V0.85343Z" fill="black"/>
<path fill-rule="evenodd" clip-rule="evenodd" d="M318.699 220.034C318.684 221.69 318.557 223.344 318.319 224.984L317.929 227.304H308.209V217.434H318.699V220.034ZM226.629 210.434V215.234L221.839 215.034C219.978 214.997 218.121 214.843 216.279 214.574C215.759 214.404 215.499 212.904 215.499 209.974V205.624H226.629V210.434ZM281.629 208.364V213.574L278.339 213.984C274.269 214.494 272.029 214.214 272.109 213.204C272.109 212.774 272.219 210.344 272.269 207.794L272.359 203.154H281.629V208.364ZM304.489 201.554C304.489 203.374 304.739 203.724 306.229 204.054C307.999 204.444 314.379 209.584 314.379 210.624C314.379 210.934 312.009 211.194 309.119 211.194H303.869V231.194L308.969 230.794C311.769 230.584 316.219 230.404 318.859 230.394H323.639V225.434C323.639 222.714 323.899 220.484 324.209 220.484C325.209 220.484 329.859 226.314 330.209 228.064C330.519 229.514 330.889 229.764 332.659 229.764H334.749V236.434L331.189 236.824C327.989 237.164 302.899 238.394 298.749 238.404H297.059V231.084C297.059 227.084 297.239 218.284 297.459 211.604L297.869 199.444H304.469L304.489 201.554ZM237.129 194.434L240.529 194.834V197.894C240.529 200.654 240.369 200.994 238.979 201.324C238.545 201.395 238.144 201.6 237.832 201.91C237.52 202.22 237.313 202.62 237.239 203.054C237.129 203.814 235.679 205.884 234.019 207.674L231.019 210.914V208.054C231.007 206.446 230.873 204.841 230.619 203.254L230.229 201.324H210.559V210.144C210.559 214.984 210.829 219.374 211.159 219.884C211.599 220.574 212.739 220.774 215.779 220.654C218.819 220.534 219.779 220.654 219.779 221.374C219.779 222.734 214.229 227.304 212.589 227.304C211.589 227.304 211.129 227.654 211.129 228.414C211.129 230.204 209.839 231.014 206.989 231.014H204.329V222.814C204.329 218.314 204.049 210.454 203.719 205.354C203.405 201.91 203.318 198.449 203.459 194.994C203.779 193.994 204.999 193.914 218.749 193.994C227.009 194.004 235.259 194.204 237.129 194.434ZM293.219 204.434C293.309 211.754 293.219 220.104 292.909 222.984L292.429 228.244H289.339C286.429 228.244 286.239 228.144 286.059 226.534C285.919 225.374 285.509 224.834 284.719 224.834C283.489 224.834 276.719 219.574 276.719 218.624C276.719 218.294 278.799 218.034 281.349 218.034H285.979V198.234H266.979L266.579 199.844C266.356 201.255 266.356 202.693 266.579 204.104C266.809 205.624 266.719 206.904 266.369 207.104C265.449 207.674 260.649 202.574 260.259 200.614C260.168 200.062 259.919 199.549 259.543 199.136C259.167 198.722 258.68 198.427 258.139 198.284C256.529 197.724 256.349 197.384 256.349 194.914V192.174L270.719 191.574C278.619 191.244 286.889 191.004 289.099 191.034L293.099 191.104L293.219 204.434ZM283.469 180.274C283.469 181.124 283.869 181.544 284.689 181.544C286.209 181.544 287.179 183.304 287.179 186.054V188.174L273.839 188.624C266.509 188.874 260.409 188.974 260.279 188.844C260.149 188.714 261.759 187.234 263.839 185.544C267.419 182.644 267.839 182.454 271.999 182.164L276.369 181.854L276.559 178.474C276.849 173.254 277.649 172.834 280.819 176.194C282.279 177.724 283.469 179.564 283.469 180.264V180.274ZM237.899 168.944L240.219 169.324V179.114L235.119 178.934L230.019 178.754L229.839 174.484C229.71 172.784 229.754 171.075 229.969 169.384C230.319 168.484 233.909 168.284 237.899 168.944ZM274.359 154.724L276.679 155.104V165.004L272.139 164.704C270.367 164.66 268.606 164.415 266.889 163.974C266.119 163.494 265.889 155.464 266.579 154.734C267.099 154.224 271.289 154.214 274.359 154.724ZM249.149 153.854C249.559 155.694 250.719 179.004 250.719 185.284V190.194H243.769C239.949 190.194 231.189 190.004 224.309 189.784L211.799 189.434V182.894L214.079 182.704C216.029 182.544 216.429 182.244 216.839 180.654C217.099 179.654 218.709 177.414 220.429 175.734L223.539 172.664V183.434H243.309V179.194C243.309 176.864 243.129 172.414 242.909 169.304L242.509 163.644H232.509L235.579 160.504C237.269 158.784 239.409 157.224 240.339 157.034C241.689 156.754 242.039 156.334 242.039 155.034C242.039 152.774 242.399 152.534 245.839 152.534C248.449 152.434 248.889 152.654 249.149 153.854ZM213.979 150.654L217.049 153.794L213.469 157.154C212.23 158.434 210.84 159.559 209.329 160.504C207.831 159.582 206.454 158.476 205.229 157.214L201.699 153.924L205.539 150.724C207.659 148.964 209.729 147.524 210.149 147.524C210.569 147.524 212.299 148.934 213.979 150.654ZM284.859 143.804H291.499V146.954C291.499 149.874 291.369 150.154 289.669 150.794C289.121 151.002 288.622 151.322 288.203 151.734C287.785 152.145 287.457 152.639 287.239 153.184C286.619 154.964 281.839 160.504 280.919 160.504C280.629 160.504 280.379 158.284 280.379 155.564V150.614H260.789L261.089 159.734C261.279 165.434 261.649 169.024 262.089 169.314C263.574 169.695 265.108 169.85 266.639 169.774C268.769 169.774 270.509 170.014 270.509 170.294C270.509 171.374 264.989 176.494 263.609 176.694C262.479 176.854 262.119 177.334 261.969 178.904C261.779 180.904 261.759 180.904 258.419 180.904C256.569 180.904 255.049 180.694 255.049 180.444C255.049 180.194 254.629 174.134 254.139 166.994C253.649 159.854 253.229 151.524 253.219 148.494V142.984L265.699 143.434C272.589 143.624 281.209 143.804 284.859 143.804ZM217.249 136.984C223.019 142.074 229.249 147.674 230.999 149.424L234.259 152.604L229.029 157.604C226.159 160.374 219.889 166.314 215.109 170.804L206.409 178.954L204.469 176.954C202.399 174.814 202.069 173.554 203.289 172.334C203.879 171.734 203.859 171.284 203.179 170.204C202.179 168.664 201.449 159.854 202.269 159.854C203.74 160.815 205.084 161.957 206.269 163.254L209.699 166.654L216.699 159.654L223.699 152.654L217.129 146.534C213.509 143.164 210.319 140.324 210.029 140.224C209.739 140.124 208.029 141.354 206.199 142.964L202.909 145.894L202.469 143.464C201.999 140.774 202.469 137.184 203.279 136.654C204.089 136.124 203.909 134.414 202.789 133.174C201.789 132.094 201.869 131.914 203.839 129.884C204.558 129.03 205.413 128.3 206.369 127.724C206.569 127.724 211.489 131.894 217.249 136.984ZM228.549 129.194C229.774 127.95 231.069 126.778 232.429 125.684L234.839 123.764L234.529 128.084C234.465 130.01 234.083 131.912 233.399 133.714C232.699 134.834 232.739 135.274 233.679 136.714C234.769 138.374 234.759 138.394 232.739 140.484C232.026 141.323 231.174 142.034 230.219 142.584C229.709 142.584 220.929 134.904 212.719 127.264L207.779 122.674L210.489 120.254L213.189 117.844L220.129 124.314L227.069 130.794L228.549 129.194ZM289.729 118.194C290.729 118.474 291.499 120.924 291.499 124.024C291.499 127.474 291.149 127.704 285.939 127.704C280.329 127.704 280.379 127.774 280.379 121.424V117.094L284.549 117.504C286.277 117.651 287.996 117.888 289.699 118.214L289.729 118.194ZM228.919 114.194C230.719 115.974 232.189 117.744 232.189 118.144C232.189 118.904 225.849 124.574 224.999 124.574C224.149 124.574 218.589 118.854 218.589 118.124C218.589 117.394 224.759 110.974 225.349 110.974C226.629 111.966 227.823 113.063 228.919 114.254V114.194ZM327.339 108.494V113.444H317.459V103.544H327.339V108.494ZM339.699 103.164C339.699 103.604 338.309 105.334 336.609 107.014L333.519 110.014V102.334H336.609C338.699 102.374 339.699 102.624 339.699 103.164ZM314.229 110.874L314.399 119.074H324.509L321.759 121.874C320.464 123.272 318.895 124.388 317.149 125.154C315.639 125.544 315.259 126.004 315.099 127.614C314.909 129.564 314.869 129.614 311.589 129.614H308.279L307.929 126.364C307.319 120.754 306.329 107.364 306.329 104.814V102.344L310.199 102.524L314.059 102.714L314.229 110.874ZM303.039 113.504C303.989 127.714 304.039 138.664 303.199 139.204C302.669 139.524 266.199 138.344 265.739 137.984C265.755 136.93 265.859 135.88 266.049 134.844C266.419 132.304 266.729 131.744 267.989 131.444C268.501 131.316 268.964 131.04 269.32 130.651C269.676 130.261 269.908 129.775 269.989 129.254C270.249 128.254 271.859 126.034 273.569 124.344L276.689 121.284V132.054H296.459V127.204C296.459 124.534 296.279 120.204 296.059 117.664L295.669 112.974L291.119 112.544L286.579 112.124L288.579 109.614C289.756 108.176 291.23 107.009 292.899 106.194C294.319 105.644 295.239 104.864 295.239 104.194C295.239 102.554 295.909 102.264 299.239 102.454L302.359 102.644L303.039 113.504ZM234.519 105.744C234.689 108.384 234.569 110.414 234.249 110.414C232.935 109.592 231.749 108.581 230.729 107.414L227.729 104.414L230.399 102.194C231.979 100.884 233.299 100.194 233.629 100.524C233.959 100.854 234.359 103.174 234.519 105.744Z" fill="white"/>
<path fill-rule="evenodd" clip-rule="evenodd" d="M233.691 332.434C245.381 339.904 245.311 341.704 233.151 347.094C223.841 351.214 221.961 351.534 220.981 349.154C219.911 346.554 220.201 333.614 221.391 330.694C222.921 326.914 225.711 327.304 233.691 332.434ZM371.261 310.124C367.191 311.644 365.011 321.914 363.311 347.684C360.391 391.814 360.901 410.504 365.171 415.684C366.941 417.834 379.561 423.384 409.781 435.294C414.961 437.294 421.201 439.044 423.631 439.084L428.061 439.174L429.351 433.104C434.701 407.854 436.731 336.304 432.461 323.104C429.801 314.844 420.231 308.234 418.181 313.224C417.091 315.864 415.181 395.594 415.951 405.584C416.821 416.794 415.531 420.584 411.171 419.584C406.171 418.414 392.021 411.994 383.381 406.974L375.241 402.234L376.071 396.944C377.261 389.334 377.071 319.024 375.841 314.184C374.801 310.024 373.811 309.144 371.261 310.094V310.124ZM324.491 313.304C323.831 315.444 323.041 329.514 322.721 344.584C322.401 359.654 321.911 373.374 321.631 375.084C321.251 377.354 319.181 379.684 313.841 383.814C305.161 390.534 302.931 393.914 304.551 397.914C305.631 400.554 305.991 400.664 311.481 400.174C322.901 399.174 322.851 401.464 311.201 413.374C300.731 424.064 296.981 430.374 298.821 434.094C301.407 439.427 308.631 436.094 320.491 424.094C333.491 410.954 334.981 403.664 334.111 356.964C333.551 326.654 332.331 313.564 329.811 310.734C327.701 308.364 325.701 309.314 324.491 313.274V313.304ZM209.211 311.304L206.461 313.384L206.111 357.674C205.691 411.184 206.711 433.424 209.731 436.544C212.421 439.324 215.471 439.234 217.151 436.334C217.891 435.054 219.091 428.034 219.821 420.734C221.391 405.004 222.251 403.544 228.491 405.984C233.761 408.452 238.901 411.189 243.891 414.184C259.071 423.064 264.231 425.404 267.761 425.024C270.411 424.744 270.761 424.224 271.071 420.174C271.401 415.884 271.071 415.354 265.401 410.174C262.101 407.174 253.211 401.344 245.671 397.174C226.771 386.794 220.341 381.514 220.321 376.354C220.321 375.214 226.731 370.544 238.321 363.274C256.491 351.884 265.991 344.884 267.991 341.434C269.761 338.354 264.781 334.024 248.801 324.764C224.111 310.434 214.591 307.214 209.211 311.274V311.304ZM98.6807 310.124C93.6807 311.994 91.5607 325.614 89.5307 369.394C88.2707 396.764 89.2407 411.574 92.5307 415.744C93.6307 417.114 97.0107 419.144 100.051 420.244C103.091 421.344 113.801 425.694 123.861 429.884C142.911 437.884 151.171 440.454 154.001 439.444C160.521 437.104 165.381 340.514 159.851 323.134C157.011 314.224 146.911 307.634 145.551 313.824C144.461 318.824 143.801 341.624 143.721 377.554C143.721 398.244 143.171 416.314 142.591 417.724C141.731 419.844 141.051 420.164 138.521 419.604C133.491 418.434 111.431 407.894 106.911 404.434C102.831 401.274 102.691 400.954 103.341 396.384C105.421 381.944 105.951 363.834 104.951 341.484C103.601 311.124 103.061 308.434 98.6807 310.094V310.124ZM55.5507 311.394C53.5211 312.701 51.2376 313.563 48.8507 313.924C44.7207 314.534 40.0707 317.294 27.0807 326.824C19.4707 332.414 16.3607 332.384 15.0807 326.714C13.1907 318.184 7.92069 312.774 4.55069 315.914C2.47069 317.864 0.980703 341.514 0.970703 373.014C0.970703 397.354 2.5107 431.854 3.7507 434.874C4.8307 437.514 9.62069 436.674 12.2407 433.384C14.0207 431.154 14.5407 428.054 15.2407 415.294C16.2407 398.774 17.4207 393.844 20.4507 394.394C21.4507 394.574 25.6907 399.754 29.8307 405.894C33.9707 412.034 40.9907 421.434 45.2807 426.804C51.9607 435.094 53.6207 436.564 56.2807 436.564C60.4107 436.564 61.0107 434.664 58.9507 428.074C56.6107 420.614 49.5007 408.304 37.7107 391.354C24.3507 372.144 24.8707 373.244 27.7107 369.924C28.9907 368.404 34.0907 364.524 39.0407 361.304C51.9007 352.934 61.0407 344.424 60.6107 341.304C59.7807 335.874 52.8807 338.194 32.4307 350.764C20.1907 358.294 18.8807 358.764 16.6907 356.764C12.9807 353.304 17.3207 348.944 37.1807 336.164C53.1807 325.874 61.9007 318.294 61.9007 314.674C61.9007 312.144 60.1607 309.364 58.6307 309.444C57.5144 309.927 56.4763 310.574 55.5507 311.364V311.394Z" fill="black"/>
<path d="M517.49 341.693C519.42 340.693 517.97 336.373 517.49 332.983C516.85 327.263 515.96 315.093 517.49 312.193C519.42 308.563 528.07 312.193 528.55 314.123C529.03 316.053 529.99 339.273 529.99 343.873V370.953C529.99 374.583 530.47 394.653 529.99 396.103C529.51 397.553 531.2 428.513 531.92 435.523C532.64 442.533 527.83 443.993 524.92 443.263C522.01 442.533 519.87 437.943 519.15 435.523C518.43 433.103 518.67 405.053 519.15 396.103C519.63 387.153 518.15 385.953 513.86 381.593C509.57 377.233 497.27 366.843 487.86 359.593C478.45 352.343 480.64 363.703 480.4 365.593C480.16 367.483 480.88 384.213 481.4 389.053C481.92 393.893 481.65 439.113 479.24 441.293C476.83 443.473 470.591 434.763 469.391 431.373C468.191 427.983 467.99 404.573 467.99 401.913C467.99 399.253 465.59 391.513 467.99 386.913C470.39 382.313 467.51 315.093 467.99 312.193C468.47 309.293 474.721 309.283 477.131 309.533C479.541 309.783 481.451 313.403 484.581 315.813C487.711 318.223 504.291 332.983 508.581 337.343C512.871 341.703 515.57 342.663 517.49 341.693Z" fill="black"/>
<path d="M484.761 346.434C481.551 345.694 482.29 343.434 482.29 338.804C482.46 337.074 483.181 333.284 484.761 331.904C486.761 330.184 488.971 334.124 490.941 335.844C492.911 337.564 500.58 345.694 503.8 347.674C507.02 349.654 515.661 358.504 517.141 361.214C518.621 363.924 516.4 363.684 514.92 364.664C513.44 365.644 511.92 364.174 510.22 362.204C508.52 360.234 497.621 351.854 496.631 350.874C495.641 349.894 487.991 347.144 484.761 346.434Z" fill="white"/>
<path d="M484.44 331.494C483.496 332.489 482.834 333.718 482.52 335.054C482.168 336.253 481.924 337.481 481.79 338.724L482.79 338.824C482.913 337.642 483.144 336.473 483.48 335.334C483.745 334.186 484.299 333.126 485.09 332.254L484.44 331.494ZM491.27 335.494C490.754 335.006 490.263 334.492 489.8 333.954C489.28 333.374 488.74 332.754 488.2 332.234C487.701 331.728 487.097 331.339 486.43 331.094C486.087 330.981 485.72 330.964 485.368 331.043C485.016 331.122 484.692 331.295 484.43 331.544L485.08 332.304C485.208 332.175 485.369 332.084 485.545 332.04C485.722 331.996 485.906 332.001 486.08 332.054C486.6 332.249 487.068 332.561 487.45 332.964C487.96 333.444 488.45 334.024 488.99 334.614C489.477 335.188 489.998 335.732 490.55 336.244L491.27 335.494ZM504.06 347.264C501.628 345.481 499.353 343.494 497.26 341.324C494.71 338.854 492.26 336.324 491.26 335.494L490.6 336.244C491.6 337.094 493.96 339.524 496.6 342.044C498.754 344.265 501.096 346.296 503.6 348.114L504.06 347.264ZM517.58 360.994C516.899 359.904 516.122 358.877 515.26 357.924C514.19 356.674 512.86 355.244 511.48 353.834C509.219 351.415 506.735 349.215 504.06 347.264L503.54 348.114C506.139 350.027 508.556 352.176 510.76 354.534C512.13 355.934 513.44 357.344 514.51 358.584C515.324 359.483 516.06 360.45 516.71 361.474L517.58 360.994ZM515.2 365.104C515.543 364.888 515.908 364.71 516.29 364.574C516.693 364.43 517.079 364.242 517.44 364.014C517.638 363.879 517.803 363.7 517.923 363.493C518.042 363.285 518.113 363.053 518.13 362.814C518.119 362.168 517.928 361.538 517.58 360.994L516.71 361.474C516.961 361.852 517.106 362.29 517.13 362.744C517.125 362.837 517.097 362.929 517.048 363.009C516.999 363.089 516.931 363.156 516.85 363.204C516.557 363.383 516.245 363.531 515.92 363.644C515.476 363.811 515.047 364.019 514.64 364.264L515.2 365.104ZM509.85 362.554C510.588 363.47 511.442 364.287 512.39 364.984C512.8 365.26 513.269 365.435 513.76 365.494C514.271 365.531 514.778 365.394 515.2 365.104L514.64 364.264C514.409 364.433 514.126 364.514 513.84 364.494C513.513 364.452 513.201 364.332 512.93 364.144C512.061 363.495 511.279 362.739 510.6 361.894L509.85 362.554ZM496.28 351.244C496.55 351.514 497.44 352.244 498.61 353.244C499.78 354.244 501.29 355.374 502.83 356.624C504.37 357.874 505.91 359.114 507.19 360.194C508.12 360.948 509.008 361.752 509.85 362.604L510.6 361.944C509.728 361.049 508.804 360.207 507.83 359.424C506.55 358.344 504.99 357.084 503.46 355.844L499.24 352.464C498.04 351.464 497.24 350.814 496.98 350.584L496.28 351.244ZM484.65 346.944C486.923 347.526 489.163 348.23 491.36 349.054C492.57 349.494 493.71 349.944 494.61 350.344C495.05 350.544 495.43 350.724 495.73 350.884C495.926 350.984 496.11 351.105 496.28 351.244L496.98 350.534C496.745 350.331 496.486 350.156 496.21 350.014C495.88 349.834 495.47 349.634 495.01 349.434C494.09 349.024 492.93 348.564 491.7 348.114C489.468 347.276 487.191 346.561 484.88 345.974L484.65 346.944ZM481.79 338.824C481.79 339.984 481.79 340.984 481.73 341.824C481.689 342.602 481.722 343.382 481.83 344.154C481.918 344.814 482.212 345.43 482.67 345.914C483.228 346.43 483.922 346.777 484.67 346.914L484.9 345.914C484.342 345.82 483.822 345.57 483.4 345.194C483.086 344.859 482.889 344.43 482.84 343.974C482.743 343.265 482.713 342.548 482.75 341.834C482.75 340.974 482.81 339.934 482.81 338.764L481.79 338.824ZM482.29 338.804L481.79 338.754V338.804H482.29Z" fill="white"/>
</svg>
