<svg width="22" height="27" viewBox="0 0 22 27" fill="none" xmlns="http://www.w3.org/2000/svg">
<path d="M5.48518 25.8828C4.97257 25.5417 4.51825 25.1203 4.13968 24.6348C3.72326 24.1336 3.33744 23.6078 2.98431 23.0602C2.15562 21.8461 1.50575 20.5193 1.05462 19.1203C0.512682 17.4953 0.250244 15.9378 0.250244 14.4143C0.250244 12.713 0.618307 11.2277 1.33818 9.97972C1.87181 9.00426 2.65639 8.18911 3.61074 7.61859C4.53562 7.04413 5.59831 6.72976 6.68687 6.70859C7.06793 6.70859 7.47824 6.76384 7.91374 6.86947C8.22656 6.95803 8.60762 7.09778 9.07318 7.27165C9.66549 7.49997 9.99131 7.63972 10.1018 7.67384C10.4487 7.80059 10.7404 7.85584 10.9696 7.85584C11.1434 7.85584 11.3888 7.80059 11.6675 7.71609C11.8243 7.66084 12.1201 7.56334 12.5434 7.38215C12.9626 7.2294 13.2925 7.09859 13.5549 7.00109C13.9571 6.88246 14.3463 6.77278 14.6932 6.71753C15.1045 6.65268 15.5219 6.63551 15.9372 6.66634C16.6567 6.71337 17.3655 6.86585 18.0407 7.1189C19.1449 7.56334 20.0379 8.25722 20.7025 9.24359C20.4216 9.41673 20.1579 9.61644 19.9152 9.83996C19.3867 10.3084 18.9366 10.8584 18.5819 11.469C18.1182 12.3035 17.8778 13.2436 17.8839 14.1982C17.901 15.3707 18.2016 16.4033 18.7939 17.2963C19.2294 17.9581 19.7953 18.524 20.4571 18.9595C20.7959 19.1878 21.0876 19.3446 21.3671 19.4502C21.2363 19.8565 21.0966 20.2497 20.9316 20.6397C20.5575 21.5143 20.1042 22.3528 19.5772 23.1447C19.1076 23.8263 18.7395 24.3342 18.46 24.6722C18.0245 25.1881 17.6052 25.5822 17.1819 25.8568C16.7164 26.1655 16.1663 26.3305 15.6073 26.3305C15.2287 26.345 14.8502 26.2992 14.4861 26.1948C14.1732 26.0892 13.8637 25.9746 13.559 25.8438C13.2422 25.6983 12.9156 25.5753 12.5816 25.4757C11.7558 25.2636 10.89 25.2622 10.0636 25.4717C9.7248 25.5692 9.39899 25.6829 9.07724 25.8227C8.62468 26.0128 8.32406 26.1403 8.15018 26.1948C7.80324 26.2963 7.44331 26.3597 7.07931 26.3808C6.51624 26.3808 5.99137 26.22 5.47137 25.8942L5.48518 25.8828ZM12.9114 5.88309C12.1753 6.25115 11.4725 6.40796 10.7746 6.35678C10.6649 5.65396 10.7746 4.9349 11.0662 4.14759C11.3146 3.48058 11.6815 2.86399 12.1493 2.32759C12.6433 1.76292 13.2428 1.30008 13.9141 0.965027C14.6291 0.596965 15.3107 0.397902 15.9624 0.368652C16.0469 1.10478 15.9624 1.82871 15.6918 2.61115C15.4414 3.30282 15.0752 3.94684 14.6087 4.51565C14.1327 5.0811 13.5484 5.54573 12.8903 5.88228L12.9114 5.88309Z" fill="black"/>
</svg>
