<svg width="127" height="201" viewBox="0 0 127 201" fill="none" xmlns="http://www.w3.org/2000/svg">
<path d="M82.5531 85.4706C82.5531 87.2243 81.1315 88.6444 79.3779 88.6444C77.6243 88.6444 76.2041 87.2242 76.2041 85.4706C76.2041 83.717 77.6243 82.2954 79.3779 82.2954C81.1316 82.2954 82.5531 83.717 82.5531 85.4706Z" fill="#FF5714"/>
<path d="M50.8061 85.4706C50.8061 87.2243 49.3845 88.6444 47.6322 88.6444C45.8786 88.6444 44.457 87.2242 44.457 85.4706C44.457 83.717 45.8786 82.2954 47.6322 82.2954C49.3845 82.2954 50.8061 83.717 50.8061 85.4706Z" fill="#FF5714"/>
<path d="M76.6091 70.4126C76.6509 70.4056 80.7984 69.7276 83.667 71.7463C83.9446 71.9416 84.2641 72.0351 84.5794 72.0351C85.0788 72.0351 85.5698 71.8007 85.8796 71.3612C86.3846 70.6442 86.2116 69.6537 85.4945 69.15C81.5324 66.3626 76.2842 67.2471 76.0638 67.2862C75.2016 67.4382 74.6283 68.2586 74.7775 69.1207C74.9254 69.9815 75.7469 70.5618 76.6091 70.4126Z" fill="#FF5714"/>
<path d="M50.9454 67.2885C50.7236 67.2495 45.4769 66.365 41.5147 69.1538C40.7976 69.6588 40.626 70.6493 41.1297 71.365C41.4394 71.8045 41.9305 72.0388 42.4299 72.0388C42.7452 72.0388 43.0646 71.9453 43.3423 71.75C46.205 69.7355 50.3416 70.4066 50.3987 70.4163C51.2581 70.5656 52.0812 69.9908 52.2332 69.1272C52.3853 68.2637 51.809 67.4406 50.9454 67.2885Z" fill="#FF5714"/>
<path d="M58.3093 94.2587C60.0322 94.7456 61.7803 94.9939 63.5032 94.9939C65.2262 94.9939 66.9742 94.747 68.6972 94.2587C69.5398 94.0201 70.0309 93.1426 69.7923 92.2986C69.5537 91.4545 68.6762 90.9635 67.8322 91.2034C64.9485 92.0196 62.0579 92.0196 59.1729 91.2034C58.3316 90.9649 57.4528 91.456 57.2142 92.2986C56.9742 93.1426 57.4653 94.0201 58.3093 94.2587Z" fill="#FF5714"/>
<path d="M105.049 161.527C104.473 144.478 80.1312 138.493 74.6122 137.355V132.625C84.6151 128.984 92.814 121.174 96.6058 114.855C97.5168 113.333 98.3804 111.472 99.1811 109.315C103.804 109.223 108.298 105.716 110.191 100.529C112.54 94.0948 110.222 87.1194 105.031 84.6444C107.825 80.4466 109.258 75.8944 109.364 70.8316C109.905 70.9557 110.461 71.0199 111.017 71.0199C111.731 71.0199 112.451 70.9167 113.156 70.7074C115.332 70.0601 117.08 68.485 117.948 66.3853L125.151 48.9524C128.51 40.8203 125.279 31.4288 117.635 27.1038C115.437 25.8594 113.127 24.6708 110.763 23.5603C110.004 21.8722 107.485 17.0564 101.69 12.2489C95.2948 6.94209 83.4783 0.618164 63.504 0.618164C43.6562 0.618164 31.8733 6.86816 25.4862 12.111C19.5765 16.9603 17.0165 21.8542 16.2494 23.5564C13.8889 24.6627 11.5744 25.8513 9.36619 27.1013C1.71976 31.4274 -1.51132 40.8206 1.85083 48.9499L9.05369 66.3827C9.92144 68.481 11.6681 70.056 13.8458 70.7035C14.5504 70.9127 15.2702 71.016 15.9845 71.016C16.5425 71.016 17.0964 70.9532 17.6377 70.8276C17.7451 75.8905 19.1765 80.444 21.9723 84.6419C16.7784 87.1238 14.4641 94.0937 16.812 100.527C18.7065 105.713 23.1988 109.222 27.822 109.313C28.6228 111.47 29.4863 113.331 30.3987 114.854C34.1876 121.172 42.388 128.981 52.3908 132.622V137.353C46.8733 138.491 22.5387 144.474 21.954 161.524C12.9948 171.349 6.18547 183.804 1.7169 198.571C1.57181 199.052 1.6611 199.573 1.96104 199.977C2.26098 200.382 2.73393 200.62 3.23615 200.62H19.9033V183.89C19.9033 183.014 20.6134 182.303 21.4909 182.303C22.367 182.303 23.0785 183.013 23.0785 183.89L23.0771 200.62H103.927V183.89C103.927 183.014 104.637 182.303 105.515 182.303C106.391 182.303 107.102 183.013 107.102 183.89L107.101 200.62H123.768C124.27 200.62 124.743 200.382 125.043 199.978C125.343 199.575 125.434 199.054 125.287 198.572C120.819 183.808 114.009 171.351 105.052 161.529L105.049 161.527ZM107.207 99.4412C105.929 102.942 103.199 105.453 100.28 106.027C101.842 100.871 103.083 94.4759 103.853 87.6148C107.457 89.4828 108.966 94.6223 107.207 99.4409L107.207 99.4412ZM18.3786 67.1002C17.3142 67.827 15.993 68.0335 14.7515 67.6638C13.4959 67.2899 12.4887 66.3817 11.9878 65.1735L4.78497 47.7407C2.03386 41.0903 4.67476 33.406 10.9289 29.8682C13.2364 28.5624 15.6625 27.3207 18.1375 26.1782L17.4692 24.73L17.479 24.7398L18.1431 26.174C32.2127 19.6643 47.4734 16.365 63.5002 16.365C79.5256 16.365 94.7891 19.6672 108.872 26.1782C111.352 27.3264 113.775 28.568 116.074 29.8697C122.326 33.4062 124.967 41.0904 122.218 47.7436L115.017 65.1754C114.516 66.3849 113.509 67.2931 112.253 67.667C111.013 68.0367 109.689 67.8316 108.626 67.1034C104.55 64.3132 100.077 61.8773 95.3351 59.8616L94.7143 61.3209H94.7129L95.3337 59.8574C85.2948 55.5928 74.5858 53.4288 63.5019 53.4288C52.418 53.4288 41.7091 55.5912 31.6701 59.8574L32.2909 61.3195H32.2896L31.6687 59.8602C26.9284 61.8733 22.4569 64.3106 18.3805 67.1006L18.3786 67.1002ZM19.7933 99.4412C18.0354 94.6255 19.5421 89.4902 23.147 87.6152C23.9171 94.4762 25.1574 100.87 26.7185 106.026C23.8041 105.449 21.0715 102.94 19.7933 99.4412ZM33.1204 113.226C32.1675 111.636 31.2608 109.596 30.4209 107.166C28.4915 101.581 26.9806 94.0298 26.1505 85.853C30.1684 79.5666 32.727 71.693 33.762 62.4251C43.1591 58.5637 53.1566 56.5994 63.4984 56.5994C73.8402 56.5994 83.8388 58.5623 93.2348 62.4251C94.2714 71.6926 96.8284 79.5666 100.846 85.853C100.016 94.0298 98.5053 101.581 96.5759 107.166C95.7374 109.596 94.8293 111.634 93.8778 113.225C90.3706 119.069 82.1924 126.809 72.5246 129.989L73.0212 131.499H73.0198L72.5246 129.994C69.4833 130.994 66.446 131.502 63.4971 131.502C60.5479 131.502 57.5107 130.994 54.4696 129.994L53.9743 131.499H53.9729L54.4696 129.989C44.8046 126.809 36.6264 119.069 33.1206 113.226L33.1204 113.226ZM71.4383 133.618V142.613C71.4383 157.254 67.4818 169.058 63.5015 179.484C59.5211 169.059 55.5647 157.256 55.5647 142.613V133.618C58.2321 134.317 60.894 134.676 63.5015 134.676C66.1103 134.676 68.7708 134.317 71.4383 133.618ZM46.1843 197.443C32.4065 181.976 25.12 169.777 25.1143 162.142C25.1143 147.798 46.3225 141.982 52.3925 140.61V142.609C52.3925 159.375 57.55 172.94 61.8011 183.884L61.4607 184.762C59.8536 188.894 58.199 193.158 56.7843 197.44L46.1843 197.443ZM84.9093 197.443H60.1283C61.4271 193.611 62.885 189.856 64.4183 185.916L64.9833 184.464C69.2747 173.417 74.6151 159.67 74.6151 142.61V140.611C80.6851 141.981 101.893 147.798 101.893 162.15C101.889 169.185 96.0172 181.384 84.9093 197.443V197.443Z" fill="#FF5714"/>
</svg>
