<svg width="21" height="14" viewBox="0 0 21 14" fill="none" xmlns="http://www.w3.org/2000/svg">
<path d="M2.1314 8.89435C2.97833 4.82736 6.51878 1.93763 10.5013 1.93763C14.4826 1.93763 18.0231 4.82736 18.8712 8.89435C18.9048 9.05573 19.0012 9.19716 19.139 9.28752C19.2769 9.37788 19.445 9.40977 19.6064 9.37618C19.7678 9.34258 19.9092 9.24626 19.9996 9.10839C20.0899 8.97052 20.1218 8.8024 20.0882 8.64101C19.1233 4.01521 15.0874 0.695801 10.5013 0.695801C5.91525 0.695801 1.87931 4.01521 0.914413 8.64101C0.880819 8.8024 0.91271 8.97052 1.00307 9.10839C1.09343 9.24626 1.23486 9.34258 1.39624 9.37618C1.55763 9.40977 1.72574 9.37788 1.86361 9.28752C2.00148 9.19716 2.09781 9.05573 2.1314 8.89435ZM10.4889 4.42128C11.6416 4.42128 12.7472 4.87921 13.5623 5.69431C14.3774 6.50942 14.8353 7.61494 14.8353 8.76768C14.8353 9.92042 14.3774 11.0259 13.5623 11.841C12.7472 12.6562 11.6416 13.1141 10.4889 13.1141C9.33617 13.1141 8.23065 12.6562 7.41554 11.841C6.60043 11.0259 6.14251 9.92042 6.14251 8.76768C6.14251 7.61494 6.60043 6.50942 7.41554 5.69431C8.23065 4.87921 9.33617 4.42128 10.4889 4.42128Z" fill="#6A707C"/>
</svg>
