<svg width="48" height="923" viewBox="0 0 48 923" fill="none" xmlns="http://www.w3.org/2000/svg">
<path fill-rule="evenodd" clip-rule="evenodd" d="M30.2757 592.988C23.8029 589.784 18.8677 588.719 15.4701 589.791C17.0655 588.262 17.8633 586.416 17.8633 584.254C17.8633 581.011 14.8111 578.812 11.6148 578.812C8.41854 578.812 6.51409 580.48 5.98328 583.109C5.45246 585.738 7.08982 587.811 9.31965 587.811C8.75832 586.075 9.17779 585.048 10.5781 584.73C12.6785 584.254 13.5667 585.83 13.5667 587.811C13.5667 589.791 10.7761 591.034 8.225 590.416C5.67387 589.798 3.05466 587.392 3.05466 584.254C3.05466 581.115 4.4579 577.673 9.31965 576.224C3.72753 573.136 0.924852 568.633 0.911621 562.715L42.577 590.341C42.5638 584.423 39.7611 579.92 34.169 576.832C39.0308 575.383 40.434 571.941 40.434 568.802C40.434 565.664 37.8148 563.258 35.2637 562.64C32.7125 562.022 29.922 563.265 29.922 565.245C29.922 567.226 30.8102 568.802 32.9106 568.326C34.3109 568.008 34.7303 566.981 34.169 565.245C36.3988 565.245 38.0362 567.318 37.5054 569.947C36.9746 572.576 35.0701 574.243 31.8738 574.243C28.6775 574.243 25.6254 572.045 25.6254 568.802C25.6254 566.64 26.4231 564.794 28.0185 563.265C24.6209 564.337 19.6857 563.271 13.213 560.068C19.6857 556.864 24.6209 555.799 28.0185 556.871C26.4231 555.341 25.6254 553.495 25.6254 551.333C25.6254 548.09 28.6775 545.892 31.8738 545.892C35.0701 545.892 36.9746 547.56 37.5054 550.189C38.0362 552.818 36.3988 554.89 34.169 554.89C34.7303 553.154 34.3109 552.127 32.9106 551.81C30.8102 551.333 29.922 552.91 29.922 554.89C29.922 556.871 32.7125 558.114 35.2637 557.496C37.8148 556.878 40.434 554.472 40.434 551.333C40.434 548.195 39.0308 544.753 34.169 543.304C39.7611 540.216 42.5638 535.713 42.577 529.794L0.911621 557.421C0.924852 551.503 3.72753 546.999 9.31965 543.911C4.4579 542.462 3.05466 539.02 3.05466 535.882C3.05466 532.743 5.67387 530.338 8.225 529.72C10.7761 529.101 13.5667 530.344 13.5667 532.325C13.5667 534.306 12.6785 535.882 10.5781 535.405C9.17779 535.088 8.75832 534.061 9.31965 532.325C7.08982 532.325 5.45246 534.397 5.98328 537.027C6.51409 539.656 8.41854 541.323 11.6148 541.323C14.8111 541.323 17.8633 539.125 17.8633 535.882C17.8633 533.72 17.0655 531.874 15.4701 530.344C18.8677 531.417 23.8029 530.351 30.2757 527.147H47.2783L47.2783 658.829H30.2757C23.8029 655.625 18.8677 654.559 15.4701 655.632C17.0655 654.102 17.8633 652.256 17.8633 650.094C17.8633 646.851 14.8111 644.653 11.6148 644.653C8.41854 644.653 6.51409 646.32 5.98328 648.95C5.45246 651.579 7.08982 653.651 9.31965 653.651C8.75832 651.915 9.17779 650.888 10.5781 650.571C12.6785 650.094 13.5667 651.67 13.5667 653.651C13.5667 655.632 10.7761 656.875 8.225 656.257C5.67387 655.638 3.05466 653.233 3.05466 650.094C3.05466 646.956 4.4579 643.514 9.31965 642.065C3.72753 638.977 0.924852 634.473 0.911621 628.555L42.577 656.182C42.5638 650.263 39.7611 645.76 34.169 642.672C39.0308 641.223 40.434 637.781 40.434 634.643C40.434 631.504 37.8148 629.099 35.2637 628.48C32.7125 627.862 29.922 629.105 29.922 631.086C29.922 633.066 30.8102 634.643 32.9106 634.166C34.3109 633.849 34.7303 632.822 34.169 631.086C36.3988 631.086 38.0362 633.158 37.5054 635.787C36.9746 638.417 35.0701 640.084 31.8738 640.084C28.6775 640.084 25.6254 637.886 25.6254 634.643C25.6254 632.481 26.4231 630.635 28.0185 629.105C24.6209 630.178 19.6857 629.112 13.213 625.908C19.6857 622.705 24.6209 621.639 28.0185 622.711C26.4231 621.182 25.6254 619.336 25.6254 617.174C25.6254 613.931 28.6775 611.733 31.8738 611.733C35.0701 611.733 36.9746 613.4 37.5054 616.029C38.0362 618.658 36.3988 620.731 34.169 620.731C34.7303 618.995 34.3109 617.968 32.9106 617.65C30.8102 617.174 29.922 618.75 29.922 620.731C29.922 622.711 32.7125 623.955 35.2637 623.336C37.8148 622.718 40.434 620.312 40.434 617.174C40.434 614.036 39.0308 610.593 34.169 609.144C39.7611 606.056 42.5638 601.553 42.577 595.635L0.911621 623.261C0.924852 617.343 3.72753 612.84 9.31965 609.752C4.4579 608.303 3.05466 604.861 3.05466 601.722C3.05466 598.584 5.67387 596.178 8.225 595.56C10.7761 594.942 13.5667 596.185 13.5667 598.166C13.5667 600.146 12.6785 601.722 10.5781 601.246C9.17779 600.928 8.75832 599.902 9.31965 598.166C7.08982 598.166 5.45246 600.238 5.98328 602.867C6.51409 605.496 8.41854 607.164 11.6148 607.164C14.8111 607.164 17.8633 604.965 17.8633 601.722C17.8633 599.56 17.0655 597.715 15.4701 596.185C18.8677 597.257 23.8029 596.192 30.2757 592.988Z" fill="black" fill-opacity="0.2"/>
<path fill-rule="evenodd" clip-rule="evenodd" d="M30.2757 724.669C23.8029 721.466 18.8677 720.4 15.4701 721.472C17.0655 719.943 17.8633 718.097 17.8633 715.935C17.8633 712.692 14.8111 710.494 11.6148 710.494C8.41854 710.494 6.51409 712.161 5.98328 714.79C5.45246 717.419 7.08982 719.492 9.31965 719.492C8.75832 717.756 9.17779 716.729 10.5781 716.411C12.6785 715.935 13.5667 717.511 13.5667 719.492C13.5667 721.472 10.7761 722.715 8.225 722.097C5.67387 721.479 3.05466 719.073 3.05466 715.935C3.05466 712.796 4.4579 709.354 9.31965 707.905C3.72753 704.817 0.924852 700.314 0.911621 694.396L42.577 722.022C42.5638 716.104 39.7611 711.601 34.169 708.513C39.0308 707.064 40.434 703.622 40.434 700.483C40.434 697.345 37.8148 694.939 35.2637 694.321C32.7125 693.703 29.922 694.946 29.922 696.926C29.922 698.907 30.8102 700.483 32.9106 700.007C34.3109 699.689 34.7303 698.662 34.169 696.926C36.3988 696.926 38.0362 698.999 37.5054 701.628C36.9746 704.257 35.0701 705.924 31.8738 705.924C28.6775 705.924 25.6254 703.726 25.6254 700.483C25.6254 698.321 26.4231 696.475 28.0185 694.946C24.6209 696.018 19.6857 694.953 13.213 691.749C19.6857 688.545 24.6209 687.48 28.0185 688.552C26.4231 687.022 25.6254 685.177 25.6254 683.015C25.6254 679.772 28.6775 677.573 31.8738 677.573C35.0701 677.573 36.9746 679.241 37.5054 681.87C38.0362 684.499 36.3988 686.571 34.169 686.571C34.7303 684.835 34.3109 683.809 32.9106 683.491C30.8102 683.015 29.922 684.591 29.922 686.571C29.922 688.552 32.7125 689.795 35.2637 689.177C37.8148 688.559 40.434 686.153 40.434 683.015C40.434 679.876 39.0308 676.434 34.169 674.985C39.7611 671.897 42.5638 667.394 42.577 661.476L0.911621 689.102C0.924852 683.184 3.72753 678.681 9.31965 675.593C4.4579 674.144 3.05466 670.701 3.05466 667.563C3.05466 664.425 5.67387 662.019 8.225 661.401C10.7761 660.782 13.5667 662.026 13.5667 664.006C13.5667 665.987 12.6785 667.563 10.5781 667.087C9.17779 666.769 8.75832 665.742 9.31965 664.006C7.08982 664.006 5.45246 666.078 5.98328 668.708C6.51409 671.337 8.41854 673.004 11.6148 673.004C14.8111 673.004 17.8633 670.806 17.8633 667.563C17.8633 665.401 17.0655 663.555 15.4701 662.026C18.8677 663.098 23.8029 662.032 30.2757 658.829H47.2783L47.2783 790.51H30.2757C23.8029 787.306 18.8677 786.241 15.4701 787.313C17.0655 785.783 17.8633 783.937 17.8633 781.775C17.8633 778.532 14.8111 776.334 11.6148 776.334C8.41854 776.334 6.51409 778.002 5.98328 780.631C5.45246 783.26 7.08982 785.332 9.31965 785.332C8.75832 783.596 9.17779 782.569 10.5781 782.252C12.6785 781.775 13.5667 783.352 13.5667 785.332C13.5667 787.313 10.7761 788.556 8.225 787.938C5.67387 787.319 3.05466 784.914 3.05466 781.775C3.05466 778.637 4.4579 775.195 9.31965 773.746C3.72753 770.658 0.924852 766.155 0.911621 760.236L42.577 787.863C42.5638 781.945 39.7611 777.441 34.169 774.353C39.0308 772.904 40.434 769.462 40.434 766.324C40.434 763.185 37.8148 760.78 35.2637 760.162C32.7125 759.543 29.922 760.786 29.922 762.767C29.922 764.748 30.8102 766.324 32.9106 765.847C34.3109 765.53 34.7303 764.503 34.169 762.767C36.3988 762.767 38.0362 764.839 37.5054 767.469C36.9746 770.098 35.0701 771.765 31.8738 771.765C28.6775 771.765 25.6254 769.567 25.6254 766.324C25.6254 764.162 26.4231 762.316 28.0185 760.786C24.6209 761.859 19.6857 760.793 13.213 757.589C19.6857 754.386 24.6209 753.32 28.0185 754.393C26.4231 752.863 25.6254 751.017 25.6254 748.855C25.6254 745.612 28.6775 743.414 31.8738 743.414C35.0701 743.414 36.9746 745.081 37.5054 747.71C38.0362 750.34 36.3988 752.412 34.169 752.412C34.7303 750.676 34.3109 749.649 32.9106 749.332C30.8102 748.855 29.922 750.431 29.922 752.412C29.922 754.393 32.7125 755.636 35.2637 755.017C37.8148 754.399 40.434 751.994 40.434 748.855C40.434 745.717 39.0308 742.275 34.169 740.826C39.7611 737.738 42.5638 733.234 42.577 727.316L0.911621 754.943C0.924852 749.024 3.72753 744.521 9.31965 741.433C4.4579 739.984 3.05466 736.542 3.05466 733.404C3.05466 730.265 5.67387 727.859 8.225 727.241C10.7761 726.623 13.5667 727.866 13.5667 729.847C13.5667 731.827 12.6785 733.404 10.5781 732.927C9.17779 732.61 8.75832 731.583 9.31965 729.847C7.08982 729.847 5.45246 731.919 5.98328 734.548C6.51409 737.177 8.41854 738.845 11.6148 738.845C14.8111 738.845 17.8633 736.647 17.8633 733.404C17.8633 731.242 17.0655 729.396 15.4701 727.866C18.8677 728.938 23.8029 727.873 30.2757 724.669Z" fill="black" fill-opacity="0.2"/>
<path fill-rule="evenodd" clip-rule="evenodd" d="M30.2757 856.393C23.8029 853.189 18.8677 852.124 15.4701 853.196C17.0655 851.666 17.8633 849.821 17.8633 847.659C17.8633 844.416 14.8111 842.217 11.6148 842.217C8.41854 842.217 6.51409 843.885 5.98328 846.514C5.45246 849.143 7.08982 851.215 9.31965 851.215C8.75832 849.479 9.17779 848.452 10.5781 848.135C12.6785 847.659 13.5667 849.235 13.5667 851.215C13.5667 853.196 10.7761 854.439 8.225 853.821C5.67387 853.203 3.05466 850.797 3.05466 847.659C3.05466 844.52 4.4579 841.078 9.31965 839.629C3.72753 836.541 0.924852 832.038 0.911621 826.119L42.577 853.746C42.5638 847.828 39.7611 843.325 34.169 840.236C39.0308 838.788 40.434 835.345 40.434 832.207C40.434 829.068 37.8148 826.663 35.2637 826.045C32.7125 825.426 29.922 826.669 29.922 828.65C29.922 830.631 30.8102 832.207 32.9106 831.73C34.3109 831.413 34.7303 830.386 34.169 828.65C36.3988 828.65 38.0362 830.722 37.5054 833.352C36.9746 835.981 35.0701 837.648 31.8738 837.648C28.6775 837.648 25.6254 835.45 25.6254 832.207C25.6254 830.045 26.4231 828.199 28.0185 826.669C24.6209 827.742 19.6857 826.676 13.213 823.473C19.6857 820.269 24.6209 819.203 28.0185 820.276C26.4231 818.746 25.6254 816.9 25.6254 814.738C25.6254 811.495 28.6775 809.297 31.8738 809.297C35.0701 809.297 36.9746 810.964 37.5054 813.594C38.0362 816.223 36.3988 818.295 34.169 818.295C34.7303 816.559 34.3109 815.532 32.9106 815.215C30.8102 814.738 29.922 816.314 29.922 818.295C29.922 820.276 32.7125 821.519 35.2637 820.901C37.8148 820.282 40.434 817.877 40.434 814.738C40.434 811.6 39.0308 808.158 34.169 806.709C39.7611 803.621 42.5638 799.117 42.577 793.199L0.911621 820.826C0.924852 814.907 3.72753 810.404 9.31965 807.316C4.4579 805.867 3.05466 802.425 3.05466 799.287C3.05466 796.148 5.67387 793.743 8.225 793.124C10.7761 792.506 13.5667 793.749 13.5667 795.73C13.5667 797.71 12.6785 799.287 10.5781 798.81C9.17779 798.493 8.75832 797.466 9.31965 795.73C7.08982 795.73 5.45246 797.802 5.98328 800.431C6.51409 803.06 8.41854 804.728 11.6148 804.728C14.8111 804.728 17.8633 802.53 17.8633 799.287C17.8633 797.125 17.0655 795.279 15.4701 793.749C18.8677 794.822 23.8029 793.756 30.2757 790.552H47.2783L47.2783 922.233H30.2757C23.8029 919.03 18.8677 917.964 15.4701 919.036C17.0655 917.507 17.8633 915.661 17.8633 913.499C17.8633 910.256 14.8111 908.058 11.6148 908.058C8.41854 908.058 6.51409 909.725 5.98328 912.354C5.45246 914.984 7.08982 917.056 9.31965 917.056C8.75832 915.32 9.17779 914.293 10.5781 913.975C12.6785 913.499 13.5667 915.075 13.5667 917.056C13.5667 919.036 10.7761 920.28 8.225 919.661C5.67387 919.043 3.05466 916.638 3.05466 913.499C3.05466 910.361 4.4579 906.918 9.31965 905.469C3.72753 902.381 0.924852 897.878 0.911621 891.96L42.577 919.586C42.5638 913.668 39.7611 909.165 34.169 906.077C39.0308 904.628 40.434 901.186 40.434 898.047C40.434 894.909 37.8148 892.503 35.2637 891.885C32.7125 891.267 29.922 892.51 29.922 894.491C29.922 896.471 30.8102 898.047 32.9106 897.571C34.3109 897.253 34.7303 896.227 34.169 894.491C36.3988 894.491 38.0362 896.563 37.5054 899.192C36.9746 901.821 35.0701 903.489 31.8738 903.489C28.6775 903.489 25.6254 901.29 25.6254 898.047C25.6254 895.885 26.4231 894.04 28.0185 892.51C24.6209 893.582 19.6857 892.517 13.213 889.313C19.6857 886.11 24.6209 885.044 28.0185 886.116C26.4231 884.587 25.6254 882.741 25.6254 880.579C25.6254 877.336 28.6775 875.138 31.8738 875.138C35.0701 875.138 36.9746 876.805 37.5054 879.434C38.0362 882.063 36.3988 884.136 34.169 884.136C34.7303 882.4 34.3109 881.373 32.9106 881.055C30.8102 880.579 29.922 882.155 29.922 884.136C29.922 886.116 32.7125 887.359 35.2637 886.741C37.8148 886.123 40.434 883.717 40.434 880.579C40.434 877.44 39.0308 873.998 34.169 872.549C39.7611 869.461 42.5638 864.958 42.577 859.04L0.911621 886.666C0.924852 880.748 3.72753 876.245 9.31965 873.157C4.4579 871.708 3.05466 868.266 3.05466 865.127C3.05466 861.989 5.67387 859.583 8.225 858.965C10.7761 858.347 13.5667 859.59 13.5667 861.57C13.5667 863.551 12.6785 865.127 10.5781 864.651C9.17779 864.333 8.75832 863.306 9.31965 861.57C7.08982 861.57 5.45246 863.643 5.98328 866.272C6.51409 868.901 8.41854 870.568 11.6148 870.568C14.8111 870.568 17.8633 868.37 17.8633 865.127C17.8633 862.965 17.0655 861.119 15.4701 859.59C18.8677 860.662 23.8029 859.596 30.2757 856.393Z" fill="black" fill-opacity="0.2"/>
<path fill-rule="evenodd" clip-rule="evenodd" d="M30.2757 329.626C23.8029 326.422 18.8677 325.357 15.4701 326.429C17.0655 324.899 17.8633 323.053 17.8633 320.891C17.8633 317.648 14.8111 315.45 11.6148 315.45C8.41854 315.45 6.51409 317.118 5.98328 319.747C5.45246 322.376 7.08982 324.448 9.31965 324.448C8.75832 322.712 9.17779 321.685 10.5781 321.368C12.6785 320.891 13.5667 322.468 13.5667 324.448C13.5667 326.429 10.7761 327.672 8.225 327.054C5.67387 326.435 3.05466 324.03 3.05466 320.891C3.05466 317.753 4.4579 314.311 9.31965 312.862C3.72753 309.774 0.924852 305.271 0.911621 299.352L42.577 326.979C42.5638 321.061 39.7611 316.557 34.169 313.469C39.0308 312.02 40.434 308.578 40.434 305.44C40.434 302.301 37.8148 299.896 35.2637 299.278C32.7125 298.659 29.922 299.902 29.922 301.883C29.922 303.864 30.8102 305.44 32.9106 304.963C34.3109 304.646 34.7303 303.619 34.169 301.883C36.3988 301.883 38.0362 303.955 37.5054 306.584C36.9746 309.214 35.0701 310.881 31.8738 310.881C28.6775 310.881 25.6254 308.683 25.6254 305.44C25.6254 303.278 26.4231 301.432 28.0185 299.902C24.6209 300.975 19.6857 299.909 13.213 296.705C19.6857 293.502 24.6209 292.436 28.0185 293.509C26.4231 291.979 25.6254 290.133 25.6254 287.971C25.6254 284.728 28.6775 282.53 31.8738 282.53C35.0701 282.53 36.9746 284.197 37.5054 286.826C38.0362 289.456 36.3988 291.528 34.169 291.528C34.7303 289.792 34.3109 288.765 32.9106 288.448C30.8102 287.971 29.922 289.547 29.922 291.528C29.922 293.509 32.7125 294.752 35.2637 294.133C37.8148 293.515 40.434 291.11 40.434 287.971C40.434 284.833 39.0308 281.39 34.169 279.942C39.7611 276.853 42.5638 272.35 42.577 266.432L0.911621 294.059C0.924852 288.14 3.72753 283.637 9.31965 280.549C4.4579 279.1 3.05466 275.658 3.05466 272.52C3.05466 269.381 5.67387 266.975 8.225 266.357C10.7761 265.739 13.5667 266.982 13.5667 268.963C13.5667 270.943 12.6785 272.52 10.5781 272.043C9.17779 271.726 8.75832 270.699 9.31965 268.963C7.08982 268.963 5.45246 271.035 5.98328 273.664C6.51409 276.293 8.41854 277.961 11.6148 277.961C14.8111 277.961 17.8633 275.762 17.8633 272.52C17.8633 270.358 17.0655 268.512 15.4701 266.982C18.8677 268.054 23.8029 266.989 30.2757 263.785H47.2783L47.2783 395.466H30.2757C23.8029 392.263 18.8677 391.197 15.4701 392.269C17.0655 390.74 17.8633 388.894 17.8633 386.732C17.8633 383.489 14.8111 381.291 11.6148 381.291C8.41854 381.291 6.51409 382.958 5.98328 385.587C5.45246 388.216 7.08982 390.289 9.31965 390.289C8.75832 388.553 9.17779 387.526 10.5781 387.208C12.6785 386.732 13.5667 388.308 13.5667 390.289C13.5667 392.269 10.7761 393.512 8.225 392.894C5.67387 392.276 3.05466 389.87 3.05466 386.732C3.05466 383.594 4.4579 380.151 9.31965 378.702C3.72753 375.614 0.924852 371.111 0.911621 365.193L42.577 392.819C42.5638 386.901 39.7611 382.398 34.169 379.31C39.0308 377.861 40.434 374.419 40.434 371.28C40.434 368.142 37.8148 365.736 35.2637 365.118C32.7125 364.5 29.922 365.743 29.922 367.724C29.922 369.704 30.8102 371.28 32.9106 370.804C34.3109 370.486 34.7303 369.46 34.169 367.724C36.3988 367.724 38.0362 369.796 37.5054 372.425C36.9746 375.054 35.0701 376.722 31.8738 376.722C28.6775 376.722 25.6254 374.523 25.6254 371.28C25.6254 369.118 26.4231 367.273 28.0185 365.743C24.6209 366.815 19.6857 365.75 13.213 362.546C19.6857 359.342 24.6209 358.277 28.0185 359.349C26.4231 357.819 25.6254 355.974 25.6254 353.812C25.6254 350.569 28.6775 348.37 31.8738 348.37C35.0701 348.37 36.9746 350.038 37.5054 352.667C38.0362 355.296 36.3988 357.369 34.169 357.369C34.7303 355.632 34.3109 354.606 32.9106 354.288C30.8102 353.812 29.922 355.388 29.922 357.369C29.922 359.349 32.7125 360.592 35.2637 359.974C37.8148 359.356 40.434 356.95 40.434 353.812C40.434 350.673 39.0308 347.231 34.169 345.782C39.7611 342.694 42.5638 338.191 42.577 332.273L0.911621 359.899C0.924852 353.981 3.72753 349.478 9.31965 346.39C4.4579 344.941 3.05466 341.498 3.05466 338.36C3.05466 335.222 5.67387 332.816 8.225 332.198C10.7761 331.58 13.5667 332.823 13.5667 334.803C13.5667 336.784 12.6785 338.36 10.5781 337.884C9.17779 337.566 8.75832 336.539 9.31965 334.803C7.08982 334.803 5.45246 336.876 5.98328 339.505C6.51409 342.134 8.41854 343.801 11.6148 343.801C14.8111 343.801 17.8633 341.603 17.8633 338.36C17.8633 336.198 17.0655 334.352 15.4701 332.823C18.8677 333.895 23.8029 332.829 30.2757 329.626Z" fill="black" fill-opacity="0.2"/>
<path fill-rule="evenodd" clip-rule="evenodd" d="M30.2757 461.307C23.8029 458.103 18.8677 457.038 15.4701 458.11C17.0655 456.58 17.8633 454.735 17.8633 452.573C17.8633 449.33 14.8111 447.131 11.6148 447.131C8.41854 447.131 6.51409 448.799 5.98328 451.428C5.45246 454.057 7.08982 456.129 9.31965 456.129C8.75832 454.393 9.17779 453.367 10.5781 453.049C12.6785 452.573 13.5667 454.149 13.5667 456.129C13.5667 458.11 10.7761 459.353 8.225 458.735C5.67387 458.117 3.05466 455.711 3.05466 452.573C3.05466 449.434 4.4579 445.992 9.31965 444.543C3.72753 441.455 0.924852 436.952 0.911621 431.034L42.577 458.66C42.5638 452.742 39.7611 448.239 34.169 445.151C39.0308 443.702 40.434 440.259 40.434 437.121C40.434 433.983 37.8148 431.577 35.2637 430.959C32.7125 430.34 29.922 431.584 29.922 433.564C29.922 435.545 30.8102 437.121 32.9106 436.645C34.3109 436.327 34.7303 435.3 34.169 433.564C36.3988 433.564 38.0362 435.636 37.5054 438.266C36.9746 440.895 35.0701 442.562 31.8738 442.562C28.6775 442.562 25.6254 440.364 25.6254 437.121C25.6254 434.959 26.4231 433.113 28.0185 431.584C24.6209 432.656 19.6857 431.59 13.213 428.387C19.6857 425.183 24.6209 424.117 28.0185 425.19C26.4231 423.66 25.6254 421.814 25.6254 419.652C25.6254 416.409 28.6775 414.211 31.8738 414.211C35.0701 414.211 36.9746 415.878 37.5054 418.508C38.0362 421.137 36.3988 423.209 34.169 423.209C34.7303 421.473 34.3109 420.446 32.9106 420.129C30.8102 419.652 29.922 421.229 29.922 423.209C29.922 425.19 32.7125 426.433 35.2637 425.815C37.8148 425.196 40.434 422.791 40.434 419.652C40.434 416.514 39.0308 413.072 34.169 411.623C39.7611 408.535 42.5638 404.031 42.577 398.113L0.911621 425.74C0.924852 419.821 3.72753 415.318 9.31965 412.23C4.4579 410.781 3.05466 407.339 3.05466 404.201C3.05466 401.062 5.67387 398.657 8.225 398.038C10.7761 397.42 13.5667 398.663 13.5667 400.644C13.5667 402.624 12.6785 404.201 10.5781 403.724C9.17779 403.407 8.75832 402.38 9.31965 400.644C7.08982 400.644 5.45246 402.716 5.98328 405.345C6.51409 407.975 8.41854 409.642 11.6148 409.642C14.8111 409.642 17.8633 407.444 17.8633 404.201C17.8633 402.039 17.0655 400.193 15.4701 398.663C18.8677 399.736 23.8029 398.67 30.2757 395.466H47.2783L47.2783 527.147H30.2757C23.8029 523.944 18.8677 522.878 15.4701 523.951C17.0655 522.421 17.8633 520.575 17.8633 518.413C17.8633 515.17 14.8111 512.972 11.6148 512.972C8.41854 512.972 6.51409 514.639 5.98328 517.268C5.45246 519.898 7.08982 521.97 9.31965 521.97C8.75832 520.234 9.17779 519.207 10.5781 518.89C12.6785 518.413 13.5667 519.989 13.5667 521.97C13.5667 523.951 10.7761 525.194 8.225 524.575C5.67387 523.957 3.05466 521.552 3.05466 518.413C3.05466 515.275 4.4579 511.832 9.31965 510.384C3.72753 507.295 0.924852 502.792 0.911621 496.874L42.577 524.501C42.5638 518.582 39.7611 514.079 34.169 510.991C39.0308 509.542 40.434 506.1 40.434 502.962C40.434 499.823 37.8148 497.417 35.2637 496.799C32.7125 496.181 29.922 497.424 29.922 499.405C29.922 501.385 30.8102 502.962 32.9106 502.485C34.3109 502.168 34.7303 501.141 34.169 499.405C36.3988 499.405 38.0362 501.477 37.5054 504.106C36.9746 506.735 35.0701 508.403 31.8738 508.403C28.6775 508.403 25.6254 506.204 25.6254 502.962C25.6254 500.8 26.4231 498.954 28.0185 497.424C24.6209 498.496 19.6857 497.431 13.213 494.227C19.6857 491.024 24.6209 489.958 28.0185 491.03C26.4231 489.501 25.6254 487.655 25.6254 485.493C25.6254 482.25 28.6775 480.052 31.8738 480.052C35.0701 480.052 36.9746 481.719 37.5054 484.348C38.0362 486.977 36.3988 489.05 34.169 489.05C34.7303 487.314 34.3109 486.287 32.9106 485.969C30.8102 485.493 29.922 487.069 29.922 489.05C29.922 491.03 32.7125 492.273 35.2637 491.655C37.8148 491.037 40.434 488.631 40.434 485.493C40.434 482.354 39.0308 478.912 34.169 477.463C39.7611 474.375 42.5638 469.872 42.577 463.954L0.911621 491.58C0.924852 485.662 3.72753 481.159 9.31965 478.071C4.4579 476.622 3.05466 473.18 3.05466 470.041C3.05466 466.903 5.67387 464.497 8.225 463.879C10.7761 463.261 13.5667 464.504 13.5667 466.484C13.5667 468.465 12.6785 470.041 10.5781 469.565C9.17779 469.247 8.75832 468.22 9.31965 466.484C7.08982 466.484 5.45246 468.557 5.98328 471.186C6.51409 473.815 8.41854 475.482 11.6148 475.482C14.8111 475.482 17.8633 473.284 17.8633 470.041C17.8633 467.879 17.0655 466.033 15.4701 464.504C18.8677 465.576 23.8029 464.51 30.2757 461.307Z" fill="black" fill-opacity="0.2"/>
<path fill-rule="evenodd" clip-rule="evenodd" d="M30.2757 66.263C23.8029 63.0594 18.8677 61.9937 15.4701 63.066C17.0655 61.5364 17.8633 59.6906 17.8633 57.5286C17.8633 54.2857 14.8111 52.0874 11.6148 52.0874C8.41854 52.0874 6.51409 53.7548 5.98328 56.3839C5.45246 59.0131 7.08982 61.0854 9.31965 61.0854C8.75832 59.3494 9.17779 58.3226 10.5781 58.005C12.6785 57.5286 13.5667 59.1048 13.5667 61.0854C13.5667 63.066 10.7761 64.3091 8.225 63.6909C5.67387 63.0727 3.05466 60.6671 3.05466 57.5286C3.05466 54.3902 4.4579 50.948 9.31965 49.4991C3.72753 46.411 0.924852 41.9078 0.911621 35.9896L42.577 63.616C42.5638 57.6978 39.7611 53.1947 34.169 50.1066C39.0308 48.6577 40.434 45.2154 40.434 42.077C40.434 38.9386 37.8148 36.533 35.2637 35.9147C32.7125 35.2965 29.922 36.5396 29.922 38.5202C29.922 40.5008 30.8102 42.077 32.9106 41.6006C34.3109 41.283 34.7303 40.2562 34.169 38.5202C36.3988 38.5202 38.0362 40.5925 37.5054 43.2217C36.9746 45.8509 35.0701 47.5182 31.8738 47.5182C28.6775 47.5182 25.6254 45.32 25.6254 42.077C25.6254 39.915 26.4231 38.0692 28.0185 36.5396C24.6209 37.6119 19.6857 36.5463 13.213 33.3427C19.6857 30.1391 24.6209 29.0734 28.0185 30.1457C26.4231 28.6161 25.6254 26.7703 25.6254 24.6084C25.6254 21.3654 28.6775 19.1671 31.8738 19.1671C35.0701 19.1671 36.9746 20.8345 37.5054 23.4636C38.0362 26.0928 36.3988 28.1652 34.169 28.1652C34.7303 26.4291 34.3109 25.4023 32.9106 25.0847C30.8102 24.6084 29.922 26.1846 29.922 28.1652C29.922 30.1457 32.7125 31.3889 35.2637 30.7706C37.8148 30.1524 40.434 27.7468 40.434 24.6084C40.434 21.4699 39.0308 18.0277 34.169 16.5788C39.7611 13.4907 42.5638 8.98755 42.577 3.06934L0.911621 30.6957C0.924852 24.7775 3.72753 20.2744 9.31965 17.1863C4.4579 15.7374 3.05466 12.2951 3.05466 9.15672C3.05466 6.01829 5.67387 3.61267 8.225 2.99445C10.7761 2.37622 13.5667 3.61932 13.5667 5.59991C13.5667 7.58051 12.6785 9.15672 10.5781 8.68034C9.17779 8.36275 8.75832 7.33594 9.31965 5.59991C7.08982 5.59991 5.45246 7.67224 5.98328 10.3014C6.51409 12.9306 8.41854 14.598 11.6148 14.598C14.8111 14.598 17.8633 12.3997 17.8633 9.15672C17.8633 6.99473 17.0655 5.14893 15.4701 3.61932C18.8677 4.69163 23.8029 3.62599 30.2757 0.422394H47.2783L47.2783 132.104H30.2757C23.8029 128.9 18.8677 127.834 15.4701 128.907C17.0655 127.377 17.8633 125.531 17.8633 123.369C17.8633 120.126 14.8111 117.928 11.6148 117.928C8.41854 117.928 6.51409 119.595 5.98328 122.224C5.45246 124.854 7.08982 126.926 9.31965 126.926C8.75832 125.19 9.17779 124.163 10.5781 123.846C12.6785 123.369 13.5667 124.945 13.5667 126.926C13.5667 128.907 10.7761 130.15 8.225 129.531C5.67387 128.913 3.05466 126.508 3.05466 123.369C3.05466 120.231 4.4579 116.789 9.31965 115.34C3.72753 112.252 0.924852 107.748 0.911621 101.83L42.577 129.457C42.5638 123.538 39.7611 119.035 34.169 115.947C39.0308 114.498 40.434 111.056 40.434 107.918C40.434 104.779 37.8148 102.374 35.2637 101.755C32.7125 101.137 29.922 102.38 29.922 104.361C29.922 106.341 30.8102 107.918 32.9106 107.441C34.3109 107.124 34.7303 106.097 34.169 104.361C36.3988 104.361 38.0362 106.433 37.5054 109.062C36.9746 111.691 35.0701 113.359 31.8738 113.359C28.6775 113.359 25.6254 111.161 25.6254 107.918C25.6254 105.756 26.4231 103.91 28.0185 102.38C24.6209 103.452 19.6857 102.387 13.213 99.1832C19.6857 95.9796 24.6209 94.914 28.0185 95.9863C26.4231 94.4567 25.6254 92.6109 25.6254 90.4489C25.6254 87.2059 28.6775 85.0077 31.8738 85.0077C35.0701 85.0077 36.9746 86.675 37.5054 89.3042C38.0362 91.9334 36.3988 94.0057 34.169 94.0057C34.7303 92.2697 34.3109 91.2429 32.9106 90.9253C30.8102 90.4489 29.922 92.0251 29.922 94.0057C29.922 95.9863 32.7125 97.2294 35.2637 96.6112C37.8148 95.993 40.434 93.5873 40.434 90.4489C40.434 87.3105 39.0308 83.8683 34.169 82.4193C39.7611 79.3313 42.5638 74.8281 42.577 68.9099L0.911621 96.5363C0.924852 90.6181 3.72753 86.1149 9.31965 83.0269C4.4579 81.5779 3.05466 78.1357 3.05466 74.9973C3.05466 71.8588 5.67387 69.4532 8.225 68.835C10.7761 68.2168 13.5667 69.4599 13.5667 71.4405C13.5667 73.4211 12.6785 74.9973 10.5781 74.5209C9.17779 74.2033 8.75832 73.1765 9.31965 71.4405C7.08982 71.4405 5.45246 73.5128 5.98328 76.142C6.51409 78.7712 8.41854 80.4385 11.6148 80.4385C14.8111 80.4385 17.8633 78.2403 17.8633 74.9973C17.8633 72.8353 17.0655 70.9895 15.4701 69.4599C18.8677 70.5322 23.8029 69.4665 30.2757 66.263Z" fill="black" fill-opacity="0.2"/>
<path fill-rule="evenodd" clip-rule="evenodd" d="M30.2757 197.945C23.8029 194.741 18.8677 193.676 15.4701 194.748C17.0655 193.219 17.8633 191.373 17.8633 189.211C17.8633 185.968 14.8111 183.77 11.6148 183.77C8.41854 183.77 6.51409 185.437 5.98328 188.066C5.45246 190.695 7.08982 192.768 9.31965 192.768C8.75832 191.032 9.17779 190.005 10.5781 189.687C12.6785 189.211 13.5667 190.787 13.5667 192.768C13.5667 194.748 10.7761 195.991 8.225 195.373C5.67387 194.755 3.05466 192.349 3.05466 189.211C3.05466 186.072 4.4579 182.63 9.31965 181.181C3.72753 178.093 0.924852 173.59 0.911621 167.672L42.577 195.298C42.5638 189.38 39.7611 184.877 34.169 181.789C39.0308 180.34 40.434 176.898 40.434 173.759C40.434 170.621 37.8148 168.215 35.2637 167.597C32.7125 166.979 29.922 168.222 29.922 170.202C29.922 172.183 30.8102 173.759 32.9106 173.283C34.3109 172.965 34.7303 171.938 34.169 170.202C36.3988 170.202 38.0362 172.275 37.5054 174.904C36.9746 177.533 35.0701 179.2 31.8738 179.2C28.6775 179.2 25.6254 177.002 25.6254 173.759C25.6254 171.597 26.4231 169.751 28.0185 168.222C24.6209 169.294 19.6857 168.228 13.213 165.025C19.6857 161.821 24.6209 160.756 28.0185 161.828C26.4231 160.298 25.6254 158.452 25.6254 156.29C25.6254 153.048 28.6775 150.849 31.8738 150.849C35.0701 150.849 36.9746 152.517 37.5054 155.146C38.0362 157.775 36.3988 159.847 34.169 159.847C34.7303 158.111 34.3109 157.084 32.9106 156.767C30.8102 156.29 29.922 157.867 29.922 159.847C29.922 161.828 32.7125 163.071 35.2637 162.453C37.8148 161.835 40.434 159.429 40.434 156.29C40.434 153.152 39.0308 149.71 34.169 148.261C39.7611 145.173 42.5638 140.67 42.577 134.751L0.911621 162.378C0.924852 156.46 3.72753 151.957 9.31965 148.868C4.4579 147.42 3.05466 143.977 3.05466 140.839C3.05466 137.7 5.67387 135.295 8.225 134.677C10.7761 134.058 13.5667 135.301 13.5667 137.282C13.5667 139.263 12.6785 140.839 10.5781 140.362C9.17779 140.045 8.75832 139.018 9.31965 137.282C7.08982 137.282 5.45246 139.354 5.98328 141.984C6.51409 144.613 8.41854 146.28 11.6148 146.28C14.8111 146.28 17.8633 144.082 17.8633 140.839C17.8633 138.677 17.0655 136.831 15.4701 135.301C18.8677 136.374 23.8029 135.308 30.2757 132.105H47.2783L47.2783 263.786H30.2757C23.8029 260.582 18.8677 259.516 15.4701 260.589C17.0655 259.059 17.8633 257.213 17.8633 255.051C17.8633 251.808 14.8111 249.61 11.6148 249.61C8.41854 249.61 6.51409 251.277 5.98328 253.907C5.45246 256.536 7.08982 258.608 9.31965 258.608C8.75832 256.872 9.17779 255.845 10.5781 255.528C12.6785 255.051 13.5667 256.628 13.5667 258.608C13.5667 260.589 10.7761 261.832 8.225 261.214C5.67387 260.595 3.05466 258.19 3.05466 255.051C3.05466 251.913 4.4579 248.471 9.31965 247.022C3.72753 243.934 0.924852 239.431 0.911621 233.512L42.577 261.139C42.5638 255.22 39.7611 250.717 34.169 247.629C39.0308 246.18 40.434 242.738 40.434 239.6C40.434 236.461 37.8148 234.056 35.2637 233.437C32.7125 232.819 29.922 234.062 29.922 236.043C29.922 238.023 30.8102 239.6 32.9106 239.123C34.3109 238.806 34.7303 237.779 34.169 236.043C36.3988 236.043 38.0362 238.115 37.5054 240.744C36.9746 243.374 35.0701 245.041 31.8738 245.041C28.6775 245.041 25.6254 242.843 25.6254 239.6C25.6254 237.438 26.4231 235.592 28.0185 234.062C24.6209 235.135 19.6857 234.069 13.213 230.865C19.6857 227.662 24.6209 226.596 28.0185 227.668C26.4231 226.139 25.6254 224.293 25.6254 222.131C25.6254 218.888 28.6775 216.69 31.8738 216.69C35.0701 216.69 36.9746 218.357 37.5054 220.986C38.0362 223.616 36.3988 225.688 34.169 225.688C34.7303 223.952 34.3109 222.925 32.9106 222.607C30.8102 222.131 29.922 223.707 29.922 225.688C29.922 227.668 32.7125 228.912 35.2637 228.293C37.8148 227.675 40.434 225.269 40.434 222.131C40.434 218.993 39.0308 215.55 34.169 214.101C39.7611 211.013 42.5638 206.51 42.577 200.592L0.911621 228.218C0.924852 222.3 3.72753 217.797 9.31965 214.709C4.4579 213.26 3.05466 209.818 3.05466 206.679C3.05466 203.541 5.67387 201.135 8.225 200.517C10.7761 199.899 13.5667 201.142 13.5667 203.123C13.5667 205.103 12.6785 206.679 10.5781 206.203C9.17779 205.885 8.75832 204.859 9.31965 203.123C7.08982 203.123 5.45246 205.195 5.98328 207.824C6.51409 210.453 8.41854 212.121 11.6148 212.121C14.8111 212.121 17.8633 209.922 17.8633 206.679C17.8633 204.517 17.0655 202.672 15.4701 201.142C18.8677 202.214 23.8029 201.149 30.2757 197.945Z" fill="black" fill-opacity="0.2"/>
</svg>
