<svg width="20" height="12" viewBox="0 0 20 12" fill="none" xmlns="http://www.w3.org/2000/svg">
<path d="M18.8953 2.8L10.4953 11.225C10.3953 11.325 10.287 11.3957 10.1703 11.437C10.0536 11.479 9.92865 11.5 9.79531 11.5C9.66198 11.5 9.53698 11.479 9.42031 11.437C9.30365 11.3957 9.19531 11.325 9.09531 11.225L0.670312 2.8C0.436979 2.56667 0.320313 2.275 0.320313 1.925C0.320313 1.575 0.445313 1.275 0.695313 1.025C0.945313 0.775001 1.23698 0.650001 1.57031 0.650001C1.90365 0.650001 2.19531 0.775001 2.44531 1.025L9.79531 8.375L17.1453 1.025C17.3786 0.791667 17.666 0.675 18.0073 0.675C18.3493 0.675 18.6453 0.8 18.8953 1.05C19.1453 1.3 19.2703 1.59167 19.2703 1.925C19.2703 2.25833 19.1453 2.55 18.8953 2.8Z" fill="black"/>
</svg>
