<svg width="29" height="25" viewBox="0 0 29 25" fill="none" xmlns="http://www.w3.org/2000/svg">
<path d="M19.0111 7.76172H9.15234V13.1643H19.0111V7.76172Z" fill="#FF5714"/>
<path d="M8.55936 5.05755C8.5809 4.77415 8.70868 4.50934 8.91714 4.31614C9.12559 4.12294 9.39933 4.01561 9.68355 4.01563H18.6712C18.9561 4.01554 19.2305 4.12333 19.4391 4.31732C19.6478 4.5113 19.7753 4.77709 19.7959 5.06124L20.4382 13.8881C20.4494 14.0427 20.4287 14.1979 20.3772 14.3441C20.3258 14.4903 20.2448 14.6243 20.1392 14.7378C20.0337 14.8513 19.9059 14.9419 19.7638 15.0038C19.6218 15.0657 19.4684 15.0977 19.3135 15.0977H9.01019C8.85497 15.0976 8.70143 15.0655 8.55918 15.0034C8.41694 14.9412 8.28905 14.8504 8.18352 14.7366C8.078 14.6227 7.99711 14.4883 7.94591 14.3418C7.89472 14.1952 7.87433 14.0397 7.88601 13.8849L8.55936 5.05755Z" fill="black"/>
<path fill-rule="evenodd" clip-rule="evenodd" d="M16.175 6.23282C16.0866 6.23813 15.9986 6.24851 15.9113 6.26393C15.9018 6.27342 16.6585 11.2205 16.6706 11.2278C16.6828 11.2352 17.3983 11.1788 17.4088 11.1661C17.4194 11.1535 17.2507 10.0541 17.0434 8.71056C16.8362 7.36702 16.6669 6.25285 16.6664 6.23545C16.6664 6.19907 16.5615 6.19854 16.175 6.23282ZM18.1945 9.10497L18.7677 13.1256H9.59281L10.0436 9.96182C10.2915 8.22176 10.5488 6.41315 10.6152 5.9407L10.7318 5.08227H17.6192L18.1945 9.10497ZM14.8156 1.70761C15.243 1.81265 15.6377 2.02164 15.9649 2.31601C16.292 2.61037 16.5413 2.981 16.6907 3.39494C16.7807 3.64353 16.8324 3.90435 16.8441 4.16847V4.31822H11.51V4.16847C11.5139 4.05008 11.5268 3.93216 11.5485 3.81572C11.7631 2.68362 12.6558 1.82994 13.8111 1.64697C14.0595 1.61006 14.5404 1.63853 14.8156 1.70761ZM13.7964 0.886088C13.6403 0.904476 13.4855 0.932652 13.3329 0.970453C12.6329 1.15035 12.0071 1.54572 11.544 2.10067C11.0809 2.65562 10.804 3.34208 10.7523 4.06302L10.7355 4.30293L10.5957 4.33141C10.4459 4.35493 10.3078 4.42699 10.2029 4.53652C10.0178 4.72213 10.0542 4.51754 9.42461 8.92042C9.10296 11.1698 8.83984 13.0755 8.83984 13.1546C8.84498 13.3006 8.89262 13.442 8.97691 13.5615C9.0612 13.6809 9.17849 13.7731 9.31441 13.8269C9.43726 13.8743 9.56961 13.8754 14.1776 13.8754C18.7856 13.8754 18.9185 13.8754 19.0413 13.8269C19.1773 13.7732 19.2946 13.6809 19.3789 13.5615C19.4632 13.4421 19.5108 13.3007 19.5159 13.1546C19.5159 13.0755 19.2523 11.1698 18.9317 8.92042C18.4634 5.64805 18.3363 4.81071 18.2947 4.72846C18.2391 4.62259 18.1598 4.53096 18.0631 4.46064C17.9663 4.39033 17.8547 4.34322 17.7368 4.32297L17.6203 4.3061L17.6039 4.0646C17.5474 3.25487 17.206 2.49129 16.6404 1.90914C16.0747 1.32699 15.3213 0.963822 14.5135 0.883979C14.2752 0.855361 14.0344 0.856424 13.7964 0.887142V0.886088Z" fill="black"/>
<path fill-rule="evenodd" clip-rule="evenodd" d="M16.9154 12.4427C16.9146 12.53 16.9079 12.6172 16.8954 12.7037L16.8748 12.826H16.3623V12.3056H16.9154V12.4427ZM12.0606 11.9365V12.1896L11.8081 12.179C11.7099 12.1771 11.612 12.169 11.5149 12.1548C11.4875 12.1458 11.4738 12.0667 11.4738 11.9122V11.6829H12.0606V11.9365ZM14.9607 11.8273V12.1021L14.7873 12.1237C14.5726 12.1506 14.4545 12.1358 14.4587 12.0825C14.4587 12.0599 14.4645 11.9317 14.4672 11.7973L14.4719 11.5526H14.9607V11.8273ZM16.1661 11.4683C16.1661 11.5642 16.1793 11.5827 16.2579 11.6001C16.3512 11.6206 16.6876 11.8917 16.6876 11.9465C16.6876 11.9629 16.5626 11.9766 16.4103 11.9766H16.1334V13.0311L16.4023 13.0101C16.55 12.999 16.7846 12.9895 16.9238 12.989H17.1759V12.7274C17.1759 12.584 17.1896 12.4664 17.2059 12.4664C17.2587 12.4664 17.5039 12.7738 17.5223 12.8661C17.5387 12.9426 17.5582 12.9557 17.6515 12.9557H17.7617V13.3074L17.574 13.328C17.4052 13.3459 16.0823 13.4108 15.8635 13.4113H15.7743V13.0253C15.7743 12.8144 15.7838 12.3504 15.7954 11.9982L15.817 11.357H16.1651L16.1661 11.4683ZM12.6143 11.0928L12.7936 11.1139V11.2753C12.7936 11.4208 12.7851 11.4387 12.7118 11.4561C12.6889 11.4599 12.6678 11.4707 12.6513 11.487C12.6349 11.5034 12.624 11.5245 12.6201 11.5473C12.6143 11.5874 12.5378 11.6966 12.4503 11.791L12.2921 11.9618V11.811C12.2915 11.7262 12.2844 11.6416 12.271 11.5579L12.2505 11.4561H11.2133V11.9212C11.2133 12.1764 11.2275 12.4079 11.2449 12.4348C11.2681 12.4712 11.3282 12.4817 11.4885 12.4754C11.6488 12.4691 11.6994 12.4754 11.6994 12.5133C11.6994 12.5851 11.4068 12.826 11.3203 12.826C11.2676 12.826 11.2433 12.8445 11.2433 12.8846C11.2433 12.9789 11.1753 13.0217 11.025 13.0217H10.8848V12.5893C10.8848 12.352 10.87 11.9375 10.8526 11.6686C10.836 11.487 10.8315 11.3045 10.8389 11.1224C10.8558 11.0696 10.9201 11.0654 11.6451 11.0696C12.0807 11.0701 12.5157 11.0807 12.6143 11.0928ZM15.5719 11.6201C15.5766 12.0061 15.5719 12.4464 15.5555 12.5982L15.5302 12.8756H15.3673C15.2138 12.8756 15.2038 12.8703 15.1943 12.7854C15.1869 12.7243 15.1653 12.6958 15.1237 12.6958C15.0588 12.6958 14.7018 12.4184 14.7018 12.3683C14.7018 12.3509 14.8115 12.3372 14.946 12.3372H15.1901V11.2932H14.1882L14.1672 11.3781C14.1554 11.4525 14.1554 11.5283 14.1672 11.6027C14.1793 11.6829 14.1745 11.7504 14.1561 11.7609C14.1076 11.791 13.8545 11.522 13.8339 11.4187C13.8291 11.3896 13.816 11.3626 13.7962 11.3408C13.7763 11.319 13.7506 11.3034 13.7221 11.2958C13.6372 11.2663 13.6277 11.2484 13.6277 11.1181V10.9737L14.3855 10.942C14.802 10.9246 15.2381 10.912 15.3546 10.9135L15.5655 10.9172L15.5719 11.6201ZM15.0578 10.3462C15.0578 10.391 15.0788 10.4131 15.1221 10.4131C15.2022 10.4131 15.2534 10.5059 15.2534 10.651V10.7627L14.55 10.7865C14.1635 10.7996 13.8418 10.8049 13.835 10.7981C13.8281 10.7912 13.913 10.7132 14.0227 10.6241C14.2114 10.4711 14.2336 10.4611 14.4529 10.4458L14.6834 10.4295L14.6934 10.2513C14.7087 9.97602 14.7509 9.95388 14.918 10.131C14.995 10.2117 15.0578 10.3087 15.0578 10.3457V10.3462ZM12.6549 9.74876L12.7772 9.7688V10.285L12.5083 10.2755L12.2394 10.266L12.2299 10.0409C12.2231 9.95124 12.2254 9.86114 12.2367 9.77196C12.2552 9.7245 12.4445 9.71396 12.6549 9.74876ZM14.5774 8.99895L14.6997 9.01899V9.54101L14.4603 9.52519C14.3669 9.52287 14.274 9.50996 14.1835 9.4867C14.1429 9.46139 14.1308 9.03797 14.1672 8.99948C14.1946 8.97259 14.4155 8.97206 14.5774 8.99895ZM13.2481 8.95308C13.2697 9.0501 13.3309 10.2792 13.3309 10.6104V10.8693H12.9644C12.763 10.8693 12.3011 10.8592 11.9383 10.8476L11.2787 10.8292V10.4843L11.3989 10.4743C11.5017 10.4659 11.5228 10.4501 11.5444 10.3662C11.5581 10.3135 11.643 10.1954 11.7337 10.1068L11.8977 9.94491V10.5128H12.9401V10.2892C12.9401 10.1664 12.9307 9.93173 12.9191 9.76774L12.898 9.46929H12.3707L12.5326 9.30373C12.6217 9.21303 12.7345 9.13077 12.7835 9.12076C12.8547 9.10599 12.8732 9.08385 12.8732 9.0153C12.8732 8.89613 12.8922 8.88347 13.0736 8.88347C13.2112 8.8782 13.2344 8.8898 13.2481 8.95308ZM11.3936 8.78434L11.5555 8.94991L11.3667 9.12708C11.3014 9.19459 11.2281 9.2539 11.1484 9.30373C11.0694 9.25511 10.9968 9.19683 10.9322 9.13025L10.7461 8.95677L10.9486 8.78804C11.0604 8.69523 11.1695 8.6193 11.1917 8.6193C11.2138 8.6193 11.305 8.69365 11.3936 8.78434ZM15.131 8.42315H15.4812V8.58925C15.4812 8.74321 15.4743 8.75798 15.3847 8.79173C15.3558 8.80272 15.3294 8.8196 15.3074 8.8413C15.2853 8.86299 15.268 8.88902 15.2565 8.91775C15.2238 9.01161 14.9718 9.30373 14.9233 9.30373C14.908 9.30373 14.8948 9.18667 14.8948 9.04324V8.78223H13.8619L13.8777 9.26312C13.8877 9.56368 13.9072 9.75298 13.9304 9.76827C14.0087 9.78836 14.0896 9.79654 14.1703 9.79252C14.2826 9.79252 14.3744 9.80518 14.3744 9.81994C14.3744 9.87689 14.0833 10.1469 14.0105 10.1574C13.951 10.1658 13.932 10.1912 13.9241 10.2739C13.9141 10.3794 13.913 10.3794 13.7369 10.3794C13.6393 10.3794 13.5592 10.3683 13.5592 10.3551C13.5592 10.342 13.537 10.0224 13.5112 9.64594C13.4854 9.26945 13.4632 8.83022 13.4627 8.67045V8.37991L14.1208 8.40364C14.4841 8.41366 14.9386 8.42315 15.131 8.42315ZM11.566 8.06354C11.8703 8.33193 12.1988 8.62721 12.2911 8.71949L12.463 8.88717L12.1872 9.15081C12.0358 9.29687 11.7052 9.61008 11.4532 9.84683L10.9944 10.2766L10.8922 10.1711C10.783 10.0583 10.7656 9.99184 10.8299 9.92751C10.861 9.89587 10.86 9.87214 10.8241 9.8152C10.7714 9.73399 10.7329 9.26945 10.7761 9.26945C10.8537 9.32012 10.9246 9.38035 10.9871 9.44873L11.1679 9.62801L11.537 9.25891L11.9061 8.8898L11.5597 8.5671C11.3688 8.3894 11.2006 8.23965 11.1853 8.23438C11.17 8.22911 11.0799 8.29396 10.9834 8.37886L10.8099 8.53335L10.7867 8.40522C10.7619 8.26338 10.7867 8.07408 10.8294 8.04614C10.8721 8.01819 10.8626 7.92802 10.8036 7.86264C10.7508 7.80569 10.7551 7.7962 10.8589 7.68916C10.8968 7.64412 10.9419 7.60564 10.9923 7.57527C11.0029 7.57527 11.2623 7.79515 11.566 8.06354ZM12.1619 7.65278C12.2264 7.58718 12.2947 7.52538 12.3665 7.4677L12.4935 7.36646L12.4772 7.59425C12.4738 7.69581 12.4537 7.79612 12.4176 7.89111C12.3807 7.95017 12.3828 7.97337 12.4324 8.0493C12.4898 8.13683 12.4893 8.13788 12.3828 8.24809C12.3452 8.29236 12.3003 8.32982 12.2499 8.35882C12.223 8.35882 11.7601 7.95386 11.3272 7.55101L11.0667 7.30898L11.2096 7.18138L11.352 7.0543L11.7179 7.39546L12.0838 7.73714L12.1619 7.65278ZM15.3878 7.07276C15.4406 7.08752 15.4812 7.21671 15.4812 7.38017C15.4812 7.56208 15.4627 7.57421 15.188 7.57421C14.8922 7.57421 14.8948 7.5779 14.8948 7.24307V7.01476L15.1147 7.03638C15.2058 7.04412 15.2964 7.05661 15.3863 7.07381L15.3878 7.07276ZM12.1814 6.86184C12.2763 6.9557 12.3538 7.04903 12.3538 7.07012C12.3538 7.11019 12.0195 7.40917 11.9747 7.40917C11.9299 7.40917 11.6367 7.10756 11.6367 7.06907C11.6367 7.03057 11.962 6.69205 11.9931 6.69205C12.0606 6.74435 12.1236 6.8022 12.1814 6.86501V6.86184ZM17.371 6.56129V6.8223H16.85V6.30028H17.371V6.56129ZM18.0227 6.28024C18.0227 6.30344 17.9494 6.39466 17.8598 6.48325L17.6968 6.64143V6.23647H17.8598C17.97 6.23858 18.0227 6.25177 18.0227 6.28024ZM16.6797 6.68678L16.6887 7.11916H17.2218L17.0767 7.2668C17.0084 7.34052 16.9257 7.39939 16.8337 7.43975C16.754 7.46032 16.734 7.48457 16.7256 7.56947C16.7156 7.67229 16.7134 7.67492 16.5405 7.67492H16.366L16.3475 7.50355C16.3153 7.20774 16.2631 6.5017 16.2631 6.36724V6.237L16.4672 6.24649L16.6707 6.25651L16.6797 6.68678ZM16.0897 6.82546C16.1398 7.57474 16.1424 8.15212 16.0981 8.1806C16.0701 8.19747 14.1471 8.13525 14.1229 8.11627C14.1237 8.06072 14.1292 8.00534 14.1392 7.9507C14.1587 7.81677 14.1751 7.78724 14.2415 7.77142C14.2685 7.76469 14.2929 7.75014 14.3117 7.7296C14.3304 7.70906 14.3427 7.68343 14.347 7.65594C14.3607 7.60321 14.4456 7.48615 14.5357 7.39704L14.7002 7.23569V7.80358H15.7427V7.54785C15.7427 7.40706 15.7332 7.17874 15.7216 7.04481L15.701 6.79751L15.4611 6.77484L15.2217 6.75269L15.3272 6.62034C15.3892 6.54452 15.4669 6.483 15.555 6.44001C15.6299 6.41101 15.6784 6.36988 15.6784 6.33455C15.6784 6.24808 15.7137 6.23278 15.8893 6.2428L16.0538 6.25282L16.0897 6.82546ZM12.4767 6.41628C12.4856 6.55549 12.4793 6.66253 12.4624 6.66253C12.3931 6.61919 12.3306 6.56589 12.2768 6.50434L12.1186 6.34615L12.2594 6.22909C12.3427 6.16002 12.4123 6.12363 12.4297 6.14103C12.4471 6.15844 12.4682 6.28077 12.4767 6.41628Z" fill="white"/>
<path fill-rule="evenodd" clip-rule="evenodd" d="M12.4352 18.3686C13.0516 18.7625 13.0479 18.8574 12.4067 19.1416C11.9158 19.3588 11.8167 19.3757 11.765 19.2502C11.7086 19.1131 11.7239 18.4308 11.7866 18.2768C11.8673 18.0775 12.0144 18.0981 12.4352 18.3686ZM19.6891 17.1922C19.4745 17.2723 19.3596 17.8139 19.2699 19.1727C19.1159 21.4996 19.1428 22.4851 19.368 22.7583C19.4613 22.8716 20.1268 23.1643 21.7202 23.7923C21.9934 23.8978 22.3224 23.99 22.4505 23.9921L22.6841 23.9969L22.7521 23.6768C23.0342 22.3454 23.1413 18.5726 22.9161 17.8766C22.7759 17.4411 22.2713 17.0925 22.1632 17.3557C22.1057 17.4949 22.005 21.6989 22.0456 22.2257C22.0915 22.8168 22.0234 23.0166 21.7935 22.9639C21.5299 22.9022 20.7838 22.5637 20.3282 22.299L19.899 22.0491L19.9427 21.7701C20.0055 21.3689 19.9955 17.6615 19.9306 17.4063C19.8758 17.1869 19.8236 17.1405 19.6891 17.1906V17.1922ZM17.223 17.3599C17.1882 17.4727 17.1465 18.2146 17.1296 19.0092C17.1128 19.8039 17.0869 20.5273 17.0722 20.6175C17.0521 20.7372 16.943 20.86 16.6614 21.0778C16.2037 21.4321 16.0861 21.6104 16.1716 21.8213C16.2285 21.9605 16.2475 21.9663 16.537 21.9404C17.1391 21.8877 17.1365 22.0085 16.5222 22.6365C15.9701 23.2001 15.7724 23.5329 15.8694 23.729C16.0058 24.0102 16.3867 23.8345 17.0121 23.2017C17.6975 22.5089 17.7761 22.1245 17.7302 19.662C17.7007 18.0638 17.6364 17.3736 17.5035 17.2244C17.3922 17.0994 17.2868 17.1495 17.223 17.3583V17.3599ZM11.1444 17.2544L10.9994 17.3641L10.9809 19.6995C10.9588 22.521 11.0125 23.6937 11.1718 23.8582C11.3136 24.0048 11.4745 24 11.563 23.8471C11.6021 23.7796 11.6653 23.4095 11.7038 23.0246C11.7866 22.1951 11.832 22.1181 12.161 22.2468C12.4389 22.377 12.7099 22.5213 12.973 22.6792C13.7734 23.1474 14.0455 23.2708 14.2317 23.2508C14.3714 23.236 14.3898 23.2086 14.4062 22.995C14.4236 22.7688 14.4062 22.7409 14.1072 22.4677C13.9332 22.3096 13.4644 22.0021 13.0669 21.7823C12.0703 21.2349 11.7312 20.9565 11.7302 20.6844C11.7302 20.6243 12.0682 20.3781 12.6793 19.9947C13.6374 19.3942 14.1383 19.0251 14.2438 18.8431C14.3371 18.6807 14.0745 18.4524 13.2319 17.9641C11.93 17.2085 11.428 17.0388 11.1444 17.2528V17.2544ZM5.31622 17.1922C5.05258 17.2908 4.94079 18.009 4.83375 20.3174C4.76731 21.7606 4.81846 22.5416 4.99194 22.7614C5.04994 22.8337 5.22816 22.9407 5.38846 22.9987C5.54876 23.0567 6.11348 23.2861 6.64394 23.507C7.64843 23.9289 8.08397 24.0644 8.23319 24.0111C8.57699 23.8877 8.83325 18.7946 8.54166 17.8782C8.39191 17.4084 7.85934 17.0609 7.78763 17.3873C7.73016 17.6509 7.69536 18.8532 7.69114 20.7477C7.69114 21.8387 7.66214 22.7915 7.63155 22.8658C7.58621 22.9776 7.55035 22.9945 7.41695 22.965C7.15172 22.9033 5.98852 22.3475 5.75018 22.1651C5.53505 21.9984 5.52766 21.9816 5.56194 21.7406C5.67161 20.9792 5.69956 20.0243 5.64683 18.8458C5.57565 17.2449 5.54717 17.1031 5.31622 17.1906V17.1922ZM3.04202 17.2592C2.935 17.3281 2.81459 17.3735 2.68873 17.3926C2.47096 17.4247 2.22577 17.5703 1.54082 18.0728C1.13955 18.3675 0.975562 18.3659 0.908069 18.067C0.808411 17.6172 0.530529 17.3319 0.352832 17.4975C0.243155 17.6003 0.16459 18.8474 0.164062 20.5083C0.164062 21.7918 0.245265 23.6109 0.310649 23.7701C0.367597 23.9094 0.620168 23.8651 0.758319 23.6916C0.852176 23.574 0.879596 23.4105 0.916506 22.7377C0.969235 21.8666 1.03145 21.6067 1.19122 21.6357C1.24395 21.6452 1.46752 21.9183 1.68582 22.2421C1.90412 22.5658 2.27428 23.0615 2.50049 23.3446C2.85272 23.7817 2.94025 23.8593 3.08051 23.8593C3.29828 23.8593 3.32992 23.7591 3.22129 23.4116C3.09791 23.0182 2.723 22.3691 2.10133 21.4754C1.39687 20.4625 1.42429 20.5205 1.57404 20.3454C1.64153 20.2652 1.91045 20.0607 2.17146 19.8909C2.84955 19.4495 3.3315 19.0008 3.30882 18.8363C3.26506 18.55 2.90123 18.6723 1.82292 19.3351C1.17752 19.7322 1.10844 19.7569 0.992964 19.6515C0.797339 19.469 1.02618 19.2391 2.07338 18.5653C2.91705 18.0227 3.37685 17.623 3.37685 17.4321C3.37685 17.2987 3.2851 17.1521 3.20442 17.1563C3.14556 17.1818 3.09082 17.216 3.04202 17.2576V17.2592Z" fill="black"/>
<path d="M27.4007 18.8573C27.5025 18.8045 27.426 18.5767 27.4007 18.398C27.367 18.0964 27.32 17.4547 27.4007 17.3017C27.5025 17.1103 27.9586 17.3017 27.9839 17.4035C28.0092 17.5053 28.0598 18.7297 28.0598 18.9722V20.4001C28.0598 20.5915 28.0851 21.6498 28.0598 21.7262C28.0345 21.8027 28.1236 23.4352 28.1616 23.8048C28.1996 24.1745 27.9459 24.2514 27.7925 24.2129C27.639 24.1745 27.5262 23.9324 27.4882 23.8048C27.4503 23.6772 27.4629 22.1982 27.4882 21.7262C27.5135 21.2543 27.4355 21.191 27.2093 20.9611C26.9831 20.7312 26.3345 20.1834 25.8383 19.8011C25.3422 19.4188 25.4576 20.0178 25.445 20.1175C25.4323 20.2171 25.4703 21.0993 25.4977 21.3545C25.5251 21.6097 25.5109 23.9941 25.3838 24.1091C25.2567 24.224 24.9277 23.7648 24.8644 23.586C24.8012 23.4072 24.7906 22.1729 24.7906 22.0326C24.7906 21.8923 24.6641 21.4842 24.7906 21.2417C24.9172 20.9991 24.7653 17.4547 24.7906 17.3017C24.8159 17.1488 25.1455 17.1483 25.2726 17.1615C25.3996 17.1747 25.5004 17.3655 25.6654 17.4926C25.8304 17.6197 26.7047 18.398 26.9309 18.6279C27.1571 18.8578 27.2995 18.9084 27.4007 18.8573Z" fill="black"/>
<path d="M25.6732 19.1069C25.5039 19.0679 25.5429 18.9488 25.5429 18.7046C25.5519 18.6134 25.5899 18.4136 25.6732 18.3408C25.7786 18.2501 25.8952 18.4578 25.9991 18.5485C26.1029 18.6392 26.5074 19.0679 26.6772 19.1723C26.8469 19.2767 27.3025 19.7434 27.3806 19.8863C27.4586 20.0292 27.3415 20.0165 27.2635 20.0682C27.1855 20.1199 27.1053 20.0424 27.0157 19.9385C26.926 19.8346 26.3513 19.3927 26.2991 19.3411C26.2469 19.2894 25.8435 19.1444 25.6732 19.1069Z" fill="white"/>
<path d="M25.6594 18.3193C25.6097 18.3718 25.5747 18.4366 25.5582 18.507C25.5396 18.5703 25.5267 18.635 25.5197 18.7005L25.5724 18.7058C25.5789 18.6435 25.5911 18.5819 25.6088 18.5218C25.6228 18.4613 25.652 18.4054 25.6937 18.3594L25.6594 18.3193ZM26.0196 18.5302C25.9923 18.5045 25.9665 18.4774 25.9421 18.449C25.9146 18.4184 25.8862 18.3857 25.8577 18.3583C25.8314 18.3317 25.7995 18.3111 25.7644 18.2982C25.7463 18.2923 25.7269 18.2914 25.7084 18.2955C25.6898 18.2997 25.6727 18.3088 25.6589 18.3219L25.6932 18.362C25.6999 18.3552 25.7084 18.3504 25.7177 18.3481C25.727 18.3458 25.7367 18.346 25.7459 18.3488C25.7733 18.3592 25.798 18.3756 25.8181 18.3968C25.845 18.4221 25.8709 18.4527 25.8993 18.4838C25.925 18.5141 25.9525 18.5428 25.9816 18.5698L26.0196 18.5302ZM26.694 19.1508C26.5657 19.0569 26.4458 18.9521 26.3354 18.8376C26.201 18.7074 26.0718 18.574 26.019 18.5302L25.9842 18.5698C26.037 18.6146 26.1614 18.7427 26.3006 18.8756C26.4142 18.9927 26.5377 19.0998 26.6697 19.1957L26.694 19.1508ZM27.4069 19.8748C27.3709 19.8174 27.33 19.7632 27.2845 19.7129C27.2281 19.647 27.158 19.5716 27.0852 19.4973C26.966 19.3697 26.835 19.2537 26.694 19.1508L26.6666 19.1957C26.8036 19.2965 26.931 19.4099 27.0473 19.5342C27.1195 19.608 27.1886 19.6824 27.245 19.7477C27.2879 19.7952 27.3267 19.8461 27.361 19.9001L27.4069 19.8748ZM27.2814 20.0915C27.2995 20.0801 27.3187 20.0708 27.3388 20.0636C27.3601 20.056 27.3804 20.0461 27.3995 20.0341C27.4099 20.0269 27.4186 20.0175 27.4249 20.0066C27.4312 19.9956 27.435 19.9834 27.4359 19.9708C27.4353 19.9367 27.4252 19.9035 27.4069 19.8748L27.361 19.9001C27.3742 19.9201 27.3819 19.9432 27.3831 19.9671C27.3829 19.972 27.3814 19.9768 27.3788 19.9811C27.3762 19.9853 27.3726 19.9888 27.3684 19.9913C27.3529 20.0008 27.3365 20.0086 27.3193 20.0145C27.2959 20.0234 27.2733 20.0343 27.2518 20.0472L27.2814 20.0915ZM26.9993 19.9571C27.0382 20.0054 27.0832 20.0485 27.1332 20.0852C27.1548 20.0998 27.1796 20.109 27.2054 20.1121C27.2324 20.1141 27.2591 20.1068 27.2814 20.0915L27.2518 20.0472C27.2397 20.0561 27.2247 20.0604 27.2097 20.0594C27.1924 20.0572 27.176 20.0508 27.1617 20.0409C27.1159 20.0067 27.0746 19.9669 27.0388 19.9223L26.9993 19.9571ZM26.2837 19.3607C26.298 19.3749 26.3449 19.4134 26.4066 19.4662C26.4683 19.5189 26.5479 19.5785 26.6291 19.6444C26.7103 19.7103 26.7915 19.7757 26.859 19.8326C26.9081 19.8724 26.9549 19.9148 26.9993 19.9597L27.0388 19.9249C26.9929 19.8777 26.9441 19.8333 26.8928 19.792C26.8253 19.7351 26.743 19.6686 26.6623 19.6033L26.4398 19.425C26.3765 19.3723 26.3344 19.338 26.3207 19.3259L26.2837 19.3607ZM25.6705 19.134C25.7904 19.1647 25.9085 19.2018 26.0243 19.2452C26.0881 19.2684 26.1482 19.2922 26.1957 19.3133C26.2189 19.3238 26.2389 19.3333 26.2547 19.3417C26.265 19.347 26.2748 19.3534 26.2837 19.3607L26.3207 19.3233C26.3082 19.3126 26.2946 19.3034 26.28 19.2959C26.2626 19.2864 26.241 19.2758 26.2168 19.2653C26.1683 19.2436 26.1071 19.2194 26.0422 19.1957C25.9245 19.1515 25.8045 19.1138 25.6826 19.0828L25.6705 19.134ZM25.5197 18.7058C25.5197 18.767 25.5197 18.8197 25.5165 18.864C25.5143 18.905 25.5161 18.9462 25.5218 18.9869C25.5264 19.0217 25.5419 19.0542 25.5661 19.0797C25.5955 19.1069 25.6321 19.1252 25.6716 19.1324L25.6837 19.0797C25.6543 19.0747 25.6268 19.0616 25.6046 19.0417C25.588 19.024 25.5776 19.0015 25.5751 18.9774C25.5699 18.94 25.5684 18.9022 25.5703 18.8645C25.5703 18.8192 25.5735 18.7643 25.5735 18.7026L25.5197 18.7058ZM25.5461 18.7048L25.5197 18.7021V18.7048H25.5461Z" fill="white"/>
</svg>
