<svg width="51" height="51" viewBox="0 0 51 51" fill="none" xmlns="http://www.w3.org/2000/svg">
<circle cx="25.7969" cy="25.5" r="25" fill="#14988B"/>
<path d="M29.7969 25.5C29.7969 26.2911 29.5623 27.0645 29.1228 27.7223C28.6832 28.3801 28.0585 28.8928 27.3276 29.1955C26.5967 29.4983 25.7924 29.5775 25.0165 29.4231C24.2406 29.2688 23.5279 28.8878 22.9684 28.3284C22.409 27.769 22.0281 27.0563 21.8737 26.2804C21.7194 25.5044 21.7986 24.7002 22.1014 23.9693C22.4041 23.2384 22.9168 22.6136 23.5746 22.1741C24.2324 21.7346 25.0057 21.5 25.7969 21.5C26.8567 21.5033 27.8722 21.9258 28.6217 22.6752C29.3711 23.4246 29.7936 24.4401 29.7969 25.5ZM38.2969 20V31C38.2969 32.8565 37.5594 34.637 36.2466 35.9497C34.9339 37.2625 33.1534 38 31.2969 38H20.2969C18.4404 38 16.6599 37.2625 15.3471 35.9497C14.0344 34.637 13.2969 32.8565 13.2969 31V20C13.2969 18.1435 14.0344 16.363 15.3471 15.0503C16.6599 13.7375 18.4404 13 20.2969 13H31.2969C33.1534 13 34.9339 13.7375 36.2466 15.0503C37.5594 16.363 38.2969 18.1435 38.2969 20ZM31.7969 25.5C31.7969 24.3133 31.445 23.1533 30.7857 22.1666C30.1264 21.1799 29.1893 20.4108 28.093 19.9567C26.9966 19.5026 25.7902 19.3838 24.6263 19.6153C23.4624 19.8468 22.3933 20.4182 21.5542 21.2574C20.7151 22.0965 20.1437 23.1656 19.9122 24.3295C19.6807 25.4933 19.7995 26.6997 20.2536 27.7961C20.7077 28.8925 21.4768 29.8295 22.4635 30.4888C23.4501 31.1481 24.6102 31.5 25.7969 31.5C27.3882 31.5 28.9143 30.8679 30.0395 29.7426C31.1647 28.6174 31.7969 27.0913 31.7969 25.5ZM33.7969 19C33.7969 18.7033 33.7089 18.4133 33.5441 18.1666C33.3793 17.92 33.145 17.7277 32.8709 17.6142C32.5968 17.5006 32.2952 17.4709 32.0042 17.5288C31.7133 17.5867 31.446 17.7296 31.2362 17.9393C31.0264 18.1491 30.8836 18.4164 30.8257 18.7074C30.7678 18.9983 30.7975 19.2999 30.9111 19.574C31.0246 19.8481 31.2168 20.0824 31.4635 20.2472C31.7102 20.412 32.0002 20.5 32.2969 20.5C32.6947 20.5 33.0762 20.342 33.3575 20.0607C33.6388 19.7794 33.7969 19.3978 33.7969 19Z" fill="white"/>
</svg>
