<svg width="135" height="113" viewBox="0 0 135 113" fill="none" xmlns="http://www.w3.org/2000/svg">
<path d="M91.0862 33.9111H43.8159V59.8153H91.0862V33.9111Z" fill="#14988B"/>
<path d="M40.9746 20.944C41.0779 19.5852 41.6906 18.3155 42.69 17.3891C43.6895 16.4628 45.002 15.9481 46.3648 15.9482H89.4584C90.8244 15.9478 92.1399 16.4647 93.1404 17.3948C94.1409 18.3249 94.7521 19.5993 94.8511 20.9617L97.9305 63.2842C97.9843 64.0254 97.8848 64.7697 97.6382 65.4707C97.3917 66.1717 97.0032 66.8143 96.4972 67.3585C95.9912 67.9027 95.3785 68.3368 94.6972 68.6337C94.016 68.9306 93.2809 69.0838 92.5378 69.084H43.1362C42.392 69.0837 41.6558 68.9297 40.9737 68.6318C40.2917 68.3338 39.6785 67.8983 39.1725 67.3525C38.6666 66.8066 38.2787 66.1622 38.0333 65.4596C37.7878 64.757 37.69 64.0112 37.7461 63.2691L40.9746 20.944Z" fill="black"/>
<path fill-rule="evenodd" clip-rule="evenodd" d="M77.4989 26.5786C77.075 26.604 76.6529 26.6538 76.2348 26.7277C76.1893 26.7732 79.8173 50.4931 79.8754 50.5285C79.9336 50.5639 83.3644 50.2933 83.4149 50.2327C83.4655 50.172 82.6565 44.9006 81.6629 38.4587C80.6693 32.0168 79.8577 26.6746 79.8552 26.5912C79.8552 26.4168 79.3521 26.4142 77.4989 26.5786ZM87.182 40.3498L89.9302 59.6275H45.939L48.1007 44.4582C49.2889 36.115 50.5227 27.4432 50.8413 25.1779L51.4 21.062H84.4237L87.182 40.3498ZM70.9811 4.88133C73.0301 5.38498 74.923 6.38705 76.4914 7.79846C78.0598 9.20988 79.2553 10.9869 79.9715 12.9717C80.4031 14.1636 80.6512 15.4142 80.7072 16.6806V17.3986H55.1317V16.6806C55.1503 16.1129 55.212 15.5475 55.3162 14.9892C56.3452 9.56109 60.6255 5.46789 66.1648 4.59059C67.3556 4.41361 69.6614 4.55014 70.9811 4.88133ZM66.0941 0.942362C65.3456 1.03052 64.6033 1.16562 63.8717 1.34687C60.5153 2.20943 57.5148 4.10513 55.2945 6.76599C53.0741 9.42684 51.7463 12.7182 51.4986 16.1749L51.4177 17.3253L50.7477 17.4618C50.0291 17.5746 49.3674 17.9201 48.8642 18.4453C47.9768 19.3352 48.1512 18.3543 45.1325 39.4649C43.5903 50.2504 42.3287 59.3874 42.3287 59.7666C42.3534 60.467 42.5818 61.145 42.9859 61.7175C43.3901 62.2901 43.9524 62.7323 44.6041 62.9901C45.1932 63.2176 45.8278 63.2227 67.922 63.2227C90.0161 63.2227 90.6532 63.2227 91.2423 62.9901C91.8942 62.7326 92.4568 62.2904 92.861 61.7178C93.2651 61.1452 93.4934 60.4671 93.5177 59.7666C93.5177 59.3874 92.2536 50.2504 90.7165 39.4649C88.4714 23.7748 87.8621 19.7599 87.6624 19.3655C87.3956 18.858 87.0155 18.4186 86.5517 18.0814C86.0879 17.7443 85.5526 17.5184 84.9875 17.4213L84.4287 17.3404L84.3504 16.1825C84.0791 12.3001 82.4424 8.63892 79.7302 5.84764C77.0181 3.05635 73.4055 1.31507 69.5324 0.932247C68.3901 0.795033 67.2352 0.800128 66.0941 0.947415V0.942362Z" fill="black"/>
<path fill-rule="evenodd" clip-rule="evenodd" d="M81.0408 56.3566C81.0369 56.7755 81.0048 57.1936 80.9447 57.6081L80.8461 58.1946H78.3887V55.6993H81.0408V56.3566ZM57.7634 53.9295V55.1431L56.5524 55.0925C56.0819 55.0832 55.6124 55.0444 55.1467 54.9762C55.0153 54.9332 54.9495 54.554 54.9495 53.8132V52.7135H57.7634V53.9295ZM71.6687 53.4062V54.7234L70.8369 54.827C69.8079 54.956 69.2416 54.8852 69.2618 54.6298C69.2618 54.5211 69.2896 53.9068 69.3023 53.2621L69.325 52.089H71.6687V53.4062ZM77.4482 51.6845C77.4482 52.1446 77.5114 52.2331 77.8881 52.3165C78.3356 52.4151 79.9486 53.7146 79.9486 53.9776C79.9486 54.0559 79.3494 54.1217 78.6188 54.1217H77.2915V59.1781L78.5809 59.077C79.2888 59.0239 80.4138 58.9784 81.0813 58.9759H82.2898V57.7219C82.2898 57.0342 82.3555 56.4704 82.4339 56.4704C82.6867 56.4704 83.8623 57.9444 83.9508 58.3868C84.0292 58.7534 84.1227 58.8166 84.5702 58.8166H85.0986V60.5029L84.1986 60.6015C83.3895 60.6875 77.0462 60.9984 75.997 61.001H75.5697V59.1503C75.5697 58.139 75.6153 55.9142 75.6709 54.2253L75.7745 51.151H77.4432L77.4482 51.6845ZM60.4181 49.8844L61.2777 49.9855V50.7591C61.2777 51.4569 61.2372 51.5429 60.8858 51.6263C60.776 51.6443 60.6746 51.6961 60.5957 51.7745C60.5169 51.8529 60.4645 51.954 60.4459 52.0637C60.4181 52.2558 60.0515 52.7792 59.6318 53.2317L58.8733 54.0509V53.3278C58.8703 52.9213 58.8365 52.5156 58.7722 52.1143L58.6736 51.6263H53.7006V53.8562C53.7006 55.0799 53.7688 56.1898 53.8523 56.3187C53.9635 56.4932 54.2517 56.5437 55.0203 56.5134C55.7889 56.483 56.0316 56.5134 56.0316 56.6954C56.0316 57.0392 54.6284 58.1946 54.2138 58.1946C53.961 58.1946 53.8447 58.2831 53.8447 58.4753C53.8447 58.9278 53.5185 59.1326 52.798 59.1326H52.1255V57.0595C52.1255 55.9218 52.0547 53.9346 51.9713 52.6452C51.8918 51.7745 51.8699 50.8995 51.9055 50.0259C51.9864 49.7731 52.2949 49.7529 55.7712 49.7731C57.8595 49.7757 59.9453 49.8262 60.4181 49.8844ZM74.5989 52.4126C74.6217 54.2633 74.5989 56.3743 74.5205 57.1024L74.3992 58.4323H73.618C72.8822 58.4323 72.8342 58.407 72.7887 58C72.7533 57.7067 72.6496 57.5702 72.4499 57.5702C72.1389 57.5702 70.4273 56.2403 70.4273 56.0001C70.4273 55.9167 70.9532 55.851 71.5979 55.851H72.7685V50.8451H67.9648L67.8637 51.2521C67.8073 51.6089 67.8073 51.9724 67.8637 52.3292C67.9219 52.7135 67.8991 53.0371 67.8106 53.0876C67.578 53.2317 66.3645 51.9423 66.2659 51.4468C66.2428 51.3074 66.1799 51.1777 66.0848 51.0732C65.9897 50.9686 65.8665 50.8938 65.7299 50.8577C65.3228 50.7162 65.2773 50.6302 65.2773 50.0057V49.313L68.9104 49.1613C70.9077 49.0779 72.9985 49.0172 73.5573 49.0248L74.5686 49.0425L74.5989 52.4126ZM72.1339 46.3044C72.1339 46.5193 72.235 46.6255 72.4423 46.6255C72.8266 46.6255 73.0718 47.0704 73.0718 47.7657V48.3017L69.6992 48.4155C67.846 48.4787 66.3038 48.504 66.2709 48.4711C66.2381 48.4382 66.6451 48.064 67.171 47.6368C68.0761 46.9036 68.1823 46.8556 69.234 46.7822L70.3388 46.7039L70.3869 45.8493C70.4602 44.5296 70.6625 44.4234 71.4639 45.2729C71.833 45.6597 72.1339 46.1249 72.1339 46.3019V46.3044ZM60.6128 43.4399L61.1993 43.536V46.0111L59.9099 45.9656L58.6205 45.9201L58.575 44.8405C58.5424 44.4107 58.5534 43.9787 58.6079 43.5512C58.6964 43.3236 59.604 43.2731 60.6128 43.4399ZM69.8307 39.8448L70.4172 39.9409V42.4438L69.2694 42.3679C68.8214 42.3568 68.3761 42.2949 67.9421 42.1834C67.7474 42.062 67.6893 40.0319 67.8637 39.8473C67.9952 39.7184 69.0545 39.7158 69.8307 39.8448ZM63.457 39.6248C63.5607 40.09 63.8539 45.9833 63.8539 47.571V48.8124H62.0968C61.131 48.8124 58.9163 48.7644 57.1769 48.7087L54.0141 48.6203V46.9668L54.5905 46.9188C55.0835 46.8783 55.1847 46.8025 55.2883 46.4005C55.354 46.1476 55.7611 45.5813 56.1959 45.1566L56.9822 44.3804V47.1033H61.9805V46.0313C61.9805 45.4423 61.935 44.3172 61.8794 43.5309L61.7783 42.1H59.25L60.0262 41.3061C60.4535 40.8712 60.9945 40.4768 61.2296 40.4288C61.571 40.358 61.6594 40.2518 61.6594 39.9232C61.6594 39.3518 61.7505 39.2911 62.6202 39.2911C63.28 39.2658 63.3913 39.3214 63.457 39.6248ZM54.5652 38.8158L55.3414 39.6096L54.4363 40.4591C54.123 40.7828 53.7715 41.0672 53.3896 41.3061C53.0109 41.073 52.6627 40.7936 52.353 40.4743L51.4606 39.6425L52.4314 38.8335C52.9674 38.3885 53.4907 38.0245 53.5969 38.0245C53.7031 38.0245 54.1405 38.3809 54.5652 38.8158ZM72.4853 37.084H74.164V37.8803C74.164 38.6186 74.1312 38.6894 73.7014 38.8512C73.5627 38.9039 73.4366 38.9848 73.3308 39.0889C73.2251 39.1929 73.142 39.3177 73.087 39.4554C72.9303 39.9055 71.7218 41.3061 71.4892 41.3061C71.4159 41.3061 71.3527 40.7448 71.3527 40.0571V38.8057H66.3999L66.4757 41.1114C66.5237 42.5525 66.6173 43.4601 66.7285 43.5335C67.104 43.6298 67.4918 43.669 67.8789 43.6498C68.4174 43.6498 68.8573 43.7104 68.8573 43.7812C68.8573 44.0543 67.4617 45.3487 67.1128 45.3993C66.8271 45.4397 66.7361 45.5611 66.6982 45.958C66.6502 46.4637 66.6451 46.4637 65.8007 46.4637C65.3329 46.4637 64.9487 46.4106 64.9487 46.3474C64.9487 46.2842 64.8425 44.7521 64.7186 42.9469C64.5947 41.1418 64.4885 39.0357 64.486 38.2697V36.8766L67.6412 36.9904C69.3832 37.0384 71.5625 37.084 72.4853 37.084ZM55.392 35.3597C56.8507 36.6466 58.4258 38.0624 58.8683 38.5048L59.6925 39.3088L58.3702 40.5729C57.6446 41.2732 56.0594 42.775 54.8509 43.9102L52.6514 45.9707L52.1609 45.465C51.6375 44.924 51.5541 44.6054 51.8626 44.297C52.0117 44.1453 52.0067 44.0315 51.8348 43.7585C51.5819 43.3691 51.3974 41.1418 51.6047 41.1418C51.9765 41.3847 52.3163 41.6735 52.616 42.0014L53.4832 42.861L55.2529 41.0912L57.0227 39.3214L55.3616 37.7742C54.4464 36.9221 53.6399 36.2041 53.5666 36.1789C53.4933 36.1536 53.0609 36.4645 52.5983 36.8716L51.7665 37.6124L51.6552 36.998C51.5364 36.3179 51.6552 35.4103 51.86 35.2763C52.0648 35.1423 52.0193 34.7099 51.7361 34.3964C51.4833 34.1234 51.5036 34.0779 52.0016 33.5647C52.1833 33.3487 52.3995 33.1642 52.6413 33.0186C52.6918 33.0186 53.9357 34.0728 55.392 35.3597ZM58.2489 33.3902C58.5584 33.0757 58.8859 32.7794 59.2298 32.5028L59.8391 32.0174L59.7607 33.1096C59.7446 33.5965 59.6481 34.0775 59.4751 34.533C59.2981 34.8161 59.3082 34.9274 59.5458 35.2914C59.8214 35.7111 59.8189 35.7162 59.3082 36.2446C59.1279 36.4569 58.9124 36.6365 58.6711 36.7755C58.5421 36.7755 56.3223 34.8338 54.2467 32.9023L52.9977 31.7418L53.6829 31.13L54.3655 30.5207L56.1201 32.1564L57.8747 33.7947L58.2489 33.3902ZM73.7166 30.6092C73.9694 30.68 74.164 31.2994 74.164 32.0831C74.164 32.9554 74.0756 33.0135 72.7584 33.0135C71.34 33.0135 71.3527 33.0312 71.3527 31.4258V30.3311L72.4069 30.4347C72.8438 30.4718 73.2784 30.5317 73.709 30.6142L73.7166 30.6092ZM58.3424 29.5979C58.7975 30.0479 59.1691 30.4954 59.1691 30.5965C59.1691 30.7887 57.5662 32.2222 57.3513 32.2222C57.1364 32.2222 55.7307 30.776 55.7307 30.5915C55.7307 30.4069 57.2907 28.7838 57.4398 28.7838C57.7633 29.0345 58.0652 29.3119 58.3424 29.613V29.5979ZM83.2252 28.1568V29.4083H80.7273V26.9053H83.2252V28.1568ZM86.3501 26.8092C86.3501 26.9205 85.9987 27.3579 85.5689 27.7826L84.7877 28.5411V26.5994H85.5689C86.0973 26.6095 86.3501 26.6727 86.3501 26.8092ZM79.9107 28.7585L79.9537 30.8317H82.5097L81.8145 31.5396C81.487 31.893 81.0902 32.1753 80.649 32.3688C80.2672 32.4674 80.1711 32.5837 80.1307 32.9908C80.0826 33.4838 80.0725 33.4964 79.2433 33.4964H78.4064L78.3179 32.6747C78.1637 31.2564 77.9134 27.8711 77.9134 27.2264V26.6019L78.8918 26.6474L79.8677 26.6955L79.9107 28.7585ZM77.0816 29.4234C77.3218 33.016 77.3344 35.7844 77.1221 35.921C76.9881 36.0019 67.7676 35.7035 67.6513 35.6125C67.6554 35.3462 67.6816 35.0807 67.7297 34.8187C67.8232 34.1765 67.9016 34.0349 68.2202 33.9591C68.3496 33.9268 68.4666 33.857 68.5566 33.7585C68.6465 33.6601 68.7054 33.5372 68.7258 33.4054C68.7916 33.1526 69.1986 32.5913 69.6309 32.164L70.4197 31.3904V34.1133H75.418V32.8871C75.418 32.2121 75.3725 31.1173 75.3169 30.4752L75.2183 29.2894L74.068 29.1807L72.9202 29.0745L73.4258 28.4399C73.7233 28.0764 74.0959 27.7814 74.518 27.5753C74.877 27.4362 75.1096 27.239 75.1096 27.0697C75.1096 26.655 75.279 26.5817 76.1209 26.6297L76.9097 26.6778L77.0816 29.4234ZM59.7582 27.4615C59.8012 28.129 59.7708 28.6422 59.6899 28.6422C59.3577 28.4344 59.0578 28.1789 58.8 27.8837L58.0415 27.1253L58.7166 26.564C59.116 26.2328 59.4498 26.0584 59.5332 26.1418C59.6166 26.2252 59.7178 26.8118 59.7582 27.4615Z" fill="white"/>
<path fill-rule="evenodd" clip-rule="evenodd" d="M59.5478 84.7728C62.5033 86.6614 62.4856 87.1164 59.4113 88.4791C57.0575 89.5208 56.5822 89.6017 56.3344 89C56.0639 88.3426 56.1372 85.0711 56.4381 84.3329C56.8249 83.3772 57.5303 83.4758 59.5478 84.7728ZM94.3286 79.1323C93.2997 79.5166 92.7485 82.1131 92.3187 88.6283C91.5805 99.7854 91.7094 104.511 92.7889 105.82C93.2364 106.364 96.4271 107.767 104.067 110.778C105.377 111.284 106.955 111.726 107.569 111.736L108.689 111.759L109.015 110.224C110.368 103.841 110.881 85.7512 109.801 82.4139C109.129 80.3256 106.709 78.6545 106.191 79.916C105.916 80.5835 105.433 100.741 105.627 103.267C105.847 106.101 105.521 107.059 104.419 106.806C103.155 106.51 99.5772 104.887 97.3929 103.618L95.3349 102.42L95.5447 101.082C95.8456 99.1584 95.7975 81.3824 95.4866 80.1588C95.2236 79.107 94.9733 78.8845 94.3286 79.1247V79.1323ZM82.5041 79.9363C82.3373 80.4773 82.1375 84.0345 82.0566 87.8446C81.9757 91.6546 81.8518 95.1233 81.7811 95.5557C81.685 96.1296 81.1616 96.7186 79.8116 97.7628C77.6171 99.4618 77.0533 100.316 77.4628 101.328C77.7359 101.995 77.8269 102.023 79.2149 101.899C82.1021 101.646 82.0895 102.225 79.1441 105.236C76.4971 107.939 75.549 109.534 76.0142 110.475C76.6681 111.823 78.4944 110.98 81.4928 107.946C84.7795 104.624 85.1562 102.781 84.9363 90.9745C84.7947 83.3115 84.4863 80.002 83.8491 79.2865C83.3157 78.6873 82.81 78.9275 82.5041 79.9287V79.9363ZM53.3587 79.4306L52.6635 79.9565L52.575 91.154C52.4688 104.683 52.7267 110.305 53.4902 111.094C54.1703 111.797 54.9414 111.774 55.3661 111.041C55.5532 110.717 55.8566 108.943 56.0412 107.097C56.4381 103.12 56.6555 102.751 58.2331 103.368C59.5655 103.992 60.865 104.684 62.1266 105.441C65.9645 107.686 67.269 108.278 68.1615 108.182C68.8315 108.111 68.92 107.979 68.9983 106.955C69.0818 105.871 68.9983 105.737 67.5648 104.427C66.7305 103.669 64.4829 102.195 62.5766 101.141C57.7983 98.5162 56.1726 97.1813 56.1676 95.8767C56.1676 95.5885 57.7882 94.4079 60.7184 92.5698C65.3122 89.6902 67.714 87.9204 68.2196 87.0482C68.6671 86.2695 67.4081 85.1748 63.368 82.8336C57.1258 79.2107 54.7189 78.3966 53.3587 79.4231V79.4306ZM25.4142 79.1323C24.1501 79.6051 23.6141 83.0485 23.1009 94.1171C22.7824 101.037 23.0276 104.781 23.8594 105.835C24.1375 106.182 24.992 106.695 25.7606 106.973C26.5292 107.251 29.2369 108.351 31.7803 109.41C36.5966 111.433 38.6849 112.083 39.4004 111.827C41.0488 111.236 42.2775 86.8156 40.8794 82.4215C40.1614 80.1689 37.6079 78.5028 37.264 80.0678C36.9885 81.3319 36.8216 87.0962 36.8014 96.1801C36.8014 101.411 36.6623 105.98 36.5157 106.336C36.2983 106.872 36.1263 106.953 35.4867 106.811C34.215 106.516 28.6377 103.851 27.495 102.976C26.4635 102.177 26.4281 102.096 26.5924 100.941C27.1183 97.29 27.2523 92.7114 26.9994 87.0608C26.6581 79.3851 26.5216 78.705 25.4142 79.1247V79.1323ZM14.51 79.4534C13.9969 79.7839 13.4196 80.0018 12.8161 80.093C11.7719 80.2472 10.5963 80.945 7.31213 83.3544C5.38815 84.7677 4.60187 84.7601 4.27826 83.3266C3.80043 81.1701 2.46805 79.8023 1.61604 80.5961C1.09017 81.0891 0.713466 87.0684 0.710938 95.0323C0.710938 101.186 1.10028 109.908 1.41378 110.672C1.68683 111.339 2.89785 111.127 3.56025 110.295C4.01027 109.731 4.14174 108.948 4.31871 105.722C4.57154 101.545 4.86987 100.299 5.63592 100.438C5.88874 100.483 6.96071 101.793 8.0074 103.345C9.05408 104.897 10.8289 107.274 11.9135 108.632C13.6024 110.728 14.022 111.099 14.6946 111.099C15.7387 111.099 15.8904 110.619 15.3696 108.953C14.778 107.067 12.9804 103.954 9.99964 99.6691C6.62193 94.8124 6.7534 95.0905 7.47141 94.2511C7.79503 93.8668 9.08442 92.8859 10.3359 92.0718C13.5872 89.9556 15.898 87.8041 15.7893 87.0153C15.5794 85.6425 13.835 86.229 8.66474 89.407C5.57019 91.3108 5.23899 91.4296 4.68531 90.924C3.74734 90.0492 4.84459 88.9469 9.86564 85.7158C13.9108 83.1143 16.1154 81.1979 16.1154 80.2826C16.1154 79.643 15.6755 78.9402 15.2887 78.9604C15.0065 79.0826 14.744 79.2462 14.51 79.4458V79.4534Z" fill="black"/>
<path d="M131.298 87.1139C131.786 86.8611 131.42 85.7689 131.298 84.9118C131.137 83.4657 130.912 80.3888 131.298 79.6556C131.786 78.7379 133.973 79.6556 134.095 80.1436C134.216 80.6315 134.459 86.5021 134.459 87.665V94.5115C134.459 95.4292 134.58 100.503 134.459 100.87C134.337 101.237 134.765 109.064 134.947 110.836C135.129 112.609 133.913 112.978 133.177 112.793C132.441 112.609 131.9 111.448 131.718 110.836C131.536 110.224 131.597 103.133 131.718 100.87C131.839 98.6072 131.465 98.3038 130.381 97.2015C129.296 96.0992 126.186 93.4724 123.807 91.6394C121.428 89.8064 121.982 92.6785 121.921 93.1563C121.861 93.6342 122.043 97.8639 122.174 99.0876C122.306 100.311 122.237 111.744 121.628 112.295C121.019 112.846 119.441 110.644 119.138 109.787C118.834 108.93 118.784 103.011 118.784 102.339C118.784 101.666 118.177 99.7095 118.784 98.5465C119.39 97.3835 118.662 80.3888 118.784 79.6556C118.905 78.9224 120.485 78.9199 121.095 78.9831C121.704 79.0463 122.187 79.9615 122.978 80.5708C123.769 81.1801 127.961 84.9118 129.046 86.0141C130.13 87.1164 130.813 87.3591 131.298 87.1139Z" fill="black"/>
<path d="M123.024 88.3123C122.212 88.1252 122.399 87.5538 122.399 86.3833C122.442 85.9459 122.625 84.9877 123.024 84.6388C123.53 84.2039 124.088 85.2 124.586 85.6349C125.084 86.0697 127.024 88.1252 127.838 88.6258C128.652 89.1264 130.836 91.3639 131.21 92.049C131.585 92.7342 131.023 92.6735 130.649 92.9212C130.275 93.169 129.891 92.7974 129.461 92.2993C129.031 91.8013 126.275 89.6826 126.025 89.4348C125.775 89.1871 123.841 88.4918 123.024 88.3123Z" fill="white"/>
<path d="M122.942 84.5355C122.704 84.7872 122.536 85.0978 122.457 85.4355C122.368 85.7387 122.306 86.0492 122.272 86.3634L122.525 86.3887C122.556 86.0898 122.615 85.7945 122.7 85.5063C122.767 85.2162 122.907 84.9481 123.107 84.7276L122.942 84.5355ZM124.669 85.5468C124.539 85.4235 124.415 85.2936 124.298 85.1574C124.166 85.0108 124.03 84.854 123.893 84.7226C123.767 84.5947 123.614 84.4963 123.446 84.4343C123.359 84.4059 123.266 84.4015 123.177 84.4215C123.088 84.4415 123.006 84.4853 122.94 84.5481L123.104 84.7403C123.137 84.7078 123.177 84.6847 123.222 84.6736C123.266 84.6624 123.313 84.6636 123.357 84.6771C123.488 84.7266 123.607 84.8052 123.703 84.9071C123.832 85.0285 123.956 85.1751 124.093 85.3243C124.216 85.4694 124.348 85.607 124.487 85.7364L124.669 85.5468ZM127.903 88.5225C127.288 88.0719 126.713 87.5694 126.184 87.0207C125.539 86.3963 124.92 85.7566 124.667 85.5468L124.5 85.7364C124.753 85.9513 125.349 86.5656 126.017 87.2027C126.561 87.7644 127.153 88.2779 127.787 88.7374L127.903 88.5225ZM131.321 91.9937C131.149 91.7182 130.952 91.4585 130.734 91.2176C130.464 90.9015 130.128 90.54 129.779 90.1835C129.207 89.572 128.579 89.0158 127.903 88.5225L127.771 88.7374C128.428 89.2211 129.04 89.7644 129.597 90.3605C129.943 90.7145 130.274 91.0709 130.545 91.3844C130.75 91.6119 130.937 91.8563 131.101 92.1151L131.321 91.9937ZM130.719 93.0328C130.806 92.9782 130.898 92.9333 130.995 92.8988C131.097 92.8625 131.194 92.815 131.286 92.7573C131.336 92.7231 131.377 92.6781 131.408 92.6256C131.438 92.573 131.456 92.5143 131.46 92.4539C131.457 92.2906 131.409 92.1313 131.321 91.9937L131.101 92.1151C131.164 92.2107 131.201 92.3216 131.207 92.4362C131.206 92.4599 131.199 92.4829 131.186 92.5032C131.174 92.5235 131.157 92.5404 131.136 92.5525C131.062 92.5978 130.983 92.6351 130.901 92.6637C130.789 92.7061 130.681 92.7585 130.578 92.8205L130.719 93.0328ZM129.367 92.3881C129.553 92.6199 129.769 92.8264 130.009 93.0025C130.112 93.0725 130.231 93.1167 130.355 93.1314C130.484 93.1409 130.613 93.1062 130.719 93.0328L130.578 92.8205C130.519 92.8632 130.448 92.8838 130.375 92.8786C130.293 92.8681 130.214 92.8377 130.145 92.7901C129.926 92.6262 129.728 92.435 129.556 92.2213L129.367 92.3881ZM125.936 89.5287C126.004 89.597 126.229 89.7815 126.525 90.0344C126.821 90.2872 127.202 90.5729 127.592 90.8889C127.981 91.2049 128.371 91.5184 128.694 91.7915C128.929 91.9822 129.154 92.1855 129.367 92.4008L129.556 92.2339C129.336 92.0076 129.102 91.7948 128.856 91.5968C128.532 91.3238 128.138 91.0052 127.751 90.6917L126.684 89.8372C126.381 89.5843 126.179 89.42 126.113 89.3619L125.936 89.5287ZM122.996 88.4416C123.57 88.5887 124.137 88.7668 124.692 88.975C124.998 89.0863 125.286 89.2 125.514 89.3012C125.625 89.3517 125.721 89.3973 125.797 89.4377C125.846 89.4631 125.893 89.4936 125.936 89.5287L126.113 89.3492C126.053 89.2979 125.988 89.2537 125.918 89.2178C125.835 89.1722 125.731 89.1217 125.615 89.0711C125.382 88.9675 125.089 88.8512 124.778 88.7374C124.214 88.5255 123.638 88.3449 123.054 88.1963L122.996 88.4416ZM122.272 86.3887C122.272 86.6819 122.272 86.9348 122.257 87.1471C122.247 87.3438 122.255 87.5411 122.283 87.7362C122.305 87.9032 122.379 88.0589 122.495 88.1812C122.636 88.3118 122.811 88.3995 123.001 88.434L123.059 88.1812C122.918 88.1575 122.786 88.0944 122.679 87.9991C122.6 87.9145 122.55 87.8062 122.538 87.6907C122.513 87.5115 122.506 87.3303 122.515 87.1497C122.515 86.9322 122.53 86.6693 122.53 86.3735L122.272 86.3887ZM122.399 86.3836L122.272 86.371V86.3836H122.399Z" fill="white"/>
</svg>
