<svg width="51" height="51" viewBox="0 0 51 51" fill="none" xmlns="http://www.w3.org/2000/svg">
<circle cx="25.7969" cy="25.5" r="25" fill="#FF5714"/>
<path d="M25.7943 12.167C18.4343 12.167 12.4609 18.1403 12.4609 25.5003C12.4609 32.8603 18.4343 38.8337 25.7943 38.8337C33.1543 38.8337 39.1276 32.8603 39.1276 25.5003C39.1276 18.1403 33.1543 12.167 25.7943 12.167ZM31.9809 21.2337C31.7809 23.3403 30.9143 28.4603 30.4743 30.8203C30.2876 31.8203 29.9143 32.1537 29.5676 32.1937C28.7943 32.2603 28.2076 31.687 27.4609 31.1937C26.2876 30.4203 25.6209 29.9403 24.4876 29.1937C23.1676 28.327 24.0209 27.847 24.7809 27.0737C24.9809 26.8737 28.3943 23.767 28.4609 23.487C28.4702 23.4446 28.469 23.4006 28.4573 23.3587C28.4457 23.3169 28.4241 23.2785 28.3943 23.247C28.3143 23.1803 28.2076 23.207 28.1143 23.2203C27.9943 23.247 26.1276 24.487 22.4876 26.9403C21.9543 27.3003 21.4743 27.487 21.0476 27.4737C20.5676 27.4603 19.6609 27.207 18.9809 26.9803C18.1409 26.7137 17.4876 26.567 17.5409 26.1003C17.5676 25.8603 17.9009 25.6203 18.5276 25.367C22.4209 23.6737 25.0076 22.5537 26.3009 22.0203C30.0076 20.4737 30.7676 20.207 31.2743 20.207C31.3809 20.207 31.6343 20.2337 31.7943 20.367C31.9276 20.4737 31.9676 20.6203 31.9809 20.727C31.9676 20.807 31.9943 21.047 31.9809 21.2337Z" fill="white"/>
</svg>
