<svg width="51" height="51" viewBox="0 0 51 51" fill="none" xmlns="http://www.w3.org/2000/svg">
<circle cx="25.7969" cy="25.5" r="25" fill="#14988B"/>
<path d="M12.4663 38.8337L14.269 32.2097C13.0811 30.1735 12.4571 27.8576 12.461 25.5003C12.461 18.1363 18.4303 12.167 25.7943 12.167C33.1583 12.167 39.1276 18.1363 39.1276 25.5003C39.1276 32.8643 33.1583 38.8337 25.7943 38.8337C23.438 38.8375 21.1232 38.2139 19.0876 37.027L12.4663 38.8337ZM20.9823 19.2443C20.8101 19.255 20.6419 19.3004 20.4876 19.3777C20.343 19.4596 20.211 19.562 20.0956 19.6817C19.9356 19.8323 19.845 19.963 19.7476 20.0897C19.2548 20.731 18.9898 21.5182 18.9943 22.327C18.997 22.9803 19.1676 23.6163 19.4343 24.211C19.9796 25.4137 20.877 26.687 22.0623 27.867C22.3476 28.151 22.6263 28.4363 22.9263 28.7017C24.3975 29.9969 26.1506 30.931 28.0463 31.4297L28.805 31.5457C29.0516 31.559 29.2983 31.5403 29.5463 31.5283C29.9346 31.5083 30.3138 31.4031 30.657 31.2203C30.8316 31.1304 31.002 31.0325 31.1676 30.927C31.1676 30.927 31.225 30.8897 31.3343 30.807C31.5143 30.6737 31.625 30.579 31.7743 30.423C31.885 30.3083 31.981 30.1737 32.0543 30.0203C32.1583 29.803 32.2623 29.3883 32.305 29.043C32.337 28.779 32.3276 28.635 32.3236 28.5457C32.3183 28.403 32.1996 28.255 32.0703 28.1923L31.2943 27.8443C31.2943 27.8443 30.1343 27.339 29.4263 27.0163C29.3516 26.9838 29.2716 26.9653 29.1903 26.9617C29.0991 26.9523 29.0069 26.9626 28.92 26.9918C28.833 27.021 28.7534 27.0684 28.6863 27.131V27.1283C28.6796 27.1283 28.5903 27.2043 27.6263 28.3723C27.571 28.4467 27.4947 28.5029 27.4074 28.5337C27.32 28.5646 27.2254 28.5688 27.1356 28.5457C27.0487 28.5224 26.9636 28.493 26.881 28.4577C26.7156 28.3883 26.6583 28.3617 26.545 28.3123L26.5383 28.3097C25.7755 27.9766 25.0693 27.5268 24.445 26.9763C24.277 26.8297 24.121 26.6697 23.961 26.515C23.4364 26.0126 22.9792 25.4443 22.601 24.8243L22.5223 24.6977C22.4658 24.6125 22.4201 24.5207 22.3863 24.4243C22.3356 24.2283 22.4676 24.071 22.4676 24.071C22.4676 24.071 22.7916 23.7163 22.9423 23.5243C23.0677 23.3648 23.1848 23.1988 23.293 23.027C23.4503 22.7737 23.4996 22.5137 23.417 22.3123C23.0436 21.4003 22.657 20.4923 22.2596 19.591C22.181 19.4123 21.9476 19.2843 21.7356 19.259C21.6636 19.251 21.5916 19.243 21.5196 19.2377C21.3406 19.2288 21.1611 19.2305 20.9823 19.243V19.2443Z" fill="white"/>
</svg>
