<svg width="51" height="51" viewBox="0 0 51 51" fill="none" xmlns="http://www.w3.org/2000/svg">
<circle cx="25.7969" cy="25.5" r="25" fill="#14988B"/>
<g clip-path="url(#clip0_812_6293)">
<path d="M41.5873 18.7994C41.5873 15.9869 39.5185 13.7244 36.9623 13.7244C33.4998 13.5625 29.9685 13.5 26.3598 13.5H25.2348C21.6348 13.5 18.0973 13.5625 14.6348 13.725C12.0848 13.725 10.016 16 10.016 18.8125C9.85976 21.0369 9.79351 23.2619 9.79726 25.4869C9.79101 27.7119 9.86184 29.939 10.0098 32.1681C10.0098 34.9806 12.0785 37.2619 14.6285 37.2619C18.266 37.4306 21.9973 37.5056 25.791 37.4994C29.591 37.5119 33.3118 37.4327 36.9535 37.2619C39.5098 37.2619 41.5785 34.9806 41.5785 32.1681C41.7285 29.9369 41.7973 27.7119 41.791 25.4806C41.8052 23.2556 41.7373 21.0285 41.5873 18.7994ZM22.7348 31.6181V19.3369L31.7973 25.4744L22.7348 31.6181Z" fill="white"/>
</g>
<defs>
<clipPath id="clip0_812_6293">
<rect width="32" height="32" fill="white" transform="translate(9.79688 9.5)"/>
</clipPath>
</defs>
</svg>
