<svg width="21" height="21" viewBox="0 0 21 21" fill="none" xmlns="http://www.w3.org/2000/svg">
<path d="M6.67969 20.8359C6.12969 20.8359 5.65869 20.6399 5.26669 20.2479C4.87469 19.8559 4.67902 19.3853 4.67969 18.8359C4.67969 18.2859 4.87569 17.8149 5.26769 17.4229C5.65969 17.0309 6.13035 16.8353 6.67969 16.8359C7.22969 16.8359 7.70069 17.0319 8.09269 17.4239C8.48469 17.8159 8.68035 18.2866 8.67969 18.8359C8.67969 19.3859 8.48369 19.8569 8.09169 20.2489C7.69969 20.6409 7.22902 20.8366 6.67969 20.8359ZM16.6797 20.8359C16.1297 20.8359 15.6587 20.6399 15.2667 20.2479C14.8747 19.8559 14.679 19.3853 14.6797 18.8359C14.6797 18.2859 14.8757 17.8149 15.2677 17.4229C15.6597 17.0309 16.1304 16.8353 16.6797 16.8359C17.2297 16.8359 17.7007 17.0319 18.0927 17.4239C18.4847 17.8159 18.6804 18.2866 18.6797 18.8359C18.6797 19.3859 18.4837 19.8569 18.0917 20.2489C17.6997 20.6409 17.229 20.8366 16.6797 20.8359ZM6.67969 15.8359C5.92969 15.8359 5.36302 15.5066 4.97969 14.8479C4.59635 14.1893 4.57969 13.5353 4.92969 12.8859L6.27969 10.4359L2.67969 2.83594H1.65469C1.37135 2.83594 1.13802 2.73994 0.954687 2.54794C0.771354 2.35594 0.679688 2.11861 0.679688 1.83594C0.679688 1.55261 0.775687 1.31494 0.967687 1.12294C1.15969 0.930941 1.39702 0.835274 1.67969 0.835941H3.30469C3.48802 0.835941 3.66302 0.885941 3.82969 0.985941C3.99635 1.08594 4.12135 1.22761 4.20469 1.41094L4.87969 2.83594H19.6297C20.0797 2.83594 20.388 3.00261 20.5547 3.33594C20.7214 3.66927 20.713 4.01927 20.5297 4.38594L16.9797 10.7859C16.7964 11.1193 16.5547 11.3776 16.2547 11.5609C15.9547 11.7443 15.613 11.8359 15.2297 11.8359H7.77969L6.67969 13.8359H17.7047C17.988 13.8359 18.2214 13.9319 18.4047 14.1239C18.588 14.3159 18.6797 14.5533 18.6797 14.8359C18.6797 15.1193 18.5837 15.3569 18.3917 15.5489C18.1997 15.7409 17.9624 15.8366 17.6797 15.8359H6.67969Z" fill="black"/>
</svg>
