<svg width="102" height="70" viewBox="0 0 102 70" fill="none" xmlns="http://www.w3.org/2000/svg">
<path d="M63.0372 17.417H38.4449V30.8936H63.0372V17.417Z" fill="#FF5714"/>
<path d="M36.9669 10.6708C37.0206 9.96389 37.3394 9.30334 37.8594 8.82141C38.3794 8.33947 39.0622 8.07173 39.7711 8.07178H62.1905C62.9012 8.07157 63.5856 8.34045 64.106 8.82433C64.6265 9.30822 64.9445 9.97123 64.996 10.68L66.5981 32.6982C66.6261 33.0838 66.5743 33.471 66.446 33.8357C66.3177 34.2004 66.1157 34.5347 65.8524 34.8179C65.5892 35.101 65.2704 35.3268 64.916 35.4813C64.5616 35.6357 64.1791 35.7154 63.7925 35.7155H38.0915C37.7043 35.7153 37.3213 35.6352 36.9665 35.4802C36.6116 35.3252 36.2926 35.0987 36.0294 34.8147C35.7662 34.5307 35.5644 34.1955 35.4367 33.8299C35.309 33.4644 35.2581 33.0764 35.2873 32.6903L36.9669 10.6708Z" fill="#FF5714"/>
<path fill-rule="evenodd" clip-rule="evenodd" d="M55.9697 13.6026C55.7491 13.6158 55.5296 13.6417 55.312 13.6802C55.2883 13.7038 57.1758 26.044 57.2061 26.0624C57.2363 26.0808 59.0212 25.9401 59.0475 25.9085C59.0738 25.877 58.6529 23.1346 58.136 19.7832C57.6191 16.4318 57.1968 13.6525 57.1955 13.6091C57.1955 13.5184 56.9338 13.5171 55.9697 13.6026ZM61.0073 20.767L62.437 30.7962H39.5507L40.6753 22.9044C41.2935 18.5639 41.9354 14.0524 42.1011 12.8739L42.3918 10.7326H59.5723L61.0073 20.767ZM52.5788 2.31463C53.6448 2.57665 54.6296 3.09797 55.4455 3.83226C56.2615 4.56654 56.8834 5.49105 57.256 6.5236C57.4806 7.1437 57.6096 7.7943 57.6388 8.45315V8.8267H44.3332V8.45315C44.3429 8.15783 44.375 7.86367 44.4292 7.57321C44.9645 4.74926 47.1913 2.61978 50.0732 2.16337C50.6927 2.0713 51.8922 2.14232 52.5788 2.31463ZM50.0363 0.265387C49.6469 0.311254 49.2608 0.381538 48.8802 0.475832C47.134 0.924577 45.573 1.91081 44.4179 3.29511C43.2628 4.67941 42.5719 6.39176 42.4431 8.19009L42.401 8.78855L42.0524 8.85958C41.6786 8.91825 41.3344 9.098 41.0725 9.37123C40.6109 9.83422 40.7016 9.32388 39.1312 20.3067C38.3288 25.9177 37.6725 30.6713 37.6725 30.8685C37.6853 31.2329 37.8041 31.5856 38.0144 31.8835C38.2246 32.1814 38.5172 32.4115 38.8563 32.5456C39.1627 32.6639 39.4929 32.6666 50.9873 32.6666C62.4817 32.6666 62.8132 32.6666 63.1197 32.5456C63.4588 32.4116 63.7515 32.1816 63.9617 31.8837C64.172 31.5858 64.2908 31.233 64.3034 30.8685C64.3034 30.6713 63.6458 25.9177 62.8461 20.3067C61.6781 12.1439 61.3611 10.0552 61.2572 9.85C61.1184 9.58593 60.9207 9.35735 60.6794 9.18195C60.4381 9.00656 60.1596 8.88905 59.8656 8.83853L59.5749 8.79644L59.5341 8.19404C59.393 6.1742 58.5415 4.2695 57.1305 2.81734C55.7195 1.36518 53.8401 0.45929 51.8251 0.260125C51.2308 0.18874 50.63 0.19139 50.0363 0.268016V0.265387Z" fill="#FF5714"/>
<path fill-rule="evenodd" clip-rule="evenodd" d="M57.8101 29.0942C57.808 29.3121 57.7913 29.5296 57.7601 29.7453L57.7088 30.0504H56.4303V28.7522H57.8101V29.0942ZM45.7001 27.8315V28.4629L45.07 28.4366C44.8252 28.4317 44.581 28.4115 44.3387 28.3761C44.2703 28.3537 44.2361 28.1564 44.2361 27.771V27.1989H45.7001V27.8315ZM52.9342 27.5593V28.2445L52.5015 28.2985C51.9662 28.3655 51.6715 28.3287 51.6821 28.1959C51.6821 28.1393 51.6965 27.8197 51.7031 27.4843L51.7149 26.874H52.9342V27.5593ZM55.941 26.6635C55.941 26.9029 55.9739 26.949 56.1699 26.9924C56.4027 27.0437 57.2419 27.7197 57.2419 27.8565C57.2419 27.8973 56.9301 27.9315 56.55 27.9315H55.8595V30.5621L56.5303 30.5095C56.8986 30.4819 57.4839 30.4582 57.8311 30.4569H58.4598V29.8045C58.4598 29.4467 58.494 29.1534 58.5348 29.1534C58.6663 29.1534 59.2779 29.9202 59.324 30.1504C59.3648 30.3411 59.4134 30.374 59.6462 30.374H59.9211V31.2513L59.4529 31.3026C59.032 31.3473 55.7319 31.5091 55.186 31.5104H54.9638V30.5476C54.9638 30.0215 54.9874 28.864 55.0164 27.9854L55.0703 26.386H55.9384L55.941 26.6635ZM47.0811 25.727L47.5283 25.7796V26.1821C47.5283 26.5452 47.5073 26.5899 47.3245 26.6333C47.2674 26.6426 47.2146 26.6696 47.1736 26.7104C47.1325 26.7512 47.1053 26.8038 47.0956 26.8608C47.0811 26.9608 46.8904 27.2331 46.6721 27.4685L46.2775 27.8947V27.5185C46.2759 27.307 46.2583 27.096 46.2249 26.8871L46.1736 26.6333H43.5864V27.7934C43.5864 28.43 43.6219 29.0074 43.6653 29.0745C43.7232 29.1652 43.8731 29.1915 44.273 29.1758C44.6728 29.16 44.7991 29.1758 44.7991 29.2705C44.7991 29.4493 44.0691 30.0504 43.8534 30.0504C43.7219 30.0504 43.6614 30.0965 43.6614 30.1964C43.6614 30.4319 43.4917 30.5384 43.1168 30.5384H42.7669V29.4599C42.7669 28.868 42.7301 27.8342 42.6867 27.1634C42.6454 26.7104 42.634 26.2552 42.6525 25.8007C42.6946 25.6692 42.8551 25.6586 44.6636 25.6692C45.7501 25.6705 46.8352 25.6968 47.0811 25.727ZM54.4587 27.0423C54.4705 28.0051 54.4587 29.1034 54.4179 29.4822L54.3548 30.1741H53.9483C53.5656 30.1741 53.5406 30.1609 53.5169 29.9492C53.4985 29.7966 53.4446 29.7256 53.3407 29.7256C53.1789 29.7256 52.2884 29.0337 52.2884 28.9088C52.2884 28.8654 52.562 28.8312 52.8974 28.8312H53.5064V26.2269H51.0073L50.9547 26.4386C50.9254 26.6242 50.9254 26.8133 50.9547 26.9989C50.985 27.1989 50.9731 27.3672 50.9271 27.3935C50.8061 27.4685 50.1747 26.7977 50.1234 26.5399C50.1114 26.4674 50.0787 26.3999 50.0293 26.3455C49.9798 26.2911 49.9157 26.2522 49.8446 26.2334C49.6328 26.1598 49.6092 26.1151 49.6092 25.7902V25.4298L51.4992 25.3509C52.5383 25.3075 53.6261 25.2759 53.9168 25.2798L54.4429 25.289L54.4587 27.0423ZM53.1763 23.8646C53.1763 23.9764 53.2289 24.0316 53.3367 24.0316C53.5366 24.0316 53.6642 24.2631 53.6642 24.6248V24.9037L51.9096 24.9628C50.9455 24.9957 50.1432 25.0089 50.1261 24.9918C50.109 24.9747 50.3207 24.78 50.5943 24.5577C51.0652 24.1763 51.1204 24.1513 51.6676 24.1132L52.2424 24.0724L52.2674 23.6278C52.3055 22.9412 52.4107 22.886 52.8277 23.3279C53.0197 23.5292 53.1763 23.7712 53.1763 23.8633V23.8646ZM47.1824 22.3743L47.4876 22.4243V23.712L46.8168 23.6883L46.146 23.6646L46.1223 23.103C46.1053 22.8794 46.1111 22.6547 46.1394 22.4322C46.1854 22.3138 46.6576 22.2875 47.1824 22.3743ZM51.978 20.504L52.2832 20.554V21.8561L51.686 21.8166C51.4529 21.8109 51.2213 21.7786 50.9955 21.7206C50.8942 21.6575 50.864 20.6013 50.9547 20.5053C51.0231 20.4382 51.5742 20.4369 51.978 20.504ZM48.6621 20.3895C48.7161 20.6316 48.8686 23.6975 48.8686 24.5235V25.1693H47.9545C47.4521 25.1693 46.2998 25.1444 45.3949 25.1154L43.7495 25.0694V24.2092L44.0494 24.1842C44.3059 24.1631 44.3585 24.1237 44.4124 23.9145C44.4466 23.783 44.6584 23.4884 44.8846 23.2674L45.2936 22.8636V24.2802H47.894V23.7225C47.894 23.4161 47.8703 22.8307 47.8414 22.4217L47.7888 21.6772H46.4735L46.8773 21.2642C47.0996 21.038 47.381 20.8328 47.5034 20.8078C47.6809 20.771 47.727 20.7157 47.727 20.5447C47.727 20.2475 47.7743 20.2159 48.2268 20.2159C48.5701 20.2028 48.6279 20.2317 48.6621 20.3895ZM44.0362 19.9686L44.44 20.3816L43.9691 20.8236C43.8061 20.992 43.6233 21.1399 43.4246 21.2642C43.2276 21.1429 43.0464 20.9976 42.8853 20.8315L42.421 20.3987L42.9261 19.9778C43.2049 19.7464 43.4772 19.5569 43.5325 19.5569C43.5877 19.5569 43.8152 19.7424 44.0362 19.9686ZM53.3591 19.0677H54.2324V19.482C54.2324 19.866 54.2153 19.9029 53.9917 19.9871C53.9196 20.0145 53.854 20.0566 53.799 20.1107C53.7439 20.1648 53.7007 20.2298 53.6721 20.3014C53.5906 20.5355 52.9619 21.2642 52.8408 21.2642C52.8027 21.2642 52.7698 20.9722 52.7698 20.6145V19.9634H50.1932L50.2326 21.1629C50.2576 21.9127 50.3063 22.3849 50.3641 22.423C50.5595 22.4731 50.7612 22.4935 50.9626 22.4835C51.2428 22.4835 51.4716 22.5151 51.4716 22.5519C51.4716 22.6939 50.7456 23.3674 50.5641 23.3937C50.4154 23.4147 50.3681 23.4779 50.3484 23.6844C50.3234 23.9474 50.3207 23.9474 49.8814 23.9474C49.6381 23.9474 49.4382 23.9198 49.4382 23.8869C49.4382 23.854 49.3829 23.057 49.3185 22.1178C49.254 21.1787 49.1988 20.0831 49.1975 19.6845V18.9598L50.839 19.019C51.7452 19.044 52.879 19.0677 53.3591 19.0677ZM44.4663 18.1706C45.2252 18.8401 46.0447 19.5767 46.2749 19.8069L46.7036 20.2251L46.0157 20.8828C45.6383 21.2471 44.8136 22.0284 44.1848 22.619L43.0405 23.6909L42.7854 23.4279C42.5131 23.1464 42.4697 22.9807 42.6302 22.8202C42.7078 22.7413 42.7051 22.6821 42.6157 22.5401C42.4842 22.3375 42.3881 21.1787 42.496 21.1787C42.6894 21.3051 42.8662 21.4554 43.0221 21.6259L43.4733 22.0731L44.394 21.1524L45.3147 20.2317L44.4505 19.4267C43.9744 18.9835 43.5548 18.6099 43.5167 18.5968C43.4785 18.5836 43.2536 18.7454 43.0129 18.9572L42.5802 19.3426L42.5223 19.0229C42.4605 18.6691 42.5223 18.1969 42.6288 18.1272C42.7354 18.0575 42.7117 17.8326 42.5644 17.6695C42.4329 17.5274 42.4434 17.5038 42.7025 17.2368C42.797 17.1244 42.9095 17.0284 43.0353 16.9527C43.0616 16.9527 43.7087 17.5011 44.4663 18.1706ZM45.9526 17.146C46.1137 16.9824 46.2841 16.8282 46.4629 16.6843L46.7799 16.4318L46.7392 17C46.7308 17.2533 46.6805 17.5036 46.5905 17.7405C46.4985 17.8878 46.5037 17.9457 46.6274 18.1351C46.7707 18.3534 46.7694 18.3561 46.5037 18.631C46.4099 18.7414 46.2978 18.8349 46.1723 18.9072C46.1052 18.9072 44.9503 17.897 43.8705 16.8921L43.2207 16.2884L43.5772 15.9701L43.9323 15.6531L44.8451 16.5041L45.7579 17.3564L45.9526 17.146ZM53.9996 15.6992C54.1312 15.736 54.2324 16.0582 54.2324 16.466C54.2324 16.9198 54.1864 16.95 53.5011 16.95C52.7632 16.95 52.7698 16.9592 52.7698 16.124V15.5545L53.3183 15.6084C53.5456 15.6277 53.7717 15.6589 53.9957 15.7018L53.9996 15.6992ZM46.0013 15.173C46.238 15.4072 46.4314 15.64 46.4314 15.6926C46.4314 15.7926 45.5975 16.5383 45.4857 16.5383C45.3739 16.5383 44.6426 15.786 44.6426 15.69C44.6426 15.5939 45.4541 14.7495 45.5317 14.7495C45.7 14.88 45.8571 15.0243 46.0013 15.1809V15.173ZM58.9465 14.4233V15.0744H57.647V13.7722H58.9465V14.4233ZM60.5722 13.7223C60.5722 13.7801 60.3894 14.0077 60.1658 14.2287L59.7593 14.6232V13.6131H60.1658C60.4407 13.6184 60.5722 13.6512 60.5722 13.7223ZM57.2221 14.7364L57.2445 15.8149H58.5743L58.2126 16.1832C58.0422 16.3671 57.8358 16.5139 57.6062 16.6146C57.4076 16.6659 57.3576 16.7264 57.3366 16.9382C57.3116 17.1947 57.3063 17.2012 56.8749 17.2012H56.4395L56.3935 16.7738C56.3133 16.0359 56.183 14.2747 56.183 13.9393V13.6144L56.6921 13.6381L57.1998 13.6631L57.2221 14.7364ZM55.7503 15.0823C55.8753 16.9513 55.8818 18.3916 55.7713 18.4626C55.7016 18.5047 50.9047 18.3495 50.8442 18.3021C50.8463 18.1636 50.86 18.0254 50.885 17.8891C50.9337 17.5551 50.9744 17.4814 51.1402 17.4419C51.2075 17.4252 51.2684 17.3889 51.3152 17.3376C51.362 17.2864 51.3926 17.2225 51.4032 17.1539C51.4374 17.0224 51.6492 16.7304 51.8741 16.5081L52.2845 16.1056V17.5222H54.8848V16.8843C54.8848 16.5331 54.8612 15.9635 54.8322 15.6295L54.7809 15.0126L54.1825 14.956L53.5853 14.9008L53.8484 14.5706C54.0031 14.3815 54.197 14.228 54.4166 14.1208C54.6034 14.0485 54.7244 13.9459 54.7244 13.8577C54.7244 13.642 54.8125 13.6039 55.2505 13.6289L55.6609 13.6539L55.7503 15.0823ZM46.7378 14.0616C46.7602 14.4089 46.7444 14.6759 46.7023 14.6759C46.5295 14.5678 46.3735 14.4348 46.2393 14.2813L45.8448 13.8867L46.1959 13.5947C46.4038 13.4224 46.5774 13.3316 46.6208 13.375C46.6642 13.4184 46.7168 13.7236 46.7378 14.0616Z" fill="white"/>
<path fill-rule="evenodd" clip-rule="evenodd" d="M44.6909 47.995C46.9195 49.4192 46.9062 49.7623 44.588 50.7899C42.8131 51.5753 42.4546 51.6363 42.2678 51.1826C42.0638 50.6869 42.1191 48.22 42.346 47.6633C42.6377 46.9427 43.1696 47.017 44.6909 47.995ZM70.9178 43.7418C70.1419 44.0316 69.7263 45.9895 69.4022 50.9024C68.8455 59.3155 68.9427 62.8786 69.7568 63.8662C70.0942 64.276 72.5001 65.3341 78.2614 67.6047C79.2489 67.986 80.4386 68.3196 80.9018 68.3272L81.7464 68.3444L81.9923 67.1872C83.0123 62.3734 83.3993 48.7328 82.5852 46.2163C82.0781 44.6416 80.2536 43.3815 79.8628 44.3328C79.655 44.8361 79.2909 60.0361 79.4377 61.9407C79.6036 64.0778 79.3576 64.8003 78.5264 64.6097C77.5732 64.3866 74.8756 63.1627 73.2284 62.2056L71.6766 61.302L71.8348 60.2935C72.0617 58.8427 72.0254 45.4385 71.7909 44.5158C71.5927 43.7227 71.404 43.5549 70.9178 43.736V43.7418ZM62.0014 44.348C61.8756 44.756 61.7249 47.4384 61.6639 50.3114C61.6029 53.1844 61.5095 55.8 61.4561 56.126C61.3837 56.5588 60.9891 57.003 59.971 57.7903C58.3162 59.0715 57.8911 59.7158 58.1999 60.4784C58.4058 60.9817 58.4745 61.0027 59.5211 60.9093C61.6983 60.7186 61.6887 61.1552 59.4677 63.4258C57.4717 65.4638 56.7568 66.6667 57.1076 67.3759C57.6007 68.3927 58.9778 67.7572 61.2388 65.4695C63.7172 62.9644 64.0012 61.5746 63.8354 52.6715C63.7286 46.8931 63.496 44.3976 63.0156 43.8581C62.6133 43.4062 62.2321 43.5874 62.0014 44.3423V44.348ZM40.0239 43.9667L39.4997 44.3633L39.4329 52.8069C39.3529 63.0083 39.5473 67.2482 40.1231 67.843C40.6359 68.373 41.2174 68.3558 41.5377 67.803C41.6787 67.5589 41.9075 66.2206 42.0467 64.8289C42.346 61.8301 42.5099 61.5517 43.6996 62.0169C44.7042 62.4876 45.6841 63.0094 46.6355 63.5802C49.5295 65.2731 50.5132 65.7192 51.1861 65.6468C51.6914 65.5934 51.7581 65.4943 51.8172 64.7221C51.8801 63.9043 51.8172 63.8032 50.7362 62.8157C50.1071 62.2438 48.4123 61.1323 46.9748 60.3373C43.3716 58.3585 42.1458 57.3518 42.142 56.3681C42.142 56.1508 43.364 55.2605 45.5736 53.8745C49.0376 51.7031 50.8487 50.3686 51.23 49.7108C51.5674 49.1237 50.618 48.2982 47.5715 46.5328C42.8645 43.8009 41.0496 43.187 40.0239 43.961V43.9667ZM18.952 43.7418C17.9988 44.0983 17.5947 46.6949 17.2077 55.0413C16.9674 60.2592 17.1524 63.0826 17.7796 63.8776C17.9893 64.1388 18.6337 64.5258 19.2132 64.7355C19.7928 64.9452 21.8346 65.7745 23.7525 66.5733C27.3842 68.0985 28.959 68.5884 29.4985 68.3959C30.7415 67.9498 31.668 49.5354 30.6137 46.2221C30.0723 44.5234 28.1468 43.2671 27.8875 44.4472C27.6797 45.4004 27.5539 49.7471 27.5387 56.5969C27.5387 60.5413 27.4338 63.9863 27.3232 64.2551C27.1593 64.6592 27.0296 64.7202 26.5473 64.6135C25.5884 64.3904 21.3828 62.381 20.5211 61.7214C19.7432 61.119 19.7165 61.058 19.8405 60.1867C20.237 57.4338 20.338 53.9813 20.1474 49.7204C19.89 43.9324 19.7871 43.4196 18.952 43.736V43.7418ZM10.7296 43.9839C10.3426 44.2331 9.90731 44.3975 9.45225 44.4662C8.66489 44.5825 7.7784 45.1087 5.30193 46.9255C3.85113 47.9912 3.25823 47.9855 3.0142 46.9046C2.65389 45.2784 1.64919 44.247 1.00672 44.8456C0.610182 45.2174 0.326125 49.7261 0.324219 55.7314C0.324219 60.3717 0.61781 66.9489 0.854209 67.5246C1.0601 68.0279 1.97329 67.8678 2.47278 67.2406C2.81212 66.8154 2.91126 66.2244 3.04471 63.7918C3.23535 60.6424 3.46031 59.7025 4.03796 59.8074C4.22861 59.8417 5.03694 60.8292 5.8262 61.9998C6.61547 63.1703 7.95379 64.9624 8.77166 65.9861C10.0452 67.5666 10.3616 67.8468 10.8687 67.8468C11.6561 67.8468 11.7705 67.4846 11.3778 66.2282C10.9317 64.806 9.57617 62.4592 7.32848 59.2278C4.78148 55.5655 4.88061 55.7752 5.42204 55.1423C5.66606 54.8525 6.63835 54.1128 7.58203 53.4989C10.0337 51.9032 11.7762 50.2809 11.6942 49.6861C11.536 48.6509 10.2206 49.0932 6.32188 51.4896C3.9884 52.9251 3.73865 53.0147 3.32114 52.6334C2.61385 51.9738 3.44125 51.1426 7.22744 48.7061C10.2777 46.7444 11.9402 45.2993 11.9402 44.6092C11.9402 44.1269 11.6084 43.5969 11.3168 43.6121C11.1039 43.7043 10.906 43.8277 10.7296 43.9782V43.9839Z" fill="#FF5714"/>
<path d="M98.7954 49.7604C99.1633 49.5698 98.8869 48.7462 98.7954 48.0999C98.6734 47.0094 98.5037 44.6893 98.7954 44.1364C99.1633 43.4444 100.812 44.1364 100.904 44.5043C100.995 44.8723 101.178 49.299 101.178 50.176V55.3386C101.178 56.0307 101.27 59.8569 101.178 60.1333C101.087 60.4098 101.409 66.3121 101.546 67.6485C101.684 68.985 100.767 69.2633 100.212 69.1241C99.6571 68.9849 99.2491 68.1099 99.1118 67.6485C98.9746 67.1872 99.0203 61.8396 99.1118 60.1333C99.2034 58.4271 98.9212 58.1983 98.1033 57.3671C97.2855 56.5359 94.9406 54.5551 93.1466 53.1729C91.3526 51.7908 91.7701 53.9565 91.7244 54.3168C91.6786 54.6771 91.8159 57.8666 91.915 58.7893C92.0142 59.712 91.9627 68.3329 91.5033 68.7485C91.0438 69.1641 89.8542 67.5036 89.6254 66.8574C89.3966 66.2111 89.3585 61.7481 89.3585 61.241C89.3585 60.7339 88.901 59.2583 89.3585 58.3813C89.8161 57.5044 89.267 44.6893 89.3585 44.1364C89.45 43.5835 90.6415 43.5816 91.101 43.6293C91.5604 43.6769 91.9246 44.3671 92.5213 44.8265C93.118 45.286 96.2789 48.0999 97.0968 48.9311C97.9146 49.7623 98.4293 49.9453 98.7954 49.7604Z" fill="#FF5714"/>
<path d="M92.5561 50.6641C91.9441 50.5231 92.0852 50.0922 92.0852 49.2095C92.1176 48.8797 92.2549 48.1572 92.5561 47.8941C92.9374 47.5662 93.3587 48.3173 93.7343 48.6452C94.1099 48.9731 95.5721 50.5231 96.186 50.9005C96.7998 51.278 98.447 52.9652 98.7292 53.4819C99.0113 53.9985 98.5881 53.9527 98.3059 54.1396C98.0238 54.3264 97.734 54.0462 97.4099 53.6706C97.0858 53.295 95.0078 51.6974 94.8191 51.5106C94.6303 51.3238 93.1719 50.7995 92.5561 50.6641Z" fill="white"/>
<path d="M92.4949 47.8159C92.315 48.0058 92.1887 48.24 92.1289 48.4946C92.0618 48.7232 92.0152 48.9574 91.9897 49.1943L92.1803 49.2134C92.2038 48.988 92.2478 48.7653 92.3119 48.548C92.3623 48.3293 92.468 48.1271 92.6188 47.9608L92.4949 47.8159ZM93.797 48.5785C93.6985 48.4856 93.605 48.3876 93.5168 48.2849C93.4176 48.1744 93.3147 48.0561 93.2117 47.957C93.1166 47.8606 93.0014 47.7864 92.8743 47.7397C92.8089 47.7182 92.7389 47.7149 92.6718 47.73C92.6047 47.7451 92.5429 47.7781 92.493 47.8255L92.6169 47.9704C92.6414 47.9459 92.672 47.9285 92.7056 47.9201C92.7392 47.9117 92.7745 47.9126 92.8076 47.9227C92.9066 47.96 92.9959 48.0193 93.0687 48.0962C93.166 48.1877 93.2594 48.2983 93.3623 48.4107C93.4552 48.5202 93.5545 48.624 93.6597 48.7215L93.797 48.5785ZM96.2353 50.8224C95.7717 50.4826 95.338 50.1037 94.939 49.69C94.4528 49.2191 93.9857 48.7367 93.7951 48.5785L93.6693 48.7215C93.8599 48.8835 94.3098 49.3468 94.8131 49.8272C95.2237 50.2508 95.6702 50.638 96.1476 50.9844L96.2353 50.8224ZM98.8129 53.4399C98.683 53.2322 98.5349 53.0363 98.3706 52.8547C98.1666 52.6164 97.913 52.3437 97.6499 52.0749C97.2189 51.6138 96.7453 51.1944 96.2353 50.8224L96.1362 50.9844C96.6317 51.3492 97.0925 51.7589 97.5127 52.2084C97.7738 52.4753 98.0236 52.7441 98.2276 52.9805C98.3827 53.152 98.523 53.3363 98.647 53.5314L98.8129 53.4399ZM98.3591 54.2235C98.4245 54.1823 98.4941 54.1484 98.5669 54.1224C98.6437 54.095 98.7172 54.0592 98.7862 54.0157C98.8239 53.9899 98.8553 53.956 98.8781 53.9164C98.9009 53.8767 98.9144 53.8325 98.9177 53.7869C98.9155 53.6638 98.8792 53.5437 98.8129 53.4399L98.647 53.5314C98.6948 53.6035 98.7225 53.6872 98.7271 53.7736C98.7261 53.7914 98.7207 53.8088 98.7114 53.8241C98.7021 53.8394 98.6891 53.8522 98.6737 53.8613C98.6177 53.8955 98.5583 53.9236 98.4964 53.9451C98.4116 53.9771 98.33 54.0166 98.2524 54.0633L98.3591 54.2235ZM97.3392 53.7373C97.4798 53.9121 97.6426 54.0678 97.8234 54.2006C97.9015 54.2534 97.991 54.2867 98.0846 54.2978C98.1819 54.305 98.2787 54.2788 98.3591 54.2235L98.2524 54.0633C98.2083 54.0955 98.1543 54.1111 98.0998 54.1072C98.0375 54.0992 97.978 54.0763 97.9264 54.0405C97.7607 53.9168 97.6115 53.7727 97.4821 53.6115L97.3392 53.7373ZM94.7521 51.5812C94.8036 51.6326 94.9733 51.7718 95.1963 51.9624C95.4194 52.1531 95.7073 52.3685 96.0009 52.6068C96.2944 52.8451 96.588 53.0815 96.8321 53.2874C97.0094 53.4312 97.1786 53.5846 97.3392 53.7469L97.4821 53.621C97.316 53.4504 97.1396 53.29 96.9541 53.1406C96.71 52.9347 96.4126 52.6945 96.1209 52.4581L95.3164 51.8137C95.0877 51.6231 94.9351 51.4992 94.8856 51.4553L94.7521 51.5812ZM92.5349 50.7614C92.9683 50.8723 93.3953 51.0066 93.8142 51.1636C94.0448 51.2475 94.2622 51.3333 94.4338 51.4096C94.5176 51.4477 94.5901 51.482 94.6473 51.5125C94.6845 51.5317 94.7197 51.5547 94.7521 51.5812L94.8856 51.4458C94.8407 51.4071 94.7914 51.3738 94.7388 51.3467C94.6759 51.3124 94.5977 51.2742 94.51 51.2361C94.3346 51.1579 94.1135 51.0702 93.879 50.9844C93.4534 50.8247 93.0194 50.6885 92.5788 50.5765L92.5349 50.7614ZM91.9897 49.2134C91.9897 49.4345 91.9897 49.6252 91.9783 49.7853C91.9704 49.9336 91.9767 50.0824 91.9973 50.2295C92.014 50.3554 92.07 50.4729 92.1575 50.565C92.2638 50.6635 92.3961 50.7297 92.5387 50.7557L92.5826 50.565C92.4762 50.5471 92.3771 50.4996 92.2966 50.4278C92.2367 50.3639 92.1992 50.2823 92.1899 50.1952C92.1714 50.06 92.1656 49.9234 92.1727 49.7872C92.1727 49.6232 92.1842 49.425 92.1842 49.2019L91.9897 49.2134ZM92.085 49.2095L91.9897 49.2V49.2095H92.085Z" fill="white"/>
</svg>
