<svg width="19" height="19" viewBox="0 0 19 19" fill="none" xmlns="http://www.w3.org/2000/svg">
<path d="M8.00781 16C9.78279 15.9996 11.5066 15.4054 12.9048 14.312L17.3008 18.708L18.7148 17.294L14.3188 12.898C15.4128 11.4997 16.0074 9.77544 16.0078 8C16.0078 3.589 12.4188 0 8.00781 0C3.59681 0 0.0078125 3.589 0.0078125 8C0.0078125 12.411 3.59681 16 8.00781 16ZM8.00781 2C11.3168 2 14.0078 4.691 14.0078 8C14.0078 11.309 11.3168 14 8.00781 14C4.69881 14 2.00781 11.309 2.00781 8C2.00781 4.691 4.69881 2 8.00781 2Z" fill="white"/>
</svg>
