<svg width="27" height="26" viewBox="0 0 27 26" fill="none" xmlns="http://www.w3.org/2000/svg">
<path d="M12.5442 3.02539C12.1196 3.02539 11.7124 3.19411 11.4121 3.49437L7.07764 7.82878V11.8316H19.0861C20.4125 11.8316 21.4878 10.7563 21.4878 9.42991H23.0889V3.02539H12.5442Z" fill="#F0915A"/>
<path d="M25.4906 10.6304V1.82422H24.2897C23.6265 1.82422 23.0889 2.36185 23.0889 3.02507V9.42958C23.0889 10.0928 23.6265 10.6304 24.2897 10.6304H25.4906Z" fill="#555A6E"/>
<path d="M24.29 7.02713V10.6297H25.4909V6.22656H25.0906C24.6484 6.22656 24.29 6.58502 24.29 7.02713Z" fill="#463C4B"/>
<path d="M22.2882 14.2319V5.82596C22.2882 5.38379 21.9298 5.02539 21.4876 5.02539H5.47635C5.03418 5.02539 4.67578 5.38379 4.67578 5.82596V14.2319C4.67578 14.674 5.03418 15.0325 5.47635 15.0325H21.4876C21.9298 15.0325 22.2882 14.674 22.2882 14.2319Z" fill="#78AF41"/>
<path d="M5.87695 12.2308V7.82769C5.87695 7.60664 6.05618 7.42741 6.27724 7.42741C6.7194 7.42741 7.0778 7.06901 7.0778 6.62684C7.0778 6.40579 7.25703 6.22656 7.47808 6.22656H19.4866C19.7076 6.22656 19.8868 6.40579 19.8868 6.62684C19.8868 7.06901 20.2452 7.42741 20.6874 7.42741C20.9085 7.42741 21.0877 7.60664 21.0877 7.82769V12.2308C21.0877 12.4519 20.9085 12.6311 20.6874 12.6311C20.2452 12.6311 19.8868 12.9895 19.8868 13.4316C19.8868 13.6527 19.7076 13.8319 19.4866 13.8319H7.47808C7.25703 13.8319 7.0778 13.6527 7.0778 13.4316C7.0778 12.9895 6.7194 12.6311 6.27724 12.6311C6.05613 12.6311 5.87695 12.4519 5.87695 12.2308Z" fill="#466932"/>
<path d="M13.4821 13.0335C15.1401 13.0335 16.4842 11.6894 16.4842 10.0314C16.4842 8.37339 15.1401 7.0293 13.4821 7.0293C11.8241 7.0293 10.48 8.37339 10.48 10.0314C10.48 11.6894 11.8241 13.0335 13.4821 13.0335Z" fill="#78AF41"/>
<path d="M14.6142 3.49437L10.8458 7.26273C10.5332 7.57535 10.5332 8.08226 10.8458 8.39488L10.9831 8.53223C11.9211 9.47014 13.4417 9.47014 14.3796 8.53223L15.8837 7.02821H19.086C20.4124 7.02821 21.4877 5.95296 21.4877 4.62652V3.02539H15.7464C15.3217 3.02539 14.9144 3.19411 14.6142 3.49437Z" fill="#FAB991"/>
<path d="M10.9473 7.16115C11.4263 7.64014 12.2029 7.64014 12.6818 7.16115C12.7924 7.05063 12.7924 6.8714 12.6818 6.76087L12.0147 6.09375L10.9473 7.16115Z" fill="#F0915A"/>
<path d="M13.4823 17.0352H9.87585C9.45121 17.0352 9.04397 17.2038 8.74371 17.5041L6.94434 19.3034L9.21264 21.5717L10.3124 20.4719C10.4626 20.3217 10.6662 20.2374 10.8785 20.2374H13.4823C14.3666 20.2374 15.0834 19.5206 15.0834 18.6363C15.0834 17.752 14.3666 17.0352 13.4823 17.0352Z" fill="#FAB991"/>
<path d="M20.7362 16.9865C20.2672 16.5175 19.507 16.5175 19.038 16.9865L15.7871 20.2373H10.8788C10.6665 20.2373 10.4628 20.3217 10.3127 20.4718L9.21289 21.5715L10.9475 23.3061L11.6146 22.639H16.2846C16.6031 22.639 16.9085 22.5125 17.1337 22.2873L20.7362 18.6848C21.2052 18.2158 21.2052 17.4554 20.7362 16.9865Z" fill="#F0915A"/>
<path d="M10.8138 24.2397H1.20703L6.2611 19.1856C6.41741 19.0293 6.67089 19.0293 6.8272 19.1856L11.0645 23.4229C11.2208 23.5792 11.2208 23.8327 11.0645 23.989L10.8138 24.2397Z" fill="#555A6E"/>
<path d="M9.21297 21.5703L6.54443 24.2388H10.8141L11.0648 23.9882C11.2211 23.8319 11.2211 23.5784 11.0648 23.4221L9.21297 21.5703Z" fill="#463C4B"/>
<path d="M13.4822 19.4371H13.0819C12.8609 19.4371 12.6816 19.2578 12.6816 19.0368V18.2362C12.6816 18.0152 12.8609 17.8359 13.0819 17.8359H13.4822C13.9244 17.8359 14.2828 18.1943 14.2828 18.6365C14.2828 19.0786 13.9243 19.4371 13.4822 19.4371Z" fill="#F0915A"/>
</svg>
