<svg width="21" height="21" viewBox="0 0 21 21" fill="none" xmlns="http://www.w3.org/2000/svg">
<g clip-path="url(#clip0_96_5090)">
<path d="M13.7871 12.9551C12.5371 14.2051 12.5371 15.4551 11.2871 15.4551C10.0371 15.4551 8.78711 14.2051 7.53711 12.9551C6.28711 11.7051 5.03711 10.4551 5.03711 9.20508C5.03711 7.95508 6.28711 7.95508 7.53711 6.70508C8.78711 5.45508 5.03711 1.70508 3.78711 1.70508C2.53711 1.70508 0.0371094 5.45508 0.0371094 5.45508C0.0371094 7.95508 2.60586 13.0238 5.03711 15.4551C7.46836 17.8863 12.5371 20.4551 15.0371 20.4551C15.0371 20.4551 18.7871 17.9551 18.7871 16.7051C18.7871 15.4551 15.0371 11.7051 13.7871 12.9551Z" fill="#FF5714"/>
</g>
<defs>
<clipPath id="clip0_96_5090">
<rect width="20" height="20" fill="white" transform="translate(0.0371094 0.751953)"/>
</clipPath>
</defs>
</svg>
