<svg width="25" height="25" viewBox="0 0 25 25" fill="none" xmlns="http://www.w3.org/2000/svg">
<path d="M13.9178 17.6204C14.1579 17.6208 14.3914 17.5247 14.5611 17.3554C14.5672 17.3492 14.5714 17.3416 14.5772 17.3352C14.5784 17.3351 14.5794 17.3348 14.5806 17.3347C14.7389 17.2907 14.8771 17.2106 14.9942 17.0944C15.3224 16.8399 15.6353 16.576 15.9375 16.2913C16.2194 16.0271 16.486 15.7454 16.7554 15.4685C17.2639 14.9442 17.7571 14.4043 18.2433 13.8595C19.3383 12.6337 20.4056 11.3826 21.4701 10.1301C21.6609 9.90632 21.7853 9.67538 21.7858 9.37215C21.7862 9.08916 21.6726 8.8139 21.4726 8.6132C21.3495 8.48978 21.198 8.3994 21.0337 8.34783C21.0245 8.09442 20.9222 7.85023 20.7425 7.66952C20.5537 7.4801 20.2949 7.37253 20.0279 7.37209C19.7415 7.37162 19.5243 7.48818 19.3117 7.66716C19.3109 7.66796 19.31 7.66863 19.3091 7.66943C19.0824 7.71634 18.8814 7.83038 18.7042 7.99227C17.706 8.90201 16.7109 9.81511 15.7209 10.7337C14.7444 11.5804 13.775 12.4349 12.8151 13.2998C11.0867 12.0532 9.35356 10.8132 7.60596 9.59451C7.35834 9.42201 7.10938 9.25244 6.85948 9.08397C6.71319 8.94685 6.5677 8.8084 6.42786 8.66514C6.16487 8.3943 5.92326 8.07463 5.59302 7.88445C5.2719 7.69896 4.85145 7.80541 4.66331 8.12653C4.59051 8.2503 4.56455 8.39999 4.57945 8.5456C4.45786 8.6109 4.35217 8.70594 4.28502 8.82007C4.21894 8.9334 4.18593 9.05509 4.18571 9.18608C4.18537 9.39059 4.26842 9.54834 4.39701 9.69979C4.44834 9.76054 4.4994 9.82117 4.5522 9.88018C4.55127 9.95772 4.55717 10.0353 4.57754 10.1108C4.63598 10.3235 4.76351 10.4693 4.93406 10.5945C4.98703 10.6399 5.04186 10.6828 5.09737 10.725C5.89612 11.3733 6.72737 11.9811 7.54784 12.6011C7.65618 12.685 7.76492 12.7683 7.87367 12.8518C8.39751 13.3186 8.92416 13.7826 9.43937 14.26C9.91464 14.6996 10.3899 15.1396 10.8649 15.5792C10.8767 15.718 10.9149 15.8543 10.9848 15.9741C11.1076 16.1851 11.3119 16.343 11.5477 16.4086C11.622 16.4291 11.7052 16.4402 11.7902 16.4421C11.9772 16.6196 12.1634 16.7979 12.3502 16.9756C12.5475 17.1624 12.8195 17.2297 13.0677 17.1709C13.1363 17.2318 13.2061 17.2912 13.2745 17.3527C13.4586 17.5172 13.6656 17.6199 13.9176 17.6203L13.9178 17.6204Z" fill="#FF5714"/>
</svg>
