<svg width="25" height="24" viewBox="0 0 25 24" fill="none" xmlns="http://www.w3.org/2000/svg">
<path d="M23.5071 10.377L20.9655 7.83543C20.7579 7.63349 20.4791 7.52142 20.1895 7.52346C19.8998 7.52551 19.6226 7.64149 19.4178 7.84633C19.2131 8.05117 19.0972 8.3284 19.0952 8.61804C19.0933 8.90768 19.2054 9.18644 19.4074 9.39402L20.7743 10.7609H15.4915C15.3441 10.7566 15.1974 10.7819 15.06 10.8353C14.9226 10.8888 14.7973 10.9692 14.6915 11.0719C14.5858 11.1746 14.5017 11.2975 14.4443 11.4333C14.3869 11.5691 14.3573 11.715 14.3573 11.8625C14.3573 12.0099 14.3869 12.1558 14.4443 12.2916C14.5017 12.4274 14.5858 12.5503 14.6915 12.653C14.7973 12.7557 14.9226 12.8362 15.06 12.8896C15.1974 12.943 15.3441 12.9683 15.4915 12.964H20.8235L19.4566 14.3309C19.2546 14.5385 19.1425 14.8172 19.1444 15.1069C19.1464 15.3965 19.2623 15.6737 19.4671 15.8786C19.6718 16.0834 19.949 16.1994 20.2387 16.2015C20.5283 16.2035 20.8071 16.0914 21.0148 15.8895L23.5071 13.3971C23.7055 13.1988 23.8628 12.9633 23.9702 12.7041C24.0776 12.4449 24.1328 12.1671 24.1328 11.8866C24.1328 11.6061 24.0776 11.3283 23.9702 11.0691C23.8628 10.8099 23.7055 10.5744 23.5071 10.3761V10.377Z" fill="#454565"/>
<path d="M17.4207 14.378C17.1403 14.3828 16.8716 14.4911 16.6664 14.6821C16.4611 14.8731 16.3337 15.1332 16.3088 15.4125C16.268 15.9492 16.2272 16.1297 16.1766 16.5295C16.1031 17.0649 15.8561 17.5613 15.4735 17.9428C15.0913 18.3306 14.5935 18.5836 14.055 18.6638L14.0232 18.668C13.695 18.7148 13.3903 18.7561 13.073 18.7936C13.1349 17.5617 13.1742 16.1377 13.1841 14.7244C13.2019 12.3872 13.1372 9.97594 13.0092 8.41969C12.9134 7.33146 12.5904 6.27544 12.061 5.31984C11.5374 4.37859 10.8567 3.63891 10.1433 3.2475L10.1213 3.23531C9.49925 2.89547 8.97237 2.60719 8.063 2.22375C8.45019 2.21063 8.82706 2.20312 9.32862 2.20266C11.8003 2.21297 12.675 2.36109 13.8905 2.54484L13.9205 2.54953C14.456 2.64085 14.9478 2.90199 15.3235 3.29438C15.7051 3.68335 15.9541 4.18287 16.035 4.72172C16.1649 5.66344 16.2694 6.73734 16.3322 8.2875C16.3552 8.87156 16.8478 9.34828 17.4469 9.36234C18.0628 9.37641 18.5508 8.90766 18.5227 8.32125C18.4505 6.79688 18.331 5.66813 18.1749 4.64906C18.0253 3.65344 17.5167 2.67563 16.7677 1.89563C16.0186 1.11563 15.0619 0.574219 14.0691 0.400313L14.0386 0.394688C12.8264 0.193125 11.873 0.013125 9.33237 0C6.79222 0.015 5.89878 0.192656 4.68472 0.393281L4.65425 0.398906C3.66144 0.572344 2.70612 1.11516 1.95612 1.89375C1.20612 2.67234 0.698467 3.65016 0.545186 4.64719C0.317842 6.11484 0.153311 8.41266 0.135967 10.6575C0.118624 12.9023 0.235811 15.1973 0.439717 16.6603C0.530353 17.2838 0.747108 17.8822 1.07675 18.4191C1.16831 18.6066 1.26675 18.7913 1.37206 18.9731C1.91909 19.9069 2.62175 20.6639 3.3455 21.0886L3.36753 21.1017C4.24972 21.6173 4.94909 22.0341 6.77206 22.8127C8.58987 23.5814 9.25644 23.7361 10.1063 23.9377L10.1274 23.9423C10.8221 24.1045 11.4778 23.8809 11.986 23.3255C12.4782 22.7873 12.8105 21.9628 12.9188 21.0009C13.3646 20.9484 13.7625 20.8884 14.1933 20.8214L14.2242 20.8163C15.2363 20.6583 16.2057 20.1356 16.9575 19.3748C17.7094 18.6141 18.2082 17.6503 18.3455 16.6561C18.4046 16.2258 18.4505 16.0144 18.4964 15.4617C18.5466 14.8594 18.0525 14.3653 17.4207 14.378Z" fill="#454565"/>
<path d="M13.0749 18.7929C13.1367 17.561 13.1761 16.137 13.186 14.7237C13.2038 12.3865 13.1391 9.97526 13.0111 8.41901C12.9153 7.33079 12.5922 6.27476 12.0628 5.31917C11.5392 4.37792 10.8586 3.63823 10.1452 3.24682L10.1232 3.23464C9.50112 2.89479 8.97425 2.60651 8.06487 2.22307C8.06487 2.22307 5.4019 1.03385 3.68159 1.1712C2.55659 1.2612 1.95612 1.89307 1.95612 1.89307C1.20706 2.6726 0.698467 3.64901 0.545186 4.64604C0.317842 6.1137 0.153311 8.41151 0.135967 10.6564C0.118624 12.9012 0.235811 15.1962 0.439717 16.6592C0.530353 17.2826 0.747108 17.881 1.07675 18.4179C1.16831 18.6054 1.26675 18.7901 1.37206 18.972C1.91909 19.9057 2.62175 20.6628 3.3455 21.0874L3.36753 21.1006C4.24972 21.6162 4.94909 22.0329 6.77206 22.8115C8.58987 23.5803 9.25644 23.7349 10.1063 23.9365L10.1274 23.9412C10.8221 24.1034 11.4778 23.8798 11.986 23.3243C12.4782 22.7862 12.8105 21.9617 12.9188 20.9998" fill="#FF5714"/>
<path d="M13.1873 13.4192C13.177 11.5198 13.1137 9.68604 13.0111 8.41901C12.9152 7.33078 12.5922 6.27476 12.0628 5.31917C11.5392 4.37792 10.8586 3.63823 10.1451 3.24682L10.1231 3.23464C9.50108 2.89479 8.97421 2.60651 8.06483 2.22307C8.06483 2.22307 5.40186 1.03385 3.68155 1.1712C2.55655 1.2612 1.95608 1.89307 1.95608 1.89307C1.20702 2.67307 0.698424 3.64948 0.545143 4.64651C0.317799 6.11417 0.153268 8.41198 0.135924 10.6568C0.12233 11.9839 0.15983 13.3287 0.23483 14.5085C2.30128 15.4724 4.58391 15.879 6.85608 15.6879C9.12824 15.4968 11.3109 14.7146 13.1873 13.4192Z" fill="#FF5714"/>
</svg>
