<svg width="39" height="39" viewBox="0 0 39 39" fill="none" xmlns="http://www.w3.org/2000/svg">
<g clip-path="url(#clip0_162_10117)">
<path d="M26.7366 24.5295H25.6174L25.2207 24.147C26.9207 22.1637 27.7991 19.4579 27.3174 16.582C26.6516 12.6437 23.3649 9.4987 19.3982 9.01703C13.4057 8.28037 8.3624 13.3237 9.09906 19.3162C9.58073 23.2829 12.7257 26.5695 16.6641 27.2354C19.5399 27.717 22.2457 26.8387 24.2291 25.1387L24.6116 25.5354V26.6545L30.6324 32.6754C31.2132 33.2562 32.1624 33.2562 32.7432 32.6754C33.3241 32.0945 33.3241 31.1454 32.7432 30.5645L26.7366 24.5295ZM18.2366 24.5295C14.7091 24.5295 11.8616 21.682 11.8616 18.1545C11.8616 14.627 14.7091 11.7795 18.2366 11.7795C21.7641 11.7795 24.6116 14.627 24.6116 18.1545C24.6116 21.682 21.7641 24.5295 18.2366 24.5295Z" fill="#848484"/>
</g>
<defs>
<clipPath id="clip0_162_10117">
<rect width="34" height="34" fill="white" transform="translate(4.77832 4.69531)"/>
</clipPath>
</defs>
</svg>
