<svg width="20" height="21" viewBox="0 0 20 21" fill="none" xmlns="http://www.w3.org/2000/svg">
<path d="M17.6331 10.3105C17.6331 10.0805 17.6231 9.86055 17.6031 9.63055L19.4631 8.22055C19.8631 7.92055 19.9731 7.36055 19.7231 6.92055L17.8531 3.69055C17.6031 3.25055 17.0631 3.07055 16.6031 3.27055L14.4531 4.18055C14.0831 3.92055 13.6931 3.69055 13.2831 3.50055L12.9931 1.19055C12.9331 0.690547 12.5031 0.310547 12.0031 0.310547H8.27309C7.76309 0.310547 7.33309 0.690547 7.27309 1.19055L6.98309 3.50055C6.57309 3.69055 6.18309 3.92055 5.81309 4.18055L3.66309 3.27055C3.20309 3.07055 2.66309 3.25055 2.41309 3.69055L0.543088 6.93055C0.293088 7.37055 0.403088 7.92055 0.803088 8.23055L2.66309 9.64055C2.64309 9.86055 2.63309 10.0805 2.63309 10.3105C2.63309 10.5405 2.64309 10.7605 2.66309 10.9905L0.803088 12.4005C0.403088 12.7005 0.293088 13.2605 0.543088 13.7005L2.41309 16.9305C2.66309 17.3705 3.20309 17.5505 3.66309 17.3505L5.81309 16.4405C6.18309 16.7005 6.57309 16.9305 6.98309 17.1205L7.27309 19.4305C7.33309 19.9305 7.76309 20.3105 8.26309 20.3105H11.9931C12.4931 20.3105 12.9231 19.9305 12.9831 19.4305L13.2731 17.1205C13.6831 16.9305 14.0731 16.7005 14.4431 16.4405L16.5931 17.3505C17.0531 17.5505 17.5931 17.3705 17.8431 16.9305L19.7131 13.7005C19.9631 13.2605 19.8531 12.7105 19.4531 12.4005L17.5931 10.9905C17.6231 10.7605 17.6331 10.5405 17.6331 10.3105ZM10.1731 13.8105C8.24309 13.8105 6.67309 12.2405 6.67309 10.3105C6.67309 8.38055 8.24309 6.81055 10.1731 6.81055C12.1031 6.81055 13.6731 8.38055 13.6731 10.3105C13.6731 12.2405 12.1031 13.8105 10.1731 13.8105Z" fill="#B0B0B0"/>
</svg>
