<svg width="355" height="135" viewBox="0 0 355 135" fill="none" xmlns="http://www.w3.org/2000/svg">
<path fill-rule="evenodd" clip-rule="evenodd" d="M177.501 0.292969C188.836 4.64943 194.504 13.5959 194.504 27.1315C214.483 9.34855 242.538 27.8507 238.947 46.4788C236.553 58.8977 228.595 65.384 215.078 65.9364C231.175 50.7367 220.821 38.0655 210.494 38.0655C200.167 38.0655 190.433 51.4563 191.138 60.7431C191.846 70.0271 198.322 82.0805 223.14 82.0805C239.688 82.0805 253.99 65.2913 266.047 31.7134C272.124 36.9373 275.789 42.452 277.043 48.2525C289.269 37.3902 304.974 33.4513 324.154 36.4295C329.73 33.4511 334.21 27.1182 337.589 17.4308C340.079 23.6924 339.304 31.8371 335.272 41.8652C343.765 46.2162 350.205 53.3038 354.592 63.1317V134.538C343.257 130.181 337.589 121.235 337.589 107.699C317.61 125.482 289.555 106.98 293.146 88.3518C295.54 75.9329 303.497 69.4466 317.015 68.8942C300.918 84.0939 311.272 96.7651 321.599 96.7651C331.926 96.7651 341.66 83.3743 340.955 74.0875C340.246 64.8036 333.77 52.7501 308.952 52.7501C292.405 52.7501 278.103 69.5394 266.046 103.117C259.969 97.8933 256.304 92.3786 255.05 86.5781C242.823 97.4404 227.118 101.379 207.938 98.4011C202.363 101.38 197.883 107.712 194.504 117.4C192.014 111.138 192.788 102.994 196.821 92.9653C188.327 88.6144 181.887 81.5268 177.501 71.6989C173.114 81.5261 166.674 88.614 158.181 92.9653C162.214 102.994 162.988 111.138 160.498 117.4C157.119 107.712 152.638 101.379 147.064 98.4011C127.884 101.38 112.179 97.4403 99.9523 86.5781C98.6977 92.3785 95.0331 97.8937 88.9557 103.117C76.8994 69.5394 62.5972 52.7501 46.0497 52.7501C21.2315 52.7501 14.7557 64.8036 14.0473 74.0875C13.3419 83.3743 23.0762 96.7651 33.4031 96.7651C43.7299 96.7651 54.0848 84.0939 37.9873 68.8942C51.5039 69.446 59.4625 75.9329 61.8561 88.3518C65.4467 106.98 37.3921 125.482 17.4131 107.699C17.4131 121.235 11.7444 130.181 0.410156 134.538V63.1317C4.79683 53.3045 11.2366 46.2166 19.73 41.8652C15.6975 31.8371 14.9234 23.693 17.4131 17.4308C20.7924 27.1182 25.2726 33.4513 30.8475 36.4295C50.0275 33.4511 65.7325 37.3903 77.9588 48.2525C79.2134 42.4521 82.878 36.9369 88.9554 31.7134C101.012 65.2913 115.314 82.0805 131.861 82.0805C156.68 82.0805 163.155 70.0271 163.864 60.7431C164.569 51.4563 154.835 38.0655 144.508 38.0655C134.181 38.0655 123.826 50.7367 139.924 65.9364C126.407 65.3846 118.449 58.8977 116.055 46.4788C112.464 27.8504 140.519 9.34855 160.498 27.1315C160.498 13.5952 166.167 4.64928 177.501 0.292969Z" fill="black" fill-opacity="0.03"/>
</svg>
