<svg width="19" height="17" viewBox="0 0 19 17" fill="none" xmlns="http://www.w3.org/2000/svg">
<path d="M7.29972 11.9772V4.64388C7.29972 3.63555 8.11556 2.81055 9.13306 2.81055H17.3831V1.89388C17.3831 0.885547 16.5581 0.0605469 15.5497 0.0605469H2.71639C1.69889 0.0605469 0.883057 0.885547 0.883057 1.89388V14.7272C0.883057 15.7355 1.69889 16.5605 2.71639 16.5605H15.5497C16.5581 16.5605 17.3831 15.7355 17.3831 14.7272V13.8105H9.13306C8.11556 13.8105 7.29972 12.9855 7.29972 11.9772ZM10.0497 4.64388C9.54556 4.64388 9.13306 5.05638 9.13306 5.56055V11.0605C9.13306 11.5647 9.54556 11.9772 10.0497 11.9772H18.2997V4.64388H10.0497ZM12.7997 9.68555C12.0389 9.68555 11.4247 9.07138 11.4247 8.31055C11.4247 7.54971 12.0389 6.93555 12.7997 6.93555C13.5606 6.93555 14.1747 7.54971 14.1747 8.31055C14.1747 9.07138 13.5606 9.68555 12.7997 9.68555Z" fill="#B0B0B0"/>
</svg>
