<svg width="24" height="24" viewBox="0 0 24 24" fill="none" xmlns="http://www.w3.org/2000/svg">
<path d="M11.8657 19.4802L6.36516 23.68C6.09261 23.903 5.79529 24.0085 5.47318 23.9966C5.15108 23.9847 4.86614 23.8916 4.61836 23.7171C4.37059 23.5437 4.17881 23.3083 4.04303 23.011C3.90725 22.7137 3.90081 22.3916 4.02371 22.0447L6.14217 15.169L0.753102 11.3409C0.455774 11.1426 0.269944 10.8825 0.195612 10.5604C0.12128 10.2383 0.133669 9.94095 0.232778 9.6684C0.331887 9.39585 0.505328 9.15402 0.753102 8.94292C1.00087 8.73182 1.2982 8.62676 1.64508 8.62775H8.2978L10.4534 1.49188C10.5773 1.145 10.7696 0.878398 11.0302 0.692072C11.2909 0.505747 11.5694 0.413079 11.8657 0.41407C12.1631 0.41407 12.442 0.507233 12.7027 0.693559C12.9634 0.879884 13.1551 1.14599 13.278 1.49188L15.4337 8.62775H22.0864C22.4333 8.62775 22.7306 8.7333 22.9784 8.94441C23.2261 9.15551 23.3996 9.39684 23.4987 9.6684C23.5978 9.94095 23.6102 10.2383 23.5358 10.5604C23.4615 10.8825 23.2757 11.1426 22.9784 11.3409L17.5893 15.169L19.7078 22.0447C19.8316 22.3916 19.8257 22.7137 19.6899 23.011C19.5541 23.3083 19.3619 23.5437 19.1131 23.7171C18.8653 23.8906 18.5804 23.9837 18.2583 23.9966C17.9362 24.0095 17.6388 23.904 17.3663 23.68L11.8657 19.4802Z" fill="#F2C94C"/>
</svg>
