<svg width="17" height="17" viewBox="0 0 17 17" fill="none" xmlns="http://www.w3.org/2000/svg">
<path fill-rule="evenodd" clip-rule="evenodd" d="M8.37192 10.8862L13.6749 16.1902C13.9563 16.4716 14.338 16.6297 14.7359 16.6297C15.1339 16.6297 15.5155 16.4716 15.7969 16.1902C16.0783 15.9089 16.2364 15.5272 16.2364 15.1292C16.2364 14.7313 16.0783 14.3496 15.7969 14.0682L10.4919 8.76525L15.7959 3.46225C15.9352 3.32291 16.0456 3.15752 16.121 2.97549C16.1963 2.79347 16.2351 2.59839 16.235 2.40139C16.235 2.20439 16.1962 2.00933 16.1207 1.82735C16.0453 1.64536 15.9348 1.48001 15.7954 1.34075C15.6561 1.20148 15.4907 1.09102 15.3087 1.01568C15.1266 0.940329 14.9316 0.901573 14.7346 0.90162C14.5376 0.901666 14.3425 0.940514 14.1605 1.01595C13.9785 1.09138 13.8132 1.20191 13.6739 1.34125L8.37192 6.64425L3.06892 1.34125C2.93062 1.19792 2.76515 1.08357 2.58218 1.00487C2.39922 0.926171 2.20241 0.884699 2.00324 0.882875C1.80407 0.881051 1.60653 0.918911 1.42216 0.994245C1.23778 1.06958 1.07025 1.18088 0.929342 1.32165C0.788437 1.46242 0.676979 1.62985 0.601471 1.81416C0.525962 1.99847 0.487916 2.19597 0.489553 2.39513C0.491189 2.5943 0.532474 2.79115 0.611 2.9742C0.689526 3.15724 0.80372 3.32281 0.946919 3.46125L6.25192 8.76525L0.947919 14.0682C0.666524 14.3496 0.508438 14.7313 0.508438 15.1292C0.508438 15.5272 0.666524 15.9089 0.947919 16.1902C1.22931 16.4716 1.61097 16.6297 2.00892 16.6297C2.40687 16.6297 2.78852 16.4716 3.06992 16.1902L8.37192 10.8852V10.8862Z" fill="#4F4F4F"/>
</svg>
