<svg width="84" height="37" viewBox="0 0 84 37" fill="none" xmlns="http://www.w3.org/2000/svg">
<path d="M43.7555 34.1724C46.8389 33.416 49.7468 32.3247 52.4981 31.1855C55.2232 29.977 57.777 28.6637 60.0835 27.2237C64.3549 24.5762 67.8314 21.658 70.4988 18.893C70.3684 20.4208 70.2857 21.8558 70.2622 23.1526C70.1789 27.8061 70.7871 30.8173 72.1077 31.0823C73.4283 31.3473 75.2105 28.8171 77.025 24.5111C77.9323 22.3583 78.8477 19.7615 79.7167 16.8484C79.9257 16.1182 80.14 15.3697 80.3591 14.6061L80.5224 14.0034C80.6145 13.62 80.7066 13.2346 80.7993 12.8473C80.9835 12.0654 81.1689 11.2763 81.3565 10.4799C82.1011 7.27909 82.8511 3.90271 83.575 0.484619C80.0601 1.04733 76.554 1.67023 73.2457 2.27541C72.4217 2.42917 71.6052 2.58162 70.7961 2.73278C70.3956 2.80933 69.9964 2.88523 69.5992 2.96114L68.9675 3.0992C68.1758 3.28503 67.4003 3.46627 66.6428 3.64424C63.6214 4.38558 60.9231 5.18318 58.6812 5.98863C54.1967 7.59955 51.5347 9.24324 51.7599 10.5374C51.9851 11.8315 55.0537 12.5317 59.8325 12.6174C62.1456 12.6587 64.8662 12.5533 67.852 12.304C67.4333 12.5939 67.0052 12.8883 66.559 13.1906C60.5166 17.2938 51.8231 22.3131 41.2325 24.9873C35.9671 26.3901 30.7728 27.0759 25.9831 27.3735C21.1902 27.6968 16.7964 27.5666 13.0651 27.3964C5.60342 27.0307 0.735818 26.6041 0.317753 27.9277C0.118837 28.5546 1.08588 29.4687 3.05839 30.5974C3.55234 30.8755 4.10476 31.1837 4.72506 31.4742C5.35006 31.7497 6.03555 32.035 6.77943 32.3281C7.52337 32.6206 8.32446 32.9229 9.18063 33.2284C10.0476 33.4921 10.9702 33.7604 11.9447 34.0313C15.8399 35.0991 20.6476 35.983 26.0966 36.1343C31.5328 36.3116 37.6161 35.8052 43.7551 34.1727L43.7555 34.1724Z" fill="#FF5714"/>
</svg>
