<svg width="522" height="522" viewBox="0 0 522 522" fill="none" xmlns="http://www.w3.org/2000/svg">
<path fill-rule="evenodd" clip-rule="evenodd" d="M234.981 248.964C244.868 250.992 256.229 260.284 256.845 260.793C256.229 261.301 244.868 270.616 234.981 272.643C224.814 274.729 210.273 272.033 210.273 272.033C210.273 272.033 222.433 281.843 222.574 290.381C222.715 298.918 215.419 304.72 215.419 304.72C215.419 304.72 216.414 288.736 196.884 277.696C177.354 266.655 161.121 272.768 154.395 286.07C147.669 299.372 148.99 306.71 157.468 317.112C165.945 327.515 198.052 316.119 187.076 301.098C176.1 286.077 165.964 308.615 165.964 308.615C165.964 308.615 157.189 297.4 167.517 287.072C177.845 276.744 192.233 284.401 198.309 292.161C204.386 299.921 207.603 310.969 193.449 325.124C179.294 339.278 150.789 329.927 150.789 329.927C150.789 329.927 160.365 340.865 157.139 354.715C153.912 368.566 139.765 377.257 139.765 377.257C139.765 377.257 142.891 363.47 142.747 347.723C142.603 331.977 129.876 323.052 131.526 303.087C133.155 283.377 153.057 261.362 153.564 260.804C153.057 260.245 133.155 238.231 131.526 218.52C129.876 198.555 142.603 189.63 142.747 173.884C142.891 158.137 139.765 144.35 139.765 144.35C139.765 144.35 153.912 153.041 157.139 166.892C160.365 180.743 150.789 191.68 150.789 191.68C150.789 191.68 179.294 182.329 193.449 196.484C207.603 210.638 204.386 221.686 198.309 229.446C192.233 237.206 177.845 244.863 167.517 234.535C157.189 224.207 165.964 212.992 165.964 212.992C165.964 212.992 176.1 235.53 187.076 220.509C198.052 205.488 165.945 194.093 157.468 204.495C148.99 214.897 147.669 222.235 154.395 235.537C161.121 248.839 177.354 254.952 196.884 243.912C216.414 232.871 215.419 216.888 215.419 216.888C215.419 216.888 222.715 222.689 222.574 231.226C222.433 239.764 210.273 249.574 210.273 249.574C210.273 249.574 224.814 246.879 234.981 248.964ZM249.756 234.188C247.671 224.022 250.366 209.481 250.366 209.481C250.366 209.481 240.556 221.641 232.019 221.782C223.481 221.923 217.68 214.626 217.68 214.626C217.68 214.626 233.663 215.622 244.704 196.092C255.745 176.562 249.632 160.329 236.33 153.603C223.027 146.876 215.69 148.198 205.287 156.675C194.885 165.152 206.28 197.26 221.301 186.284C236.322 175.308 213.784 165.172 213.784 165.172C213.784 165.172 225 156.397 235.327 166.725C245.655 177.053 237.998 191.441 230.238 197.517C222.478 203.593 211.43 206.811 197.276 192.656C183.121 178.502 192.472 149.997 192.472 149.997C192.472 149.997 181.535 159.573 167.684 156.346C153.833 153.12 145.142 138.973 145.142 138.973C145.142 138.973 158.93 142.099 174.676 141.955C190.423 141.811 199.347 129.084 219.312 130.734C239.023 132.363 261.038 152.265 261.596 152.772C262.154 152.265 284.169 132.363 303.879 130.734C323.844 129.084 332.769 141.811 348.516 141.955C364.262 142.099 378.049 138.973 378.049 138.973C378.049 138.973 369.358 153.12 355.508 156.346C341.657 159.573 330.719 149.997 330.719 149.997C330.719 149.997 340.07 178.502 325.916 192.656C311.762 206.811 300.713 203.593 292.954 197.517C285.194 191.441 277.537 177.053 287.864 166.725C298.192 156.397 309.408 165.172 309.408 165.172C309.408 165.172 286.87 175.308 301.891 186.284C316.912 197.26 328.307 165.152 317.904 156.675C307.502 148.198 300.164 146.876 286.862 153.603C273.56 160.329 267.447 176.562 278.488 196.092C289.528 215.622 305.512 214.626 305.512 214.626C305.512 214.626 299.71 221.923 291.173 221.782C282.636 221.641 272.826 209.481 272.826 209.481C272.826 209.481 275.521 224.022 273.436 234.188C271.408 244.076 262.093 255.436 261.585 256.052C261.077 255.436 251.784 244.076 249.756 234.188ZM249.096 496.87C247.011 486.704 249.706 472.163 249.706 472.163C249.706 472.163 239.896 484.323 231.359 484.464C222.821 484.605 217.02 477.308 217.02 477.308C217.02 477.308 233.003 478.304 244.044 458.774C255.085 439.244 248.972 423.011 235.67 416.285C222.367 409.558 215.03 410.88 204.627 419.357C194.225 427.834 205.62 459.942 220.641 448.966C235.662 437.99 213.124 427.854 213.124 427.854C213.124 427.854 224.34 419.079 234.667 429.407C244.995 439.735 237.338 454.123 229.578 460.199C221.818 466.275 210.77 469.493 196.616 455.338C182.461 441.184 191.812 412.679 191.812 412.679C191.812 412.679 180.875 422.255 167.024 419.028C153.173 415.802 144.482 401.655 144.482 401.655C144.482 401.655 158.27 404.781 174.016 404.637C189.763 404.493 198.687 391.766 218.652 393.416C238.363 395.045 260.378 414.947 260.936 415.454C261.494 414.947 283.509 395.045 303.219 393.416C323.184 391.766 332.109 404.493 347.856 404.637C363.602 404.781 377.389 401.655 377.389 401.655C377.389 401.655 368.699 415.802 354.848 419.028C340.997 422.255 330.059 412.679 330.059 412.679C330.059 412.679 339.41 441.184 325.256 455.338C311.102 469.493 300.053 466.275 292.294 460.199C284.534 454.123 276.877 439.735 287.204 429.407C297.532 419.079 308.748 427.854 308.748 427.854C308.748 427.854 286.21 437.99 301.231 448.966C316.252 459.942 327.647 427.834 317.244 419.357C306.842 410.88 299.504 409.558 286.202 416.285C272.9 423.011 266.787 439.244 277.828 458.774C288.869 478.304 304.852 477.308 304.852 477.308C304.852 477.308 299.05 484.605 290.513 484.464C281.976 484.323 272.166 472.163 272.166 472.163C272.166 472.163 274.861 486.704 272.776 496.87C270.748 506.758 261.433 518.118 260.925 518.734C260.417 518.118 251.124 506.758 249.096 496.87ZM497.048 248.918C506.935 250.946 518.296 260.239 518.912 260.747C518.296 261.256 506.935 270.57 497.048 272.598C486.882 274.683 472.341 271.988 472.341 271.988C472.341 271.988 484.501 281.798 484.641 290.335C484.782 298.873 477.486 304.674 477.486 304.674C477.486 304.674 478.482 288.691 458.952 277.65C439.421 266.61 423.188 272.723 416.462 286.025C409.736 299.327 411.058 306.665 419.535 317.067C428.012 327.469 460.12 316.074 449.144 301.053C438.168 286.032 428.032 308.57 428.032 308.57C428.032 308.57 419.256 297.355 429.584 287.027C439.912 276.699 454.3 284.356 460.377 292.116C466.453 299.876 469.67 310.924 455.516 325.078C441.362 339.233 412.857 329.882 412.857 329.882C412.857 329.882 422.432 340.819 419.206 354.67C415.98 368.521 401.832 377.212 401.832 377.212C401.832 377.212 404.959 363.424 404.815 347.678C404.67 331.931 391.943 323.007 393.593 303.042C395.222 283.331 415.124 261.317 415.632 260.758C415.124 260.2 395.222 238.185 393.593 218.475C391.943 198.51 404.67 189.585 404.815 173.839C404.959 158.092 401.832 144.305 401.832 144.305C401.832 144.305 415.98 152.996 419.206 166.847C422.432 180.697 412.857 191.635 412.857 191.635C412.857 191.635 441.362 182.284 455.516 196.438C469.67 210.593 466.453 221.641 460.377 229.401C454.3 237.16 439.912 244.818 429.584 234.49C419.256 224.162 428.032 212.946 428.032 212.946C428.032 212.946 438.167 235.484 449.144 220.464C460.12 205.443 428.012 194.047 419.535 204.45C411.058 214.852 409.736 222.19 416.462 235.492C423.189 248.794 439.421 254.907 458.952 243.866C478.482 232.826 477.486 216.842 477.486 216.842C477.486 216.842 484.782 222.644 484.641 231.181C484.501 239.718 472.341 249.529 472.341 249.529C472.341 249.529 486.882 246.833 497.048 248.918ZM24.8241 272.598C14.9367 270.57 3.57608 261.278 2.96022 260.769C3.57608 260.261 14.9367 250.947 24.8241 248.919C34.9905 246.834 49.5312 249.529 49.5312 249.529C49.5312 249.529 37.3713 239.719 37.2306 231.181C37.0899 222.644 44.3861 216.843 44.3861 216.843C44.3861 216.843 43.3903 232.826 62.9206 243.867C82.4509 254.907 98.6836 248.794 105.41 235.492C112.136 222.19 110.814 214.852 102.337 204.45C93.8601 194.048 61.7523 205.443 72.7285 220.464C83.7046 235.485 93.8404 212.947 93.8404 212.947C93.8404 212.947 102.616 224.162 92.2878 234.49C81.9599 244.818 67.5719 237.161 61.4955 229.401C55.4192 221.641 52.2017 210.593 66.3561 196.438C80.5106 182.284 109.015 191.635 109.015 191.635C109.015 191.635 99.4398 180.698 102.666 166.847C105.892 152.996 120.04 144.305 120.04 144.305C120.04 144.305 116.913 158.092 117.058 173.839C117.202 189.585 129.929 198.51 128.279 218.475C126.65 238.185 106.748 260.2 106.24 260.759C106.748 261.317 126.65 283.332 128.279 303.042C129.929 323.007 117.202 331.932 117.058 347.678C116.913 363.425 120.04 377.212 120.04 377.212C120.04 377.212 105.892 368.521 102.666 354.67C99.4398 340.819 109.015 329.882 109.015 329.882C109.015 329.882 80.5106 339.233 66.3561 325.079C52.2017 310.924 55.4192 299.876 61.4955 292.116C67.5719 284.356 81.9599 276.699 92.2878 287.027C102.616 297.355 93.8405 308.57 93.8405 308.57C93.8405 308.57 83.7046 286.032 72.7285 301.053C61.7523 316.074 93.8601 327.469 102.337 317.067C110.814 306.665 112.136 299.327 105.41 286.025C98.6836 272.723 82.4509 266.61 62.9206 277.65C43.3903 288.691 44.3862 304.674 44.3862 304.674C44.3862 304.674 37.0899 298.873 37.2306 290.336C37.3713 281.798 49.5312 271.988 49.5312 271.988C49.5312 271.988 34.9905 274.683 24.8241 272.598ZM272.776 24.6465C274.861 34.8129 272.166 49.3536 272.166 49.3536C272.166 49.3536 281.976 37.1937 290.513 37.053C299.051 36.9123 304.852 44.2085 304.852 44.2085C304.852 44.2085 288.869 43.2126 277.828 62.7429C266.787 82.2732 272.9 98.5059 286.203 105.232C299.505 111.959 306.842 110.637 317.245 102.16C327.647 93.6824 316.252 61.5747 301.231 72.5508C286.21 83.527 308.748 93.6628 308.748 93.6628C308.748 93.6628 297.533 102.438 287.205 92.1101C276.877 81.7823 284.534 67.3943 292.294 61.3179C300.054 55.2416 311.102 52.024 325.256 66.1785C339.411 80.3329 330.06 108.838 330.06 108.838C330.06 108.838 340.997 99.2622 354.848 102.488C368.699 105.715 377.39 119.862 377.39 119.862C377.39 119.862 363.602 116.736 347.856 116.88C332.109 117.024 323.185 129.751 303.22 128.101C283.509 126.472 261.494 106.57 260.936 106.063C260.378 106.57 238.363 126.472 218.653 128.101C198.688 129.751 189.763 117.024 174.016 116.88C158.27 116.736 144.483 119.862 144.483 119.862C144.483 119.862 153.174 105.715 167.024 102.488C180.875 99.2622 191.813 108.838 191.813 108.838C191.813 108.838 182.462 80.3329 196.616 66.1785C210.771 52.024 221.819 55.2415 229.579 61.3179C237.338 67.3942 244.996 81.7823 234.668 92.1102C224.34 102.438 213.124 93.6628 213.124 93.6628C213.124 93.6628 235.662 83.5269 220.641 72.5508C205.62 61.5747 194.225 93.6824 204.628 102.16C215.03 110.637 222.368 111.959 235.67 105.232C248.972 98.506 255.085 82.2732 244.044 62.7429C233.004 43.2126 217.02 44.2085 217.02 44.2085C217.02 44.2085 222.822 36.9123 231.359 37.053C239.896 37.1937 249.707 49.3536 249.707 49.3536C249.707 49.3536 247.011 34.8129 249.096 24.6465C251.124 14.7591 260.439 3.39845 260.947 2.78259C261.455 3.39845 270.748 14.7591 272.776 24.6465ZM273.3 287.283C275.385 297.45 272.69 311.99 272.69 311.99C272.69 311.99 282.5 299.831 291.038 299.69C299.575 299.549 305.376 306.845 305.376 306.845C305.376 306.845 289.393 305.85 278.352 325.38C267.312 344.91 273.425 361.143 286.727 367.869C300.029 374.595 307.367 373.274 317.769 364.796C328.171 356.319 316.776 324.212 301.755 335.188C286.734 346.164 309.272 356.3 309.272 356.3C309.272 356.3 298.057 365.075 287.729 354.747C277.401 344.419 285.058 330.031 292.818 323.955C300.578 317.878 311.626 314.661 325.78 328.815C339.935 342.97 330.584 371.475 330.584 371.475C330.584 371.475 341.521 361.899 355.372 365.125C369.223 368.352 377.914 382.499 377.914 382.499C377.914 382.499 364.127 379.373 348.38 379.517C332.634 379.661 323.709 392.388 303.744 390.738C284.033 389.109 262.019 369.207 261.46 368.7C260.902 369.207 238.887 389.109 219.177 390.738C199.212 392.388 190.287 379.661 174.541 379.517C158.794 379.373 145.007 382.499 145.007 382.499C145.007 382.499 153.698 368.352 167.549 365.125C181.399 361.899 192.337 371.475 192.337 371.475C192.337 371.475 182.986 342.97 197.14 328.815C211.295 314.661 222.343 317.878 230.103 323.955C237.863 330.031 245.52 344.419 235.192 354.747C224.864 365.075 213.649 356.3 213.649 356.3C213.649 356.3 236.187 346.164 221.166 335.188C206.145 324.212 194.749 356.319 205.152 364.796C215.554 373.274 222.892 374.595 236.194 367.869C249.496 361.143 255.609 344.91 244.568 325.38C233.528 305.85 217.544 306.845 217.544 306.845C217.544 306.845 223.346 299.549 231.883 299.69C240.42 299.831 250.231 311.99 250.231 311.99C250.231 311.99 247.535 297.45 249.621 287.283C251.648 277.396 260.963 266.035 261.471 265.419C261.98 266.035 271.272 277.396 273.3 287.283ZM288.076 272.508C278.188 270.48 266.828 261.187 266.212 260.679C266.828 260.171 278.188 250.856 288.076 248.828C298.242 246.743 312.783 249.438 312.783 249.438C312.783 249.438 300.623 239.628 300.482 231.091C300.341 222.554 307.638 216.752 307.638 216.752C307.638 216.752 306.642 232.735 326.172 243.776C345.702 254.817 361.935 248.704 368.661 235.402C375.388 222.1 374.066 214.762 365.589 204.36C357.112 193.957 325.004 205.352 335.98 220.373C346.956 235.394 357.092 212.856 357.092 212.856C357.092 212.856 365.867 224.072 355.539 234.4C345.211 244.727 330.823 237.07 324.747 229.31C318.671 221.551 315.453 210.502 329.608 196.348C343.762 182.194 372.267 191.545 372.267 191.545C372.267 191.545 362.691 180.607 365.918 166.756C369.144 152.905 383.291 144.215 383.291 144.215C383.291 144.215 380.165 158.002 380.309 173.748C380.453 189.495 393.18 198.42 391.53 218.385C389.901 238.095 369.999 260.11 369.492 260.668C369.999 261.226 389.901 283.241 391.53 302.952C393.18 322.916 380.453 331.841 380.309 347.588C380.165 363.334 383.291 377.122 383.291 377.122C383.291 377.122 369.144 368.431 365.918 354.58C362.691 340.729 372.267 329.792 372.267 329.792C372.267 329.792 343.762 339.143 329.608 324.988C315.453 310.834 318.671 299.786 324.747 292.026C330.823 284.266 345.211 276.609 355.539 286.937C365.867 297.264 357.092 308.48 357.092 308.48C357.092 308.48 346.956 285.942 335.98 300.963C325.004 315.984 357.112 327.379 365.589 316.977C374.066 306.574 375.388 299.237 368.661 285.934C361.935 272.632 345.702 266.519 326.172 277.56C306.642 288.601 307.638 304.584 307.638 304.584C307.638 304.584 300.341 298.783 300.482 290.245C300.623 281.708 312.783 271.898 312.783 271.898C312.783 271.898 298.242 274.593 288.076 272.508Z" fill="black" fill-opacity="0.05"/>
<path d="M344.149 257.008H174.946V349.732H344.149V257.008Z" fill="#FF5714"/>
<path d="M164.781 210.593C165.151 205.729 167.344 201.184 170.922 197.868C174.499 194.553 179.197 192.71 184.075 192.711H338.328C343.218 192.709 347.927 194.559 351.508 197.889C355.089 201.218 357.277 205.78 357.631 210.656L368.654 362.149C368.846 364.802 368.49 367.466 367.608 369.975C366.725 372.484 365.335 374.785 363.523 376.733C361.712 378.681 359.519 380.234 357.08 381.297C354.642 382.36 352.01 382.908 349.351 382.909H172.519C169.855 382.908 167.22 382.357 164.778 381.29C162.337 380.224 160.142 378.665 158.331 376.711C156.52 374.757 155.132 372.451 154.253 369.935C153.374 367.42 153.024 364.751 153.225 362.094L164.781 210.593Z" fill="#FF5714"/>
<path fill-rule="evenodd" clip-rule="evenodd" d="M295.524 230.764C294.006 230.855 292.496 231.034 290.999 231.298C290.836 231.461 303.822 316.366 304.03 316.492C304.239 316.619 316.519 315.651 316.7 315.434C316.881 315.216 313.985 296.348 310.428 273.289C306.872 250.23 303.967 231.108 303.958 230.81C303.958 230.185 302.157 230.176 295.524 230.764ZM330.184 280.058L340.021 349.062H182.556L190.293 294.764C194.547 264.9 198.963 233.859 200.103 225.751L202.103 211.018H320.311L330.184 280.058ZM272.193 153.1C279.528 154.902 286.303 158.489 291.917 163.541C297.532 168.593 301.811 174.954 304.374 182.059C305.919 186.325 306.807 190.802 307.008 195.335V197.905H215.461V195.335C215.527 193.303 215.748 191.279 216.121 189.28C219.805 169.851 235.126 155.199 254.954 152.059C259.216 151.425 267.469 151.914 272.193 153.1ZM254.7 139C252.021 139.316 249.364 139.799 246.746 140.448C234.731 143.536 223.991 150.321 216.043 159.846C208.096 169.37 203.343 181.152 202.456 193.525L202.167 197.642L199.768 198.131C197.196 198.535 194.828 199.771 193.026 201.651C189.85 204.837 190.474 201.326 179.669 276.891C174.149 315.497 169.633 348.203 169.633 349.56C169.721 352.067 170.539 354.494 171.985 356.543C173.432 358.593 175.445 360.176 177.778 361.099C179.886 361.913 182.158 361.931 261.243 361.931C340.329 361.931 342.609 361.931 344.718 361.099C347.051 360.177 349.065 358.594 350.512 356.544C351.959 354.495 352.776 352.067 352.863 349.56C352.863 348.203 348.338 315.497 342.836 276.891C334.799 220.728 332.618 206.357 331.904 204.945C330.949 203.129 329.588 201.556 327.928 200.349C326.268 199.142 324.352 198.334 322.329 197.986L320.329 197.697L320.048 193.552C319.077 179.655 313.219 166.55 303.511 156.558C293.802 146.567 280.871 140.334 267.008 138.964C262.919 138.473 258.785 138.491 254.7 139.018V139Z" fill="#FF5714"/>
<path fill-rule="evenodd" clip-rule="evenodd" d="M308.191 337.352C308.177 338.851 308.062 340.347 307.848 341.831L307.495 343.931H298.698V334.999H308.191V337.352ZM224.871 328.664V333.008L220.536 332.827C218.851 332.793 217.171 332.654 215.504 332.411C215.033 332.257 214.798 330.899 214.798 328.248V324.311H224.871V328.664ZM274.644 326.791V331.506L271.667 331.877C267.983 332.338 265.956 332.085 266.029 331.171C266.029 330.782 266.128 328.582 266.174 326.275L266.255 322.076H274.644V326.791ZM295.332 320.628C295.332 322.275 295.558 322.592 296.906 322.89C298.508 323.243 304.282 327.895 304.282 328.836C304.282 329.116 302.137 329.352 299.522 329.352H294.771V347.451L299.386 347.089C301.92 346.899 305.947 346.736 308.336 346.727H312.662V342.239C312.662 339.777 312.897 337.759 313.178 337.759C314.083 337.759 318.291 343.035 318.608 344.619C318.888 345.931 319.223 346.157 320.825 346.157H322.716V352.193L319.495 352.546C316.599 352.854 293.893 353.967 290.137 353.976H288.608V347.352C288.608 343.732 288.771 335.768 288.97 329.723L289.341 318.718H295.314L295.332 320.628ZM234.373 314.184L237.45 314.546V317.316C237.45 319.813 237.305 320.121 236.047 320.42C235.654 320.484 235.291 320.669 235.009 320.95C234.726 321.231 234.539 321.593 234.472 321.985C234.373 322.673 233.061 324.546 231.558 326.166L228.843 329.098V326.51C228.833 325.055 228.712 323.603 228.481 322.166L228.128 320.42H210.328V328.401C210.328 332.782 210.572 336.754 210.871 337.216C211.269 337.84 212.3 338.021 215.052 337.913C217.803 337.804 218.671 337.913 218.671 338.564C218.671 339.795 213.649 343.931 212.165 343.931C211.26 343.931 210.843 344.248 210.843 344.935C210.843 346.555 209.676 347.288 207.097 347.288H204.69V339.867C204.69 335.795 204.436 328.682 204.138 324.067C203.853 320.95 203.775 317.818 203.902 314.691C204.192 313.786 205.296 313.714 217.739 313.786C225.214 313.795 232.68 313.976 234.373 314.184ZM285.133 323.234C285.214 329.858 285.133 337.415 284.852 340.021L284.418 344.781H281.621C278.988 344.781 278.816 344.691 278.653 343.234C278.526 342.184 278.155 341.696 277.44 341.696C276.327 341.696 270.201 336.935 270.201 336.076C270.201 335.777 272.083 335.542 274.391 335.542H278.581V317.623H261.386L261.024 319.08C260.822 320.357 260.822 321.658 261.024 322.935C261.232 324.311 261.151 325.469 260.834 325.65C260.002 326.166 255.658 321.551 255.305 319.777C255.222 319.278 254.997 318.814 254.657 318.44C254.316 318.066 253.875 317.798 253.386 317.669C251.929 317.162 251.766 316.854 251.766 314.619V312.139L264.771 311.596C271.92 311.298 279.404 311.08 281.404 311.107L285.024 311.171L285.133 323.234ZM276.309 301.37C276.309 302.139 276.671 302.519 277.413 302.519C278.789 302.519 279.667 304.112 279.667 306.601V308.519L267.594 308.926C260.961 309.153 255.441 309.243 255.323 309.126C255.205 309.008 256.662 307.669 258.545 306.139C261.784 303.515 262.164 303.343 265.929 303.08L269.884 302.8L270.056 299.741C270.318 295.017 271.042 294.637 273.911 297.678C275.232 299.062 276.309 300.727 276.309 301.361V301.37ZM235.07 291.117L237.169 291.46V300.32L232.554 300.157L227.938 299.994L227.776 296.13C227.659 294.592 227.698 293.045 227.893 291.515C228.21 290.7 231.459 290.519 235.07 291.117ZM268.065 278.248L270.164 278.592V287.551L266.056 287.279C264.452 287.24 262.858 287.018 261.305 286.619C260.608 286.185 260.4 278.918 261.024 278.257C261.495 277.795 265.287 277.786 268.065 278.248ZM245.251 277.461C245.622 279.126 246.671 300.221 246.671 305.904V310.347H240.382C236.925 310.347 228.997 310.175 222.771 309.976L211.45 309.659V303.741L213.513 303.569C215.278 303.424 215.64 303.153 216.011 301.714C216.246 300.809 217.703 298.782 219.26 297.261L222.074 294.483V304.23H239.965V300.393C239.965 298.284 239.803 294.257 239.604 291.442L239.242 286.32H230.192L232.97 283.479C234.499 281.922 236.436 280.51 237.278 280.338C238.499 280.085 238.816 279.705 238.816 278.528C238.816 276.483 239.142 276.266 242.255 276.266C244.617 276.175 245.015 276.375 245.251 277.461ZM213.423 274.565L216.201 277.406L212.961 280.447C211.84 281.606 210.582 282.624 209.215 283.479C207.859 282.644 206.612 281.644 205.504 280.501L202.31 277.524L205.785 274.628C207.703 273.035 209.577 271.732 209.957 271.732C210.337 271.732 211.902 273.008 213.423 274.565ZM277.567 268.366H283.576V271.216C283.576 273.859 283.458 274.112 281.92 274.691C281.424 274.88 280.972 275.17 280.594 275.542C280.215 275.914 279.918 276.361 279.721 276.854C279.16 278.465 274.834 283.479 274.002 283.479C273.739 283.479 273.513 281.47 273.513 279.008V274.528H255.784L256.056 282.782C256.228 287.94 256.563 291.189 256.961 291.451C258.305 291.796 259.693 291.937 261.079 291.868C263.006 291.868 264.581 292.085 264.581 292.338C264.581 293.316 259.585 297.949 258.336 298.13C257.314 298.275 256.988 298.709 256.852 300.13C256.68 301.94 256.662 301.94 253.64 301.94C251.965 301.94 250.59 301.75 250.59 301.524C250.59 301.298 250.21 295.813 249.766 289.352C249.323 282.89 248.943 275.352 248.934 272.61V267.623L260.228 268.031C266.463 268.203 274.264 268.366 277.567 268.366ZM216.382 262.194C221.604 266.8 227.242 271.868 228.825 273.452L231.775 276.329L227.042 280.854C224.445 283.361 218.771 288.737 214.445 292.8L206.572 300.175L204.816 298.365C202.943 296.429 202.644 295.289 203.748 294.184C204.282 293.641 204.264 293.234 203.649 292.257C202.744 290.863 202.083 282.89 202.825 282.89C204.156 283.76 205.373 284.794 206.445 285.967L209.549 289.044L215.884 282.709L222.219 276.375L216.273 270.836C212.997 267.786 210.11 265.216 209.848 265.126C209.586 265.035 208.038 266.148 206.382 267.605L203.405 270.257L203.006 268.058C202.581 265.624 203.006 262.375 203.739 261.895C204.472 261.415 204.31 259.868 203.296 258.746C202.391 257.768 202.463 257.605 204.246 255.768C204.897 254.995 205.67 254.335 206.536 253.814C206.717 253.814 211.169 257.587 216.382 262.194ZM226.608 255.144C227.716 254.018 228.889 252.958 230.119 251.967L232.3 250.23L232.02 254.139C231.962 255.882 231.616 257.604 230.997 259.234C230.364 260.248 230.4 260.646 231.251 261.949C232.237 263.452 232.228 263.47 230.4 265.361C229.755 266.121 228.983 266.764 228.119 267.262C227.658 267.262 219.712 260.311 212.282 253.397L207.812 249.243L210.264 247.053L212.708 244.872L218.988 250.728L225.269 256.592L226.608 255.144ZM281.974 245.189C282.879 245.443 283.576 247.66 283.576 250.465C283.576 253.587 283.259 253.795 278.544 253.795C273.468 253.795 273.513 253.859 273.513 248.112V244.194L277.287 244.565C278.85 244.698 280.406 244.912 281.947 245.207L281.974 245.189ZM226.943 241.569C228.572 243.18 229.902 244.782 229.902 245.144C229.902 245.832 224.165 250.963 223.395 250.963C222.626 250.963 217.595 245.787 217.595 245.126C217.595 244.465 223.178 238.655 223.712 238.655C224.87 239.553 225.951 240.546 226.943 241.624V241.569ZM316.01 236.411V240.891H307.069V231.931H316.01V236.411ZM327.196 231.587C327.196 231.986 325.938 233.551 324.399 235.072L321.603 237.787V230.836H324.399C326.291 230.873 327.196 231.099 327.196 231.587ZM304.146 238.565L304.3 245.986H313.449L310.961 248.52C309.788 249.785 308.368 250.795 306.789 251.488C305.422 251.841 305.078 252.257 304.934 253.714C304.762 255.479 304.725 255.524 301.757 255.524H298.762L298.445 252.583C297.893 247.506 296.997 235.388 296.997 233.081V230.845L300.499 231.008L303.992 231.18L304.146 238.565ZM294.02 240.945C294.879 253.805 294.925 263.714 294.164 264.203C293.685 264.492 260.68 263.424 260.264 263.099C260.279 262.145 260.372 261.195 260.545 260.257C260.879 257.958 261.16 257.452 262.3 257.18C262.763 257.065 263.182 256.815 263.504 256.462C263.826 256.11 264.037 255.67 264.11 255.198C264.345 254.293 265.802 252.284 267.35 250.755L270.173 247.986V257.732H288.065V253.343C288.065 250.927 287.902 247.008 287.703 244.71L287.35 240.465L283.232 240.076L279.124 239.696L280.934 237.425C281.998 236.123 283.332 235.067 284.843 234.33C286.128 233.832 286.961 233.126 286.961 232.52C286.961 231.035 287.567 230.773 290.581 230.945L293.404 231.117L294.02 240.945ZM232.011 233.922C232.165 236.311 232.056 238.149 231.766 238.149C230.577 237.405 229.504 236.49 228.581 235.434L225.866 232.719L228.282 230.71C229.712 229.524 230.907 228.9 231.205 229.198C231.504 229.497 231.866 231.597 232.011 233.922Z" fill="white"/>
</svg>
