<svg width="351" height="251" viewBox="0 0 351 251" fill="none" xmlns="http://www.w3.org/2000/svg">
<path d="M48.6388 247.855L8.12045 224.671C6.44959 223.716 4.98277 222.44 3.80371 220.916C2.62465 219.392 1.75648 217.65 1.24881 215.79C0.741144 213.929 0.603892 211.987 0.844949 210.073C1.08601 208.159 1.7006 206.312 2.65366 204.637L17.238 179.006C19.1646 175.624 22.3514 173.149 26.0975 172.125C29.8435 171.1 33.8421 171.61 37.2135 173.542L77.7318 196.725C79.4029 197.68 80.8697 198.957 82.0483 200.481C83.2269 202.005 84.0941 203.748 84.6002 205.609C85.1062 207.47 85.2412 209.413 84.9974 211.326C84.7537 213.24 84.136 215.086 83.1796 216.76L68.6142 242.391C66.6876 245.772 63.5008 248.247 59.7547 249.272C56.0087 250.297 52.0101 249.787 48.6388 247.855Z" fill="#FDCE9D"/>
<path d="M36.3827 240.854L24.4655 234.024C23.5561 233.506 22.7576 232.813 22.1159 231.985C21.4742 231.157 21.0017 230.209 20.7258 229.198C20.4499 228.186 20.3759 227.129 20.508 226.089C20.6401 225.048 20.9758 224.044 21.4957 223.134L42.6816 185.892C43.7321 184.053 45.4671 182.706 47.5062 182.148C49.5452 181.589 51.7216 181.865 53.5584 182.914L65.4757 189.725C63.6377 188.681 61.4628 188.408 59.4252 188.966C57.3877 189.524 55.6529 190.867 54.5989 192.703L33.4128 229.945C32.367 231.787 32.0923 233.97 32.6491 236.015C33.2058 238.06 34.5485 239.8 36.3827 240.854Z" fill="#FF8F62"/>
<path d="M61.3108 250.416C58.6554 250.412 56.0472 249.712 53.7443 248.386L13.226 225.202C11.4785 224.197 9.94537 222.856 8.7144 221.257C7.48344 219.657 6.57863 217.83 6.05167 215.88C5.52471 213.93 5.38591 211.895 5.64319 209.891C5.90046 207.887 6.54886 205.953 7.55119 204.2L22.1355 178.588C23.1378 176.836 24.4745 175.298 26.0693 174.063C27.6641 172.829 29.4858 171.921 31.4303 171.393C33.3747 170.864 35.4039 170.725 37.402 170.983C39.4002 171.241 41.328 171.891 43.0756 172.897L83.5939 196.099C85.3427 197.101 86.8772 198.439 88.1093 200.037C89.3415 201.634 90.2471 203.46 90.7743 205.409C91.3015 207.359 91.4399 209.393 91.1816 211.396C90.9232 213.399 90.2731 215.332 89.2687 217.082L74.6845 242.581C73.3442 244.955 71.4006 246.931 69.0514 248.308C66.7023 249.684 64.0314 250.411 61.3108 250.416ZM54.4442 247.172C57.6488 248.967 61.4288 249.426 64.968 248.45C68.5073 247.474 71.5217 245.141 73.3603 241.955L87.9447 216.342C89.7964 213.143 90.3085 209.338 89.369 205.761C88.4294 202.184 86.1148 199.126 82.9319 197.257L42.4136 174.073C39.2135 172.266 35.4317 171.798 31.8899 172.772C28.348 173.745 25.3322 176.081 23.4975 179.271L8.9131 204.902C7.08158 208.121 6.59876 211.936 7.57059 215.511C8.54243 219.087 10.8894 222.129 14.0961 223.969L54.4442 247.172Z" fill="#01101E"/>
<path d="M57.5474 245.938C57.4238 245.937 57.3025 245.903 57.1962 245.84C57.0899 245.776 57.0022 245.686 56.9421 245.578C56.8951 245.497 56.8647 245.408 56.8526 245.315C56.8405 245.222 56.847 245.128 56.8717 245.038C56.8963 244.948 56.9387 244.864 56.9962 244.79C57.0538 244.717 57.1255 244.655 57.2069 244.61C58.3316 243.976 59.2608 243.044 59.893 241.916L81.0412 204.636C81.6954 203.482 82.0225 202.169 81.987 200.842C81.987 200.656 82.0608 200.477 82.1921 200.345C82.3233 200.214 82.5013 200.14 82.6869 200.14C82.8725 200.14 83.0506 200.214 83.1818 200.345C83.3131 200.477 83.3868 200.656 83.3868 200.842C83.4365 202.43 83.0435 204 82.2519 205.376L61.1225 242.58C60.3531 243.921 59.2437 245.034 57.9068 245.805C57.8 245.879 57.6764 245.925 57.5474 245.938Z" fill="#01101E"/>
<path d="M62.7844 185.664C62.6907 185.682 62.5944 185.682 62.5007 185.664C57.6239 183.542 53.4789 180.024 50.5836 175.552C48.1875 172.199 46.9277 168.162 46.9895 164.036C46.9639 162.86 47.3346 161.708 48.0416 160.769C48.7486 159.829 49.7507 159.155 50.8862 158.857C51.4046 158.747 51.9402 158.748 52.4583 158.859C52.9764 158.97 53.4656 159.189 53.8939 159.502C59.8336 163.505 63.2574 183.995 63.352 184.868C63.3712 184.992 63.3568 185.119 63.3102 185.236C63.2636 185.353 63.1865 185.455 63.0871 185.532C62.9995 185.602 62.8951 185.647 62.7844 185.664ZM51.7564 160.166C51.5994 160.146 51.4405 160.146 51.2835 160.166C50.4457 160.414 49.7139 160.935 49.2035 161.646C48.6932 162.357 48.4335 163.218 48.465 164.093C47.9732 169.443 52.3616 178.986 61.8575 183.691C60.9874 179.062 57.8095 163.714 53.194 160.603C52.7692 160.318 52.267 160.172 51.7564 160.185V160.166Z" fill="#01101E"/>
<path d="M87.984 194.847C78.8286 194.847 63.1661 186.006 62.4473 185.589C62.3223 185.524 62.2207 185.421 62.1563 185.295C62.0919 185.17 62.068 185.027 62.0879 184.887C62.1068 184.747 62.1676 184.616 62.2621 184.511C62.3566 184.406 62.4805 184.332 62.6176 184.299C68.3814 182.962 74.3851 183.073 80.096 184.621C84.3617 185.503 88.3525 187.403 91.7295 190.161C92.1316 190.477 92.4407 190.896 92.6239 191.373C92.8072 191.851 92.8576 192.37 92.7699 192.874C92.505 193.709 91.6916 194.297 90.3296 194.601C89.56 194.774 88.7728 194.857 87.984 194.847ZM64.774 185.267C69.5409 187.79 83.4442 194.753 90.0081 193.235C90.8025 193.045 91.3322 192.76 91.4078 192.476C91.4835 192.191 91.2376 191.698 90.708 191.148C87.4355 187.752 75.4805 183.256 64.774 185.267Z" fill="#01101E"/>
<path d="M62.8461 185.892C62.6848 185.893 62.5281 185.839 62.4012 185.739C62.2742 185.639 62.1844 185.499 62.1462 185.342C62.1118 185.157 62.1494 184.965 62.2514 184.806C62.3534 184.647 62.512 184.534 62.6948 184.488C63.2244 184.375 116.171 172.176 130.017 149.96C130.118 149.801 130.277 149.689 130.459 149.648C130.642 149.607 130.833 149.641 130.992 149.741C131.15 149.842 131.261 150.001 131.302 150.185C131.343 150.368 131.309 150.56 131.209 150.718C125.25 160.204 111.952 169.102 91.6743 176.938C82.3159 180.529 72.7373 183.514 62.9975 185.873L62.8461 185.892Z" fill="#01101E"/>
<path d="M158.355 97.3123C158.355 97.3123 166.83 74.1856 183.325 58.5338C193.294 49.0478 197.833 44.7032 205.494 48.877C208.679 50.6044 211.359 53.1353 213.27 56.2197C215.181 59.3041 216.257 62.8352 216.39 66.464C216.806 72.6868 217.96 90.9188 225.129 98.6025C225.129 98.6025 208.199 113.306 189.699 113.306C171.2 113.306 160.796 104.673 158.355 97.3123Z" fill="#FC3637"/>
<path d="M223.632 43.0905C221.027 44.8166 218.831 47.0935 217.197 49.7613C215.563 52.4292 214.531 55.4233 214.174 58.5336C211.261 57.6686 208.553 56.2231 206.21 54.2839C204.047 52.6794 202.135 50.7612 200.535 48.5923L209.256 34.3254L223.632 43.0905Z" fill="#FDCE9D"/>
<path d="M209.822 38.594C209.822 38.594 212.225 46.8088 216.519 51.0016C218.032 47.991 220.245 45.3886 222.969 43.4129L209.822 38.594Z" fill="#01101E"/>
<path d="M231.709 22.0504C232.712 31.3087 233.317 46.2586 225.221 46.2586C217.125 46.2586 203.846 36.3173 203.846 27.0211C203.846 17.7248 210.391 10.193 218.487 10.193C226.583 10.193 230.707 13.0198 231.709 22.0504Z" fill="#FDCE9D"/>
<path d="M231.011 34.3441C228.022 34.3441 225.677 30.9481 225.677 26.6035C225.677 22.259 228.022 18.882 231.011 18.882C234 18.882 236.345 22.2779 236.345 26.6035C236.345 30.9291 234 34.3441 231.011 34.3441ZM231.011 21.7088C229.819 21.7088 228.495 23.7957 228.495 26.6035C228.495 29.4114 229.819 31.5173 231.011 31.5173C232.203 31.5173 233.527 29.4114 233.527 26.6035C233.527 23.7957 232.203 21.7088 231.011 21.7088Z" fill="#01101E"/>
<path d="M227.153 29.1273C226.997 29.1562 226.836 29.1562 226.68 29.1273C224.462 28.5298 222.158 28.3244 219.87 28.5202H219.265C218.898 28.5308 218.541 28.3984 218.27 28.1508C217.998 27.9031 217.833 27.5595 217.808 27.1922C217.782 26.8257 217.9 26.4635 218.137 26.1833C218.374 25.9031 218.711 25.7272 219.076 25.6934H219.681C222.072 25.2693 224.403 24.5558 226.623 23.5685C226.844 23.4899 227.08 23.4672 227.312 23.5025C227.543 23.5378 227.762 23.63 227.95 23.7709C228.137 23.9118 228.287 24.097 228.385 24.3099C228.484 24.5229 228.528 24.757 228.515 24.9914C228.515 24.9914 228.515 25.4657 228.515 26.3954C228.493 26.7175 228.493 27.0408 228.515 27.3629C228.579 27.5767 228.594 27.8024 228.558 28.0227C228.522 28.2431 228.436 28.4522 228.307 28.6341C228.165 28.7995 227.987 28.93 227.787 29.0155C227.587 29.1011 227.37 29.1393 227.153 29.1273Z" fill="#01101E"/>
<path d="M233.696 37.8156H230.216C230.03 37.8156 229.852 37.7417 229.721 37.61C229.589 37.4784 229.516 37.2998 229.516 37.1137C229.52 36.929 229.596 36.7532 229.726 36.6226C229.856 36.492 230.031 36.4165 230.216 36.4117H232.864L232.277 32.6173C232.25 32.4337 232.297 32.2468 232.407 32.0975C232.517 31.9482 232.681 31.8486 232.864 31.8205C233.048 31.7977 233.235 31.8456 233.385 31.9546C233.536 32.0637 233.64 32.2258 233.677 32.4086L234.396 37.0378C234.407 37.1393 234.398 37.242 234.369 37.3398C234.34 37.4376 234.291 37.5284 234.226 37.6069C234.159 37.6801 234.077 37.737 233.985 37.7732C233.893 37.8094 233.794 37.8239 233.696 37.8156Z" fill="#01101E"/>
<path d="M225.126 39.5808C224.112 39.5298 223.128 39.212 222.275 38.6592C221.422 38.1064 220.728 37.3381 220.265 36.4314C220.228 36.3456 220.208 36.2532 220.207 36.1597C220.206 36.0662 220.224 35.9734 220.259 35.8867C220.294 35.8001 220.346 35.7215 220.412 35.6554C220.478 35.5893 220.557 35.537 220.643 35.5018C220.817 35.4366 221.009 35.4394 221.181 35.5097C221.352 35.58 221.491 35.7127 221.57 35.8812C221.945 36.5629 222.491 37.1339 223.155 37.5368C223.819 37.9397 224.577 38.1604 225.353 38.1768C225.447 38.1861 225.538 38.2144 225.621 38.2599C225.704 38.3055 225.776 38.3673 225.835 38.4417C225.893 38.5162 225.936 38.6016 225.96 38.6931C225.985 38.7845 225.991 38.8799 225.978 38.9737C225.964 39.0708 225.931 39.1641 225.88 39.2479C225.829 39.3317 225.762 39.4042 225.682 39.461C225.603 39.5179 225.512 39.5578 225.417 39.5784C225.321 39.599 225.222 39.5998 225.126 39.5808Z" fill="#01101E"/>
<path d="M229.704 11.0086C229.382 10.97 229.086 10.8148 228.871 10.5722C226.326 7.68161 222.811 5.82848 218.993 5.36427C215.176 4.90007 211.322 5.85709 208.161 8.05381C205 10.2505 202.753 13.5342 201.846 17.2821C200.939 21.0299 201.435 24.9813 203.24 28.3869C203.266 28.4383 203.302 28.4838 203.346 28.5206C203.39 28.5574 203.441 28.5847 203.496 28.6007C203.551 28.6167 203.609 28.6212 203.666 28.6138C203.722 28.6063 203.777 28.5872 203.826 28.5576L230.82 13.2473L232.806 12.1659C232.889 12.1294 232.959 12.0664 233.003 11.9866C233.048 11.9068 233.065 11.8146 233.052 11.7241C233.039 11.6336 232.997 11.5498 232.932 11.4857C232.867 11.4215 232.783 11.3806 232.692 11.369L229.704 11.0086Z" fill="#FC3637"/>
<path d="M238.573 10.5538C238.876 13.7031 238.138 19.7741 223.44 17.2319C227.942 14.8811 232.3 12.2647 236.492 9.39646C237.609 8.58067 238.498 9.88973 238.573 10.5538Z" fill="#01101E"/>
<path d="M221.796 18.3698C221.796 18.3698 223.518 22.9989 217.219 30.4738C214.438 33.775 214.627 36.7156 212.055 40.2634C210.049 43.0333 201.726 47.1502 199.835 41.2499C199.134 38.9783 199.14 36.5462 199.853 34.2783C200.566 32.0104 201.952 30.0148 203.826 28.5577L221.796 18.3698Z" fill="#FA8164"/>
<path d="M204.112 111.352C203.993 111.351 203.875 111.321 203.77 111.265C203.664 111.209 203.574 111.128 203.507 111.029C195.543 98.2419 195.089 80.5032 195.089 80.3135C195.089 80.1255 195.162 79.945 195.293 79.8103C195.423 79.6756 195.601 79.5975 195.789 79.5925C195.976 79.5925 196.156 79.6658 196.291 79.7969C196.425 79.9281 196.503 80.1066 196.508 80.2945C196.508 80.4653 196.943 97.8245 204.717 110.27C204.81 110.43 204.839 110.619 204.797 110.799C204.754 110.98 204.645 111.136 204.49 111.238C204.378 111.312 204.246 111.352 204.112 111.352Z" fill="#01101E"/>
<path d="M203.806 29.2787C203.683 29.2776 203.561 29.2437 203.455 29.1804C203.349 29.1171 203.261 29.0266 203.201 28.9183C203.154 28.8375 203.123 28.7482 203.111 28.6556C203.099 28.5629 203.106 28.4688 203.13 28.3786C203.155 28.2885 203.197 28.2042 203.255 28.1307C203.313 28.0573 203.384 27.996 203.466 27.9507L214.267 21.8228C214.347 21.7767 214.437 21.747 214.529 21.7354C214.621 21.7238 214.714 21.7305 214.804 21.7552C214.894 21.7798 214.977 21.8219 215.051 21.8791C215.124 21.9363 215.186 22.0074 215.231 22.0884C215.277 22.1693 215.307 22.2586 215.319 22.351C215.33 22.4435 215.324 22.5373 215.299 22.6272C215.274 22.717 215.232 22.8011 215.175 22.8747C215.118 22.9483 215.047 23.0098 214.967 23.0559L204.166 29.1839C204.055 29.2442 203.932 29.2768 203.806 29.2787Z" fill="#01101E"/>
<path d="M344.711 107.386C346.255 100.405 346.985 93.2683 346.887 86.1185C346.887 69.7457 343.69 56.4844 339.736 56.4844C335.783 56.4844 332.586 69.7647 332.586 86.1185C332.487 93.2683 333.217 100.405 334.762 107.386H344.711Z" fill="black"/>
<path d="M344.711 126.339C346.255 133.314 346.985 140.444 346.887 147.588C346.887 163.961 343.69 177.241 339.736 177.241C335.783 177.241 332.586 163.961 332.586 147.588C332.487 140.444 333.217 133.314 334.761 126.339H344.711Z" fill="black"/>
<path d="M336.221 131.88H331V102.777H336.221C340.069 102.777 343.759 104.31 346.48 107.039C349.201 109.768 350.729 113.469 350.729 117.328C350.729 121.187 349.201 124.889 346.48 127.618C343.759 130.346 340.069 131.88 336.221 131.88Z" fill="#FDCE9D"/>
<path d="M38.4799 68.7221C46.3679 71.8904 60.9523 78.8342 71.2616 99.6084L36.0775 115.222L33.9023 72.0233C33.8722 71.4609 33.9837 70.9 34.2263 70.3922C34.469 69.8844 34.8352 69.4459 35.2911 69.1172C35.7469 68.7885 36.2779 68.58 36.8352 68.5109C37.3924 68.4419 37.958 68.5145 38.4799 68.7221Z" fill="#FDCE9D"/>
<path d="M39.0673 115.904C38.888 115.905 38.7155 115.836 38.5853 115.712C38.455 115.589 38.3771 115.42 38.3674 115.24L36.192 72.0604C36.1566 71.3777 36.2929 70.6972 36.5882 70.0811C36.8836 69.4651 37.3286 68.9334 37.8823 68.5349C38.4359 68.1363 39.0806 67.8837 39.757 67.8003C40.4334 67.7168 41.1199 67.8052 41.7533 68.0573C51.2114 71.8517 64.9445 79.2317 74.8944 99.304C74.9354 99.3875 74.9596 99.4783 74.9657 99.5711C74.9717 99.6639 74.9594 99.7571 74.9295 99.8452C74.8997 99.9332 74.8527 100.015 74.7916 100.084C74.7304 100.154 74.6561 100.212 74.5729 100.253C74.4897 100.294 74.3992 100.318 74.3066 100.324C74.2141 100.33 74.1212 100.318 74.0334 100.288C73.9455 100.258 73.8644 100.211 73.7947 100.15C73.725 100.088 73.6681 100.014 73.6271 99.9301C63.9042 80.2942 50.4737 73.0849 41.2238 69.3853C40.8159 69.2093 40.3693 69.143 39.9281 69.1929C39.4869 69.2428 39.0664 69.4072 38.7079 69.6699C38.3439 69.9303 38.0521 70.2795 37.8601 70.6845C37.6681 71.0895 37.5823 71.5369 37.6107 71.9845L39.7672 115.165C39.7749 115.257 39.7637 115.351 39.7342 115.439C39.7046 115.527 39.6574 115.609 39.5954 115.678C39.5334 115.747 39.4579 115.803 39.3736 115.842C39.2893 115.881 39.198 115.902 39.1052 115.904H39.0673Z" fill="#01101E"/>
<path d="M256.752 81.3188C256.752 81.3188 253.367 66.4069 247.786 62.1382C247.633 62.0296 247.457 61.9566 247.271 61.9246C247.086 61.8927 246.896 61.9025 246.715 61.9533C246.534 62.0042 246.366 62.0948 246.224 62.2187C246.082 62.3425 245.97 62.4965 245.895 62.6694L238.99 79.4216L256.752 81.3188Z" fill="#FDCE9D"/>
<path d="M320.045 90.9368C303.853 87.3891 272.131 81.2991 241.165 77.6565C240.499 77.5723 239.822 77.6811 239.215 77.9703C238.609 78.2594 238.097 78.7166 237.741 79.288C224.992 99.1706 193.213 116.947 169.814 104.654C158.332 98.6015 149.914 90.2159 145.109 78.3394C144.86 77.6363 144.389 77.0338 143.768 76.623C143.147 76.2122 142.409 76.0156 141.666 76.0628C77.6164 82.5512 30.3262 103.989 30.3262 114.462C30.3262 127.591 65.9452 141.801 113.898 150.015C113.898 150.015 233.258 174.072 321.37 145.861C324.172 144.958 326.616 143.185 328.347 140.798C330.078 138.41 331.006 135.532 330.998 132.58V104.578C330.991 101.394 329.902 98.3074 327.911 95.8276C325.92 93.3479 323.145 91.6228 320.045 90.9368Z" fill="#FF5714"/>
<path d="M38.1197 117.726L71.5823 119.984C71.8011 119.993 72.0113 120.072 72.1818 120.21C72.3522 120.348 72.474 120.537 72.5292 120.75C72.5843 120.962 72.5697 121.187 72.4878 121.391C72.4059 121.594 72.2609 121.766 72.0741 121.881C64.8671 126.624 43.8892 139.79 35.4526 137.969C26.2026 136.072 35.4526 121.122 37.3442 118.2C37.4247 118.064 37.5375 117.949 37.6728 117.866C37.808 117.783 37.9615 117.735 38.1197 117.726Z" fill="#FDCE9D"/>
<path d="M140.478 145.084C139.678 143.71 139.454 142.074 139.855 140.534C140.255 138.994 141.248 137.676 142.615 136.869C151.146 131.823 170.535 122.887 198.891 124.5C225.544 126.036 238.842 131.595 244.63 135.01C245.802 135.705 246.799 136.659 247.547 137.8C248.294 138.941 248.772 140.239 248.943 141.593C250.532 153.754 254.164 190.825 240.204 197.56C227.719 203.612 177.78 208.431 140.478 145.084Z" fill="#FDCE9D"/>
<path d="M248.943 142.295C248.768 142.291 248.6 142.223 248.471 142.105C248.343 141.986 248.261 141.824 248.243 141.649C247.713 135.863 239.069 131.177 223.274 128.123C215.204 126.628 207.047 125.652 198.853 125.201C198.76 125.201 198.668 125.182 198.583 125.145C198.498 125.109 198.421 125.055 198.358 124.988C198.294 124.92 198.244 124.84 198.213 124.753C198.181 124.666 198.167 124.573 198.172 124.48C198.182 124.292 198.264 124.115 198.402 123.988C198.54 123.86 198.722 123.792 198.91 123.797C200.934 123.892 248.205 126.074 249.643 141.517C249.653 141.609 249.645 141.702 249.62 141.792C249.594 141.881 249.551 141.964 249.493 142.036C249.434 142.109 249.363 142.169 249.281 142.213C249.2 142.257 249.111 142.285 249.018 142.295H248.943Z" fill="#01101E"/>
<path d="M48.5057 135.711C48.3383 135.716 48.1748 135.66 48.0448 135.554C47.9148 135.449 47.827 135.299 47.7973 135.134C47.7675 134.969 47.7978 134.798 47.8827 134.654C47.9676 134.509 48.1013 134.399 48.2598 134.345C58.1718 130.551 70.9591 121.691 71.0916 121.596C71.6212 121.255 71.7536 121.046 71.7725 120.97C71.6493 120.845 71.501 120.748 71.3375 120.685L48.6381 119.149C48.5469 119.144 48.4577 119.121 48.3756 119.081C48.2935 119.041 48.2203 118.984 48.1603 118.915C48.1003 118.846 48.0547 118.766 48.0263 118.679C47.9979 118.592 47.9873 118.5 47.995 118.409C47.9999 118.317 48.0228 118.226 48.0625 118.143C48.1022 118.06 48.1579 117.985 48.2264 117.923C48.2949 117.862 48.375 117.814 48.4618 117.783C48.5487 117.753 48.6407 117.74 48.7327 117.745L71.432 119.281H71.6023C71.8293 119.281 72.9642 119.775 73.0777 120.761C73.0777 121.444 72.7372 122.127 71.7725 122.658C71.659 122.658 58.7394 131.651 48.6571 135.559L48.5057 135.711Z" fill="#01101E"/>
<path d="M326.574 233.986C328.275 234.001 329.952 233.594 331.458 232.801C332.963 232.009 334.25 230.855 335.203 229.442C336.157 228.03 336.747 226.403 336.921 224.706C337.095 223.01 336.848 221.297 336.203 219.719C332.665 211.087 327.274 202.17 320.634 204.39C320.634 204.39 317.627 204.579 317.967 213.648C317.967 213.648 306.277 196.573 291.201 201.904C280.04 205.907 288.628 219.169 288.628 219.169C284.572 219.561 280.542 220.194 276.56 221.066C273.355 221.735 270.377 223.222 267.912 225.382C265.447 227.542 263.578 230.303 262.486 233.398L326.574 233.986Z" fill="#FDCE9D"/>
<path d="M128.747 33.4526C128.747 33.4526 118.324 0.574266 102.264 4.55837C102.264 4.55837 98.3108 4.72911 98.7647 13.5511C98.7647 13.5511 85.1452 -1.26601 67.7234 0.574269C56.5251 1.7695 61.9162 20.8173 61.9162 20.8173C61.9162 20.8173 45.3645 9.05472 44.7403 20.6845C44.135 31.6882 26.335 32.6558 26.335 32.6558L128.747 33.4526Z" fill="#FDCE9D"/>
<path d="M85.677 39.3152H15.2901C15.1218 39.2876 14.9689 39.2008 14.8585 39.0705C14.7481 38.9402 14.6875 38.7748 14.6875 38.6038C14.6875 38.4328 14.7481 38.2673 14.8585 38.137C14.9689 38.0067 15.1218 37.92 15.2901 37.8923H85.677C85.8452 37.92 85.9982 38.0067 86.1086 38.137C86.2189 38.2673 86.2795 38.4328 86.2795 38.6038C86.2795 38.7748 86.2189 38.9402 86.1086 39.0705C85.9982 39.2008 85.8452 39.2876 85.677 39.3152Z" fill="#01101E"/>
<path d="M322.28 234.688C322.186 234.688 322.094 234.669 322.008 234.633C321.921 234.597 321.843 234.543 321.778 234.476C321.713 234.409 321.662 234.329 321.628 234.242C321.594 234.154 321.577 234.061 321.58 233.967C321.585 233.783 321.66 233.607 321.79 233.476C321.921 233.346 322.096 233.27 322.28 233.265C323.857 233.269 325.411 232.882 326.804 232.14C328.196 231.397 329.385 230.322 330.264 229.008C331.143 227.695 331.686 226.184 331.844 224.611C332.002 223.037 331.771 221.448 331.17 219.985C327.898 212.036 322.715 202.91 316.473 205.073H316.302C315.64 205.206 314.032 206.97 314.297 213.591C314.31 213.747 314.27 213.903 314.184 214.034C314.099 214.165 313.972 214.263 313.824 214.313C313.676 214.363 313.516 214.362 313.369 214.311C313.221 214.259 313.095 214.159 313.011 214.028C312.897 213.857 301.434 197.389 287.058 202.531C285.952 202.836 284.933 203.399 284.085 204.174C283.237 204.948 282.584 205.913 282.178 206.989C280.494 211.96 284.788 218.676 284.845 218.752C284.911 218.855 284.949 218.974 284.956 219.096C284.962 219.219 284.936 219.341 284.881 219.451C284.825 219.56 284.742 219.653 284.639 219.72C284.537 219.787 284.419 219.826 284.296 219.833C280.273 220.239 276.275 220.872 272.322 221.73C269.243 222.381 266.381 223.81 264.007 225.882C261.633 227.954 259.827 230.6 258.76 233.569C258.736 233.659 258.694 233.743 258.637 233.816C258.579 233.889 258.508 233.95 258.426 233.994C258.345 234.039 258.255 234.066 258.163 234.074C258.071 234.083 257.978 234.072 257.889 234.043C257.801 234.017 257.719 233.974 257.648 233.916C257.576 233.858 257.517 233.786 257.473 233.705C257.429 233.624 257.401 233.535 257.392 233.443C257.382 233.352 257.39 233.259 257.416 233.17C258.561 229.96 260.506 227.096 263.065 224.851C265.624 222.606 268.713 221.055 272.039 220.345C277.297 219.264 281.251 218.79 283.067 218.6C281.856 216.418 279.284 211.011 280.835 206.61C281.3 205.338 282.055 204.194 283.041 203.268C284.026 202.342 285.214 201.661 286.509 201.279C292.903 199.002 299.751 200.368 306.201 205.225C308.637 207.077 310.846 209.21 312.784 211.58C312.697 209.409 313.153 207.251 314.108 205.301C314.292 204.919 314.557 204.583 314.883 204.314C315.21 204.045 315.591 203.851 316 203.745C321.675 201.848 327.349 207.312 332.381 219.492C333.055 221.165 333.31 222.979 333.123 224.774C332.936 226.57 332.313 228.292 331.309 229.789C330.305 231.287 328.95 232.515 327.362 233.366C325.775 234.217 324.004 234.664 322.204 234.669L322.28 234.688Z" fill="#01101E"/>
</svg>
