<svg width="47" height="820" viewBox="0 0 47 820" fill="none" xmlns="http://www.w3.org/2000/svg">
<path fill-rule="evenodd" clip-rule="evenodd" d="M29.9524 614.826C23.4797 611.507 18.5445 610.403 15.1469 611.514C16.7423 609.929 17.54 608.017 17.54 605.777C17.54 602.416 14.4879 600.139 11.2916 600.139C8.0953 600.139 6.19085 601.866 5.66003 604.59C5.12922 607.315 6.76657 609.462 8.99641 609.462C8.43508 607.663 8.85455 606.599 10.2548 606.27C12.3552 605.777 13.2434 607.41 13.2434 609.462C13.2434 611.514 10.4529 612.802 7.90176 612.161C5.35063 611.521 2.73142 609.028 2.73142 605.777C2.73142 602.525 4.13466 598.958 8.99641 597.457C3.40429 594.257 0.60161 589.592 0.588379 583.46L42.2538 612.084C42.2406 605.952 39.4379 601.286 33.8458 598.086C38.7075 596.585 40.1108 593.019 40.1108 589.767C40.1108 586.515 37.4916 584.023 34.9404 583.382C32.3893 582.741 29.5988 584.029 29.5988 586.082C29.5988 588.134 30.487 589.767 32.5874 589.273C33.9876 588.944 34.4071 587.88 33.8458 586.082C36.0756 586.082 37.7129 588.229 37.1821 590.953C36.6513 593.677 34.7469 595.405 31.5506 595.405C28.3543 595.405 25.3022 593.127 25.3022 589.767C25.3022 587.527 26.0999 585.614 27.6953 584.029C24.2977 585.141 19.3625 584.036 12.8898 580.717C19.3625 577.398 24.2977 576.294 27.6953 577.405C26.0999 575.82 25.3022 573.907 25.3022 571.667C25.3022 568.307 28.3543 566.03 31.5506 566.03C34.7469 566.03 36.6513 567.757 37.1821 570.481C37.7129 573.205 36.0756 575.353 33.8458 575.353C34.4071 573.554 33.9876 572.49 32.5874 572.161C30.487 571.667 29.5988 573.3 29.5988 575.353C29.5988 577.405 32.3893 578.693 34.9404 578.052C37.4916 577.412 40.1108 574.919 40.1108 571.667C40.1108 568.416 38.7075 564.849 33.8458 563.348C39.4379 560.148 42.2406 555.482 42.2538 549.35L0.588379 577.975C0.60161 571.843 3.40429 567.177 8.99641 563.977C4.13466 562.476 2.73142 558.909 2.73142 555.658C2.73142 552.406 5.35063 549.913 7.90176 549.273C10.4529 548.632 13.2434 549.92 13.2434 551.972C13.2434 554.025 12.3552 555.658 10.2548 555.164C8.85455 554.835 8.43508 553.771 8.99641 551.972C6.76657 551.972 5.12922 554.12 5.66003 556.844C6.19085 559.568 8.0953 561.295 11.2916 561.295C14.4879 561.295 17.54 559.018 17.54 555.658C17.54 553.418 16.7423 551.505 15.1469 549.92C18.5445 551.031 23.4797 549.927 29.9524 546.608H46.9551L46.9551 683.045H29.9524C23.4797 679.725 18.5445 678.621 15.1469 679.732C16.7423 678.147 17.54 676.235 17.54 673.995C17.54 670.635 14.4879 668.357 11.2916 668.357C8.0953 668.357 6.19085 670.085 5.66003 672.809C5.12922 675.533 6.76657 677.68 8.99641 677.68C8.43508 675.881 8.85455 674.818 10.2548 674.489C12.3552 673.995 13.2434 675.628 13.2434 677.68C13.2434 679.732 10.4529 681.02 7.90176 680.38C5.35063 679.739 2.73142 677.247 2.73142 673.995C2.73142 670.743 4.13466 667.177 8.99641 665.675C3.40429 662.476 0.60161 657.81 0.588379 651.678L42.2538 680.302C42.2406 674.17 39.4379 669.504 33.8458 666.305C38.7075 664.804 40.1108 661.237 40.1108 657.985C40.1108 654.733 37.4916 652.241 34.9404 651.6C32.3893 650.96 29.5988 652.248 29.5988 654.3C29.5988 656.352 30.487 657.985 32.5874 657.492C33.9876 657.163 34.4071 656.099 33.8458 654.3C36.0756 654.3 37.7129 656.447 37.1821 659.171C36.6513 661.895 34.7469 663.623 31.5506 663.623C28.3543 663.623 25.3022 661.345 25.3022 657.985C25.3022 655.745 26.0999 653.833 27.6953 652.248C24.2977 653.359 19.3625 652.255 12.8898 648.935C19.3625 645.616 24.2977 644.512 27.6953 645.623C26.0999 644.038 25.3022 642.126 25.3022 639.886C25.3022 636.526 28.3543 634.248 31.5506 634.248C34.7469 634.248 36.6513 635.976 37.1821 638.7C37.7129 641.424 36.0756 643.571 33.8458 643.571C34.4071 641.772 33.9876 640.708 32.5874 640.379C30.487 639.886 29.5988 641.519 29.5988 643.571C29.5988 645.623 32.3893 646.911 34.9404 646.271C37.4916 645.63 40.1108 643.137 40.1108 639.886C40.1108 636.634 38.7075 633.067 33.8458 631.566C39.4379 628.367 42.2406 623.701 42.2538 617.569L0.588379 646.193C0.60161 640.061 3.40429 635.395 8.99641 632.196C4.13466 630.694 2.73142 627.128 2.73142 623.876C2.73142 620.624 5.35063 618.132 7.90176 617.491C10.4529 616.851 13.2434 618.139 13.2434 620.191C13.2434 622.243 12.3552 623.876 10.2548 623.382C8.85455 623.053 8.43508 621.99 8.99641 620.191C6.76657 620.191 5.12922 622.338 5.66003 625.062C6.19085 627.786 8.0953 629.514 11.2916 629.514C14.4879 629.514 17.54 627.236 17.54 623.876C17.54 621.636 16.7423 619.724 15.1469 618.139C18.5445 619.25 23.4797 618.146 29.9524 614.826Z" fill="black" fill-opacity="0.2"/>
<path fill-rule="evenodd" clip-rule="evenodd" d="M29.9524 751.264C23.4797 747.944 18.5445 746.84 15.1469 747.951C16.7423 746.367 17.54 744.454 17.54 742.214C17.54 738.854 14.4879 736.576 11.2916 736.576C8.0953 736.576 6.19085 738.304 5.66003 741.028C5.12922 743.752 6.76657 745.899 8.99641 745.899C8.43508 744.101 8.85455 743.037 10.2548 742.708C12.3552 742.214 13.2434 743.847 13.2434 745.899C13.2434 747.951 10.4529 749.239 7.90176 748.599C5.35063 747.958 2.73142 745.466 2.73142 742.214C2.73142 738.962 4.13466 735.396 8.99641 733.894C3.40429 730.695 0.60161 726.029 0.588379 719.897L42.2538 748.521C42.2406 742.389 39.4379 737.724 33.8458 734.524C38.7075 733.023 40.1108 729.456 40.1108 726.204C40.1108 722.953 37.4916 720.46 34.9404 719.82C32.3893 719.179 29.5988 720.467 29.5988 722.519C29.5988 724.571 30.487 726.204 32.5874 725.711C33.9876 725.382 34.4071 724.318 33.8458 722.519C36.0756 722.519 37.7129 724.666 37.1821 727.39C36.6513 730.115 34.7469 731.842 31.5506 731.842C28.3543 731.842 25.3022 729.564 25.3022 726.204C25.3022 723.964 26.0999 722.052 27.6953 720.467C24.2977 721.578 19.3625 720.474 12.8898 717.155C19.3625 713.835 24.2977 712.731 27.6953 713.842C26.0999 712.257 25.3022 710.345 25.3022 708.105C25.3022 704.745 28.3543 702.467 31.5506 702.467C34.7469 702.467 36.6513 704.195 37.1821 706.919C37.7129 709.643 36.0756 711.79 33.8458 711.79C34.4071 709.991 33.9876 708.927 32.5874 708.598C30.487 708.105 29.5988 709.738 29.5988 711.79C29.5988 713.842 32.3893 715.13 34.9404 714.49C37.4916 713.849 40.1108 711.357 40.1108 708.105C40.1108 704.853 38.7075 701.287 33.8458 699.785C39.4379 696.586 42.2406 691.92 42.2538 685.788L0.588379 714.412C0.60161 708.28 3.40429 703.614 8.99641 700.415C4.13466 698.913 2.73142 695.347 2.73142 692.095C2.73142 688.843 5.35063 686.351 7.90176 685.71C10.4529 685.07 13.2434 686.358 13.2434 688.41C13.2434 690.462 12.3552 692.095 10.2548 691.602C8.85455 691.273 8.43508 690.209 8.99641 688.41C6.76657 688.41 5.12922 690.557 5.66003 693.281C6.19085 696.005 8.0953 697.733 11.2916 697.733C14.4879 697.733 17.54 695.455 17.54 692.095C17.54 689.855 16.7423 687.943 15.1469 686.358C18.5445 687.469 23.4797 686.365 29.9524 683.045H46.9551L46.9551 819.482H29.9524C23.4797 816.163 18.5445 815.059 15.1469 816.17C16.7423 814.585 17.54 812.672 17.54 810.432C17.54 807.072 14.4879 804.795 11.2916 804.795C8.0953 804.795 6.19085 806.522 5.66003 809.246C5.12922 811.971 6.76657 814.118 8.99641 814.118C8.43508 812.319 8.85455 811.255 10.2548 810.926C12.3552 810.432 13.2434 812.066 13.2434 814.118C13.2434 816.17 10.4529 817.458 7.90176 816.817C5.35063 816.177 2.73142 813.684 2.73142 810.432C2.73142 807.181 4.13466 803.614 8.99641 802.113C3.40429 798.913 0.60161 794.247 0.588379 788.116L42.2538 816.74C42.2406 810.608 39.4379 805.942 33.8458 802.742C38.7075 801.241 40.1108 797.675 40.1108 794.423C40.1108 791.171 37.4916 788.678 34.9404 788.038C32.3893 787.397 29.5988 788.685 29.5988 790.737C29.5988 792.79 30.487 794.423 32.5874 793.929C33.9876 793.6 34.4071 792.536 33.8458 790.737C36.0756 790.737 37.7129 792.885 37.1821 795.609C36.6513 798.333 34.7469 800.061 31.5506 800.061C28.3543 800.061 25.3022 797.783 25.3022 794.423C25.3022 792.183 26.0999 790.27 27.6953 788.685C24.2977 789.796 19.3625 788.692 12.8898 785.373C19.3625 782.054 24.2977 780.95 27.6953 782.061C26.0999 780.476 25.3022 778.563 25.3022 776.323C25.3022 772.963 28.3543 770.685 31.5506 770.685C34.7469 770.685 36.6513 772.413 37.1821 775.137C37.7129 777.861 36.0756 780.008 33.8458 780.008C34.4071 778.21 33.9876 777.146 32.5874 776.817C30.487 776.323 29.5988 777.956 29.5988 780.008C29.5988 782.061 32.3893 783.349 34.9404 782.708C37.4916 782.067 40.1108 779.575 40.1108 776.323C40.1108 773.071 38.7075 769.505 33.8458 768.004C39.4379 764.804 42.2406 760.138 42.2538 754.006L0.588379 782.63C0.60161 776.499 3.40429 771.833 8.99641 768.633C4.13466 767.132 2.73142 763.565 2.73142 760.314C2.73142 757.062 5.35063 754.569 7.90176 753.929C10.4529 753.288 13.2434 754.576 13.2434 756.628C13.2434 758.68 12.3552 760.314 10.2548 759.82C8.85455 759.491 8.43508 758.427 8.99641 756.628C6.76657 756.628 5.12922 758.775 5.66003 761.5C6.19085 764.224 8.0953 765.951 11.2916 765.951C14.4879 765.951 17.54 763.674 17.54 760.314C17.54 758.073 16.7423 756.161 15.1469 754.576C18.5445 755.687 23.4797 754.583 29.9524 751.264Z" fill="black" fill-opacity="0.2"/>
<path fill-rule="evenodd" clip-rule="evenodd" d="M29.9524 341.953C23.4797 338.634 18.5445 337.53 15.1469 338.641C16.7423 337.056 17.54 335.144 17.54 332.903C17.54 329.543 14.4879 327.266 11.2916 327.266C8.0953 327.266 6.19085 328.993 5.66003 331.717C5.12922 334.442 6.76657 336.589 8.99641 336.589C8.43508 334.79 8.85455 333.726 10.2548 333.397C12.3552 332.903 13.2434 334.537 13.2434 336.589C13.2434 338.641 10.4529 339.929 7.90176 339.288C5.35063 338.648 2.73142 336.155 2.73142 332.903C2.73142 329.652 4.13466 326.085 8.99641 324.584C3.40429 321.384 0.60161 316.719 0.588379 310.587L42.2538 339.211C42.2406 333.079 39.4379 328.413 33.8458 325.213C38.7075 323.712 40.1108 320.146 40.1108 316.894C40.1108 313.642 37.4916 311.15 34.9404 310.509C32.3893 309.868 29.5988 311.156 29.5988 313.209C29.5988 315.261 30.487 316.894 32.5874 316.4C33.9876 316.071 34.4071 315.007 33.8458 313.209C36.0756 313.209 37.7129 315.356 37.1821 318.08C36.6513 320.804 34.7469 322.532 31.5506 322.532C28.3543 322.532 25.3022 320.254 25.3022 316.894C25.3022 314.654 26.0999 312.741 27.6953 311.156C24.2977 312.267 19.3625 311.163 12.8898 307.844C19.3625 304.525 24.2977 303.421 27.6953 304.532C26.0999 302.947 25.3022 301.034 25.3022 298.794C25.3022 295.434 28.3543 293.157 31.5506 293.157C34.7469 293.157 36.6513 294.884 37.1821 297.608C37.7129 300.332 36.0756 302.48 33.8458 302.48C34.4071 300.681 33.9876 299.617 32.5874 299.288C30.487 298.794 29.5988 300.427 29.5988 302.48C29.5988 304.532 32.3893 305.82 34.9404 305.179C37.4916 304.539 40.1108 302.046 40.1108 298.794C40.1108 295.543 38.7075 291.976 33.8458 290.475C39.4379 287.275 42.2406 282.609 42.2538 276.477L0.588379 305.102C0.60161 298.97 3.40429 294.304 8.99641 291.104C4.13466 289.603 2.73142 286.036 2.73142 282.785C2.73142 279.533 5.35063 277.04 7.90176 276.4C10.4529 275.759 13.2434 277.047 13.2434 279.099C13.2434 281.151 12.3552 282.785 10.2548 282.291C8.85455 281.962 8.43508 280.898 8.99641 279.099C6.76657 279.099 5.12922 281.247 5.66003 283.971C6.19085 286.695 8.0953 288.422 11.2916 288.422C14.4879 288.422 17.54 286.145 17.54 282.785C17.54 280.545 16.7423 278.632 15.1469 277.047C18.5445 278.158 23.4797 277.054 29.9524 273.735H46.9551L46.9551 410.172H29.9524C23.4797 406.852 18.5445 405.748 15.1469 406.859C16.7423 405.274 17.54 403.362 17.54 401.122C17.54 397.762 14.4879 395.484 11.2916 395.484C8.0953 395.484 6.19085 397.212 5.66003 399.936C5.12922 402.66 6.76657 404.807 8.99641 404.807C8.43508 403.008 8.85455 401.945 10.2548 401.615C12.3552 401.122 13.2434 402.755 13.2434 404.807C13.2434 406.859 10.4529 408.147 7.90176 407.507C5.35063 406.866 2.73142 404.374 2.73142 401.122C2.73142 397.87 4.13466 394.304 8.99641 392.802C3.40429 389.603 0.60161 384.937 0.588379 378.805L42.2538 407.429C42.2406 401.297 39.4379 396.631 33.8458 393.432C38.7075 391.931 40.1108 388.364 40.1108 385.112C40.1108 381.86 37.4916 379.368 34.9404 378.727C32.3893 378.087 29.5988 379.375 29.5988 381.427C29.5988 383.479 30.487 385.112 32.5874 384.619C33.9876 384.29 34.4071 383.226 33.8458 381.427C36.0756 381.427 37.7129 383.574 37.1821 386.298C36.6513 389.022 34.7469 390.75 31.5506 390.75C28.3543 390.75 25.3022 388.472 25.3022 385.112C25.3022 382.872 26.0999 380.96 27.6953 379.375C24.2977 380.486 19.3625 379.382 12.8898 376.062C19.3625 372.743 24.2977 371.639 27.6953 372.75C26.0999 371.165 25.3022 369.253 25.3022 367.013C25.3022 363.653 28.3543 361.375 31.5506 361.375C34.7469 361.375 36.6513 363.102 37.1821 365.827C37.7129 368.551 36.0756 370.698 33.8458 370.698C34.4071 368.899 33.9876 367.835 32.5874 367.506C30.487 367.013 29.5988 368.646 29.5988 370.698C29.5988 372.75 32.3893 374.038 34.9404 373.397C37.4916 372.757 40.1108 370.264 40.1108 367.013C40.1108 363.761 38.7075 360.194 33.8458 358.693C39.4379 355.493 42.2406 350.828 42.2538 344.696L0.588379 373.32C0.60161 367.188 3.40429 362.522 8.99641 359.323C4.13466 357.821 2.73142 354.255 2.73142 351.003C2.73142 347.751 5.35063 345.259 7.90176 344.618C10.4529 343.978 13.2434 345.266 13.2434 347.318C13.2434 349.37 12.3552 351.003 10.2548 350.509C8.85455 350.18 8.43508 349.116 8.99641 347.318C6.76657 347.318 5.12922 349.465 5.66003 352.189C6.19085 354.913 8.0953 356.641 11.2916 356.641C14.4879 356.641 17.54 354.363 17.54 351.003C17.54 348.763 16.7423 346.85 15.1469 345.266C18.5445 346.377 23.4797 345.273 29.9524 341.953Z" fill="black" fill-opacity="0.2"/>
<path fill-rule="evenodd" clip-rule="evenodd" d="M29.9524 478.39C23.4797 475.07 18.5445 473.966 15.1469 475.077C16.7423 473.493 17.54 471.58 17.54 469.34C17.54 465.98 14.4879 463.702 11.2916 463.702C8.0953 463.702 6.19085 465.43 5.66003 468.154C5.12922 470.878 6.76657 473.025 8.99641 473.025C8.43508 471.227 8.85455 470.163 10.2548 469.834C12.3552 469.34 13.2434 470.973 13.2434 473.025C13.2434 475.077 10.4529 476.365 7.90176 475.725C5.35063 475.084 2.73142 472.592 2.73142 469.34C2.73142 466.088 4.13466 462.522 8.99641 461.02C3.40429 457.821 0.60161 453.155 0.588379 447.023L42.2538 475.647C42.2406 469.515 39.4379 464.85 33.8458 461.65C38.7075 460.149 40.1108 456.582 40.1108 453.33C40.1108 450.079 37.4916 447.586 34.9404 446.946C32.3893 446.305 29.5988 447.593 29.5988 449.645C29.5988 451.697 30.487 453.33 32.5874 452.837C33.9876 452.508 34.4071 451.444 33.8458 449.645C36.0756 449.645 37.7129 451.792 37.1821 454.516C36.6513 457.241 34.7469 458.968 31.5506 458.968C28.3543 458.968 25.3022 456.69 25.3022 453.33C25.3022 451.09 26.0999 449.178 27.6953 447.593C24.2977 448.704 19.3625 447.6 12.8898 444.281C19.3625 440.961 24.2977 439.857 27.6953 440.968C26.0999 439.383 25.3022 437.471 25.3022 435.231C25.3022 431.871 28.3543 429.593 31.5506 429.593C34.7469 429.593 36.6513 431.321 37.1821 434.045C37.7129 436.769 36.0756 438.916 33.8458 438.916C34.4071 437.117 33.9876 436.053 32.5874 435.724C30.487 435.231 29.5988 436.864 29.5988 438.916C29.5988 440.968 32.3893 442.256 34.9404 441.616C37.4916 440.975 40.1108 438.483 40.1108 435.231C40.1108 431.979 38.7075 428.412 33.8458 426.911C39.4379 423.712 42.2406 419.046 42.2538 412.914L0.588379 441.538C0.60161 435.406 3.40429 430.74 8.99641 427.541C4.13466 426.039 2.73142 422.473 2.73142 419.221C2.73142 415.969 5.35063 413.477 7.90176 412.836C10.4529 412.196 13.2434 413.484 13.2434 415.536C13.2434 417.588 12.3552 419.221 10.2548 418.728C8.85455 418.398 8.43508 417.335 8.99641 415.536C6.76657 415.536 5.12922 417.683 5.66003 420.407C6.19085 423.131 8.0953 424.859 11.2916 424.859C14.4879 424.859 17.54 422.581 17.54 419.221C17.54 416.981 16.7423 415.069 15.1469 413.484C18.5445 414.595 23.4797 413.491 29.9524 410.171H46.9551L46.9551 546.608H29.9524C23.4797 543.289 18.5445 542.185 15.1469 543.296C16.7423 541.711 17.54 539.798 17.54 537.558C17.54 534.198 14.4879 531.921 11.2916 531.921C8.0953 531.921 6.19085 533.648 5.66003 536.372C5.12922 539.096 6.76657 541.244 8.99641 541.244C8.43508 539.445 8.85455 538.381 10.2548 538.052C12.3552 537.558 13.2434 539.192 13.2434 541.244C13.2434 543.296 10.4529 544.584 7.90176 543.943C5.35063 543.303 2.73142 540.81 2.73142 537.558C2.73142 534.307 4.13466 530.74 8.99641 529.239C3.40429 526.039 0.60161 521.373 0.588379 515.241L42.2538 543.866C42.2406 537.734 39.4379 533.068 33.8458 529.868C38.7075 528.367 40.1108 524.8 40.1108 521.549C40.1108 518.297 37.4916 515.804 34.9404 515.164C32.3893 514.523 29.5988 515.811 29.5988 517.863C29.5988 519.916 30.487 521.549 32.5874 521.055C33.9876 520.726 34.4071 519.662 33.8458 517.863C36.0756 517.863 37.7129 520.011 37.1821 522.735C36.6513 525.459 34.7469 527.186 31.5506 527.186C28.3543 527.186 25.3022 524.909 25.3022 521.549C25.3022 519.309 26.0999 517.396 27.6953 515.811C24.2977 516.922 19.3625 515.818 12.8898 512.499C19.3625 509.18 24.2977 508.076 27.6953 509.187C26.0999 507.602 25.3022 505.689 25.3022 503.449C25.3022 500.089 28.3543 497.811 31.5506 497.811C34.7469 497.811 36.6513 499.539 37.1821 502.263C37.7129 504.987 36.0756 507.134 33.8458 507.134C34.4071 505.336 33.9876 504.272 32.5874 503.943C30.487 503.449 29.5988 505.082 29.5988 507.134C29.5988 509.187 32.3893 510.475 34.9404 509.834C37.4916 509.193 40.1108 506.701 40.1108 503.449C40.1108 500.197 38.7075 496.631 33.8458 495.13C39.4379 491.93 42.2406 487.264 42.2538 481.132L0.588379 509.756C0.60161 503.624 3.40429 498.959 8.99641 495.759C4.13466 494.258 2.73142 490.691 2.73142 487.44C2.73142 484.188 5.35063 481.695 7.90176 481.055C10.4529 480.414 13.2434 481.702 13.2434 483.754C13.2434 485.806 12.3552 487.44 10.2548 486.946C8.85455 486.617 8.43508 485.553 8.99641 483.754C6.76657 483.754 5.12922 485.901 5.66003 488.626C6.19085 491.35 8.0953 493.077 11.2916 493.077C14.4879 493.077 17.54 490.8 17.54 487.44C17.54 485.199 16.7423 483.287 15.1469 481.702C18.5445 482.813 23.4797 481.709 29.9524 478.39Z" fill="black" fill-opacity="0.2"/>
<path fill-rule="evenodd" clip-rule="evenodd" d="M29.9524 69.0788C23.4797 65.7596 18.5445 64.6554 15.1469 65.7665C16.7423 64.1816 17.54 62.2692 17.54 60.0291C17.54 56.669 14.4879 54.3913 11.2916 54.3913C8.0953 54.3913 6.19085 56.1189 5.66003 58.843C5.12922 61.5672 6.76657 63.7143 8.99641 63.7143C8.43508 61.9156 8.85455 60.8517 10.2548 60.5227C12.3552 60.0291 13.2434 61.6622 13.2434 63.7143C13.2434 65.7665 10.4529 67.0545 7.90176 66.4139C5.35063 65.7734 2.73142 63.2809 2.73142 60.0291C2.73142 56.7773 4.13466 53.2108 8.99641 51.7095C3.40429 48.5099 0.60161 43.8441 0.588379 37.7122L42.2538 66.3363C42.2406 60.2044 39.4379 55.5386 33.8458 52.339C38.7075 50.8377 40.1108 47.2712 40.1108 44.0194C40.1108 40.7676 37.4916 38.2751 34.9404 37.6346C32.3893 36.994 29.5988 38.282 29.5988 40.3342C29.5988 42.3863 30.487 44.0194 32.5874 43.5258C33.9876 43.1968 34.4071 42.1329 33.8458 40.3342C36.0756 40.3342 37.7129 42.4813 37.1821 45.2055C36.6513 47.9296 34.7469 49.6572 31.5506 49.6572C28.3543 49.6572 25.3022 47.3795 25.3022 44.0194C25.3022 41.7794 26.0999 39.8669 27.6953 38.282C24.2977 39.3931 19.3625 38.2889 12.8898 34.9697C19.3625 31.6504 24.2977 30.5462 27.6953 31.6573C26.0999 30.0724 25.3022 28.16 25.3022 25.9199C25.3022 22.5598 28.3543 20.2821 31.5506 20.2821C34.7469 20.2821 36.6513 22.0097 37.1821 24.7338C37.7129 27.458 36.0756 29.6051 33.8458 29.6051C34.4071 27.8064 33.9876 26.7425 32.5874 26.4135C30.487 25.9199 29.5988 27.553 29.5988 29.6051C29.5988 31.6573 32.3893 32.9453 34.9404 32.3047C37.4916 31.6642 40.1108 29.1717 40.1108 25.9199C40.1108 22.6681 38.7075 19.1016 33.8458 17.6003C39.4379 14.4007 42.2406 9.73494 42.2538 3.60298L0.588379 32.2271C0.60161 26.0952 3.40429 21.4294 8.99641 18.2298C4.13466 16.7285 2.73142 13.162 2.73142 9.91022C2.73142 6.65845 5.35063 4.16594 7.90176 3.52539C10.4529 2.88484 13.2434 4.17284 13.2434 6.22496C13.2434 8.27708 12.3552 9.91022 10.2548 9.41663C8.85455 9.08757 8.43508 8.02368 8.99641 6.22496C6.76657 6.22496 5.12922 8.37213 5.66003 11.0963C6.19085 13.8204 8.0953 15.548 11.2916 15.548C14.4879 15.548 17.54 13.2703 17.54 9.91022C17.54 7.67015 16.7423 5.75769 15.1469 4.17284C18.5445 5.28387 23.4797 4.17975 29.9524 0.860458H46.9551L46.9551 137.297H29.9524C23.4797 133.978 18.5445 132.874 15.1469 133.985C16.7423 132.4 17.54 130.488 17.54 128.247C17.54 124.887 14.4879 122.61 11.2916 122.61C8.0953 122.61 6.19085 124.337 5.66003 127.061C5.12922 129.786 6.76657 131.933 8.99641 131.933C8.43508 130.134 8.85455 129.07 10.2548 128.741C12.3552 128.247 13.2434 129.881 13.2434 131.933C13.2434 133.985 10.4529 135.273 7.90176 134.632C5.35063 133.992 2.73142 131.499 2.73142 128.247C2.73142 124.996 4.13466 121.429 8.99641 119.928C3.40429 116.728 0.60161 112.063 0.588379 105.931L42.2538 134.555C42.2406 128.423 39.4379 123.757 33.8458 120.557C38.7075 119.056 40.1108 115.49 40.1108 112.238C40.1108 108.986 37.4916 106.494 34.9404 105.853C32.3893 105.212 29.5988 106.5 29.5988 108.553C29.5988 110.605 30.487 112.238 32.5874 111.744C33.9876 111.415 34.4071 110.351 33.8458 108.553C36.0756 108.553 37.7129 110.7 37.1821 113.424C36.6513 116.148 34.7469 117.876 31.5506 117.876C28.3543 117.876 25.3022 115.598 25.3022 112.238C25.3022 109.998 26.0999 108.085 27.6953 106.5C24.2977 107.611 19.3625 106.507 12.8898 103.188C19.3625 99.8688 24.2977 98.7646 27.6953 99.8757C26.0999 98.2908 25.3022 96.3783 25.3022 94.1383C25.3022 90.7782 28.3543 88.5005 31.5506 88.5005C34.7469 88.5005 36.6513 90.2281 37.1821 92.9522C37.7129 95.6764 36.0756 97.8235 33.8458 97.8235C34.4071 96.0248 33.9876 94.9609 32.5874 94.6319C30.487 94.1383 29.5988 95.7714 29.5988 97.8235C29.5988 99.8757 32.3893 101.164 34.9404 100.523C37.4916 99.8826 40.1108 97.3901 40.1108 94.1383C40.1108 90.8865 38.7075 87.32 33.8458 85.8187C39.4379 82.6191 42.2406 77.9533 42.2538 71.8214L0.588379 100.446C0.60161 94.3136 3.40429 89.6478 8.99641 86.4482C4.13466 84.9469 2.73142 81.3804 2.73142 78.1286C2.73142 74.8768 5.35063 72.3843 7.90176 71.7438C10.4529 71.1032 13.2434 72.3912 13.2434 74.4434C13.2434 76.4955 12.3552 78.1286 10.2548 77.635C8.85455 77.306 8.43508 76.2421 8.99641 74.4434C6.76657 74.4434 5.12922 76.5905 5.66003 79.3147C6.19085 82.0388 8.0953 83.7664 11.2916 83.7664C14.4879 83.7664 17.54 81.4887 17.54 78.1286C17.54 75.8885 16.7423 73.9761 15.1469 72.3912C18.5445 73.5023 23.4797 72.3981 29.9524 69.0788Z" fill="black" fill-opacity="0.2"/>
<path fill-rule="evenodd" clip-rule="evenodd" d="M29.9524 205.516C23.4797 202.197 18.5445 201.093 15.1469 202.204C16.7423 200.619 17.54 198.707 17.54 196.466C17.54 193.106 14.4879 190.829 11.2916 190.829C8.0953 190.829 6.19085 192.556 5.66003 195.28C5.12922 198.005 6.76657 200.152 8.99641 200.152C8.43508 198.353 8.85455 197.289 10.2548 196.96C12.3552 196.466 13.2434 198.1 13.2434 200.152C13.2434 202.204 10.4529 203.492 7.90176 202.851C5.35063 202.211 2.73142 199.718 2.73142 196.466C2.73142 193.215 4.13466 189.648 8.99641 188.147C3.40429 184.947 0.60161 180.282 0.588379 174.15L42.2538 202.774C42.2406 196.642 39.4379 191.976 33.8458 188.776C38.7075 187.275 40.1108 183.709 40.1108 180.457C40.1108 177.205 37.4916 174.713 34.9404 174.072C32.3893 173.431 29.5988 174.719 29.5988 176.772C29.5988 178.824 30.487 180.457 32.5874 179.963C33.9876 179.634 34.4071 178.57 33.8458 176.772C36.0756 176.772 37.7129 178.919 37.1821 181.643C36.6513 184.367 34.7469 186.095 31.5506 186.095C28.3543 186.095 25.3022 183.817 25.3022 180.457C25.3022 178.217 26.0999 176.304 27.6953 174.719C24.2977 175.83 19.3625 174.726 12.8898 171.407C19.3625 168.088 24.2977 166.984 27.6953 168.095C26.0999 166.51 25.3022 164.597 25.3022 162.357C25.3022 158.997 28.3543 156.72 31.5506 156.72C34.7469 156.72 36.6513 158.447 37.1821 161.171C37.7129 163.895 36.0756 166.043 33.8458 166.043C34.4071 164.244 33.9876 163.18 32.5874 162.851C30.487 162.357 29.5988 163.99 29.5988 166.043C29.5988 168.095 32.3893 169.383 34.9404 168.742C37.4916 168.102 40.1108 165.609 40.1108 162.357C40.1108 159.105 38.7075 155.539 33.8458 154.038C39.4379 150.838 42.2406 146.172 42.2538 140.04L0.588379 168.665C0.60161 162.533 3.40429 157.867 8.99641 154.667C4.13466 153.166 2.73142 149.599 2.73142 146.348C2.73142 143.096 5.35063 140.603 7.90176 139.963C10.4529 139.322 13.2434 140.61 13.2434 142.662C13.2434 144.714 12.3552 146.348 10.2548 145.854C8.85455 145.525 8.43508 144.461 8.99641 142.662C6.76657 142.662 5.12922 144.81 5.66003 147.534C6.19085 150.258 8.0953 151.985 11.2916 151.985C14.4879 151.985 17.54 149.708 17.54 146.348C17.54 144.108 16.7423 142.195 15.1469 140.61C18.5445 141.721 23.4797 140.617 29.9524 137.298H46.9551L46.9551 273.735H29.9524C23.4797 270.415 18.5445 269.311 15.1469 270.422C16.7423 268.837 17.54 266.925 17.54 264.685C17.54 261.325 14.4879 259.047 11.2916 259.047C8.0953 259.047 6.19085 260.775 5.66003 263.499C5.12922 266.223 6.76657 268.37 8.99641 268.37C8.43508 266.571 8.85455 265.508 10.2548 265.178C12.3552 264.685 13.2434 266.318 13.2434 268.37C13.2434 270.422 10.4529 271.71 7.90176 271.07C5.35063 270.429 2.73142 267.937 2.73142 264.685C2.73142 261.433 4.13466 257.867 8.99641 256.365C3.40429 253.166 0.60161 248.5 0.588379 242.368L42.2538 270.992C42.2406 264.86 39.4379 260.194 33.8458 256.995C38.7075 255.493 40.1108 251.927 40.1108 248.675C40.1108 245.423 37.4916 242.931 34.9404 242.29C32.3893 241.65 29.5988 242.938 29.5988 244.99C29.5988 247.042 30.487 248.675 32.5874 248.182C33.9876 247.853 34.4071 246.789 33.8458 244.99C36.0756 244.99 37.7129 247.137 37.1821 249.861C36.6513 252.585 34.7469 254.313 31.5506 254.313C28.3543 254.313 25.3022 252.035 25.3022 248.675C25.3022 246.435 26.0999 244.523 27.6953 242.938C24.2977 244.049 19.3625 242.945 12.8898 239.625C19.3625 236.306 24.2977 235.202 27.6953 236.313C26.0999 234.728 25.3022 232.816 25.3022 230.576C25.3022 227.216 28.3543 224.938 31.5506 224.938C34.7469 224.938 36.6513 226.665 37.1821 229.39C37.7129 232.114 36.0756 234.261 33.8458 234.261C34.4071 232.462 33.9876 231.398 32.5874 231.069C30.487 230.576 29.5988 232.209 29.5988 234.261C29.5988 236.313 32.3893 237.601 34.9404 236.96C37.4916 236.32 40.1108 233.827 40.1108 230.576C40.1108 227.324 38.7075 223.757 33.8458 222.256C39.4379 219.056 42.2406 214.391 42.2538 208.259L0.588379 236.883C0.60161 230.751 3.40429 226.085 8.99641 222.886C4.13466 221.384 2.73142 217.818 2.73142 214.566C2.73142 211.314 5.35063 208.822 7.90176 208.181C10.4529 207.541 13.2434 208.829 13.2434 210.881C13.2434 212.933 12.3552 214.566 10.2548 214.072C8.85455 213.743 8.43508 212.679 8.99641 210.881C6.76657 210.881 5.12922 213.028 5.66003 215.752C6.19085 218.476 8.0953 220.204 11.2916 220.204C14.4879 220.204 17.54 217.926 17.54 214.566C17.54 212.326 16.7423 210.413 15.1469 208.829C18.5445 209.94 23.4797 208.836 29.9524 205.516Z" fill="black" fill-opacity="0.2"/>
</svg>
