<svg width="351" height="301" viewBox="0 0 351 301" fill="none" xmlns="http://www.w3.org/2000/svg">
<path d="M56.2797 182.223C56.2797 182.223 77.0285 133.241 96.867 118.994C110.061 109.574 126.195 104.471 142.79 104.469C162.967 104.093 190.025 112.395 196.356 115.903C214.733 125.988 215.072 131.021 234.254 177.844L218.227 200.83C218.227 200.83 217.761 263.247 213.992 299.766H79.2517L95.4485 192.765L56.2797 182.223Z" fill="#FF5714"/>
<path d="M152.868 66.3652L140.164 118.538C140.164 118.538 158.457 132.25 175.056 118.538L176.75 76.134L152.868 66.3652Z" fill="#FDCE9D"/>
<path d="M159.602 78.0164C159.602 78.0164 159.496 97.8313 175.608 105.302L176.307 87.7059L159.602 78.0164Z" fill="#01101E"/>
<path d="M214.479 69.1795C210.097 90.1437 199.532 103.499 185.41 101.815C169.065 99.8332 154.985 80.7712 157.886 59.4107C160.786 38.0502 176.792 20.4545 192.545 22.3171C226.971 26.3594 218.671 49.1862 214.479 69.1795Z" fill="#FDCE9D"/>
<path d="M209.444 80.8107C208.941 80.8105 208.438 80.7707 207.941 80.6918C201.399 79.701 197.164 72.4884 198.52 64.602C199.875 56.7157 206.311 51.1081 212.874 52.0988C214.542 52.3931 216.112 53.0504 217.459 54.0176C218.805 54.9849 219.889 56.2349 220.623 57.6668C222.354 60.8997 222.919 64.5706 222.233 68.1291C221.026 75.5003 215.436 80.8107 209.444 80.8107ZM211.329 54.8531C206.819 54.8531 202.563 59.1728 201.547 65.0578C200.467 71.3788 203.537 77.1251 208.428 77.8582C213.319 78.5914 218.167 74.0538 219.268 67.7328C219.827 64.7828 219.367 61.743 217.956 59.0539C217.438 58.0041 216.665 57.0826 215.698 56.3633C214.731 55.6441 213.597 55.1472 212.387 54.9125C212.036 54.873 211.683 54.8531 211.329 54.8531Z" fill="#01101E"/>
<path d="M187.929 77.125C187.411 77.1256 186.894 77.0858 186.383 77.0061C184.702 76.7099 183.12 76.0456 181.766 75.0676C180.412 74.0895 179.324 72.8254 178.592 71.3786C176.917 68.1263 176.348 64.4718 176.962 60.9075C177.575 57.3433 179.341 54.0407 182.022 51.4448C183.179 50.2555 184.635 49.3552 186.258 48.8255C187.881 48.2958 189.619 48.1533 191.316 48.4111C193.013 48.6688 194.614 49.3186 195.974 50.3016C197.335 51.2846 198.412 52.5697 199.108 54.0405C200.839 57.2734 201.403 60.9443 200.717 64.5028C200.172 68.0843 198.396 71.4023 195.657 73.9546C193.626 75.9209 190.85 77.0598 187.929 77.125ZM189.792 51.1674C187.653 51.2398 185.627 52.0849 184.139 53.5254C181.848 55.669 180.362 58.4501 179.904 61.4513C179.328 64.4011 179.789 67.4461 181.217 70.1303C181.693 71.2039 182.455 72.1457 183.43 72.8661C184.405 73.5866 185.56 74.0617 186.787 74.2464C188.013 74.431 189.269 74.3191 190.437 73.9212C191.604 73.5233 192.643 72.8527 193.455 71.9731C195.744 69.8286 197.23 67.0479 197.689 64.0471C198.247 61.097 197.788 58.0573 196.377 55.3681C195.859 54.3184 195.086 53.3968 194.119 52.6776C193.152 51.9583 192.018 51.4614 190.808 51.2268L189.792 51.1674Z" fill="#01101E"/>
<path d="M189.369 67.2376C189.602 65.8902 189.073 64.6814 188.183 64.5427C187.294 64.404 186.405 65.3948 186.172 66.762C185.939 68.1292 186.468 69.3379 187.337 69.4568C188.205 69.5757 189.136 68.6048 189.369 67.2376Z" fill="#01101E"/>
<path d="M208.892 71.3395C209.125 69.9722 208.596 68.7635 207.706 68.6248C206.817 68.4861 205.928 69.4967 205.695 70.8441C205.462 72.1915 205.991 73.42 206.859 73.5587C207.728 73.6974 208.659 72.6869 208.892 71.3395Z" fill="#01101E"/>
<path d="M180.881 86.2392C180.798 86.2585 180.71 86.2585 180.627 86.2392C178.39 85.5976 176.386 84.3904 174.836 82.7506C173.285 81.1108 172.249 79.1021 171.841 76.946C171.829 76.8522 171.837 76.7572 171.865 76.6664C171.893 76.5757 171.939 76.491 172.002 76.4172C172.065 76.3435 172.143 76.2822 172.232 76.2369C172.32 76.1916 172.418 76.1633 172.518 76.1534C172.617 76.1395 172.718 76.1446 172.815 76.1682C172.912 76.1919 173.003 76.2337 173.082 76.2911C173.161 76.3485 173.227 76.4204 173.276 76.5023C173.324 76.5842 173.355 76.6744 173.365 76.7677C173.741 78.6578 174.665 80.4149 176.035 81.8474C177.405 83.28 179.17 84.3331 181.135 84.8918C181.306 84.9473 181.449 85.0576 181.541 85.203C181.633 85.3485 181.666 85.5196 181.636 85.686C181.605 85.8525 181.513 86.0034 181.375 86.1119C181.236 86.2205 181.062 86.2796 180.881 86.2788V86.2392Z" fill="#01101E"/>
<path d="M196.547 84.4966H196.293L192.334 83.2087C192.143 83.1456 191.987 83.0142 191.899 82.8432C191.812 82.6723 191.801 82.4759 191.868 82.2972C191.936 82.1185 192.076 81.9722 192.259 81.8905C192.441 81.8087 192.651 81.7982 192.842 81.8613L195.891 82.852L197.331 71.5377C197.356 71.3485 197.46 71.1765 197.621 71.0594C197.782 70.9423 197.986 70.8899 198.188 70.9135C198.39 70.9372 198.574 71.035 198.699 71.1855C198.824 71.336 198.88 71.5268 198.855 71.716L197.288 83.8031C197.277 83.9074 197.241 84.0079 197.182 84.0971C197.123 84.1863 197.044 84.262 196.949 84.3183C196.838 84.4149 196.698 84.4772 196.547 84.4966Z" fill="#01101E"/>
<path d="M172.602 35.2561C172.602 35.2561 206.669 49.3247 223.903 43.1821C240.163 37.3961 239.486 21.8414 238.046 17.4226C235.781 10.4874 228.328 8.24831 220.155 12.7859C220.155 12.7859 203.366 -1.89693 188.82 13.103C188.82 13.103 162.821 2.18495 163.858 25.844C163.858 25.844 144.803 19.523 145.057 42.1121C145.332 58.8755 157.506 62.6205 157.506 62.6205C157.506 62.6205 167.944 67.8715 172.602 35.2561Z" fill="#01101E"/>
<path d="M157.781 21.108C158.042 21.1256 158.304 21.0807 158.542 20.9775C158.78 20.8743 158.986 20.7162 159.14 20.5181C159.295 20.3199 159.393 20.0882 159.425 19.8448C159.458 19.6013 159.424 19.3541 159.326 19.1265C157.654 15.54 153.546 8.4462 147.703 9.39731C140.568 10.5466 149.269 20.3154 157.781 21.108Z" fill="#01101E"/>
<path d="M220.832 44.232C218.934 44.2228 217.041 44.0436 215.179 43.697C214.977 43.6586 214.8 43.5479 214.686 43.3885C214.571 43.2291 214.527 43.0339 214.565 42.8449C214.61 42.6602 214.731 42.4993 214.9 42.3958C215.07 42.2924 215.276 42.2545 215.475 42.2901C218.238 42.9562 221.121 43.064 223.932 42.6062C226.743 42.1483 229.418 41.1355 231.778 39.6349C237.558 35.6719 240.247 28.6773 240.903 23.4461C240.93 23.2586 241.033 23.0879 241.19 22.9697C241.348 22.8516 241.549 22.7951 241.75 22.812C241.85 22.8219 241.948 22.8503 242.036 22.8956C242.125 22.9409 242.203 23.0021 242.266 23.0759C242.329 23.1496 242.375 23.2343 242.403 23.3251C242.431 23.4158 242.439 23.5109 242.427 23.6046C241.771 29.1528 238.849 36.5636 232.688 40.7842C229.242 43.1091 225.079 44.3195 220.832 44.232Z" fill="#01101E"/>
<path d="M157.676 72.4482C161.635 70.8233 162.842 65.2553 160.386 60.0242C157.93 54.793 152.722 51.8406 148.784 53.4654C144.846 55.0902 143.618 60.6583 146.074 65.8894C148.53 71.1205 153.738 74.073 157.676 72.4482Z" fill="#FDCE9D"/>
<path d="M154.245 73.5191H154.118C149.608 72.8454 146.559 68.3078 146.432 68.1096C146.325 67.9467 146.292 67.7508 146.34 67.565C146.388 67.3792 146.512 67.2187 146.686 67.1189C146.86 67.019 147.07 66.988 147.268 67.0326C147.467 67.0772 147.638 67.1938 147.745 67.3567C147.745 67.3567 150.54 71.5376 154.372 72.1122C154.472 72.1242 154.568 72.155 154.655 72.2029C154.741 72.2508 154.817 72.3147 154.876 72.3907C154.935 72.4667 154.978 72.5532 155 72.645C155.023 72.7369 155.025 72.832 155.007 72.9247C154.973 73.0909 154.878 73.2409 154.739 73.3492C154.6 73.4576 154.426 73.5176 154.245 73.5191Z" fill="#01101E"/>
<path d="M157.716 66.762C157.538 66.7614 157.366 66.7042 157.228 66.5998C157.089 66.4954 156.993 66.3499 156.954 66.1874C155.853 60.976 154.202 59.4503 153.016 59.0936C152.482 58.9894 151.929 59.0089 151.405 59.1505C150.881 59.2921 150.402 59.5515 150.01 59.906C149.863 60.0415 149.665 60.1175 149.459 60.1175C149.253 60.1175 149.055 60.0415 148.909 59.906C148.838 59.8397 148.781 59.761 148.743 59.6743C148.704 59.5876 148.684 59.4946 148.684 59.4007C148.684 59.3069 148.704 59.2139 148.743 59.1272C148.781 59.0405 148.838 58.9617 148.909 58.8955C149.504 58.3764 150.227 58.0019 151.013 57.805C151.799 57.6081 152.625 57.5947 153.418 57.766C155.747 58.4397 157.42 61.194 158.415 65.9496C158.453 66.1333 158.411 66.3236 158.301 66.4792C158.19 66.6349 158.018 66.7436 157.822 66.7818L157.716 66.762Z" fill="#01101E"/>
<path d="M239.674 200.473L218.269 204.04C218.269 204.04 215.22 192.825 214.035 188.565C212.849 184.304 217.951 174.476 220.661 169.681C221.517 168.261 222.734 167.061 224.203 166.186C225.673 165.312 227.351 164.79 229.088 164.668C259.005 161.24 254.368 166.293 254.368 166.293C252.102 171.246 239.335 174.516 239.335 174.516C239.335 174.516 254.389 177.211 253.224 183.769C252.06 190.328 245.497 200.216 245.497 200.216L239.674 200.473Z" fill="#FF8F62"/>
<path d="M253.542 218.01L230.252 214.701C228.326 214.423 227.564 212.996 228.559 211.55L255.278 172.297C255.881 171.529 256.69 170.925 257.624 170.546C258.557 170.166 259.582 170.025 260.592 170.137L283.882 173.446C285.83 173.723 286.592 175.13 285.597 176.596L258.877 215.85C258.267 216.614 257.453 217.216 256.517 217.595C255.581 217.974 254.555 218.117 253.542 218.01Z" fill="#01101E"/>
<path d="M247.761 196.371C247.761 196.371 254.727 243.055 246.131 260.235C237.535 277.414 216.659 275.235 216.659 275.235L218.099 201.147" fill="#FF8F62"/>
<path d="M214.905 300.499C214.804 300.496 214.705 300.475 214.613 300.435C214.521 300.395 214.439 300.338 214.371 300.268C214.304 300.197 214.253 300.115 214.221 300.025C214.189 299.935 214.177 299.84 214.185 299.746C216.451 260.373 216.493 222.844 216.493 222.467C216.493 222.278 216.573 222.097 216.716 221.963C216.859 221.829 217.053 221.754 217.255 221.754C217.457 221.754 217.651 221.829 217.794 221.963C217.937 222.097 218.017 222.278 218.017 222.467C218.017 222.844 218.017 260.413 215.71 299.746C215.716 299.846 215.699 299.947 215.661 300.041C215.623 300.135 215.564 300.22 215.488 300.291C215.412 300.362 215.321 300.417 215.22 300.453C215.12 300.489 215.012 300.505 214.905 300.499Z" fill="#01101E"/>
<path d="M265.275 204.297C264.515 204.346 263.784 204.586 263.157 204.991C254.392 210.44 240.778 207.903 240.778 207.903C248.125 205.585 251.364 201.384 250.941 198.987C250.729 197.322 249.925 196.312 248.252 196.351C240.643 196.794 233.099 197.929 225.725 199.74C219.373 201.424 215.753 207.903 215.753 207.903V208.26C215.753 208.26 169.173 218.821 153.845 221.813C139.68 224.568 97.5263 231.265 97.5263 231.265L104.534 195.123L64.307 184.502C64.307 184.502 38.9001 261.206 69.0495 274.64C99.1989 288.075 215.774 230.552 215.774 230.552C215.774 230.552 226.233 230.116 239.19 229.779C252.148 229.442 264.597 214.105 268.133 208.557C270.652 204.396 267.201 204.099 265.275 204.297Z" fill="#FDCE9D"/>
<path d="M82.8114 233.703C82.6316 233.698 82.4589 233.637 82.3207 233.529C82.1826 233.421 82.0869 233.273 82.0492 233.109C82.031 233.015 82.0332 232.918 82.0555 232.825C82.0778 232.732 82.1197 232.645 82.179 232.567C82.2382 232.489 82.3134 232.424 82.4002 232.374C82.487 232.324 82.5836 232.291 82.6844 232.276C83.6583 232.118 181.263 216.424 215.541 207.508C215.638 207.478 215.741 207.467 215.843 207.476C215.945 207.485 216.044 207.513 216.133 207.56C216.223 207.606 216.301 207.67 216.363 207.746C216.425 207.822 216.469 207.91 216.493 208.003C216.546 208.184 216.519 208.378 216.42 208.541C216.321 208.704 216.157 208.824 215.964 208.875C181.601 217.891 83.9335 233.525 82.9384 233.683L82.8114 233.703Z" fill="#01101E"/>
<path d="M237.559 189.754C237.455 189.783 237.345 189.783 237.241 189.754C237.149 189.715 237.066 189.66 236.997 189.591C236.927 189.522 236.873 189.441 236.838 189.353C236.803 189.264 236.786 189.17 236.79 189.075C236.794 188.981 236.818 188.888 236.86 188.802C238.486 184.925 239.499 180.847 239.866 176.695C239.888 176.508 239.986 176.336 240.139 176.214C240.293 176.092 240.491 176.03 240.692 176.042C240.792 176.049 240.89 176.075 240.979 176.118C241.069 176.161 241.148 176.22 241.213 176.292C241.278 176.364 241.327 176.447 241.358 176.537C241.388 176.626 241.4 176.721 241.391 176.814C241.02 181.137 239.964 185.385 238.257 189.417C238.18 189.523 238.076 189.609 237.954 189.668C237.832 189.727 237.696 189.756 237.559 189.754Z" fill="#01101E"/>
<path d="M243.382 190.427H243.065C242.881 190.342 242.74 190.192 242.673 190.011C242.605 189.829 242.617 189.63 242.705 189.456C244.233 186.283 245.377 182.96 246.114 179.549C246.132 179.456 246.169 179.368 246.223 179.289C246.278 179.21 246.348 179.142 246.431 179.089C246.514 179.036 246.607 178.998 246.705 178.978C246.803 178.959 246.904 178.957 247.003 178.974C247.101 178.991 247.196 179.026 247.28 179.077C247.364 179.128 247.437 179.194 247.494 179.271C247.551 179.348 247.591 179.436 247.612 179.527C247.633 179.619 247.635 179.714 247.617 179.806C246.849 183.314 245.663 186.731 244.081 189.991C244.023 190.12 243.926 190.23 243.802 190.307C243.677 190.385 243.532 190.426 243.382 190.427Z" fill="#01101E"/>
<path d="M229.09 192.547C228.971 192.57 228.848 192.57 228.73 192.547C228.642 192.501 228.565 192.44 228.502 192.367C228.44 192.293 228.394 192.209 228.366 192.119C228.339 192.028 228.331 191.934 228.342 191.841C228.354 191.748 228.385 191.658 228.433 191.576C229.301 190.07 231.101 185.631 231.122 185.492C232.71 180.757 232.308 178.3 231.673 177.091C231.603 176.948 231.497 176.822 231.365 176.725C231.232 176.629 231.076 176.564 230.91 176.536C230.734 176.508 230.554 176.516 230.382 176.56C230.21 176.605 230.051 176.685 229.915 176.794L221.976 185.215C221.83 185.345 221.637 185.417 221.436 185.417C221.235 185.417 221.042 185.345 220.896 185.215C220.822 185.15 220.763 185.072 220.723 184.985C220.683 184.898 220.662 184.804 220.662 184.71C220.662 184.615 220.683 184.521 220.723 184.435C220.763 184.348 220.822 184.269 220.896 184.205L228.857 175.763C229.163 175.491 229.533 175.29 229.938 175.176C230.342 175.062 230.77 175.04 231.186 175.109C231.595 175.176 231.982 175.332 232.313 175.567C232.645 175.801 232.911 176.106 233.091 176.457C234.171 178.557 234.002 181.747 232.583 185.948C232.583 186.166 230.72 190.644 229.788 192.249C229.71 192.352 229.605 192.434 229.482 192.486C229.359 192.539 229.224 192.559 229.09 192.547Z" fill="#01101E"/>
<path d="M97.5449 231.879H97.3967C97.2979 231.862 97.2036 231.827 97.1192 231.777C97.0348 231.726 96.962 231.66 96.9049 231.582C96.8479 231.505 96.8076 231.418 96.7867 231.326C96.7657 231.234 96.7644 231.139 96.7827 231.047L109.02 170.155C109.038 170.063 109.076 169.975 109.13 169.896C109.185 169.817 109.255 169.749 109.338 169.696C109.42 169.642 109.513 169.605 109.611 169.585C109.71 169.565 109.811 169.564 109.91 169.581C110.008 169.598 110.102 169.633 110.187 169.684C110.271 169.735 110.344 169.801 110.401 169.878C110.458 169.955 110.498 170.042 110.519 170.134C110.54 170.226 110.542 170.321 110.524 170.413L98.2859 231.304C98.2557 231.467 98.1645 231.614 98.0287 231.72C97.8928 231.825 97.7213 231.881 97.5449 231.879Z" fill="#01101E"/>
<path d="M225.661 157.454C225.511 157.456 225.364 157.416 225.24 157.338C225.115 157.26 225.018 157.149 224.963 157.019C224.857 156.82 215.837 136.292 211.37 128.861C206.903 121.431 191.764 114.694 191.616 114.615C191.434 114.533 191.293 114.387 191.226 114.209C191.158 114.03 191.169 113.834 191.256 113.663C191.343 113.493 191.499 113.361 191.69 113.298C191.88 113.235 192.09 113.245 192.272 113.327C192.929 113.624 208.088 120.5 212.704 128.168C217.319 135.836 226.275 156.266 226.381 156.484C226.452 156.66 226.448 156.855 226.369 157.029C226.29 157.202 226.143 157.34 225.958 157.415C225.863 157.447 225.762 157.461 225.661 157.454Z" fill="#01101E"/>
<path d="M252.506 214.978C252.304 214.978 252.11 214.903 251.967 214.769C251.824 214.636 251.744 214.454 251.744 214.265C251.744 214.076 251.824 213.894 251.967 213.76C252.11 213.627 252.304 213.552 252.506 213.552C256.853 213.076 261.12 212.097 265.21 210.639C265.392 210.599 265.584 210.622 265.75 210.704C265.916 210.785 266.045 210.919 266.114 211.082C266.184 211.245 266.188 211.426 266.127 211.592C266.066 211.758 265.943 211.898 265.781 211.986C261.535 213.493 257.104 214.498 252.591 214.978H252.506Z" fill="#01101E"/>
<path d="M251.004 219.99H250.898C250.798 219.985 250.7 219.962 250.609 219.921C250.519 219.881 250.438 219.824 250.371 219.754C250.304 219.684 250.252 219.602 250.219 219.514C250.186 219.425 250.172 219.331 250.178 219.237C250.18 219.143 250.204 219.05 250.246 218.964C250.288 218.878 250.349 218.801 250.425 218.738C250.5 218.675 250.588 218.627 250.684 218.597C250.78 218.567 250.882 218.556 250.982 218.564C254.254 218.061 257.481 217.333 260.637 216.384C260.734 216.354 260.837 216.343 260.939 216.352C261.041 216.361 261.14 216.39 261.229 216.436C261.319 216.483 261.397 216.546 261.459 216.623C261.521 216.699 261.566 216.786 261.59 216.88C261.619 216.968 261.629 217.061 261.619 217.153C261.609 217.245 261.579 217.334 261.532 217.416C261.485 217.497 261.421 217.569 261.343 217.626C261.266 217.684 261.177 217.726 261.082 217.751C257.782 218.717 254.415 219.465 251.004 219.99Z" fill="#01101E"/>
<path d="M248.526 224.767C248.341 224.768 248.162 224.707 248.022 224.594C247.881 224.481 247.79 224.324 247.764 224.152C247.749 224.059 247.754 223.963 247.779 223.871C247.804 223.779 247.849 223.693 247.91 223.617C247.971 223.542 248.048 223.478 248.135 223.431C248.223 223.383 248.32 223.352 248.42 223.34C250.665 223.043 255.09 221.893 255.132 221.874C255.229 221.847 255.331 221.838 255.432 221.848C255.533 221.859 255.631 221.888 255.72 221.934C255.808 221.98 255.887 222.042 255.949 222.117C256.012 222.192 256.058 222.277 256.085 222.369C256.137 222.553 256.112 222.749 256.013 222.915C255.914 223.082 255.75 223.206 255.555 223.261C255.365 223.261 250.982 224.45 248.632 224.767H248.526Z" fill="#01101E"/>
<path d="M243.382 300.498H47.1141C46.912 300.498 46.7181 300.423 46.5752 300.29C46.4322 300.156 46.3519 299.974 46.3519 299.785C46.3519 299.596 46.4322 299.414 46.5752 299.281C46.7181 299.147 46.912 299.072 47.1141 299.072H243.382C243.584 299.072 243.778 299.147 243.921 299.281C244.064 299.414 244.144 299.596 244.144 299.785C244.144 299.974 244.064 300.156 243.921 300.29C243.778 300.423 243.584 300.498 243.382 300.498Z" fill="#01101E"/>
<path d="M276.853 194.787C276.702 194.787 276.555 194.746 276.429 194.668C276.344 194.617 276.271 194.552 276.213 194.474C276.155 194.397 276.114 194.31 276.092 194.218C276.07 194.126 276.068 194.03 276.086 193.937C276.104 193.845 276.142 193.756 276.197 193.677L285.364 179.905C285.414 179.82 285.481 179.745 285.563 179.685C285.645 179.624 285.739 179.581 285.839 179.556C285.94 179.531 286.045 179.525 286.148 179.54C286.251 179.554 286.349 179.588 286.437 179.64C286.526 179.691 286.602 179.759 286.661 179.839C286.72 179.919 286.761 180.01 286.782 180.105C286.802 180.2 286.801 180.299 286.78 180.394C286.758 180.489 286.716 180.579 286.656 180.658L277.488 194.529C277.411 194.616 277.314 194.684 277.204 194.729C277.093 194.774 276.973 194.794 276.853 194.787Z" fill="#01101E"/>
<path d="M49.2311 80.2163C46.5654 80.2228 43.9034 80.0306 41.2703 79.6417C34.9925 78.8241 28.9575 76.8218 23.5311 73.7564C18.1048 70.6909 13.4001 66.626 9.70235 61.8082C6.67011 57.749 4.56378 53.1487 3.5147 48.2941C2.46562 43.4395 2.49627 38.4347 3.60471 33.5917C8.53786 11.9538 33.4365 -2.62998 59.0974 1.07542C69.0847 2.40292 78.3613 6.67098 85.584 13.2616C85.7272 13.3956 85.8076 13.5774 85.8076 13.7669C85.8076 13.9564 85.7272 14.1382 85.584 14.2722C85.4408 14.4062 85.2466 14.4815 85.0441 14.4815C84.8416 14.4815 84.6474 14.4062 84.5042 14.2722C77.5071 7.90394 68.5283 3.78214 58.8645 2.5021C33.987 -1.10422 9.87174 12.9842 5.08679 33.889C4.02585 38.5489 4.00478 43.3636 5.0249 48.0315C6.04501 52.6994 8.0843 57.1198 11.015 61.0156C14.5921 65.6718 19.1429 69.5991 24.3911 72.5591C29.6394 75.5191 35.4756 77.4501 41.5456 78.2348C52.4416 79.7936 63.584 78.0069 73.3041 73.1424C73.3975 73.1042 73.4984 73.0845 73.6004 73.0845C73.7024 73.0845 73.8034 73.1042 73.8969 73.1424L89.2256 77.4224C89.4251 77.4805 89.6373 77.4891 89.8414 77.4474C90.0455 77.4058 90.2346 77.3152 90.3901 77.1846C90.4937 77.1005 90.5703 76.9911 90.6114 76.8687C90.6526 76.7463 90.6566 76.6155 90.623 76.4911L86.9602 63.2547C86.9258 63.1459 86.9214 63.0307 86.9473 62.9199C86.9732 62.809 87.0286 62.7061 87.1084 62.6206C91.1256 58.0587 93.9202 52.6646 95.2598 46.8876C96.5371 41.4087 96.3553 35.7199 94.7304 30.3223C94.6948 30.2305 94.6796 30.1328 94.6859 30.0353C94.6922 29.9378 94.7199 29.8426 94.7671 29.7555C94.8144 29.6684 94.8803 29.5913 94.9607 29.529C95.0411 29.4667 95.1343 29.4205 95.2346 29.3934C95.3348 29.3662 95.4399 29.3585 95.5435 29.3709C95.647 29.3833 95.7467 29.4155 95.8364 29.4654C95.9261 29.5154 96.0039 29.582 96.065 29.6612C96.126 29.7404 96.169 29.8306 96.1913 29.926C97.8894 35.5483 98.0857 41.4749 96.763 47.1848C95.4014 53.0655 92.5799 58.5638 88.5269 63.2349L92.105 76.1344C92.2085 76.5027 92.2042 76.8902 92.0924 77.2563C91.9807 77.6224 91.7656 77.9535 91.4699 78.215C91.1197 78.5238 90.6881 78.7397 90.2192 78.8407C89.7504 78.9417 89.2613 78.9241 88.8022 78.7896L73.7487 74.6087C66.1855 78.3172 57.7694 80.2421 49.2311 80.2163Z" fill="#01101E"/>
<path d="M61.0224 58.2416L33.4983 60.7779C32.9601 60.827 32.4169 60.7762 31.8997 60.6284C31.3825 60.4806 30.9016 60.2387 30.4846 59.9165C30.0676 59.5943 29.7226 59.1983 29.4695 58.751C29.2164 58.3038 29.0602 57.8141 29.0098 57.3103L26.8926 37.1188C26.8134 36.1078 27.1511 35.1069 27.8364 34.3218C28.5216 33.5368 29.5022 33.0273 30.5765 32.8982L58.1006 30.3619C59.1808 30.2878 60.2503 30.6039 61.0892 31.2452C61.928 31.8865 62.4724 32.8043 62.6103 33.8097L64.7275 54.021C64.783 54.5262 64.731 55.0368 64.5744 55.5231C64.4178 56.0094 64.1598 56.4619 63.8153 56.8543C63.4707 57.2468 63.0466 57.5714 62.5672 57.8095C62.0878 58.0476 61.5627 58.1945 61.0224 58.2416Z" fill="#FDCE9D"/>
<path d="M37.3766 61.0944C36.1679 61.0912 35.0028 60.671 34.1043 59.9143C33.2059 59.1575 32.6372 58.1173 32.5069 56.9927L30.3897 36.7814C30.2713 35.5769 30.665 34.3772 31.4854 33.4425C32.3058 32.5078 33.4868 31.9133 34.7724 31.7881L62.2964 29.2518C63.5835 29.141 64.8653 29.5094 65.8641 30.2772C66.8628 31.045 67.498 32.1503 67.6318 33.3534L69.749 53.5449C69.8133 54.1423 69.7508 54.7458 69.5651 55.3206C69.3794 55.8954 69.0741 56.4302 68.6668 56.8942C68.2596 57.3582 67.7583 57.7423 67.1919 58.0245C66.6255 58.3066 66.0051 58.4812 65.3664 58.5382L37.8424 61.0746L37.3766 61.0944ZM62.7834 30.6586H62.4658L34.9417 33.1949C34.0612 33.285 33.2535 33.6943 32.6915 34.3351C32.1295 34.9758 31.8581 35.7971 31.9353 36.6229L34.0525 56.8342C34.1436 57.6565 34.5765 58.4125 35.2577 58.9388C35.939 59.4652 36.8141 59.7199 37.6942 59.6479L65.2182 57.1116C65.6572 57.0743 66.0838 56.9552 66.4729 56.7612C66.862 56.5672 67.2057 56.3023 67.4836 55.9821C67.7641 55.6682 67.9742 55.3047 68.1015 54.9132C68.2288 54.5217 68.2707 54.1103 68.2246 53.7034L66.1074 33.4922C66.0253 32.7295 65.6488 32.021 65.0486 31.4994C64.4484 30.9778 63.6657 30.6789 62.8469 30.6586H62.7834Z" fill="#01101E"/>
<path d="M44.8923 60.0244L43.3467 45.3217C43.2639 44.5001 43.5311 43.681 44.0901 43.0428C44.6492 42.4045 45.4549 41.9987 46.332 41.9136L53.1495 41.2795C54.0274 41.2019 54.9026 41.452 55.5846 41.9752C56.2665 42.4984 56.7002 43.2525 56.7912 44.0734L58.3368 58.7959L44.8923 60.0244ZM53.4671 42.7061H53.3612L46.5438 43.3402C46.0717 43.3902 45.6392 43.6109 45.3385 43.9552C45.0379 44.2995 44.893 44.7401 44.9346 45.183L46.332 58.459L56.7276 57.5079L55.3303 44.2121C55.2732 43.7711 55.0384 43.3671 54.6739 43.0826C54.3322 42.827 53.9044 42.6935 53.4671 42.7061Z" fill="#01101E"/>
<path d="M70.4894 33.8886L66.8266 23.6443C66.731 23.2884 66.5095 22.9732 66.1981 22.7501C65.8867 22.527 65.5037 22.4092 65.1116 22.4158L44.9133 24.2586H44.2569L24.0585 26.1212C23.6705 26.1798 23.3157 26.3613 23.0536 26.6355C22.7916 26.9096 22.638 27.2597 22.6188 27.6271L21.179 38.347C21.0097 39.5953 21.9413 40.7644 23.0634 40.6455L45.7602 38.6641H46.4377L69.1344 36.5835C69.4239 36.5054 69.6922 36.3705 69.9214 36.1876C70.1507 36.0048 70.3356 35.7782 70.4638 35.5232C70.5921 35.2681 70.6607 34.9904 70.6651 34.7085C70.6695 34.4266 70.6096 34.1471 70.4894 33.8886Z" fill="#FDCE9D"/>
<path d="M38.1767 34.9983C37.9865 34.9945 37.8043 34.9261 37.664 34.8058C37.5238 34.6854 37.4351 34.5215 37.4146 34.3444L36.483 25.5268C36.4732 25.4331 36.4833 25.3385 36.5126 25.2485C36.5419 25.1585 36.5899 25.0747 36.6538 25.0021C36.7177 24.9294 36.7963 24.8692 36.8851 24.8249C36.9738 24.7807 37.071 24.7532 37.1711 24.7441C37.2712 24.735 37.3722 24.7444 37.4684 24.7718C37.5646 24.7993 37.6541 24.8442 37.7317 24.904C37.8094 24.9638 37.8737 25.0373 37.921 25.1204C37.9683 25.2034 37.9976 25.2944 38.0074 25.3881L38.939 34.2057C38.9507 34.2995 38.9424 34.3945 38.9147 34.4853C38.8869 34.576 38.8401 34.6608 38.7771 34.7345C38.7141 34.8082 38.6361 34.8695 38.5475 34.9148C38.459 34.9601 38.3618 34.9885 38.2614 34.9983H38.1767Z" fill="#01101E"/>
<path d="M45.5671 34.305C45.3754 34.3056 45.1906 34.2387 45.0494 34.1175C44.9081 33.9963 44.8208 33.8298 44.8048 33.6511L43.8732 24.8334C43.8615 24.7397 43.8697 24.6446 43.8975 24.5539C43.9253 24.4631 43.9721 24.3784 44.0351 24.3047C44.0981 24.2309 44.1761 24.1697 44.2647 24.1244C44.3532 24.0791 44.4504 24.0507 44.5508 24.0408C44.7553 24.0242 44.9587 24.0834 45.1171 24.2057C45.2755 24.328 45.3762 24.5036 45.3976 24.6947L46.3292 33.5124C46.347 33.7038 46.2838 33.8942 46.1531 34.0424C46.0224 34.1906 45.8348 34.2849 45.6306 34.305H45.5671Z" fill="#01101E"/>
<path d="M52.9355 33.6307C52.7453 33.6269 52.5631 33.5584 52.4228 33.4381C52.2826 33.3178 52.1939 33.1538 52.1733 32.9768L51.2418 24.1591C51.2221 23.9699 51.2835 23.7812 51.4126 23.6344C51.5416 23.4876 51.7277 23.3948 51.9299 23.3764C52.132 23.358 52.3337 23.4155 52.4905 23.5363C52.6474 23.6571 52.7465 23.8312 52.7662 24.0204L53.6978 32.8381C53.7095 32.9318 53.7012 33.0269 53.6735 33.1176C53.6457 33.2084 53.5989 33.2931 53.5359 33.3668C53.4729 33.4405 53.3949 33.5018 53.3063 33.5471C53.2178 33.5924 53.1206 33.6208 53.0202 33.6307H52.9355Z" fill="#01101E"/>
<path d="M30.7894 35.6721C30.5992 35.6683 30.4169 35.5999 30.2766 35.4796C30.1364 35.3592 30.0477 35.1952 30.0272 35.0182L29.0956 26.2005C29.0832 26.0102 29.1483 25.8225 29.278 25.6754C29.4077 25.5283 29.5922 25.4327 29.7943 25.4079C29.8944 25.3998 29.9954 25.4103 30.0912 25.4388C30.187 25.4673 30.2758 25.5133 30.3525 25.5741C30.4293 25.6348 30.4925 25.7092 30.5384 25.7929C30.5843 25.8767 30.612 25.968 30.62 26.0618L31.5516 34.8795C31.5694 35.0709 31.5061 35.2613 31.3754 35.4095C31.2447 35.5577 31.0571 35.652 30.8529 35.6721H30.7894Z" fill="#01101E"/>
<path d="M38.1767 34.9983C37.9865 34.9945 37.8043 34.9261 37.664 34.8058C37.5238 34.6854 37.4351 34.5215 37.4146 34.3444L36.483 25.5268C36.4732 25.4331 36.4833 25.3385 36.5126 25.2485C36.5419 25.1585 36.5899 25.0747 36.6538 25.0021C36.7177 24.9294 36.7963 24.8692 36.8851 24.8249C36.9738 24.7807 37.071 24.7532 37.1711 24.7441C37.2712 24.735 37.3722 24.7444 37.4684 24.7718C37.5646 24.7993 37.6541 24.8442 37.7317 24.904C37.8094 24.9638 37.8737 25.0373 37.921 25.1204C37.9683 25.2034 37.9976 25.2944 38.0074 25.3881L38.939 34.2057C38.9507 34.2995 38.9424 34.3945 38.9147 34.4853C38.8869 34.576 38.8401 34.6608 38.7771 34.7345C38.7141 34.8082 38.6361 34.8695 38.5475 34.9148C38.459 34.9601 38.3618 34.9885 38.2614 34.9983H38.1767Z" fill="#01101E"/>
<path d="M45.5671 34.305C45.3754 34.3056 45.1906 34.2387 45.0494 34.1175C44.9081 33.9963 44.8208 33.8298 44.8048 33.6511L43.8732 24.8334C43.8615 24.7397 43.8697 24.6446 43.8975 24.5539C43.9253 24.4631 43.9721 24.3784 44.0351 24.3047C44.0981 24.2309 44.1761 24.1697 44.2647 24.1244C44.3532 24.0791 44.4504 24.0507 44.5508 24.0408C44.7553 24.0242 44.9587 24.0834 45.1171 24.2057C45.2755 24.328 45.3762 24.5036 45.3976 24.6947L46.3292 33.5124C46.347 33.7038 46.2838 33.8942 46.1531 34.0424C46.0224 34.1906 45.8348 34.2849 45.6306 34.305H45.5671Z" fill="#01101E"/>
<path d="M52.9355 33.6307C52.7453 33.6269 52.5631 33.5584 52.4228 33.4381C52.2826 33.3178 52.1939 33.1538 52.1733 32.9768L51.2418 24.1591C51.2221 23.9699 51.2835 23.7812 51.4126 23.6344C51.5416 23.4876 51.7277 23.3948 51.9299 23.3764C52.132 23.358 52.3337 23.4155 52.4905 23.5363C52.6474 23.6571 52.7465 23.8312 52.7662 24.0204L53.6978 32.8381C53.7095 32.9318 53.7012 33.0269 53.6735 33.1176C53.6457 33.2084 53.5989 33.2931 53.5359 33.3668C53.4729 33.4405 53.3949 33.5018 53.3063 33.5471C53.2178 33.5924 53.1206 33.6208 53.0202 33.6307H52.9355Z" fill="#01101E"/>
<path d="M60.3282 32.9584C60.1366 32.959 59.9518 32.8921 59.8105 32.7709C59.6693 32.6498 59.5819 32.4832 59.566 32.3045L58.6344 23.4869C58.6227 23.3942 58.6311 23.3002 58.6591 23.2106C58.6872 23.1211 58.7342 23.0377 58.7975 22.9655C58.8607 22.8934 58.9389 22.8339 59.0273 22.7907C59.1157 22.7475 59.2125 22.7214 59.3119 22.7141C59.4121 22.7031 59.5136 22.7108 59.6106 22.7368C59.7076 22.7628 59.7981 22.8066 59.8769 22.8655C59.9557 22.9245 60.0212 22.9976 60.0696 23.0804C60.118 23.1633 60.1483 23.2543 60.1588 23.3482L61.0904 32.1658C61.1082 32.3573 61.0449 32.5476 60.9143 32.6958C60.7836 32.8441 60.5959 32.9384 60.3917 32.9584H60.3282Z" fill="#01101E"/>
<path d="M67.6943 32.2837C67.5073 32.2806 67.3277 32.215 67.1879 32.0987C67.0481 31.9824 66.9574 31.8231 66.9321 31.6497L66.0005 22.8122C65.9809 22.623 66.0423 22.4342 66.1714 22.2875C66.3004 22.1407 66.4865 22.0479 66.6887 22.0295C66.8908 22.0111 67.0925 22.0686 67.2493 22.1894C67.4062 22.3102 67.5053 22.4843 67.525 22.6735L68.4565 31.4911C68.4683 31.5849 68.46 31.6799 68.4322 31.7707C68.4045 31.8615 68.3577 31.9462 68.2947 32.0199C68.2317 32.0936 68.1536 32.1549 68.0651 32.2002C67.9766 32.2455 67.8793 32.2739 67.779 32.2837H67.6943Z" fill="#01101E"/>
<path d="M26.3625 41.2005C26.0544 41.1958 25.7507 41.1319 25.4703 41.0125C25.1898 40.8932 24.9386 40.7211 24.7322 40.507C24.4019 40.1881 24.1538 39.8027 24.007 39.3802C23.8602 38.9578 23.8185 38.5096 23.8853 38.0698L25.3462 27.3499C25.3848 26.8225 25.6165 26.3237 26.0021 25.9375C26.3878 25.5513 26.9038 25.3013 27.4634 25.2297L68.5378 21.4648C69.1017 21.4407 69.6577 21.596 70.1152 21.9055C70.5727 22.2149 70.9048 22.6603 71.0573 23.1689L74.6989 33.4133C74.8586 33.8327 74.915 34.2804 74.8637 34.7231C74.8123 35.1658 74.6547 35.5918 74.4025 35.9694C74.2187 36.2437 73.9707 36.4754 73.6773 36.647C73.3839 36.8186 73.0528 36.9257 72.7088 36.9601L26.6165 41.1807L26.3625 41.2005ZM68.7072 22.8915L27.6328 26.6563C27.4258 26.7052 27.2423 26.8177 27.1118 26.9758C26.9813 27.1339 26.9113 27.3284 26.913 27.5282L25.4521 38.2481C25.4176 38.4741 25.4357 38.7044 25.5051 38.9233C25.5746 39.1422 25.6937 39.3444 25.8544 39.5162C25.9351 39.5971 26.0338 39.6604 26.1436 39.7015C26.2534 39.7426 26.3715 39.7605 26.4895 39.754L72.5817 35.5335C72.6974 35.5202 72.8081 35.4808 72.904 35.4186C72.9999 35.3565 73.0782 35.2735 73.1322 35.1768C73.2568 34.9819 73.3345 34.764 73.3601 34.5382C73.3857 34.3123 73.3585 34.084 73.2804 33.869L69.6176 23.6247C69.5699 23.4308 69.4585 23.2557 69.299 23.1242C69.1394 22.9927 68.9399 22.9113 68.7284 22.8915H68.7072Z" fill="#01101E"/>
<path d="M266.058 91.035C263.944 99.7712 265.619 108.935 270.716 116.517L265.529 128.604C265.434 128.856 265.417 129.128 265.477 129.389C265.537 129.649 265.674 129.89 265.871 130.082C266.068 130.275 266.319 130.413 266.595 130.481C266.871 130.549 267.161 130.544 267.434 130.467L282.043 127.594C287.228 130.93 293.121 133.18 299.32 134.192C322.482 138.155 345.158 125.037 349.943 105.084C354.728 85.1302 339.865 65.8106 316.702 61.9269C293.54 58.0432 270.864 71.0814 266.058 91.035Z" fill="#FDCE9D"/>
<path d="M325.723 107.343C327.036 101.835 324.94 96.7027 321.023 95.8903C317.106 95.0778 312.871 98.8625 311.559 104.391C310.246 109.919 312.342 115.031 316.259 115.844C320.176 116.656 324.368 112.872 325.723 107.343Z" fill="#FC3637"/>
<path d="M320.255 118.181C319.843 118.182 319.431 118.142 319.027 118.063C317.888 117.766 316.847 117.205 315.999 116.433C315.152 115.661 314.526 114.702 314.179 113.644C313.275 111.095 313.129 108.363 313.756 105.742C314.382 103.121 315.758 100.709 317.736 98.7629C318.498 97.9022 319.499 97.2553 320.629 96.8937C321.759 96.5321 322.974 96.4699 324.139 96.7138C325.304 96.9578 326.375 97.4985 327.233 98.2762C328.091 99.0539 328.702 100.038 328.999 101.121C329.949 103.67 330.096 106.421 329.423 109.047C328.131 114.357 324.193 118.181 320.255 118.181ZM322.902 98.0099C321.338 98.0869 319.867 98.7257 318.794 99.7932C317.041 101.548 315.82 103.71 315.258 106.054C314.696 108.398 314.813 110.841 315.597 113.129C315.86 113.965 316.343 114.725 317.001 115.342C317.66 115.958 318.473 116.41 319.366 116.656C322.859 117.389 326.692 113.822 327.835 108.73C328.46 106.383 328.335 103.917 327.475 101.636C327.212 100.803 326.732 100.045 326.078 99.429C325.424 98.8132 324.616 98.3596 323.727 98.109C323.456 98.0524 323.18 98.0192 322.902 98.0099Z" fill="#01101E"/>
<path d="M305.542 100.071C306.855 94.5423 304.759 89.4102 300.842 88.5978C296.925 87.7854 292.69 91.5899 291.378 97.0984C290.065 102.607 292.161 107.739 296.078 108.571C299.995 109.404 304.229 105.579 305.542 100.071Z" fill="#FC3637"/>
<path d="M293.177 108.57C292.75 108.563 292.324 108.517 291.907 108.432C287.672 107.52 285.237 101.992 286.635 96.1067C287.217 93.4719 288.599 91.0502 290.615 89.1318C291.414 88.3333 292.414 87.7339 293.523 87.3879C294.632 87.0419 295.816 86.9603 296.967 87.1504C301.201 88.042 303.657 93.5704 302.239 99.4752C301.663 102.112 300.28 104.536 298.258 106.45C296.919 107.742 295.099 108.502 293.177 108.57ZM295.781 88.3789C294.218 88.4559 292.746 89.0947 291.674 90.1622C289.877 91.8882 288.649 94.062 288.138 96.4237C286.91 101.536 288.752 106.331 292.245 107.025C293.166 107.163 294.108 107.081 294.986 106.786C295.863 106.492 296.647 105.994 297.263 105.34C299.068 103.62 300.297 101.444 300.799 99.0789C302.027 93.9469 300.185 89.1715 296.692 88.4581C296.392 88.401 296.087 88.3745 295.781 88.3789Z" fill="#01101E"/>
<path d="M324.364 98.8822H324.131C323.731 98.8234 323.372 98.6203 323.131 98.3166C322.889 98.0128 322.785 97.6325 322.839 97.2573C324.3 87.9641 322.712 81.4054 318.372 78.7898C316.548 77.8709 314.487 77.4453 312.419 77.5608C310.351 77.6763 308.358 78.3283 306.664 79.4437C303.304 81.7277 300.788 84.9343 299.465 88.618C299.41 88.7992 299.316 88.9682 299.189 89.1147C299.062 89.2613 298.905 89.3826 298.728 89.4713C298.55 89.56 298.355 89.6144 298.154 89.6312C297.954 89.648 297.751 89.6269 297.56 89.5691C297.368 89.5148 297.189 89.4255 297.034 89.3063C296.879 89.1872 296.75 89.0406 296.656 88.8749C296.561 88.7092 296.503 88.5277 296.484 88.3408C296.464 88.1539 296.485 87.9653 296.543 87.7858C298.072 83.4477 301.039 79.6788 305.012 77.0263C307.189 75.5841 309.762 74.756 312.426 74.6401C315.09 74.5242 317.734 75.1254 320.045 76.3724C323.856 78.6907 327.984 84.2984 325.867 97.6735C325.812 98.0095 325.63 98.316 325.354 98.5376C325.078 98.7593 324.727 98.8814 324.364 98.8822Z" fill="#01101E"/>
<path d="M29.0745 191.775C29.4204 192.536 29.6279 193.347 29.6885 194.172C29.6885 194.172 29.6885 194.172 29.6885 194.291L28.651 198.373L25.2635 211.669C25.1338 212.178 24.8776 212.651 24.5157 213.051C24.1539 213.45 23.6965 213.763 23.1809 213.966C22.6653 214.169 22.1058 214.255 21.548 214.217C20.9902 214.179 20.4497 214.019 19.9704 213.75L7.47869 206.715L3.56186 204.536V204.437C2.97226 203.86 2.49884 203.189 2.16448 202.455C1.50779 200.979 1.37179 199.345 1.77635 197.791C2.18091 196.237 3.1049 194.845 4.41372 193.817C5.72254 192.789 7.34789 192.178 9.05305 192.075C10.7582 191.971 12.4541 192.38 13.8939 193.241C14.2403 191.674 15.114 190.252 16.3867 189.183C17.6595 188.115 19.2645 187.456 20.9666 187.303C22.6686 187.15 24.3783 187.511 25.845 188.334C27.3116 189.156 28.4583 190.397 29.1168 191.874L29.0745 191.775Z" fill="#FDCE9D"/>
<path d="M23.718 215.275C22.8739 215.27 22.0469 215.051 21.3255 214.641L3.32906 204.515L3.20203 204.377C2.5251 203.65 1.97495 202.827 1.57178 201.939C0.601345 199.761 0.593523 197.311 1.55001 195.127C2.50649 192.943 4.34925 191.203 6.67432 190.288C7.93571 189.782 9.30044 189.541 10.6723 189.582C12.0442 189.623 13.3897 189.945 14.614 190.526C15.0273 189.304 15.7209 188.182 16.6462 187.237C17.5714 186.293 18.706 185.549 19.9705 185.057C22.2958 184.148 24.9113 184.138 27.2445 185.029C29.5778 185.92 31.4386 187.64 32.4198 189.813C32.8286 190.719 33.072 191.684 33.1397 192.666C33.1397 192.666 33.1397 192.785 33.1397 192.844L28.2913 211.906C28.1184 212.573 27.7814 213.192 27.3072 213.715C26.833 214.238 26.2346 214.65 25.56 214.918C24.9773 215.15 24.3512 215.271 23.718 215.275ZM4.32416 203.386L22.1301 213.293C22.545 213.533 23.0154 213.676 23.5017 213.711C23.988 213.745 24.4761 213.67 24.9249 213.492C25.3723 213.317 25.7699 213.047 26.086 212.703C26.4022 212.359 26.628 211.95 26.7457 211.51L31.5518 192.666C31.4914 191.86 31.2837 191.069 30.9378 190.328C30.2861 188.852 29.1451 187.612 27.6831 186.789C26.221 185.966 24.5153 185.605 22.8171 185.758C21.119 185.911 19.5184 186.571 18.2511 187.64C16.9839 188.709 16.1171 190.13 15.7784 191.695L15.5667 192.726L14.614 192.171C13.1811 191.305 11.4893 190.891 9.78679 190.99C8.08427 191.089 6.46048 191.696 5.15353 192.722C3.84658 193.748 2.92523 195.139 2.5245 196.691C2.12376 198.243 2.26473 199.874 2.92678 201.345C3.2697 202.105 3.74159 202.807 4.32416 203.426V203.386Z" fill="#01101E"/>
<path d="M274.63 247.771C274.524 247.775 274.418 247.758 274.319 247.721C274.22 247.683 274.132 247.626 274.059 247.553C273.985 247.488 273.926 247.41 273.886 247.323C273.846 247.236 273.825 247.143 273.825 247.048C273.825 246.953 273.846 246.86 273.886 246.773C273.926 246.686 273.985 246.607 274.059 246.543L289.239 233.306C289.31 233.24 289.394 233.187 289.487 233.151C289.579 233.115 289.679 233.096 289.779 233.096C289.879 233.096 289.979 233.115 290.071 233.151C290.164 233.187 290.248 233.24 290.319 233.306C290.464 233.443 290.545 233.629 290.545 233.821C290.545 234.014 290.464 234.199 290.319 234.337L275.117 247.573C274.984 247.689 274.812 247.759 274.63 247.771Z" fill="#01101E"/>
<path d="M273.045 260.176C272.94 260.176 272.836 260.155 272.741 260.114C272.646 260.073 272.562 260.013 272.494 259.938C272.423 259.872 272.367 259.793 272.328 259.706C272.29 259.62 272.27 259.527 272.27 259.433C272.27 259.339 272.29 259.246 272.328 259.159C272.367 259.073 272.423 258.994 272.494 258.928L287.696 245.691C287.845 245.563 288.042 245.494 288.245 245.502C288.447 245.509 288.638 245.592 288.776 245.731C288.913 245.87 288.986 246.055 288.978 246.244C288.97 246.434 288.882 246.613 288.733 246.741L273.553 259.978C273.417 260.103 273.235 260.173 273.045 260.176Z" fill="#01101E"/>
</svg>
