<svg width="351" height="301" viewBox="0 0 351 301" fill="none" xmlns="http://www.w3.org/2000/svg">
<path d="M228.24 107.028L191.351 123.685V230.766C191.468 235.401 189.809 239.895 186.739 243.259C183.669 246.624 179.438 248.584 174.978 248.708H58.6996C54.2394 248.584 50.0093 246.624 46.9392 243.259C43.8691 239.895 42.2101 235.401 42.3271 230.766V123.685L5.41464 107.028C4.33535 106.506 3.37458 105.753 2.59564 104.818C1.81671 103.883 1.2374 102.786 0.895585 101.602C0.553775 100.417 0.457237 99.1704 0.612568 97.9441C0.767898 96.7178 1.17157 95.5396 1.79677 94.4871L38.4344 31.3327C39.6095 29.2607 41.2825 27.5417 43.2897 26.3444C45.297 25.1471 47.5693 24.5127 49.8837 24.5033H79.1021C81.555 24.5336 83.9525 25.2645 86.0325 26.6159C88.1124 27.9674 89.7946 29.8873 90.8949 32.1656C93.2413 37.2406 96.9123 41.5285 101.49 44.5409C106.067 47.5532 111.367 49.1689 116.785 49.2036C122.203 49.2383 127.521 47.6908 132.134 44.7373C136.746 41.7838 140.468 37.5432 142.875 32.4987C143.98 30.153 145.683 28.1673 147.798 26.7575C149.914 25.3478 152.361 24.5681 154.873 24.5033H184.069C186.387 24.5056 188.665 25.1396 190.674 26.3422C192.683 27.5447 194.353 29.2737 195.518 31.3565L232.156 94.5109C232.764 95.5829 233.147 96.777 233.277 98.0141C233.408 99.2512 233.284 100.503 232.914 101.687C232.544 102.87 231.935 103.958 231.13 104.879C230.324 105.8 229.339 106.532 228.24 107.028Z" fill="#FF5714"/>
<path d="M241.477 90.0602C241.228 87.5927 240.106 85.3093 238.329 83.652C236.553 81.9947 234.247 81.0815 231.86 81.0892H116.864C114.479 81.082 112.176 81.9961 110.403 83.6539C108.63 85.3116 107.513 87.5948 107.269 90.0602L89.3624 267.887C89.2211 269.284 89.364 270.696 89.7819 272.032C90.1998 273.367 90.8833 274.597 91.7881 275.64C92.6928 276.684 93.7986 277.518 95.0336 278.088C96.2686 278.659 97.6053 278.953 98.9569 278.952H249.79C251.136 278.943 252.466 278.641 253.694 278.066C254.922 277.492 256.02 276.657 256.919 275.615C257.819 274.573 258.498 273.347 258.915 272.017C259.331 270.686 259.475 269.279 259.338 267.887L241.477 90.0602Z" fill="#FDCE9D"/>
<path d="M256.498 279.927H105.665C104.152 279.922 102.657 279.588 101.276 278.946C99.8943 278.305 98.6573 277.371 97.6439 276.203C96.6305 275.036 95.8631 273.661 95.3911 272.168C94.919 270.674 94.7526 269.094 94.9026 267.53L112.809 89.7742C113.082 87.0079 114.334 84.4458 116.323 82.5856C118.312 80.7254 120.896 79.7 123.572 79.7085H238.591C241.267 79.7 243.85 80.7254 245.839 82.5856C247.828 84.4458 249.081 87.0079 249.353 89.7742L267.26 267.53C267.417 269.096 267.256 270.678 266.787 272.175C266.317 273.672 265.55 275.05 264.535 276.219C263.52 277.388 262.28 278.322 260.896 278.961C259.511 279.6 258.013 279.929 256.498 279.927ZM123.686 82.1595C121.592 82.1539 119.57 82.9564 118.013 84.4117C116.456 85.867 115.475 87.8714 115.259 90.036L97.2383 267.887C97.1132 269.116 97.238 270.36 97.6049 271.536C97.9718 272.713 98.5724 273.796 99.3679 274.716C100.159 275.637 101.129 276.373 102.215 276.873C103.301 277.374 104.477 277.628 105.665 277.619H256.498C257.687 277.623 258.863 277.366 259.95 276.865C261.037 276.364 262.01 275.63 262.806 274.712C263.601 273.793 264.201 272.71 264.566 271.534C264.931 270.358 265.053 269.115 264.924 267.887L247.018 90.1549C246.807 87.9882 245.827 85.9808 244.269 84.5245C242.711 83.0682 240.686 82.2674 238.591 82.2785L123.686 82.1595Z" fill="#01101E"/>
<path d="M172.963 137.891C164.683 137.878 156.745 134.455 150.891 128.37C145.036 122.286 141.741 114.038 141.729 105.433V91.1559C141.8 90.8973 141.95 90.6698 142.157 90.5079C142.363 90.346 142.615 90.2583 142.874 90.2583C143.133 90.2583 143.384 90.346 143.591 90.5079C143.797 90.6698 143.948 90.8973 144.019 91.1559V105.433C144.019 113.392 147.061 121.024 152.476 126.651C157.891 132.279 165.236 135.44 172.894 135.44C180.552 135.44 187.897 132.279 193.312 126.651C198.727 121.024 201.769 113.392 201.769 105.433V91.5366C201.84 91.2781 201.99 91.0506 202.197 90.8886C202.403 90.7267 202.655 90.639 202.914 90.639C203.173 90.639 203.424 90.7267 203.631 90.8886C203.838 91.0506 203.988 91.2781 204.059 91.5366V105.433C204.047 114.013 200.771 122.24 194.946 128.32C189.121 134.4 181.219 137.841 172.963 137.891Z" fill="#01101E"/>
<path d="M249.741 267.411C249.452 267.407 249.173 267.294 248.959 267.093C248.744 266.891 248.607 266.615 248.573 266.317L231.857 100.364C231.645 98.1954 230.666 96.1859 229.109 94.7243C228.886 94.5079 228.752 94.2088 228.739 93.8914C228.725 93.574 228.831 93.2635 229.035 93.0267C229.239 92.7899 229.524 92.6456 229.829 92.6249C230.134 92.6042 230.435 92.7086 230.667 92.9158C232.644 94.7658 233.899 97.3062 234.193 100.055L250.932 266.007C250.948 266.167 250.933 266.328 250.888 266.482C250.844 266.635 250.771 266.778 250.673 266.902C250.575 267.026 250.454 267.128 250.318 267.203C250.181 267.279 250.032 267.325 249.878 267.34L249.741 267.411Z" fill="#01101E"/>
<path d="M279.234 291.041C293.338 291.041 307.126 286.695 318.852 278.551C330.579 270.408 339.718 258.834 345.115 245.292C350.511 231.751 351.922 216.851 349.168 202.476C346.415 188.101 339.622 174.898 329.647 164.536C319.673 154.173 306.965 147.118 293.131 144.261C279.298 141.405 264.96 142.876 251.931 148.488C238.902 154.1 227.767 163.601 219.934 175.79C212.102 187.979 207.924 202.308 207.928 216.965C207.928 226.695 209.773 236.329 213.357 245.318C216.94 254.307 222.193 262.474 228.815 269.353C235.436 276.232 243.297 281.688 251.948 285.409C260.599 289.131 269.871 291.044 279.234 291.041Z" fill="#FF8F62"/>
<path d="M274.655 292.278C259.312 292.26 244.371 287.175 231.99 277.759C219.608 268.342 210.426 255.081 205.77 239.888C201.113 224.696 201.222 208.359 206.082 193.235C210.942 178.111 220.3 164.984 232.806 155.747C245.313 146.51 260.32 141.643 275.662 141.846C291.004 142.05 305.887 147.315 318.162 156.88C330.438 166.446 339.47 179.818 343.957 195.065C348.443 210.313 348.151 226.648 343.122 241.711C343.019 242.027 342.799 242.287 342.511 242.434C342.224 242.582 341.891 242.604 341.588 242.497C341.284 242.389 341.034 242.161 340.892 241.862C340.75 241.563 340.729 241.218 340.832 240.902C346.683 223.451 345.938 204.343 338.749 187.44C331.56 170.538 318.463 157.102 302.107 149.851C285.75 142.6 267.353 142.074 250.638 148.38C233.922 154.685 220.134 167.351 212.061 183.818C203.989 200.284 202.234 219.321 207.153 237.08C212.071 254.839 223.295 269.995 238.555 279.483C253.815 288.97 271.973 292.082 289.357 288.189C306.741 284.296 322.054 273.689 332.199 258.511C332.376 258.246 332.646 258.065 332.951 258.007C333.256 257.949 333.57 258.019 333.825 258.202C334.08 258.385 334.255 258.666 334.311 258.983C334.367 259.3 334.299 259.627 334.123 259.892C327.455 269.87 318.566 278.025 308.211 283.664C297.857 289.303 286.345 292.258 274.655 292.278Z" fill="#01101E"/>
<path d="M249.169 279.927C248.893 279.925 248.626 279.821 248.416 279.634C248.207 279.447 248.068 279.188 248.025 278.904C244.912 260.515 245.301 241.67 249.169 223.436C252.243 209.482 257.562 196.168 264.901 184.054C272.001 171.993 281.194 161.407 292.013 152.834C292.271 152.649 292.589 152.578 292.898 152.636C293.207 152.694 293.481 152.876 293.661 153.143C293.748 153.275 293.808 153.425 293.838 153.581C293.869 153.738 293.869 153.9 293.839 154.057C293.81 154.214 293.75 154.363 293.665 154.496C293.579 154.629 293.469 154.744 293.341 154.832C290.31 157.158 287.441 159.703 284.754 162.447C268.16 179.202 256.588 200.591 251.436 224.031C247.654 241.947 247.281 260.459 250.337 278.524C250.36 278.681 250.353 278.842 250.315 278.997C250.278 279.152 250.212 279.298 250.12 279.426C250.029 279.554 249.914 279.662 249.782 279.744C249.651 279.826 249.505 279.88 249.353 279.904L249.169 279.927Z" fill="#01101E"/>
<path d="M311.57 198.593C290.068 198.593 256.82 194.762 232.364 174.393C232.244 174.293 232.144 174.169 232.069 174.029C231.995 173.889 231.948 173.735 231.931 173.576C231.914 173.417 231.927 173.256 231.97 173.102C232.013 172.948 232.085 172.805 232.181 172.68C232.277 172.555 232.396 172.451 232.531 172.373C232.666 172.296 232.814 172.247 232.967 172.23C233.12 172.212 233.275 172.226 233.423 172.27C233.571 172.315 233.709 172.389 233.83 172.489C263.872 197.546 307.769 197.023 325.263 195.619C325.57 195.599 325.871 195.706 326.102 195.915C326.334 196.124 326.477 196.42 326.5 196.737C326.516 196.897 326.5 197.059 326.454 197.213C326.408 197.366 326.332 197.509 326.231 197.631C326.131 197.753 326.007 197.853 325.868 197.925C325.73 197.996 325.578 198.037 325.424 198.046C321.806 198.332 317.089 198.593 311.57 198.593Z" fill="#01101E"/>
<path d="M303.76 267.411C303.441 267.403 303.138 267.267 302.913 267.031C295.111 259.184 286.332 252.462 276.809 247.042C268.109 241.975 258.709 238.331 248.941 236.239C237.843 233.849 226.358 234.208 215.418 237.286C215.272 237.333 215.119 237.348 214.967 237.331C214.815 237.314 214.668 237.265 214.535 237.187C214.403 237.109 214.286 237.004 214.194 236.878C214.102 236.751 214.035 236.607 213.998 236.453C213.953 236.3 213.938 236.139 213.954 235.98C213.97 235.82 214.017 235.666 214.092 235.526C214.167 235.386 214.268 235.263 214.39 235.165C214.511 235.067 214.651 234.995 214.8 234.954C226.105 231.765 237.974 231.39 249.445 233.859C259.45 236.027 269.079 239.766 278 244.948C287.706 250.479 296.655 257.338 304.608 265.341C304.826 265.569 304.948 265.877 304.948 266.198C304.948 266.519 304.826 266.827 304.608 267.054C304.5 267.175 304.369 267.269 304.222 267.331C304.076 267.393 303.918 267.42 303.76 267.411Z" fill="#01101E"/>
<path d="M42.3269 187.529C42.0172 187.529 41.7202 187.401 41.5012 187.173C41.2822 186.946 41.1591 186.637 41.1591 186.315V80.9469C41.125 80.7708 41.1291 80.589 41.1708 80.4147C41.2126 80.2403 41.2911 80.0778 41.4006 79.9388C41.5101 79.7998 41.648 79.6878 41.8042 79.6109C41.9605 79.534 42.1312 79.4941 42.304 79.4941C42.4769 79.4941 42.6477 79.534 42.804 79.6109C42.9602 79.6878 43.098 79.7998 43.2076 79.9388C43.3171 80.0778 43.3956 80.2403 43.4374 80.4147C43.4791 80.589 43.483 80.7708 43.449 80.9469V186.315C43.4492 186.629 43.3325 186.931 43.1233 187.157C42.9141 187.383 42.6287 187.516 42.3269 187.529Z" fill="#01101E"/>
<path d="M324.986 17.6969C324.779 18.9873 324.369 20.2336 323.773 21.3853C323.764 21.4485 323.764 21.5125 323.773 21.5757L319.193 26.3348L304.194 41.5405C303.619 42.1179 302.921 42.5467 302.156 42.7924C301.392 43.0381 300.583 43.0937 299.794 42.9548C299.005 42.8159 298.259 42.4863 297.615 41.9926C296.972 41.4989 296.448 40.855 296.088 40.1127L286.677 20.719L283.769 14.6749C283.769 14.6749 283.769 14.5559 283.769 14.5083C283.562 13.2083 283.562 11.882 283.769 10.582C284.156 8.05677 285.317 5.72859 287.077 3.94237C288.838 2.15616 291.106 1.00694 293.545 0.665132C295.983 0.323325 298.463 0.80709 300.616 2.04468C302.77 3.28227 304.482 5.20786 305.499 7.53609C307.186 5.65283 309.414 4.38816 311.85 3.93162C314.286 3.47509 316.799 3.85132 319.012 5.00385C321.225 6.15638 323.018 8.02311 324.124 10.3244C325.231 12.6256 325.589 15.2375 325.146 17.7684L324.986 17.6969Z" fill="#FC3637"/>
<path d="M298.263 51.2012C297.889 51.2366 297.514 51.2366 297.141 51.2012C296.095 51.0177 295.104 50.5848 294.246 49.9366C293.387 49.2885 292.685 48.4426 292.195 47.4653L281.959 26.2393L278.616 19.3623V19.1481C278.625 19.109 278.625 19.0683 278.616 19.0292C278.375 17.4925 278.375 15.9256 278.616 14.389C279.096 11.543 280.396 8.91548 282.344 6.85353C284.291 4.79159 286.795 3.39229 289.525 2.84052C292.254 2.28874 295.08 2.61049 297.63 3.76322C300.179 4.91594 302.332 6.84534 303.804 9.2966C305.963 7.45284 308.611 6.33698 311.396 6.09778C314.181 5.85859 316.97 6.50744 319.39 7.95786C321.811 9.40827 323.749 11.5913 324.945 14.2156C326.141 16.84 326.538 19.7809 326.084 22.6461C325.858 24.209 325.361 25.7164 324.619 27.096V27.3101V27.4291L303.117 49.2261C302.48 49.8809 301.72 50.3938 300.886 50.7334C300.051 51.0729 299.159 51.2321 298.263 51.2012ZM280.929 18.6246L284.043 25.0496L294.301 46.2516C294.612 46.8947 295.064 47.4525 295.621 47.8796C296.179 48.3066 296.825 48.5908 297.508 48.7091C298.191 48.8274 298.891 48.7764 299.551 48.5602C300.212 48.3441 300.814 47.9689 301.308 47.4653L322.581 25.8824C323.167 24.7533 323.57 23.5311 323.772 22.2654C324.256 19.1686 323.543 15.9983 321.789 13.4447C320.035 10.891 317.382 9.16071 314.406 8.63031C312.583 8.31813 310.715 8.4689 308.961 9.06973C307.206 9.67056 305.618 10.7036 304.331 12.0807L303.14 13.3657L302.407 11.7714C301.348 9.53074 299.638 7.69299 297.519 6.51818C295.399 5.34337 292.978 4.89104 290.597 5.22526C288.217 5.55949 285.998 6.66333 284.255 8.3805C282.511 10.0977 281.331 12.3412 280.883 14.7935C280.653 16.0755 280.653 17.3903 280.883 18.6722L280.929 18.6246Z" fill="#01101E"/>
<path d="M331.053 300.559H315.367C315.103 300.503 314.865 300.355 314.694 300.138C314.523 299.921 314.43 299.649 314.43 299.369C314.43 299.088 314.523 298.817 314.694 298.6C314.865 298.383 315.103 298.234 315.367 298.179H331.053C331.317 298.234 331.555 298.383 331.726 298.6C331.897 298.817 331.991 299.088 331.991 299.369C331.991 299.649 331.897 299.921 331.726 300.138C331.555 300.355 331.317 300.503 331.053 300.559Z" fill="#01101E"/>
<path d="M227.092 300.559H17.2961C17.0316 300.503 16.7936 300.355 16.6227 300.138C16.4517 299.921 16.3584 299.649 16.3584 299.369C16.3584 299.088 16.4517 298.817 16.6227 298.6C16.7936 298.383 17.0316 298.234 17.2961 298.179H227.092C227.357 298.234 227.595 298.383 227.766 298.6C227.937 298.817 228.03 299.088 228.03 299.369C228.03 299.649 227.937 299.921 227.766 300.138C227.595 300.355 227.357 300.503 227.092 300.559Z" fill="#01101E"/>
</svg>
