<svg width="351" height="301" viewBox="0 0 351 301" fill="none" xmlns="http://www.w3.org/2000/svg">
<path d="M267.337 282.599H80.6658C77.298 282.599 74.0681 281.196 71.6866 278.697C69.3052 276.199 67.9673 272.811 67.9673 269.278V120.811C67.9641 119.06 68.2901 117.324 68.9268 115.705C69.5636 114.086 70.4984 112.615 71.6779 111.375C72.8574 110.135 74.2584 109.152 75.8006 108.48C77.3429 107.809 78.9962 107.464 80.6658 107.464H267.337C269.007 107.464 270.66 107.809 272.202 108.48C273.745 109.152 275.146 110.135 276.325 111.375C277.505 112.615 278.439 114.086 279.076 115.705C279.713 117.324 280.039 119.06 280.036 120.811V269.278C280.039 271.028 279.713 272.762 279.076 274.38C278.439 275.997 277.503 277.467 276.324 278.705C275.144 279.943 273.743 280.924 272.2 281.592C270.658 282.26 269.006 282.603 267.337 282.599Z" fill="#FF5714"/>
<path d="M278.342 272.37H91.6708C87.9141 272.363 84.3131 270.795 81.6566 268.008C79.0002 265.221 77.505 261.444 77.4985 257.503V109.036C77.4985 105.09 78.9908 101.306 81.6479 98.5138C84.3051 95.7216 87.9098 94.1494 91.6708 94.1426H278.342C282.107 94.1426 285.718 95.7117 288.381 98.5047C291.043 101.298 292.539 105.086 292.539 109.036V257.503C292.532 261.448 291.034 265.23 288.372 268.017C285.71 270.804 282.103 272.37 278.342 272.37ZM91.6708 97.1573C88.6915 97.1641 85.8365 98.4104 83.7321 100.623C81.6278 102.835 80.4459 105.833 80.4459 108.958V257.425C80.4524 260.546 81.6372 263.537 83.7408 265.744C85.8445 267.951 88.6958 269.194 91.6708 269.201H278.342C281.317 269.194 284.168 267.951 286.272 265.744C288.376 263.537 289.56 260.546 289.567 257.425V109.036C289.567 105.91 288.385 102.913 286.281 100.7C284.176 98.4877 281.321 97.2414 278.342 97.2346L91.6708 97.1573Z" fill="#01101E"/>
<path d="M304.451 204.424H230.593C229.125 204.435 227.671 204.14 226.312 203.558C224.954 202.976 223.719 202.118 222.678 201.033C221.636 199.948 220.81 198.658 220.247 197.237C219.683 195.816 219.393 194.292 219.393 192.752V166.058C219.393 164.523 219.681 163.003 220.242 161.585C220.803 160.167 221.624 158.88 222.66 157.795C223.696 156.711 224.925 155.852 226.278 155.267C227.631 154.682 229.081 154.382 230.544 154.386H304.377C305.37 154.386 306.322 154.798 307.026 155.531C307.73 156.265 308.129 157.261 308.135 158.302V200.534C308.142 201.044 308.051 201.551 307.868 202.025C307.686 202.498 307.415 202.929 307.072 203.291C306.729 203.653 306.32 203.94 305.87 204.135C305.42 204.329 304.938 204.428 304.451 204.424Z" fill="#FF8F62"/>
<path d="M246.678 191.592C244.376 191.592 242.125 190.876 240.21 189.534C238.296 188.192 236.804 186.285 235.922 184.053C235.041 181.821 234.811 179.366 235.26 176.996C235.709 174.627 236.818 172.451 238.446 170.743C240.074 169.035 242.149 167.872 244.407 167.4C246.666 166.929 249.006 167.171 251.134 168.095C253.261 169.02 255.08 170.585 256.359 172.594C257.638 174.602 258.321 176.964 258.321 179.379C258.333 180.712 258.125 182.037 257.707 183.296C257.573 183.682 257.299 183.996 256.944 184.17C256.59 184.344 256.184 184.363 255.816 184.223C255.447 184.083 255.148 183.795 254.982 183.423C254.816 183.051 254.798 182.625 254.931 182.239C255.233 181.319 255.383 180.352 255.373 179.379C255.369 177.325 254.702 175.333 253.481 173.728C252.26 172.122 250.557 170.997 248.649 170.536C246.741 170.075 244.741 170.305 242.973 171.189C241.206 172.072 239.775 173.557 238.915 175.402C238.055 177.247 237.815 179.343 238.234 181.349C238.654 183.356 239.709 185.154 241.226 186.451C242.744 187.748 244.636 188.469 246.594 188.495C248.551 188.521 250.46 187.851 252.008 186.594C252.17 186.469 252.353 186.378 252.548 186.327C252.742 186.276 252.945 186.266 253.143 186.297C253.341 186.328 253.532 186.4 253.704 186.508C253.876 186.617 254.026 186.76 254.145 186.929C254.265 187.098 254.351 187.29 254.4 187.494C254.448 187.698 254.458 187.911 254.428 188.119C254.399 188.327 254.33 188.527 254.227 188.708C254.123 188.888 253.987 189.045 253.826 189.17C251.767 190.791 249.252 191.644 246.678 191.592Z" fill="#01101E"/>
<path d="M303.368 206.021C303.007 205.972 302.675 205.787 302.434 205.5C302.194 205.213 302.061 204.844 302.061 204.462C302.061 204.08 302.194 203.711 302.434 203.424C302.675 203.137 303.007 202.952 303.368 202.903C304.26 202.903 305.116 202.531 305.747 201.869C306.378 201.207 306.733 200.31 306.733 199.373V159.461C306.733 158.525 306.378 157.627 305.747 156.965C305.116 156.303 304.26 155.931 303.368 155.931H233.833C230.411 155.931 227.128 157.355 224.706 159.891C222.284 162.428 220.92 165.868 220.913 169.458V189.35C220.92 192.94 222.284 196.381 224.706 198.917C227.128 201.453 230.411 202.878 233.833 202.878H284.799C285.16 202.926 285.492 203.112 285.733 203.399C285.973 203.685 286.106 204.054 286.106 204.436C286.106 204.819 285.973 205.188 285.733 205.474C285.492 205.761 285.16 205.947 284.799 205.995H233.833C229.627 205.989 225.595 204.233 222.62 201.113C219.646 197.993 217.972 193.763 217.966 189.35V169.458C217.972 165.046 219.646 160.816 222.62 157.696C225.595 154.576 229.627 152.82 233.833 152.813H303.368C305.044 152.82 306.65 153.523 307.833 154.769C309.016 156.015 309.68 157.702 309.68 159.461V199.373C309.68 201.132 309.016 202.819 307.833 204.065C306.65 205.311 305.044 206.014 303.368 206.021Z" fill="#01101E"/>
<path d="M98.5929 97.2092C98.2357 97.207 97.8915 97.0688 97.6242 96.8203C97.3569 96.5718 97.1847 96.2299 97.1397 95.8582C97.0947 95.4866 97.1798 95.1104 97.3793 94.7996C97.5789 94.4889 97.8792 94.2647 98.2245 94.1688L231.67 58.8429C233.198 58.4446 234.792 58.4158 236.332 58.7587C237.873 59.1017 239.318 59.8073 240.56 60.8224C241.802 61.8375 242.808 63.1354 243.502 64.6182C244.196 66.1009 244.559 67.7297 244.565 69.3814V95.6117C244.565 96.0218 244.41 96.415 244.133 96.7049C243.857 96.9948 243.482 97.1577 243.091 97.1577C242.7 97.1577 242.325 96.9948 242.049 96.7049C241.773 96.415 241.617 96.0218 241.617 95.6117V69.3298C241.623 68.1468 241.37 66.9781 240.877 65.9139C240.385 64.8497 239.666 63.9183 238.776 63.1915C237.886 62.4646 236.849 61.9617 235.745 61.7215C234.641 61.4813 233.499 61.5102 232.407 61.806L99.035 97.1577C98.8954 97.2192 98.7419 97.2371 98.5929 97.2092Z" fill="#01101E"/>
<path d="M140.794 300.456H17.395C14.4961 300.456 11.716 299.248 9.66619 297.098C7.6164 294.947 6.46484 292.031 6.46484 288.99V208.392C6.47133 205.353 7.62501 202.44 9.67339 200.292C11.7218 198.143 14.4981 196.933 17.395 196.926H140.794C143.691 196.933 146.468 198.143 148.516 200.292C150.564 202.44 151.718 205.353 151.725 208.392V288.99C151.725 292.031 150.573 294.947 148.523 297.098C146.473 299.248 143.693 300.456 140.794 300.456Z" fill="#FF8F62"/>
<path d="M49.6709 238.899H25.3546C24.41 238.899 23.5041 238.505 22.8362 237.805C22.1683 237.104 21.7931 236.154 21.7931 235.163V219.445C21.7898 218.952 21.8796 218.464 22.0571 218.007C22.2347 217.551 22.4964 217.136 22.8275 216.786C23.1585 216.437 23.5522 216.159 23.9859 215.97C24.4196 215.781 24.8848 215.683 25.3546 215.683H49.5973C50.067 215.683 50.5322 215.781 50.9659 215.97C51.3996 216.159 51.7933 216.437 52.1244 216.786C52.4554 217.136 52.7172 217.551 52.8947 218.007C53.0722 218.464 53.162 218.952 53.1588 219.445V235.163C53.159 236.14 52.7939 237.079 52.1418 237.778C51.4898 238.476 50.6027 238.879 49.6709 238.899ZM25.3546 218.775C25.1895 218.782 25.0333 218.855 24.9188 218.98C24.8043 219.105 24.7404 219.272 24.7405 219.445V235.163C24.7405 235.333 24.8052 235.497 24.9203 235.618C25.0355 235.739 25.1917 235.807 25.3546 235.807H49.5973C49.7601 235.807 49.9163 235.739 50.0315 235.618C50.1466 235.497 50.2113 235.333 50.2113 235.163V219.445C50.2114 219.272 50.1476 219.105 50.0331 218.98C49.9186 218.855 49.7623 218.782 49.5973 218.775H25.3546Z" fill="#01101E"/>
<path d="M123.258 258.276H23.3395C22.9486 258.276 22.5738 258.113 22.2974 257.823C22.021 257.533 21.8657 257.14 21.8657 256.73C21.8657 256.32 22.021 255.927 22.2974 255.637C22.5738 255.347 22.9486 255.184 23.3395 255.184H123.258C123.649 255.184 124.023 255.347 124.3 255.637C124.576 255.927 124.731 256.32 124.731 256.73C124.731 257.14 124.576 257.533 124.3 257.823C124.023 258.113 123.649 258.276 123.258 258.276Z" fill="#01101E"/>
<path d="M103.805 273.684H23.3397C22.9488 273.684 22.574 273.521 22.2976 273.232C22.0212 272.942 21.8659 272.548 21.8659 272.138C21.8626 271.934 21.8985 271.732 21.9714 271.543C22.0443 271.353 22.1527 271.182 22.2902 271.037C22.4277 270.893 22.5915 270.779 22.7718 270.703C22.9521 270.627 23.1452 270.589 23.3397 270.592H103.805C104.196 270.592 104.571 270.755 104.847 271.045C105.123 271.335 105.279 271.728 105.279 272.138C105.279 272.548 105.123 272.942 104.847 273.232C104.571 273.521 104.196 273.684 103.805 273.684Z" fill="#01101E"/>
<path d="M31.9592 70.3088C38.1416 70.3241 44.1893 68.4149 49.3369 64.8229C54.4844 61.2308 58.5003 56.1173 60.8763 50.1298C63.2523 44.1423 63.8816 37.55 62.6844 31.1872C61.4873 24.8243 58.5174 18.9771 54.151 14.3857C49.7846 9.79432 44.2178 6.66516 38.1553 5.39425C32.0927 4.12334 25.807 4.76784 20.0939 7.24622C14.3807 9.7246 9.49686 13.9254 6.06058 19.3169C2.62431 24.7084 0.790056 31.0481 0.790039 37.5337C0.790016 46.2128 4.07157 54.5377 9.91481 60.6819C15.7581 66.8262 23.6859 70.2883 31.9592 70.3088Z" fill="#FC3637"/>
<path d="M41.1205 69.0981C34.6497 69.0981 28.3243 67.0852 22.9441 63.3139C17.5639 59.5427 13.3705 54.1825 10.8942 47.9111C8.418 41.6397 7.77008 34.7389 9.03246 28.0813C10.2948 21.4236 13.4108 15.3083 17.9863 10.5084C22.5618 5.70851 28.3914 2.4397 34.7378 1.11541C41.0842 -0.208875 47.6623 0.470824 53.6405 3.0685C59.6187 5.66618 64.7283 10.0652 68.3233 15.7093C71.9182 21.3533 73.837 27.989 73.837 34.7771C73.8305 43.8775 70.3815 52.6031 64.2473 59.0381C58.1132 65.4731 49.7954 69.0912 41.1205 69.0981ZM41.1205 3.57372C35.2306 3.56863 29.4716 5.3965 24.5724 8.82603C19.6731 12.2556 15.8537 17.1326 13.5975 22.8401C11.3413 28.5475 10.7497 34.8287 11.8975 40.889C13.0454 46.9492 15.8812 52.516 20.0459 56.885C24.2107 61.2541 29.5173 64.2289 35.2943 65.433C41.0712 66.6372 47.0588 66.0166 52.4994 63.6497C57.94 61.2829 62.589 57.2762 65.8582 52.1366C69.1274 46.9971 70.8699 40.9558 70.865 34.7771C70.8585 26.5035 67.7226 18.5708 62.1458 12.7205C56.569 6.87023 49.0072 3.58055 41.1205 3.57372Z" fill="#01101E"/>
<path d="M336.135 39.4667L311.573 64.9499C311.13 65.3973 310.808 65.9606 310.641 66.5817C310.474 67.2028 310.468 67.8593 310.623 68.4838C310.778 69.1083 311.088 69.6783 311.523 70.135C311.958 70.5917 312.501 70.9187 313.096 71.0823L346.377 80.5902C346.968 80.7607 347.591 80.7648 348.184 80.6023C348.777 80.4398 349.319 80.1163 349.754 79.6644C350.19 79.2125 350.505 78.6481 350.666 78.0281C350.828 77.4081 350.831 76.7543 350.676 76.1326L341.907 41.1415C341.741 40.5358 341.429 39.9849 341.002 39.5415C340.575 39.0981 340.047 38.7771 339.468 38.6091C338.889 38.441 338.278 38.4316 337.695 38.5818C337.111 38.732 336.574 39.0366 336.135 39.4667Z" fill="black"/>
</svg>
