<svg width="24" height="25" viewBox="0 0 24 25" fill="none" xmlns="http://www.w3.org/2000/svg">
<g clip-path="url(#clip0_129_6644)">
<path d="M20.7752 21.2227L19.4957 7.17518C19.4612 6.78818 19.1372 6.49268 18.7487 6.49268H16.4987V4.99268C16.4987 3.78668 16.0307 2.65568 15.1832 1.80818C14.3492 0.972676 13.1882 0.492676 11.9987 0.492676C9.51773 0.492676 7.49872 2.51168 7.49872 4.99268V6.49268H5.24872C4.86022 6.49268 4.53622 6.78818 4.50172 7.17518L3.22522 21.2212C3.14872 22.0597 3.43072 22.8952 3.99772 23.5162C4.56472 24.1372 5.37172 24.4927 6.21322 24.4927H17.7857C18.6257 24.4927 19.4327 24.1372 19.9997 23.5177C20.5682 22.8967 20.8487 22.0597 20.7752 21.2227ZM14.9987 6.49268H8.99872V4.99268C8.99872 3.33818 10.3442 1.99268 11.9987 1.99268C12.7937 1.99268 13.5677 2.31068 14.1227 2.86718C14.6882 3.43268 14.9987 4.18718 14.9987 4.99268V6.49268Z" fill="#FF5714"/>
</g>
<defs>
<clipPath id="clip0_129_6644">
<rect width="24" height="24" fill="white" transform="translate(0 0.492676)"/>
</clipPath>
</defs>
</svg>
