<svg width="25" height="25" viewBox="0 0 25 25" fill="none" xmlns="http://www.w3.org/2000/svg">
<path d="M13.0427 15.5618C13.563 15.2571 13.7625 14.5497 13.4447 14.0275C13.4005 13.9552 13.3545 13.8839 13.3076 13.8132C13.4257 13.692 13.5432 13.5705 13.6613 13.4496C14.0009 13.101 14.0086 12.533 13.6613 12.1849C13.4895 12.0135 13.2565 11.9263 13.0242 11.9263C12.9539 11.9263 12.8842 11.937 12.8159 11.9532C12.8044 11.9314 12.7928 11.9097 12.7788 11.8885C12.3321 11.2044 11.7858 10.6111 11.2277 10.0189C10.7627 9.52591 10.281 9.05047 9.79773 8.5749C8.71584 7.50789 7.57519 6.49807 6.42113 5.5113C6.2027 5.32433 5.97381 5.20312 5.67755 5.20312C5.40032 5.20312 5.13059 5.31509 4.93451 5.5113C4.73843 5.70737 4.62634 5.9771 4.62634 6.25434C4.62634 6.45175 4.68741 6.67807 4.80567 6.85166C4.66852 6.9043 4.51973 7.00943 4.46348 7.14081C4.43254 7.2122 4.40187 7.28438 4.37241 7.3559C4.33933 7.47778 4.33933 7.59898 4.37241 7.72074C4.43053 7.93208 4.57424 8.09051 4.72103 8.24373C4.8338 8.36145 4.95004 8.47489 5.06416 8.58967C5.29036 8.81802 5.52071 9.04142 5.75042 9.26613C6.18609 9.69203 6.62364 10.1171 7.05167 10.5517C7.50904 11.0167 7.96908 11.4804 8.41788 11.9545C8.8182 12.3759 9.21328 12.799 9.64682 13.1841C9.65352 13.1916 9.66021 13.1991 9.66718 13.2063C9.5212 13.3516 9.37615 13.4977 9.23285 13.6455C8.90512 13.9838 8.57741 14.3213 8.24967 14.6594C7.95556 14.962 7.67617 15.2799 7.38971 15.5894C6.88547 16.1349 6.40589 16.7049 5.9205 17.2673C5.6501 17.5803 5.38829 17.901 5.12562 18.2211C4.86928 18.5349 4.6159 18.857 4.41567 19.2107C4.38125 19.271 4.35192 19.3333 4.32125 19.3957C4.25803 19.5042 4.22656 19.6211 4.22656 19.7464C4.22656 19.93 4.30009 20.1085 4.42973 20.2379C4.50581 20.314 4.59527 20.3658 4.68995 20.3982C4.71553 20.5098 4.77085 20.6139 4.85241 20.6954C5.04888 20.8911 5.39738 20.9368 5.62785 20.7761C5.65035 20.7939 5.67312 20.8111 5.69736 20.8253C5.79968 20.8848 5.9095 20.9143 6.02776 20.9149C6.2174 20.9149 6.34624 20.8358 6.48993 20.7232C6.62506 20.6174 6.76663 20.511 6.87925 20.38C6.97527 20.2679 7.07049 20.1565 7.16358 20.0425C7.34773 19.8163 7.53122 19.5887 7.71883 19.3654C7.74843 19.33 7.7783 19.2945 7.80816 19.2592C8.00611 19.2467 8.20177 19.168 8.35729 19.0236C8.75987 18.649 9.1247 18.2358 9.49742 17.8316C9.91687 17.3759 10.3378 16.922 10.76 16.4682C11.0829 16.1209 11.4122 15.7791 11.7402 15.4364C12.0899 15.7532 12.6386 15.7978 13.0426 15.5618L13.0427 15.5618Z" fill="#FF5714"/>
<path d="M21.5065 11.8661C21.5065 11.626 21.4099 11.3927 21.2403 11.2232C21.2342 11.2171 21.2266 11.2129 21.2201 11.2072C21.22 11.206 21.2197 11.2049 21.2196 11.2037C21.1754 11.0455 21.095 10.9074 20.9787 10.7905C20.7237 10.4628 20.4592 10.1503 20.174 9.84858C19.9094 9.56707 19.6272 9.30094 19.3498 9.03204C18.8247 8.52444 18.284 8.03213 17.7384 7.54678C16.5108 6.45378 15.2579 5.38853 14.0036 4.32618C13.7796 4.13574 13.5484 4.01172 13.2452 4.01172C12.9622 4.01172 12.6871 4.12583 12.4868 4.32618C12.3636 4.4494 12.2734 4.60114 12.2221 4.76545C11.9687 4.7751 11.7247 4.87782 11.5443 5.05782C11.3552 5.24692 11.248 5.50593 11.248 5.77285C11.248 6.05932 11.365 6.2763 11.5443 6.48856C11.5451 6.48936 11.5458 6.4903 11.5466 6.49124C11.5938 6.71785 11.7082 6.91861 11.8704 7.09552C12.7818 8.09221 13.6965 9.08584 14.6168 10.0744C15.4651 11.0494 16.3211 12.0174 17.1876 12.9759C15.9439 14.7063 14.7068 16.4415 13.491 18.1911C13.3189 18.439 13.1497 18.6883 12.9816 18.9385C12.8448 19.085 12.7066 19.2307 12.5635 19.3708C12.2931 19.6342 11.9739 19.8763 11.7842 20.2069C11.5993 20.5283 11.7064 20.9486 12.0278 21.1362C12.1517 21.2088 12.3015 21.2345 12.447 21.2194C12.5125 21.3409 12.6078 21.4464 12.722 21.5134C12.8354 21.5792 12.9572 21.6121 13.0882 21.6121C13.2927 21.6121 13.4503 21.5288 13.6015 21.3999C13.6622 21.3485 13.7227 21.2973 13.7817 21.2444C13.8592 21.2452 13.9368 21.2392 14.0123 21.2187C14.2248 21.1599 14.3704 21.0321 14.4954 20.8614C14.5406 20.8083 14.5835 20.7534 14.6256 20.6979C15.2726 19.898 15.879 19.0658 16.4976 18.2443C16.5813 18.1358 16.6645 18.0269 16.7478 17.9181C17.2137 17.3934 17.6769 16.866 18.1534 16.35C18.5923 15.874 19.0314 15.3981 19.4703 14.9223C19.609 14.9103 19.7452 14.8718 19.865 14.8018C20.0758 14.6786 20.2333 14.4741 20.2985 14.2381C20.3189 14.1638 20.3299 14.0806 20.3316 13.9956C20.5088 13.8083 20.6868 13.6218 20.8642 13.4347C21.0507 13.2371 21.1175 12.965 21.0583 12.717C21.1191 12.6482 21.1784 12.5783 21.2398 12.5098C21.404 12.3255 21.5063 12.1183 21.5063 11.8662L21.5065 11.8661Z" fill="#FF5714"/>
</svg>
