<svg width="1441" height="501" viewBox="0 0 1441 501" fill="none" xmlns="http://www.w3.org/2000/svg">
<rect x="0.964844" y="0.835938" width="1440" height="500" fill="url(#paint0_linear_72_2055)"/>
<g clip-path="url(#clip0_72_2055)">
<path d="M286.639 334.634H122.422V313.293C122.422 287.805 143.084 267.143 168.572 267.143H206.538L216.466 300.693C217.373 303.759 220.19 305.862 223.387 305.862H251.078C255.064 305.862 258.296 302.631 258.296 298.645V259.636C258.296 242.18 272.447 228.029 289.903 228.029L300.571 278.601H312.818C328.966 278.601 335.314 290.533 335.314 306.68L332.197 306.924H318.273L286.639 334.634Z" fill="#FF3F5C"/>
<path d="M312.816 278.6H300.568L289.901 228.029C272.445 228.029 258.294 242.18 258.294 259.636V298.645C258.294 302.631 255.062 305.862 251.076 305.862H232.236V334.635H286.637L318.27 306.924H335.958C339.454 306.924 342.091 303.671 341.281 300.27C338.25 287.546 326.656 278.6 312.816 278.6Z" fill="#CD2F44"/>
<path d="M337.716 306.923C340.176 306.923 342.078 304.725 341.685 302.296C339.457 288.505 327.38 278.6 312.816 278.6H300.568V322.43L318.271 306.923H337.716Z" fill="#AE0551"/>
<path d="M190.434 334.635C190.434 350.073 177.919 362.589 162.48 362.589C147.041 362.589 134.525 350.073 134.525 334.635" fill="#E3DFF6"/>
<path d="M162.479 369.444C143.285 369.444 127.67 353.829 127.67 334.635C127.67 330.849 130.739 327.78 134.525 327.78C138.311 327.78 141.38 330.849 141.38 334.635C141.38 346.269 150.845 355.734 162.479 355.734C174.114 355.734 183.579 346.269 183.579 334.635C183.579 330.849 186.648 327.78 190.434 327.78C194.22 327.78 197.289 330.849 197.289 334.635C197.289 353.829 181.674 369.444 162.479 369.444V369.444Z" fill="#00485B"/>
<path d="M211.934 267.143H136.206C128.351 267.143 121.982 260.776 121.982 252.92C121.982 245.065 128.35 238.696 136.206 238.696H197.97C209.681 238.696 219.175 248.19 219.175 259.902C219.175 263.901 215.933 267.143 211.934 267.143V267.143Z" fill="#00485B"/>
<path d="M122.058 338.221C119.323 338.221 117.201 335.859 117.459 333.136C119.691 309.588 137.366 291.639 161.646 291.639C185.912 291.639 205.027 309.568 207.468 333.097C207.752 335.833 205.623 338.221 202.873 338.221H122.058Z" fill="#FF7D43"/>
<path d="M183.754 211.971H122.273C118.487 211.971 115.418 208.902 115.418 205.116C115.418 201.33 118.487 198.261 122.273 198.261H183.754C187.54 198.261 190.609 201.33 190.609 205.116C190.609 208.902 187.54 211.971 183.754 211.971Z" fill="#F6EFEA"/>
<path d="M207.06 183.881H145.048C141.263 183.881 138.193 180.812 138.193 177.026C138.193 173.241 141.263 170.171 145.048 170.171H207.06C210.845 170.171 213.914 173.241 213.914 177.026C213.914 180.812 210.845 183.881 207.06 183.881Z" fill="#E3DFF6"/>
<path d="M262.5 222.259H238.794C235.009 222.259 231.939 219.19 231.939 215.404C231.939 211.618 235.009 208.549 238.794 208.549H262.5C266.286 208.549 269.355 211.618 269.355 215.404C269.355 219.19 266.286 222.259 262.5 222.259Z" fill="#CD2F44"/>
<path d="M293.457 195.987H259.001C255.696 195.987 253.018 198.666 253.018 201.971V228.839C253.018 232.144 255.696 234.823 259.001 234.823H293.457C304.164 234.823 312.875 226.113 312.875 215.406C312.875 204.699 304.164 195.987 293.457 195.987V195.987Z" fill="#FF3F5C"/>
<path d="M314.591 362.589C330.03 362.589 342.546 350.073 342.546 334.634C342.546 319.195 330.03 306.68 314.591 306.68C299.153 306.68 286.637 319.195 286.637 334.634C286.637 350.073 299.153 362.589 314.591 362.589Z" fill="#B7B3E2"/>
<path d="M314.591 369.443C295.397 369.443 279.781 353.828 279.781 334.634C279.781 315.44 295.397 299.825 314.591 299.825C333.785 299.825 349.4 315.44 349.4 334.634C349.4 353.828 333.785 369.443 314.591 369.443ZM314.591 313.535C302.956 313.535 293.491 322.999 293.491 334.634C293.491 346.268 302.956 355.733 314.591 355.733C326.225 355.733 335.69 346.268 335.69 334.634C335.69 322.999 326.225 313.535 314.591 313.535Z" fill="#00303D"/>
<path d="M314.588 341.534C318.399 341.534 321.488 338.444 321.488 334.634C321.488 330.823 318.399 327.733 314.588 327.733C310.777 327.733 307.688 330.823 307.688 334.634C307.688 338.444 310.777 341.534 314.588 341.534Z" fill="#00303D"/>
</g>
<path d="M452.119 163.873H445.409V150.187H432.834V163.873H426.124V132.146H432.834V144.588H445.409V132.146H452.119V163.873ZM468.998 139.123C472.257 139.123 474.745 139.833 476.464 141.255C478.211 142.648 479.085 144.795 479.085 147.699V163.873H474.464L473.175 160.585H472.998C472.316 161.444 471.605 162.155 470.865 162.718C470.154 163.281 469.324 163.68 468.376 163.917C467.458 164.184 466.317 164.317 464.955 164.317C463.533 164.317 462.244 164.051 461.089 163.518C459.963 162.955 459.075 162.11 458.423 160.985C457.771 159.829 457.445 158.378 457.445 156.63C457.445 154.053 458.349 152.157 460.156 150.942C461.963 149.698 464.673 149.017 468.287 148.898L472.509 148.765V147.699C472.509 146.425 472.168 145.492 471.487 144.899C470.835 144.307 469.917 144.01 468.732 144.01C467.547 144.01 466.392 144.188 465.266 144.544C464.14 144.87 463.014 145.284 461.889 145.788L459.711 141.3C461.015 140.619 462.452 140.085 464.022 139.7C465.621 139.315 467.28 139.123 468.998 139.123ZM469.932 152.72C467.799 152.779 466.317 153.164 465.488 153.875C464.659 154.586 464.244 155.519 464.244 156.675C464.244 157.682 464.54 158.407 465.133 158.852C465.725 159.267 466.495 159.474 467.443 159.474C468.865 159.474 470.065 159.059 471.042 158.23C472.02 157.371 472.509 156.171 472.509 154.63V152.631L469.932 152.72ZM501.224 148.498C501.224 149.535 501.476 150.32 501.98 150.853C502.513 151.387 503.239 151.653 504.157 151.653C505.431 151.653 506.616 151.52 507.712 151.253C508.808 150.957 509.904 150.572 511 150.098V139.611H517.621V163.873H511V154.231C509.963 154.793 508.779 155.312 507.445 155.786C506.112 156.23 504.602 156.452 502.913 156.452C500.395 156.452 498.381 155.801 496.87 154.497C495.359 153.194 494.604 151.239 494.604 148.632V139.611H501.224V148.498ZM534.039 139.167C536.29 139.167 538.216 139.597 539.815 140.456C541.445 141.315 542.704 142.559 543.592 144.188C544.481 145.817 544.925 147.817 544.925 150.187V153.386H529.284C529.343 155.253 529.891 156.719 530.928 157.785C531.995 158.852 533.461 159.385 535.327 159.385C536.897 159.385 538.319 159.237 539.593 158.941C540.867 158.615 542.185 158.126 543.548 157.474V162.584C542.363 163.177 541.104 163.606 539.771 163.873C538.467 164.169 536.882 164.317 535.016 164.317C532.587 164.317 530.439 163.873 528.573 162.984C526.707 162.066 525.24 160.689 524.174 158.852C523.108 157.015 522.574 154.705 522.574 151.92C522.574 149.076 523.048 146.721 523.996 144.855C524.974 142.959 526.322 141.537 528.04 140.589C529.758 139.641 531.758 139.167 534.039 139.167ZM534.083 143.877C532.809 143.877 531.743 144.292 530.884 145.121C530.054 145.951 529.565 147.239 529.417 148.987H538.704C538.704 148.01 538.527 147.136 538.171 146.366C537.845 145.595 537.342 144.988 536.66 144.544C535.979 144.099 535.12 143.877 534.083 143.877ZM569.855 144.588H561.901V163.873H555.28V144.588H547.327V139.611H569.855V144.588ZM595.315 145.966C595.315 147.269 594.9 148.38 594.07 149.298C593.271 150.217 592.071 150.809 590.471 151.076V151.253C592.16 151.461 593.508 152.038 594.515 152.986C595.552 153.934 596.07 155.149 596.07 156.63C596.07 157.667 595.863 158.63 595.448 159.518C595.063 160.407 594.441 161.177 593.582 161.829C592.723 162.481 591.612 162.984 590.249 163.34C588.916 163.695 587.287 163.873 585.361 163.873H573.808V139.611H585.361C587.257 139.611 588.946 139.819 590.427 140.233C591.938 140.619 593.123 141.27 593.982 142.189C594.87 143.107 595.315 144.366 595.315 145.966ZM589.227 156.275C589.227 155.327 588.857 154.645 588.116 154.231C587.376 153.786 586.265 153.564 584.783 153.564H580.429V159.296H584.917C586.161 159.296 587.183 159.074 587.983 158.63C588.812 158.156 589.227 157.371 589.227 156.275ZM588.605 146.499C588.605 145.729 588.309 145.166 587.716 144.81C587.124 144.455 586.25 144.277 585.095 144.277H580.429V149.076H584.339C585.731 149.076 586.783 148.884 587.494 148.498C588.235 148.084 588.605 147.417 588.605 146.499ZM611.228 139.167C613.479 139.167 615.405 139.597 617.005 140.456C618.634 141.315 619.893 142.559 620.782 144.188C621.67 145.817 622.115 147.817 622.115 150.187V153.386H606.473C606.533 155.253 607.081 156.719 608.118 157.785C609.184 158.852 610.65 159.385 612.517 159.385C614.087 159.385 615.509 159.237 616.783 158.941C618.056 158.615 619.375 158.126 620.737 157.474V162.584C619.552 163.177 618.293 163.606 616.96 163.873C615.657 164.169 614.072 164.317 612.206 164.317C609.777 164.317 607.629 163.873 605.763 162.984C603.896 162.066 602.43 160.689 601.363 158.852C600.297 157.015 599.764 154.705 599.764 151.92C599.764 149.076 600.238 146.721 601.186 144.855C602.163 142.959 603.511 141.537 605.229 140.589C606.947 139.641 608.947 139.167 611.228 139.167ZM611.273 143.877C609.999 143.877 608.932 144.292 608.073 145.121C607.244 145.951 606.755 147.239 606.607 148.987H615.894C615.894 148.01 615.716 147.136 615.361 146.366C615.035 145.595 614.531 144.988 613.85 144.544C613.168 144.099 612.309 143.877 611.273 143.877ZM640.468 139.167C643.194 139.167 645.401 140.233 647.089 142.366C648.778 144.47 649.622 147.58 649.622 151.698C649.622 154.453 649.222 156.778 648.422 158.674C647.622 160.54 646.526 161.948 645.134 162.895C643.742 163.843 642.127 164.317 640.291 164.317C639.135 164.317 638.128 164.169 637.269 163.873C636.439 163.577 635.729 163.192 635.136 162.718C634.544 162.244 634.025 161.74 633.581 161.207H633.225C633.344 161.77 633.433 162.362 633.492 162.984C633.551 163.577 633.581 164.169 633.581 164.762V174.538H626.96V139.611H632.337L633.27 142.766H633.581C634.025 142.115 634.558 141.522 635.18 140.989C635.803 140.426 636.543 139.982 637.402 139.656C638.291 139.33 639.313 139.167 640.468 139.167ZM638.335 144.455C637.18 144.455 636.262 144.692 635.58 145.166C634.899 145.64 634.395 146.366 634.07 147.343C633.773 148.291 633.61 149.491 633.581 150.942V151.653C633.581 153.223 633.729 154.556 634.025 155.652C634.321 156.719 634.825 157.534 635.536 158.096C636.247 158.659 637.21 158.941 638.424 158.941C639.431 158.941 640.261 158.659 640.913 158.096C641.564 157.534 642.053 156.704 642.379 155.608C642.705 154.512 642.868 153.179 642.868 151.609C642.868 149.239 642.498 147.462 641.757 146.277C641.046 145.062 639.905 144.455 638.335 144.455ZM674.207 144.588H666.253V163.873H659.632V144.588H651.678V139.611H674.207V144.588ZM678.159 163.873V139.611H684.78V148.987H687.979C690.468 148.987 692.512 149.254 694.112 149.787C695.711 150.291 696.896 151.076 697.666 152.142C698.466 153.209 698.866 154.542 698.866 156.141C698.866 157.711 698.496 159.074 697.755 160.229C697.044 161.385 695.904 162.288 694.334 162.94C692.793 163.562 690.749 163.873 688.202 163.873H678.159ZM687.846 159.296C689.15 159.296 690.201 159.059 691.001 158.585C691.831 158.111 692.245 157.326 692.245 156.23C692.245 155.282 691.86 154.601 691.09 154.186C690.349 153.771 689.238 153.564 687.757 153.564H684.78V159.296H687.846ZM702.377 163.873V139.611H708.997V163.873H702.377ZM738.628 129.169C738.48 130.709 738.05 132.072 737.34 133.257C736.629 134.412 735.518 135.316 734.007 135.968C732.496 136.619 730.467 136.945 727.919 136.945C725.312 136.945 723.268 136.634 721.787 136.012C720.336 135.36 719.299 134.457 718.677 133.301C718.055 132.146 717.684 130.769 717.566 129.169H723.476C723.624 130.798 724.039 131.88 724.72 132.413C725.401 132.946 726.512 133.213 728.053 133.213C729.326 133.213 730.363 132.931 731.163 132.368C731.992 131.776 732.481 130.709 732.629 129.169H738.628ZM721.787 149.209C721.787 149.713 721.758 150.335 721.698 151.076C721.669 151.816 721.624 152.572 721.565 153.342C721.535 154.112 721.491 154.793 721.432 155.386C721.372 155.978 721.328 156.393 721.298 156.63L732.496 139.611H740.45V163.873H734.051V154.186C734.051 153.386 734.081 152.512 734.14 151.564C734.199 150.587 734.259 149.683 734.318 148.854C734.407 147.995 734.466 147.343 734.496 146.899L723.342 163.873H715.388V139.611H721.787V149.209ZM434.434 206.167C436.181 206.167 437.811 206.404 439.321 206.878C440.862 207.322 442.091 208.018 443.01 208.966C443.958 209.914 444.432 211.129 444.432 212.61C444.432 214.062 443.987 215.217 443.099 216.076C442.239 216.935 441.069 217.557 439.588 217.942V218.165C440.625 218.402 441.558 218.742 442.388 219.187C443.217 219.601 443.869 220.179 444.343 220.92C444.846 221.63 445.098 222.593 445.098 223.808C445.098 225.141 444.669 226.385 443.809 227.54C442.98 228.666 441.677 229.584 439.899 230.295C438.151 230.977 435.9 231.317 433.145 231.317C431.842 231.317 430.612 231.258 429.457 231.14C428.302 231.021 427.25 230.858 426.302 230.651C425.354 230.414 424.525 230.132 423.814 229.807V224.341C424.821 224.815 426.05 225.245 427.502 225.63C428.983 226.015 430.553 226.207 432.212 226.207C433.426 226.207 434.508 226.118 435.456 225.941C436.433 225.763 437.203 225.467 437.766 225.052C438.359 224.637 438.655 224.089 438.655 223.408C438.655 222.756 438.403 222.223 437.9 221.808C437.396 221.364 436.641 221.038 435.633 220.831C434.626 220.623 433.338 220.52 431.767 220.52H429.19V215.943H431.634C433.826 215.943 435.515 215.765 436.7 215.41C437.914 215.054 438.522 214.388 438.522 213.41C438.522 212.64 438.137 212.062 437.366 211.677C436.596 211.262 435.337 211.055 433.589 211.055C432.434 211.055 431.175 211.188 429.812 211.455C428.45 211.721 427.161 212.106 425.946 212.61L423.991 207.989C425.384 207.456 426.909 207.026 428.568 206.7C430.227 206.345 432.182 206.167 434.434 206.167ZM459.669 206.123C462.927 206.123 465.416 206.833 467.134 208.255C468.882 209.648 469.756 211.795 469.756 214.699V230.873H465.134L463.846 227.585H463.668C462.987 228.444 462.276 229.155 461.535 229.718C460.824 230.281 459.995 230.68 459.047 230.917C458.128 231.184 456.988 231.317 455.625 231.317C454.203 231.317 452.915 231.051 451.759 230.518C450.634 229.955 449.745 229.11 449.093 227.985C448.441 226.829 448.116 225.378 448.116 223.63C448.116 221.053 449.019 219.157 450.826 217.942C452.633 216.698 455.344 216.017 458.958 215.898L463.179 215.765V214.699C463.179 213.425 462.838 212.492 462.157 211.899C461.505 211.307 460.587 211.01 459.402 211.01C458.217 211.01 457.062 211.188 455.936 211.544C454.81 211.87 453.685 212.284 452.559 212.788L450.382 208.3C451.685 207.619 453.122 207.085 454.692 206.7C456.292 206.315 457.951 206.123 459.669 206.123ZM460.602 219.72C458.469 219.779 456.988 220.164 456.158 220.875C455.329 221.586 454.914 222.519 454.914 223.675C454.914 224.682 455.21 225.407 455.803 225.852C456.395 226.267 457.166 226.474 458.113 226.474C459.535 226.474 460.735 226.059 461.713 225.23C462.69 224.371 463.179 223.171 463.179 221.63V219.631L460.602 219.72ZM491.917 206.611H499.204L489.606 218.253L500.049 230.873H492.539L482.63 218.564V230.873H476.009V206.611H482.63V218.387L491.917 206.611ZM512.951 206.123C516.21 206.123 518.698 206.833 520.416 208.255C522.164 209.648 523.038 211.795 523.038 214.699V230.873H518.416L517.128 227.585H516.95C516.269 228.444 515.558 229.155 514.817 229.718C514.106 230.281 513.277 230.68 512.329 230.917C511.41 231.184 510.27 231.317 508.907 231.317C507.485 231.317 506.197 231.051 505.041 230.518C503.916 229.955 503.027 229.11 502.375 227.985C501.724 226.829 501.398 225.378 501.398 223.63C501.398 221.053 502.301 219.157 504.108 217.942C505.915 216.698 508.626 216.017 512.24 215.898L516.461 215.765V214.699C516.461 213.425 516.121 212.492 515.439 211.899C514.788 211.307 513.869 211.01 512.684 211.01C511.499 211.01 510.344 211.188 509.218 211.544C508.093 211.87 506.967 212.284 505.841 212.788L503.664 208.3C504.967 207.619 506.404 207.085 507.974 206.7C509.574 206.315 511.233 206.123 512.951 206.123ZM513.884 219.72C511.751 219.779 510.27 220.164 509.441 220.875C508.611 221.586 508.196 222.519 508.196 223.675C508.196 224.682 508.493 225.407 509.085 225.852C509.678 226.267 510.448 226.474 511.396 226.474C512.818 226.474 514.017 226.059 514.995 225.23C515.973 224.371 516.461 223.171 516.461 221.63V219.631L513.884 219.72ZM538.134 206.167C539.882 206.167 541.511 206.404 543.022 206.878C544.562 207.322 545.792 208.018 546.71 208.966C547.658 209.914 548.132 211.129 548.132 212.61C548.132 214.062 547.688 215.217 546.799 216.076C545.94 216.935 544.77 217.557 543.288 217.942V218.165C544.325 218.402 545.258 218.742 546.088 219.187C546.917 219.601 547.569 220.179 548.043 220.92C548.547 221.63 548.798 222.593 548.798 223.808C548.798 225.141 548.369 226.385 547.51 227.54C546.68 228.666 545.377 229.584 543.6 230.295C541.852 230.977 539.6 231.317 536.845 231.317C535.542 231.317 534.313 231.258 533.157 231.14C532.002 231.021 530.95 230.858 530.002 230.651C529.054 230.414 528.225 230.132 527.514 229.807V224.341C528.521 224.815 529.75 225.245 531.202 225.63C532.683 226.015 534.253 226.207 535.912 226.207C537.127 226.207 538.208 226.118 539.156 225.941C540.134 225.763 540.904 225.467 541.467 225.052C542.059 224.637 542.355 224.089 542.355 223.408C542.355 222.756 542.104 222.223 541.6 221.808C541.096 221.364 540.341 221.038 539.334 220.831C538.327 220.623 537.038 220.52 535.468 220.52H532.891V215.943H535.335C537.527 215.943 539.215 215.765 540.4 215.41C541.615 215.054 542.222 214.388 542.222 213.41C542.222 212.64 541.837 212.062 541.067 211.677C540.296 211.262 539.037 211.055 537.29 211.055C536.134 211.055 534.875 211.188 533.513 211.455C532.15 211.721 530.861 212.106 529.647 212.61L527.692 207.989C529.084 207.456 530.61 207.026 532.269 206.7C533.927 206.345 535.883 206.167 538.134 206.167ZM585.298 206.611V226.03H588.853V239.582H582.898V230.873H566.591V239.582H560.636V226.03H562.68C563.747 224.4 564.65 222.549 565.391 220.475C566.131 218.372 566.724 216.135 567.168 213.765C567.613 211.396 567.939 209.011 568.146 206.611H585.298ZM573.7 211.588C573.463 213.366 573.167 215.098 572.812 216.787C572.456 218.446 572.012 220.046 571.479 221.586C570.975 223.126 570.353 224.608 569.612 226.03H578.677V211.588H573.7ZM614.505 218.698C614.505 220.712 614.223 222.504 613.66 224.074C613.127 225.644 612.342 226.978 611.305 228.074C610.298 229.14 609.069 229.955 607.617 230.518C606.165 231.051 604.521 231.317 602.685 231.317C600.996 231.317 599.426 231.051 597.975 230.518C596.553 229.955 595.323 229.14 594.286 228.074C593.25 226.978 592.435 225.644 591.842 224.074C591.28 222.504 590.998 220.712 590.998 218.698C590.998 216.002 591.472 213.736 592.42 211.899C593.368 210.033 594.731 208.611 596.508 207.633C598.286 206.656 600.389 206.167 602.818 206.167C605.099 206.167 607.113 206.656 608.861 207.633C610.609 208.611 611.987 210.033 612.994 211.899C614.001 213.736 614.505 216.002 614.505 218.698ZM597.752 218.698C597.752 220.297 597.915 221.645 598.241 222.741C598.597 223.808 599.145 224.622 599.885 225.185C600.626 225.719 601.589 225.985 602.774 225.985C603.959 225.985 604.906 225.719 605.617 225.185C606.358 224.622 606.891 223.808 607.217 222.741C607.573 221.645 607.75 220.297 607.75 218.698C607.75 217.098 607.573 215.765 607.217 214.699C606.891 213.632 606.358 212.832 605.617 212.299C604.877 211.766 603.914 211.499 602.729 211.499C600.981 211.499 599.708 212.106 598.908 213.321C598.137 214.506 597.752 216.298 597.752 218.698ZM629.317 231.317C626.918 231.317 624.874 230.888 623.185 230.029C621.497 229.14 620.208 227.777 619.319 225.941C618.431 224.104 617.986 221.749 617.986 218.875C617.986 215.913 618.49 213.499 619.497 211.633C620.504 209.766 621.897 208.389 623.674 207.5C625.481 206.611 627.555 206.167 629.895 206.167C631.554 206.167 632.991 206.33 634.205 206.656C635.45 206.982 636.531 207.367 637.449 207.811L635.494 212.921C634.457 212.506 633.48 212.166 632.561 211.899C631.673 211.633 630.784 211.499 629.895 211.499C628.74 211.499 627.777 211.781 627.007 212.343C626.237 212.877 625.659 213.691 625.274 214.787C624.918 215.854 624.741 217.202 624.741 218.831C624.741 220.431 624.933 221.764 625.318 222.83C625.733 223.867 626.325 224.652 627.096 225.185C627.866 225.689 628.799 225.941 629.895 225.941C631.287 225.941 632.517 225.763 633.583 225.407C634.65 225.022 635.687 224.504 636.694 223.852V229.496C635.687 230.147 634.62 230.606 633.494 230.873C632.398 231.169 631.006 231.317 629.317 231.317ZM661.839 211.588H653.885V230.873H647.264V211.588H639.311V206.611H661.839V211.588ZM675.745 206.123C679.004 206.123 681.492 206.833 683.211 208.255C684.958 209.648 685.832 211.795 685.832 214.699V230.873H681.211L679.922 227.585H679.745C679.063 228.444 678.352 229.155 677.612 229.718C676.901 230.281 676.071 230.68 675.123 230.917C674.205 231.184 673.065 231.317 671.702 231.317C670.28 231.317 668.991 231.051 667.836 230.518C666.71 229.955 665.822 229.11 665.17 227.985C664.518 226.829 664.192 225.378 664.192 223.63C664.192 221.053 665.096 219.157 666.903 217.942C668.71 216.698 671.42 216.017 675.035 215.898L679.256 215.765V214.699C679.256 213.425 678.915 212.492 678.234 211.899C677.582 211.307 676.664 211.01 675.479 211.01C674.294 211.01 673.139 211.188 672.013 211.544C670.887 211.87 669.762 212.284 668.636 212.788L666.458 208.3C667.762 207.619 669.199 207.085 670.769 206.7C672.368 206.315 674.027 206.123 675.745 206.123ZM676.679 219.72C674.546 219.779 673.065 220.164 672.235 220.875C671.406 221.586 670.991 222.519 670.991 223.675C670.991 224.682 671.287 225.407 671.88 225.852C672.472 226.267 673.242 226.474 674.19 226.474C675.612 226.474 676.812 226.059 677.79 225.23C678.767 224.371 679.256 223.171 679.256 221.63V219.631L676.679 219.72ZM713.593 212.966C713.593 214.269 713.178 215.38 712.348 216.298C711.549 217.217 710.349 217.809 708.749 218.076V218.253C710.438 218.461 711.786 219.038 712.793 219.986C713.83 220.934 714.348 222.149 714.348 223.63C714.348 224.667 714.141 225.63 713.726 226.518C713.341 227.407 712.719 228.177 711.86 228.829C711.001 229.481 709.89 229.984 708.527 230.34C707.194 230.695 705.565 230.873 703.639 230.873H692.086V206.611H703.639C705.535 206.611 707.224 206.819 708.705 207.233C710.216 207.619 711.4 208.27 712.26 209.189C713.148 210.107 713.593 211.366 713.593 212.966ZM707.505 223.275C707.505 222.327 707.135 221.645 706.394 221.231C705.654 220.786 704.543 220.564 703.061 220.564H698.707V226.296H703.195C704.439 226.296 705.461 226.074 706.261 225.63C707.09 225.156 707.505 224.371 707.505 223.275ZM706.883 213.499C706.883 212.729 706.587 212.166 705.994 211.81C705.402 211.455 704.528 211.277 703.372 211.277H698.707V216.076H702.617C704.009 216.076 705.061 215.884 705.772 215.498C706.513 215.084 706.883 214.417 706.883 213.499ZM735.416 206.611H742.703L733.105 218.253L743.548 230.873H736.038L726.129 218.564V230.873H719.508V206.611H726.129V218.387L735.416 206.611ZM756.45 206.123C759.708 206.123 762.197 206.833 763.915 208.255C765.663 209.648 766.537 211.795 766.537 214.699V230.873H761.915L760.627 227.585H760.449C759.768 228.444 759.057 229.155 758.316 229.718C757.605 230.281 756.776 230.68 755.828 230.917C754.909 231.184 753.769 231.317 752.406 231.317C750.984 231.317 749.696 231.051 748.54 230.518C747.415 229.955 746.526 229.11 745.874 227.985C745.223 226.829 744.897 225.378 744.897 223.63C744.897 221.053 745.8 219.157 747.607 217.942C749.414 216.698 752.125 216.017 755.739 215.898L759.96 215.765V214.699C759.96 213.425 759.62 212.492 758.938 211.899C758.287 211.307 757.368 211.01 756.183 211.01C754.998 211.01 753.843 211.188 752.717 211.544C751.592 211.87 750.466 212.284 749.34 212.788L747.163 208.3C748.466 207.619 749.903 207.085 751.473 206.7C753.073 206.315 754.732 206.123 756.45 206.123ZM757.383 219.72C755.25 219.779 753.769 220.164 752.939 220.875C752.11 221.586 751.695 222.519 751.695 223.675C751.695 224.682 751.992 225.407 752.584 225.852C753.176 226.267 753.947 226.474 754.895 226.474C756.317 226.474 757.516 226.059 758.494 225.23C759.471 224.371 759.96 223.171 759.96 221.63V219.631L757.383 219.72Z" fill="#FFFEFF"/>
<path d="M448.06 341.518L442.664 310.253L462.413 306.845L463.357 312.318L450.221 314.585L451.347 321.11L453.974 320.656C456.922 320.148 459.401 320.141 461.411 320.635C463.449 321.125 465.044 322.007 466.196 323.282C467.348 324.556 468.083 326.113 468.4 327.952C468.753 329.995 468.603 331.825 467.949 333.441C467.296 335.056 466.089 336.422 464.328 337.538C462.561 338.624 460.175 339.427 457.168 339.946L448.06 341.518ZM455.968 334.561C457.982 334.214 459.503 333.621 460.531 332.782C461.588 331.938 461.978 330.713 461.7 329.108C461.509 327.999 461.071 327.202 460.386 326.719C459.731 326.231 458.86 325.976 457.774 325.953C456.712 325.896 455.451 325.993 453.992 326.245L452.284 326.539L453.735 334.947L455.968 334.561ZM493.464 333.682L475.467 336.788L470.072 305.523L488.069 302.417L489.006 307.847L477.621 309.811L478.807 316.686L489.404 314.857L490.341 320.287L479.744 322.116L481.135 330.173L492.52 328.208L493.464 333.682ZM508.203 304.173C506.947 304.389 505.866 304.831 504.959 305.499C504.082 306.162 503.388 307.018 502.878 308.068C502.362 309.089 502.043 310.286 501.919 311.66C501.825 313.029 501.919 314.531 502.201 316.166C502.584 318.385 503.174 320.237 503.972 321.722C504.793 323.174 505.858 324.208 507.167 324.823C508.476 325.439 510.035 325.591 511.845 325.279C513.13 325.057 514.374 324.692 515.579 324.183C516.813 323.67 518.129 323.022 519.527 322.239L520.487 327.8C519.211 328.592 517.924 329.235 516.627 329.729C515.329 330.224 513.848 330.615 512.184 330.902C508.973 331.456 506.203 331.258 503.875 330.307C501.57 329.322 499.715 327.718 498.31 325.495C496.899 323.244 495.917 320.512 495.362 317.301C494.954 314.937 494.903 312.721 495.207 310.654C495.507 308.558 496.146 306.689 497.126 305.047C498.134 303.4 499.475 302.027 501.149 300.926C502.852 299.82 504.886 299.064 507.25 298.655C508.798 298.388 510.38 298.326 511.998 298.467C513.64 298.575 515.234 298.841 516.78 299.265L515.564 305.022C514.301 304.669 513.035 304.391 511.768 304.189C510.53 303.982 509.341 303.976 508.203 304.173ZM526.819 327.925L521.423 296.66L546.163 292.391L551.559 323.655L544.947 324.796L540.504 299.049L528.987 301.037L533.431 326.784L526.819 327.925ZM583.67 318.113L577.058 319.255L572.615 293.507L564.952 294.83C565.009 296.203 565.071 297.695 565.138 299.307C565.235 300.913 565.308 302.554 565.357 304.229C565.429 305.87 565.475 307.44 565.493 308.94C565.507 310.411 565.492 311.721 565.45 312.871C565.383 314.746 565.139 316.382 564.719 317.777C564.327 319.167 563.635 320.294 562.642 321.156C561.677 322.014 560.319 322.594 558.568 322.897C557.984 322.997 557.422 323.049 556.881 323.052C556.341 323.056 555.824 323.024 555.332 322.959L554.395 317.529C554.795 317.581 555.177 317.62 555.543 317.647C555.937 317.669 556.353 317.642 556.791 317.567C557.375 317.466 557.824 317.193 558.138 316.748C558.452 316.303 558.677 315.603 558.813 314.648C558.943 313.663 559.014 312.328 559.023 310.643C559.048 309.917 559.052 308.895 559.035 307.575C559.013 306.226 558.982 304.653 558.942 302.856C558.927 301.025 558.886 299.048 558.82 296.925C558.749 294.773 558.651 292.55 558.526 290.257L578.275 286.849L583.67 318.113ZM610.177 313.539L606.615 306.488L595.23 308.453L594.238 316.29L587.101 317.521L592.717 284.221L600.818 282.823L617.314 312.307L610.177 313.539ZM600.548 294.323C600.316 293.852 600.018 293.257 599.653 292.538C599.289 291.82 598.922 291.086 598.552 290.338C598.183 289.591 597.875 288.937 597.628 288.379C597.583 288.988 597.504 289.753 597.393 290.674C597.305 291.561 597.213 292.418 597.115 293.247C597.042 294.041 596.975 294.609 596.913 294.95L595.935 302.604L604.079 301.199L600.548 294.323ZM629.721 310.166L623.109 311.307L618.666 285.56L610.171 287.026L609.218 281.508L632.82 277.435L633.772 282.952L625.278 284.418L629.721 310.166ZM668.137 303.536L661.525 304.677L659.198 291.19L646.806 293.329L649.133 306.816L642.521 307.957L637.125 276.692L643.737 275.551L645.853 287.812L658.245 285.673L656.129 273.412L662.741 272.271L668.137 303.536ZM701.157 281.694C701.575 284.117 701.649 286.374 701.379 288.465C701.132 290.521 700.52 292.371 699.54 294.013C698.59 295.65 697.232 297.011 695.466 298.098C693.728 299.179 691.59 299.939 689.05 300.377C686.51 300.816 684.226 300.819 682.198 300.388C680.194 299.922 678.457 299.094 676.99 297.905C675.546 296.681 674.346 295.129 673.39 293.25C672.464 291.366 671.792 289.212 671.374 286.789C670.814 283.549 670.854 280.641 671.491 278.066C672.158 275.486 673.473 273.35 675.436 271.658C677.423 269.933 680.124 268.775 683.539 268.186C686.926 267.601 689.829 267.792 692.251 268.757C694.667 269.692 696.609 271.281 698.078 273.523C699.572 275.73 700.598 278.454 701.157 281.694ZM678.343 285.631C678.721 287.821 679.324 289.656 680.15 291.136C680.977 292.617 682.047 293.68 683.361 294.325C684.675 294.97 686.251 295.134 688.09 294.816C689.988 294.489 691.433 293.804 692.425 292.761C693.447 291.712 694.084 290.355 694.338 288.688C694.62 287.016 694.573 285.085 694.195 282.896C693.625 279.597 692.567 277.119 691.018 275.463C689.47 273.806 687.294 273.219 684.492 273.703C682.623 274.025 681.178 274.711 680.157 275.759C679.135 276.807 678.483 278.167 678.201 279.839C677.918 281.511 677.966 283.442 678.343 285.631Z" fill="#FF3F5C"/>
<rect x="395.493" y="292.844" width="346.048" height="82.8096" transform="rotate(-9.79189 395.493 292.844)" stroke="#2F80ED" stroke-width="3.16192"/>
<defs>
<linearGradient id="paint0_linear_72_2055" x1="1440.96" y1="178.467" x2="1.81424" y2="126.455" gradientUnits="userSpaceOnUse">
<stop stop-color="#FFE03D"/>
<stop offset="1" stop-color="#ECFA52"/>
</linearGradient>
<clipPath id="clip0_72_2055">
<rect width="233.982" height="233.982" fill="white" transform="translate(115.418 152.816)"/>
</clipPath>
</defs>
</svg>
