<svg width="376" height="126" viewBox="0 0 376 126" fill="none" xmlns="http://www.w3.org/2000/svg">
<path fill-rule="evenodd" clip-rule="evenodd" d="M189.034 46.3341C179.85 63.7828 176.794 77.0866 179.869 86.2456C175.483 81.9448 170.192 79.7944 163.993 79.7944C154.696 79.7944 148.393 88.0221 148.393 96.6384C148.393 105.255 153.174 110.389 160.711 111.819C168.249 113.25 174.19 108.837 174.19 102.826C169.213 104.339 166.269 103.208 165.359 99.4332C163.993 93.7712 168.512 91.3768 174.19 91.3768C179.869 91.3768 183.433 98.8993 181.66 105.776C179.888 112.654 172.991 119.714 163.993 119.714C154.995 119.714 145.127 115.931 140.973 102.826C132.119 117.9 119.209 125.456 102.241 125.491L181.446 13.1731C164.478 13.2087 151.568 20.764 142.714 35.8387C138.56 22.7328 128.692 18.9501 119.694 18.9501C110.696 18.9501 103.799 26.0107 102.027 32.8879C100.254 39.765 103.818 47.2875 109.497 47.2875C115.175 47.2875 119.694 44.8931 118.328 39.231C117.418 35.4563 114.474 34.3255 109.497 35.8387C109.497 29.8277 115.438 25.4139 122.976 26.8448C130.513 28.2757 135.294 33.4096 135.294 42.0259C135.294 50.6422 128.991 58.8699 119.694 58.8699C113.495 58.8699 108.204 56.7195 103.818 52.4187C106.893 61.5776 103.837 74.8815 94.6528 92.3302C85.4682 74.8815 82.4131 61.5776 85.4873 52.4187C81.102 56.7195 75.8102 58.8699 69.6118 58.8699C60.3143 58.8699 54.0119 50.6422 54.0119 42.0259C54.0119 33.4096 58.7922 28.2757 66.33 26.8448C73.8678 25.4139 79.809 29.8277 79.809 35.8387C74.8319 34.3255 71.8881 35.4563 70.9776 39.231C69.6118 44.8931 74.1308 47.2875 79.809 47.2875C85.4873 47.2875 89.0513 39.765 87.2788 32.8879C85.5064 26.0107 78.6096 18.9501 69.6118 18.9501C60.614 18.9501 50.7453 22.7328 46.5913 35.8387C37.7379 20.764 24.8275 13.2087 7.86015 13.1731L87.0642 125.491C70.0968 125.456 57.1864 117.9 48.333 102.826C44.179 115.931 34.3103 119.714 25.3125 119.714C16.3147 119.714 9.41788 112.654 7.64545 105.776C5.87302 98.8993 9.43696 91.3768 15.1153 91.3768C20.7935 91.3768 25.3125 93.7712 23.9467 99.4332C23.0362 103.208 20.0924 104.339 15.1153 102.826C15.1153 108.837 21.0565 113.25 28.5943 111.819C36.1321 110.389 40.9124 105.255 40.9124 96.6384C40.9124 88.0221 34.61 79.7944 25.3125 79.7944C19.1141 79.7944 13.8223 81.9448 9.43696 86.2456C12.5112 77.0866 9.45606 63.7828 0.271474 46.3341V0.499691L377.797 0.499691V46.3341C368.612 63.7828 365.557 77.0866 368.631 86.2456C364.246 81.9448 358.954 79.7944 352.756 79.7944C343.458 79.7944 337.156 88.0221 337.156 96.6384C337.156 105.255 341.936 110.389 349.474 111.819C357.012 113.25 362.953 108.837 362.953 102.826C357.976 104.339 355.032 103.208 354.122 99.4332C352.756 93.7712 357.275 91.3768 362.953 91.3768C368.631 91.3768 372.195 98.8993 370.423 105.776C368.65 112.654 361.754 119.714 352.756 119.714C343.758 119.714 333.889 115.931 329.735 102.826C320.882 117.9 307.972 125.456 291.004 125.491L370.208 13.1731C353.241 13.2087 340.33 20.764 331.477 35.8387C327.323 22.7328 317.454 18.9501 308.457 18.9501C299.459 18.9501 292.562 26.0107 290.789 32.8879C289.017 39.765 292.581 47.2875 298.259 47.2875C303.938 47.2875 308.457 44.8931 307.091 39.231C306.18 35.4563 303.236 34.3255 298.259 35.8387C298.259 29.8277 304.201 25.4139 311.738 26.8448C319.276 28.2757 324.056 33.4096 324.056 42.0259C324.056 50.6422 317.754 58.8699 308.457 58.8699C302.258 58.8699 296.966 56.7195 292.581 52.4187C295.655 61.5776 292.6 74.8815 283.416 92.3302C274.231 74.8815 271.176 61.5776 274.25 52.4187C269.865 56.7195 264.573 58.8699 258.375 58.8699C249.077 58.8699 242.775 50.6422 242.775 42.0259C242.775 33.4096 247.555 28.2757 255.093 26.8448C262.63 25.4139 268.572 29.8277 268.572 35.8387C263.595 34.3255 260.651 35.4563 259.74 39.231C258.375 44.8931 262.893 47.2875 268.572 47.2875C274.25 47.2875 277.814 39.765 276.042 32.8879C274.269 26.0107 267.372 18.9501 258.375 18.9501C249.377 18.9501 239.508 22.7328 235.354 35.8387C226.501 20.764 213.59 13.2087 196.623 13.1731L275.827 125.491C258.86 125.456 245.949 117.9 237.096 102.826C232.942 115.931 223.073 119.714 214.075 119.714C205.077 119.714 198.181 112.654 196.408 105.776C194.636 98.8993 198.2 91.3768 203.878 91.3768C209.556 91.3768 214.075 93.7712 212.709 99.4332C211.799 103.208 208.855 104.339 203.878 102.826C203.878 108.837 209.819 113.25 217.357 111.819C224.895 110.389 229.675 105.255 229.675 96.6384C229.675 88.0221 223.373 79.7944 214.075 79.7944C207.877 79.7944 202.585 81.9448 198.2 86.2456C201.274 77.0866 198.219 63.7828 189.034 46.3341Z" fill="black" fill-opacity="0.03"/>
</svg>
