<svg width="189" height="189" viewBox="0 0 189 189" fill="none" xmlns="http://www.w3.org/2000/svg">
<path d="M94.8122 0.380371C42.9301 0.380371 0.694336 42.5875 0.694336 94.4983C0.694336 146.38 42.9301 188.616 94.8122 188.616C146.723 188.616 188.93 146.38 188.93 94.4983C188.93 42.5875 146.723 0.380371 94.8122 0.380371ZM94.8122 176.291C49.7229 176.291 13.0193 139.584 13.0193 94.4983C13.0193 49.3804 49.7265 12.7054 94.8122 12.7054C139.93 12.7054 176.605 49.384 176.605 94.4983C176.605 139.588 139.926 176.291 94.8122 176.291Z" fill="#FF5714"/>
<path d="M150.634 91.0591C142.646 86.0034 137.897 87.616 134.517 82.7652L129.692 75.6766C127.545 72.5893 123.103 72.2363 120.516 74.9121C114.953 80.4728 114.458 81.271 112.928 82.2935C111.428 79.9693 109.487 77.9407 107.222 76.3517C108.508 74.1559 109.544 73.6606 114.928 68.2339C117.634 65.6167 117.251 61.2053 114.164 59.0585L107.104 54.2064C102.409 51.0172 103.64 45.7521 98.8103 38.1182C97.2213 35.5889 93.516 35.5889 91.9282 38.1182C90.1341 41.0004 88.5451 44.9121 87.1332 49.5592C86.5151 51.4412 85.3098 53.0874 83.6329 54.2064L76.5736 59.0585C73.4863 61.2056 73.1319 65.6167 75.8091 68.2339C81.1648 73.5435 81.8805 74.036 82.8684 75.3532C80.3684 76.765 78.1919 78.7349 76.4859 81.0285C75.194 80.1454 74.6974 79.4116 69.103 73.7935C66.5137 71.1177 62.073 71.4693 59.9262 74.5594L55.1048 81.648C51.917 86.3412 46.7077 85.0562 38.9873 89.9419C36.4873 91.5002 36.4873 95.2348 38.9873 96.7948C46.7105 101.679 51.9141 100.387 55.1048 105.089L59.9277 112.177C62.0747 115.265 66.5152 115.618 69.1045 112.942C75.1255 106.863 74.7448 107.145 75.4869 106.531C77.0453 109.002 79.1045 111.149 81.5166 112.825C80.6488 113.867 80.3308 114.062 74.6934 119.649C72.0162 122.236 72.3692 126.647 75.4579 128.794L82.5172 133.646C87.234 136.789 85.9044 141.879 90.8111 149.764C92.4001 152.264 96.1054 152.264 97.6932 149.764C102.699 141.852 101.166 136.916 105.987 133.646L113.046 128.794C116.135 126.647 116.517 122.236 113.811 119.648C107.396 113.262 108.136 114.172 106.988 112.795C109.371 111.177 111.37 109.088 112.93 106.677C114.482 107.714 115.151 108.692 120.517 114.059C123.105 116.736 127.546 116.383 129.694 113.294L134.517 106.206C137.8 101.492 142.62 102.933 150.635 97.9412C153.164 96.3536 153.164 92.6162 150.635 91.0591L150.634 91.0591ZM84.7519 94.4994C84.7519 89.339 88.9134 84.9987 94.2527 84.9987C99.5777 84.9987 103.753 89.2887 103.753 94.4994C103.753 99.7615 99.472 104 94.2527 104C89.6962 104 84.7519 100.51 84.7519 94.4994Z" fill="#FF5714"/>
<path d="M94.8108 27.6456C97.8103 27.6456 100.222 25.2349 100.222 22.2342C100.222 19.2626 97.8102 16.8228 94.8108 16.8228C91.8407 16.8228 89.3994 19.2628 89.3994 22.2342C89.3994 25.2336 91.8408 27.6456 94.8108 27.6456Z" fill="#FF5714"/>
<path d="M94.8108 160.206C91.8407 160.206 89.3994 162.617 89.3994 165.617C89.3994 168.588 91.8408 171.029 94.8108 171.029C97.8103 171.029 100.222 168.588 100.222 165.617C100.222 162.617 97.8102 160.206 94.8108 160.206Z" fill="#FF5714"/>
<path d="M61.6369 37.1451C64.2248 35.6747 65.1079 32.3516 63.6361 29.7637C62.1364 27.1744 58.8133 26.2927 56.224 27.7925C53.6375 29.2936 52.7544 32.5875 54.2541 35.1753C55.7552 37.7632 59.0491 38.6463 61.6369 37.1451Z" fill="#FF5714"/>
<path d="M127.929 151.942C125.34 153.441 124.458 156.764 125.928 159.354C127.428 161.942 130.753 162.823 133.311 161.324C135.899 159.822 136.811 156.53 135.312 153.941C133.811 151.353 130.517 150.471 127.929 151.942Z" fill="#FF5714"/>
<path d="M30.2849 63.9704C32.8728 65.4409 36.1667 64.5578 37.6677 61.9699C39.1675 59.382 38.2858 56.0881 35.6965 54.5884C33.1086 53.0873 29.784 53.9997 28.3136 56.5876C26.8139 59.1462 27.697 62.4694 30.2849 63.9704Z" fill="#FF5714"/>
<path d="M159.841 126.267C157.253 124.796 153.96 125.678 152.458 128.266C150.959 130.854 151.84 134.148 154.43 135.649C157.018 137.148 160.342 136.267 161.813 133.677C163.312 131.088 162.429 127.765 159.841 126.267Z" fill="#FF5714"/>
<path d="M23.9026 90.0591C20.9325 90.0591 18.4912 92.4698 18.4912 95.4705C18.4912 98.442 20.9326 100.882 23.9026 100.882C26.9021 100.882 29.3141 98.4419 29.3141 95.4705C29.3155 92.4697 26.9034 90.0591 23.9026 90.0591Z" fill="#FF5714"/>
<path d="M167.282 90.0591C164.282 90.0591 161.87 92.4698 161.87 95.4705C161.87 98.442 164.282 100.882 167.282 100.882C170.252 100.882 172.693 98.4419 172.693 95.4705C172.693 92.4697 170.252 90.0591 167.282 90.0591Z" fill="#FF5714"/>
<path d="M31.431 126.645C28.8431 128.145 27.96 131.468 29.4611 134.057C30.9608 136.645 34.2547 137.528 36.844 136.027C39.4319 134.526 40.315 131.234 38.8138 128.644C37.3434 126.056 34.0202 125.175 31.431 126.645Z" fill="#FF5714"/>
<path d="M160.988 64.3521C163.575 62.8524 164.488 59.5278 162.987 56.9707C161.487 54.3814 158.193 53.4704 155.604 54.9701C153.016 56.4698 152.133 59.7637 153.605 62.3515C155.106 64.9408 158.429 65.8225 160.988 64.3521Z" fill="#FF5714"/>
<path d="M63.6347 152.616C61.0468 151.115 57.753 151.998 56.2519 154.586C54.7522 157.174 55.6632 160.497 58.2231 161.968C60.811 163.469 64.1356 162.586 65.6353 159.998C67.1057 157.41 66.224 154.116 63.6347 152.616Z" fill="#FF5714"/>
<path d="M129.929 37.8197C132.517 39.3208 135.811 38.4377 137.312 35.8498C138.812 33.262 137.901 29.9388 135.342 28.4684C132.753 26.9673 129.43 27.8504 127.93 30.4383C126.46 33.0262 127.342 36.3215 129.929 37.8197Z" fill="#FF5714"/>
</svg>
