<svg width="28" height="28" viewBox="0 0 28 28" fill="none" xmlns="http://www.w3.org/2000/svg">
<path d="M16.1855 8.24805C17.8424 8.24805 19.1855 6.9049 19.1855 5.24805C19.1855 3.59119 17.8424 2.24805 16.1855 2.24805C14.5287 2.24805 13.1855 3.59119 13.1855 5.24805C13.1855 6.9049 14.5287 8.24805 16.1855 8.24805Z" fill="#FFFEFF"/>
<path d="M19.253 20.4219C19.1701 20.3661 19.0769 20.3275 18.9789 20.3082C18.8809 20.289 18.78 20.2895 18.6822 20.3098C18.5844 20.33 18.4917 20.3696 18.4094 20.4262C18.3271 20.4828 18.2569 20.5553 18.203 20.6394C17.478 21.7131 16.5898 22.6671 15.5705 23.4669C15.323 23.6544 14.4005 24.3669 14.0105 24.2169C13.7405 24.1344 13.898 23.6019 13.9505 23.3769L14.348 22.1994C14.513 21.7194 17.3855 13.1994 17.7005 12.2244C18.1655 10.7994 17.963 9.39688 15.8405 9.73438C15.263 9.79438 9.40549 10.5519 9.30049 10.5594C9.202 10.5658 9.10573 10.5915 9.01719 10.6351C8.92864 10.6787 8.84955 10.7394 8.78444 10.8135C8.71932 10.8877 8.66945 10.974 8.63767 11.0674C8.6059 11.1609 8.59284 11.2596 8.59924 11.3581C8.60564 11.4566 8.63138 11.5529 8.67499 11.6414C8.71859 11.73 8.77921 11.8091 8.85338 11.8742C8.92755 11.9393 9.01382 11.9892 9.10727 12.0209C9.20071 12.0527 9.2995 12.0658 9.39799 12.0594C9.39799 12.0594 11.648 11.7669 11.8955 11.7444C12.0223 11.732 12.1499 11.7566 12.263 11.8151C12.3761 11.8737 12.4699 11.9637 12.533 12.0744C12.6689 12.4945 12.6503 12.9493 12.4805 13.3569C12.2855 14.1069 9.20299 22.7919 9.10549 23.2944C9.00091 23.7149 9.02995 24.1575 9.18856 24.5608C9.34716 24.964 9.62746 25.3078 9.99049 25.5444C10.6719 25.9985 11.4832 26.2172 12.3005 26.1669C13.0952 26.1572 13.8811 25.9995 14.618 25.7019C16.4855 24.9519 18.4355 22.9569 19.463 21.3894C19.5515 21.2301 19.5789 21.0441 19.5403 20.8661C19.5017 20.688 19.3995 20.5301 19.253 20.4219Z" fill="#FFFEFF"/>
</svg>
