<svg width="24" height="23" viewBox="0 0 24 23" fill="none" xmlns="http://www.w3.org/2000/svg">
<path d="M11.9624 22.3125C18.2878 22.3125 23.4155 17.3876 23.4155 11.3125C23.4155 5.23737 18.2878 0.3125 11.9624 0.3125C5.63702 0.3125 0.509277 5.23737 0.509277 11.3125C0.509277 17.3876 5.63702 22.3125 11.9624 22.3125Z" fill="#FEDA2C"/>
<path d="M11.9623 19.7933C16.8383 19.7933 20.7912 15.9968 20.7912 11.3136C20.7912 6.63045 16.8383 2.83398 11.9623 2.83398C7.08616 2.83398 3.1333 6.63045 3.1333 11.3136C3.1333 15.9968 7.08616 19.7933 11.9623 19.7933Z" fill="#FCAA17"/>
<path d="M11.9626 4.79492L13.9705 8.70243L18.4601 9.32905L15.2115 12.3706L15.9784 16.6653L11.9626 14.6376L7.94676 16.6653L8.71371 12.3706L5.46484 9.32905L9.95467 8.70243L11.9626 4.79492Z" fill="#FEDA2C"/>
</svg>
