<svg width="321" height="321" viewBox="0 0 321 321" fill="none" xmlns="http://www.w3.org/2000/svg">
<g clip-path="url(#clip0_96_5345)">
<path d="M84.8013 90.2713V111.051" stroke="black" stroke-width="9.37647" stroke-miterlimit="10" stroke-linecap="round" stroke-linejoin="round"/>
<path d="M235.54 90.2713V111.051" stroke="black" stroke-width="9.37647" stroke-miterlimit="10" stroke-linecap="round" stroke-linejoin="round"/>
<path d="M255.883 69.4924L235.54 90.2713L262.226 111.051" stroke="black" stroke-width="9.37647" stroke-miterlimit="10" stroke-linecap="round" stroke-linejoin="round"/>
<path d="M64.4576 69.4924L84.8008 90.2713L58.1147 111.051" stroke="black" stroke-width="9.37647" stroke-miterlimit="10" stroke-linecap="round" stroke-linejoin="round"/>
<path d="M108.451 111.051H58.1147" stroke="black" stroke-width="9.37647" stroke-miterlimit="10" stroke-linecap="round" stroke-linejoin="round"/>
<path d="M262.225 111.051H131.597" stroke="black" stroke-width="9.37647" stroke-miterlimit="10" stroke-linecap="round" stroke-linejoin="round"/>
<mask id="mask0_96_5345" style="mask-type:luminance" maskUnits="userSpaceOnUse" x="0" y="0" width="321" height="321">
<path d="M0.14502 0.387482H320.195V320.438H0.14502V0.387482Z" fill="white"/>
</mask>
<g mask="url(#mask0_96_5345)">
<path d="M105.676 69.4921H64.4576C60.9546 69.4921 58.1147 72.3319 58.1147 75.835V293.977C58.1147 306.002 67.8625 315.75 79.8875 315.75H240.451C252.476 315.75 262.225 306.002 262.225 293.977V221.652" stroke="black" stroke-width="9.37647" stroke-miterlimit="10" stroke-linecap="round" stroke-linejoin="round"/>
<path d="M184.118 69.4922H143.283" stroke="black" stroke-width="9.37647" stroke-miterlimit="10" stroke-linecap="round" stroke-linejoin="round"/>
<path d="M262.225 198.508V75.8355C262.225 72.3324 259.385 69.4926 255.882 69.4926H207.262" stroke="black" stroke-width="9.37647" stroke-miterlimit="10" stroke-linecap="round" stroke-linejoin="round"/>
<path d="M217.143 144.559C217.143 150.406 212.403 155.146 206.555 155.146C200.708 155.146 195.968 150.406 195.968 144.559C195.968 138.711 200.708 133.971 206.555 133.971C212.403 133.971 217.143 138.711 217.143 144.559Z" stroke="black" stroke-width="9.37647" stroke-miterlimit="10" stroke-linecap="round" stroke-linejoin="round"/>
<path d="M124.372 144.559C124.372 150.406 119.632 155.146 113.784 155.146C107.937 155.146 103.196 150.406 103.196 144.559C103.196 138.711 107.937 133.971 113.784 133.971C119.632 133.971 124.372 138.711 124.372 144.559Z" stroke="black" stroke-width="9.37647" stroke-miterlimit="10" stroke-linecap="round" stroke-linejoin="round"/>
<path d="M206.556 154.915V192.86C206.556 218.478 185.788 239.246 160.17 239.246C134.552 239.246 113.784 218.478 113.784 192.86V155.149" stroke="black" stroke-width="9.37647" stroke-miterlimit="10" stroke-linecap="round" stroke-linejoin="round"/>
<path d="M141.821 67.6591C141.821 77.2956 134.009 85.1074 124.373 85.1074C114.736 85.1074 106.925 77.2956 106.925 67.6591C106.925 58.0226 114.736 50.2107 124.373 50.2107C134.009 50.2107 141.821 58.0226 141.821 67.6591Z" stroke="black" stroke-width="9.37647" stroke-miterlimit="10" stroke-linecap="round" stroke-linejoin="round"/>
<path d="M214.875 26.7193C214.875 34.3242 208.71 40.4883 201.106 40.4883C193.502 40.4883 187.337 34.3242 187.337 26.7193C187.337 19.1149 193.502 12.9502 201.106 12.9502C208.71 12.9502 214.875 19.1149 214.875 26.7193Z" stroke="black" stroke-width="9.37647" stroke-miterlimit="10" stroke-linecap="round" stroke-linejoin="round"/>
<path d="M196.343 111.051C196.954 109.494 197.294 107.8 197.294 106.026C197.294 98.4213 191.129 92.2566 183.524 92.2566C175.92 92.2566 169.755 98.4213 169.755 106.026C169.755 107.8 170.094 109.494 170.705 111.051" stroke="black" stroke-width="9.37647" stroke-miterlimit="10" stroke-linecap="round" stroke-linejoin="round"/>
<path d="M98.5609 29.8911C98.5609 37.4954 92.3962 43.6602 84.7919 43.6602C77.1869 43.6602 71.0222 37.4954 71.0222 29.8911C71.0222 22.2862 77.1869 16.1221 84.7919 16.1221C92.3962 16.1221 98.5609 22.2862 98.5609 29.8911Z" stroke="black" stroke-width="9.37647" stroke-miterlimit="10" stroke-linecap="round" stroke-linejoin="round"/>
<path d="M150.112 5.07817L138.409 16.7812" stroke="black" stroke-width="9.37647" stroke-miterlimit="10" stroke-linecap="round" stroke-linejoin="round"/>
<path d="M150.112 16.7812L138.409 5.07817" stroke="black" stroke-width="9.37647" stroke-miterlimit="10" stroke-linecap="round" stroke-linejoin="round"/>
<path d="M243.031 38.6524L254.734 50.3555" stroke="black" stroke-width="9.37647" stroke-miterlimit="10" stroke-linecap="round" stroke-linejoin="round"/>
<path d="M254.734 38.6524L243.031 50.3555" stroke="black" stroke-width="9.37647" stroke-miterlimit="10" stroke-linecap="round" stroke-linejoin="round"/>
</g>
</g>
<defs>
<clipPath id="clip0_96_5345">
<rect width="320.05" height="320.05" fill="white" transform="translate(0.14502 0.390625)"/>
</clipPath>
</defs>
</svg>
