<svg width="25" height="25" viewBox="0 0 25 25" fill="none" xmlns="http://www.w3.org/2000/svg">
<g clip-path="url(#clip0_162_10016)">
<path d="M12.2352 0.917969C7.36016 0.917969 3.19766 4.06797 1.66016 8.41797H22.8852C21.3102 4.06797 17.1477 0.917969 12.2352 0.917969Z" fill="#F9F9F9"/>
<path d="M12.2352 23.418C17.1477 23.418 21.3102 20.268 22.8477 15.918H1.66016C3.19766 20.3055 7.36016 23.418 12.2352 23.418Z" fill="#ED4C5C"/>
<path d="M1.65996 8.41797C1.24746 9.58047 1.02246 10.8555 1.02246 12.168C1.02246 13.4805 1.24746 14.7555 1.65996 15.918H22.885C23.2975 14.7555 23.5225 13.4805 23.5225 12.168C23.5225 10.8555 23.2975 9.58047 22.885 8.41797H1.65996Z" fill="#428BC1"/>
</g>
<defs>
<clipPath id="clip0_162_10016">
<rect width="24" height="24" fill="white" transform="translate(0.272461 0.167969)"/>
</clipPath>
</defs>
</svg>
