<svg width="25" height="25" viewBox="0 0 25 25" fill="none" xmlns="http://www.w3.org/2000/svg">
<mask id="mask0_162_9999" style="mask-type:alpha" maskUnits="userSpaceOnUse" x="0" y="0" width="25" height="25">
<circle cx="12.5" cy="12.6484" r="12" fill="#D9D9D9"/>
</mask>
<g mask="url(#mask0_162_9999)">
<path d="M-8.22559 -0.0546875H33.227V25.3517H-8.22559V-0.0546875Z" fill="#D22F27"/>
<path d="M12.501 8.63712L13.3875 5.34766L13.4611 8.75345L15.1091 5.77221L14.365 9.09644L16.679 6.59591L15.1613 9.64602L18.0061 7.77196L15.8025 10.3701L19.013 9.23082L16.2518 11.2259L19.6415 10.8889L16.4831 12.1653L19.8555 12.6487L16.4831 13.132L19.6415 14.4084L16.2518 14.0714L19.013 16.0665L15.8025 14.9272L18.0061 17.5253L15.1613 15.6513L16.679 18.7014L14.365 16.2009L15.1091 19.5251L13.4611 16.5439L13.3875 19.9496L12.501 16.6602L11.6144 19.9496L11.5409 16.5439L9.8928 19.5251L10.6369 16.2009L8.32295 18.7014L9.84065 15.6513L6.9958 17.5253L9.19947 14.9272L5.98891 16.0665L8.75018 14.0714L5.36043 14.4084L8.51885 13.132L5.14648 12.6487L8.51885 12.1653L5.36043 10.8889L8.75018 11.2259L5.98891 9.23082L9.19947 10.3701L6.9958 7.77196L9.84065 9.64602L8.32295 6.59591L10.6369 9.09644L9.8928 5.77221L11.5409 8.75345L11.6144 5.34766L12.501 8.63712Z" fill="#F1B31C" stroke="#F1B31C" stroke-width="0.612874" stroke-linecap="round" stroke-linejoin="round"/>
<path d="M12.5008 16.6598C14.7163 16.6598 16.5123 14.8638 16.5123 12.6483C16.5123 10.4327 14.7163 8.63672 12.5008 8.63672C10.2853 8.63672 8.48926 10.4327 8.48926 12.6483C8.48926 14.8638 10.2853 16.6598 12.5008 16.6598Z" stroke="#D22F27" stroke-width="0.612874" stroke-linecap="round" stroke-linejoin="round"/>
<path d="M8.85653 10.9766C8.47022 11.8155 8.38565 12.7621 8.61711 13.6562C8.84857 14.5503 9.38186 15.337 10.1267 15.8831C10.8716 16.4292 11.7822 16.7011 12.7045 16.6529C13.6269 16.6047 14.5042 16.2393 15.1881 15.6186C14.757 14.276 13.9126 13.1041 12.7754 12.2704C11.6382 11.4367 10.2666 10.9838 8.85653 10.9766V10.9766Z" stroke="#D22F27" stroke-width="0.612874" stroke-linecap="round" stroke-linejoin="round"/>
<path d="M16.144 10.9766C16.5303 11.8155 16.6149 12.7621 16.3835 13.6562C16.152 14.5503 15.6187 15.337 14.8739 15.8831C14.129 16.4292 13.2184 16.7011 12.296 16.6529C11.3737 16.6047 10.4964 16.2393 9.8125 15.6186C10.2435 14.276 11.088 13.1041 12.2252 12.2704C13.3624 11.4367 14.734 10.9838 16.144 10.9766Z" stroke="#D22F27" stroke-width="0.612874" stroke-linecap="round" stroke-linejoin="round"/>
</g>
</svg>
