<svg width="27" height="27" viewBox="0 0 27 27" fill="none" xmlns="http://www.w3.org/2000/svg">
<path d="M7.2371 15.8352L6.41435 18.9066L3.40722 18.9703C2.50853 17.3034 1.99878 15.3963 1.99878 13.3696C1.99878 11.4099 2.47538 9.56183 3.3202 7.93457H3.32085L5.99803 8.42539L7.1708 11.0865C6.92535 11.8021 6.79156 12.5703 6.79156 13.3696C6.79165 14.2372 6.9488 15.0684 7.2371 15.8352Z" fill="#FBBB00"/>
<path d="M25.4288 11.1616C25.5645 11.8765 25.6353 12.6148 25.6353 13.3694C25.6353 14.2155 25.5463 15.0408 25.3768 15.837C24.8015 18.546 23.2983 20.9116 21.2158 22.5856L21.2152 22.585L17.8431 22.4129L17.3659 19.4337C18.7477 18.6233 19.8276 17.3551 20.3964 15.837H14.0769V11.1616H20.4886H25.4288Z" fill="#518EF8"/>
<path d="M21.215 22.5849L21.2157 22.5856C19.1904 24.2135 16.6176 25.1875 13.817 25.1875C9.31632 25.1875 5.40334 22.672 3.40723 18.97L7.2371 15.835C8.23514 18.4986 10.8046 20.3947 13.817 20.3947C15.1117 20.3947 16.3248 20.0447 17.3657 19.4336L21.215 22.5849Z" fill="#28B446"/>
<path d="M21.3606 4.27204L17.532 7.40644C16.4547 6.73308 15.1813 6.3441 13.8171 6.3441C10.7365 6.3441 8.119 8.3272 7.17096 11.0863L3.32096 7.93438H3.32031C5.28721 4.14218 9.24953 1.55127 13.8171 1.55127C16.6846 1.55127 19.3138 2.57271 21.3606 4.27204Z" fill="#F14336"/>
</svg>
