<svg width="21" height="21" viewBox="0 0 21 21" fill="none" xmlns="http://www.w3.org/2000/svg">
<path d="M17.1331 20.8125H3.13306C2.33741 20.8125 1.57435 20.4964 1.01174 19.9338C0.449127 19.3712 0.133057 18.6081 0.133057 17.8125V1.8125C0.133057 1.54728 0.238413 1.29293 0.42595 1.10539C0.613486 0.917857 0.86784 0.8125 1.13306 0.8125H15.1331C15.3983 0.8125 15.6526 0.917857 15.8402 1.10539C16.0277 1.29293 16.1331 1.54728 16.1331 1.8125V13.8125H20.1331V17.8125C20.1331 18.6081 19.817 19.3712 19.2544 19.9338C18.6918 20.4964 17.9287 20.8125 17.1331 20.8125ZM16.1331 15.8125V17.8125C16.1331 18.0777 16.2384 18.3321 16.4259 18.5196C16.6135 18.7071 16.8678 18.8125 17.1331 18.8125C17.3983 18.8125 17.6526 18.7071 17.8402 18.5196C18.0277 18.3321 18.1331 18.0777 18.1331 17.8125V15.8125H16.1331ZM4.13306 5.8125V7.8125H12.1331V5.8125H4.13306ZM4.13306 9.8125V11.8125H12.1331V9.8125H4.13306ZM4.13306 13.8125V15.8125H9.13306V13.8125H4.13306Z" fill="#B0B0B0"/>
</svg>
