<svg width="9" height="9" viewBox="0 0 9 9" fill="none" xmlns="http://www.w3.org/2000/svg">
<path d="M7.90025 5.23637H4.88301V8.10994C4.88301 8.42603 4.61146 8.68465 4.27956 8.68465C3.94766 8.68465 3.67611 8.42603 3.67611 8.10994V5.23637H0.658868C0.326972 5.23637 0.0554199 4.97775 0.0554199 4.66166C0.0554199 4.34557 0.326972 4.08695 0.658868 4.08695H3.67611V1.21338C3.67611 0.897293 3.94766 0.638672 4.27956 0.638672C4.61146 0.638672 4.88301 0.897293 4.88301 1.21338V4.08695H7.90025C8.23215 4.08695 8.5037 4.34557 8.5037 4.66166C8.5037 4.97775 8.23215 5.23637 7.90025 5.23637Z" fill="#FAFAFA"/>
</svg>
