<svg width="19" height="20" viewBox="0 0 19 20" fill="none" xmlns="http://www.w3.org/2000/svg">
<path d="M9.67937 19.1244C4.54712 19.1244 0.390625 14.9679 0.390625 9.83637C0.390625 4.70412 4.54712 0.546875 9.67937 0.546875C14.8109 0.546875 18.9681 4.70412 18.9681 9.836C18.9681 14.9679 14.8109 19.1244 9.67937 19.1244Z" fill="#C1C1C0"/>
<path d="M12.799 9.70184C12.7889 9.54659 12.7713 9.39059 12.7435 9.23984C12.7604 9.22896 12.7773 9.21284 12.799 9.18996C12.7769 9.20159 12.7544 9.21284 12.7383 9.21284C12.7045 9.06209 12.6599 8.91696 12.61 8.77259C12.6209 8.75496 12.6438 8.73884 12.6539 8.71709C12.6378 8.73321 12.6209 8.74409 12.5984 8.75009C12.5485 8.60009 12.4818 8.46584 12.4041 8.33271C12.4143 8.31509 12.4311 8.29334 12.4424 8.27046C12.4255 8.28734 12.4101 8.29334 12.3925 8.30984C12.3149 8.17671 12.2313 8.04771 12.136 7.92621C12.142 7.90859 12.1536 7.88609 12.1638 7.85871C12.1469 7.88084 12.1308 7.89171 12.1139 7.90859C12.0186 7.78634 11.9133 7.67496 11.8011 7.57446C11.8011 7.54596 11.8128 7.52384 11.8188 7.50134C11.8071 7.52421 11.7903 7.54146 11.7786 7.55271C11.668 7.45221 11.545 7.35734 11.4175 7.27371C11.4175 7.25159 11.4228 7.22384 11.4228 7.20134C11.4175 7.21821 11.4059 7.24034 11.395 7.25196C11.2668 7.17359 11.1336 7.10121 10.9938 7.03446C10.9878 7.01159 10.9878 6.98459 10.9878 6.96209C10.9825 6.98496 10.9769 7.00596 10.9664 7.02359C10.8265 6.96209 10.6814 6.91146 10.537 6.86159C10.531 6.84471 10.5254 6.81771 10.5194 6.79484C10.5141 6.81771 10.5141 6.83871 10.5093 6.85634C10.3585 6.81734 10.2141 6.78959 10.0574 6.77196C10.0465 6.74909 10.0413 6.73296 10.0296 6.70521V6.77196C9.92501 6.75509 9.81288 6.75509 9.70076 6.75509H9.57251C9.56163 6.73971 9.54476 6.71684 9.53426 6.69434C9.53951 6.71721 9.53951 6.73971 9.54438 6.75509C9.38838 6.76671 9.23838 6.77796 9.08801 6.81734C9.07113 6.79446 9.05426 6.77796 9.04338 6.75509C9.04938 6.77796 9.05426 6.79971 9.05951 6.81734C8.90951 6.84959 8.75838 6.89496 8.61926 6.94484C8.59713 6.93396 8.58026 6.91634 8.56451 6.89496C8.57538 6.92196 8.58663 6.93884 8.59151 6.95646C8.44638 7.01121 8.30801 7.07309 8.17413 7.15071C8.15726 7.14059 8.13513 7.12859 8.11263 7.11246C8.12951 7.13459 8.14113 7.14546 8.15163 7.16721C8.01851 7.23959 7.89026 7.32921 7.77288 7.42371C7.75076 7.41284 7.72826 7.40159 7.70538 7.39596C7.72301 7.40684 7.73913 7.42371 7.75076 7.44134C7.63338 7.53584 7.52238 7.64046 7.41663 7.75784C7.39376 7.74771 7.37201 7.74171 7.34351 7.73646C7.36638 7.74734 7.38288 7.76421 7.39901 7.76946C7.29363 7.89171 7.19913 8.00984 7.11551 8.13696C7.09263 8.13696 7.07013 8.13171 7.04313 8.13171C7.06451 8.14259 7.08213 8.15384 7.09863 8.15946C7.01426 8.28696 6.94263 8.42159 6.87588 8.55996C6.85301 8.55996 6.83051 8.56596 6.80276 8.56596C6.83051 8.57759 6.84738 8.57759 6.86426 8.58809C6.80276 8.72796 6.75213 8.87234 6.70826 9.02309C6.68538 9.02834 6.66438 9.03396 6.64151 9.03996C6.66438 9.03996 6.68051 9.03996 6.70301 9.04596C6.66401 9.19034 6.63551 9.34634 6.61863 9.49634C6.59576 9.51321 6.57476 9.51921 6.54626 9.53084C6.57476 9.52484 6.59613 9.52484 6.61376 9.53084C6.60288 9.62984 6.59613 9.74759 6.59613 9.85896V9.98721C6.58076 9.99884 6.55788 10.0093 6.53613 10.0202C6.55826 10.0202 6.58076 10.0157 6.60288 10.0157C6.60813 10.165 6.63063 10.3217 6.65838 10.4661C6.64151 10.483 6.61901 10.4998 6.60288 10.516C6.62426 10.5107 6.64188 10.5051 6.66438 10.4946C6.69138 10.6506 6.73601 10.8013 6.79263 10.9401C6.77501 10.957 6.75813 10.9738 6.74276 10.9956C6.76413 10.978 6.78101 10.9735 6.79751 10.9686C6.85301 11.107 6.91976 11.2461 6.99813 11.3796C6.98651 11.3965 6.97038 11.425 6.95913 11.4418C6.97601 11.431 6.99213 11.4141 7.00901 11.4025C7.08663 11.5315 7.17101 11.6646 7.26551 11.7812C7.26026 11.8041 7.24863 11.8318 7.23776 11.8536C7.25463 11.8315 7.27076 11.8198 7.28838 11.8037C7.38288 11.9267 7.48826 12.0321 7.59963 12.1435C7.59363 12.1603 7.58876 12.1825 7.58351 12.2102C7.59363 12.1881 7.60563 12.172 7.61651 12.1603C7.73388 12.2657 7.85688 12.3553 7.98401 12.4438C7.97876 12.4667 7.97876 12.4892 7.97876 12.5113C7.98401 12.4892 7.99563 12.4731 8.00651 12.4558C8.13476 12.5395 8.26713 12.6058 8.40776 12.6786C8.40776 12.7071 8.40776 12.73 8.41376 12.751C8.41901 12.7296 8.42388 12.7071 8.43513 12.6902C8.56901 12.751 8.71413 12.8076 8.86488 12.8462C8.87013 12.8691 8.87501 12.8961 8.88176 12.9178C8.88176 12.8957 8.88701 12.8687 8.89263 12.8571C9.03701 12.8961 9.18776 12.9178 9.34376 12.9407C9.34901 12.9636 9.36063 12.9797 9.37151 13.0015C9.36626 12.9793 9.36626 12.9632 9.37151 12.9407C9.47688 12.9523 9.58826 12.9636 9.69963 12.9636C9.73901 12.9636 9.78401 12.9576 9.82788 12.9576C9.83951 12.9737 9.85638 12.9966 9.86688 13.0191C9.86163 12.9962 9.85676 12.9737 9.85676 12.9523C10.0128 12.9463 10.1628 12.9295 10.3131 12.9017C10.3308 12.9178 10.3469 12.9295 10.3578 12.9523C10.3518 12.9295 10.3469 12.9122 10.3409 12.8961C10.4916 12.8571 10.636 12.8177 10.7819 12.7622C10.798 12.7798 10.8141 12.796 10.8366 12.8076C10.8258 12.796 10.8138 12.7738 10.8096 12.757C10.954 12.7071 11.0879 12.6347 11.2214 12.562C11.2435 12.568 11.2608 12.5833 11.2829 12.601C11.2728 12.5781 11.2608 12.562 11.2435 12.5455C11.3826 12.4671 11.5064 12.3842 11.6279 12.289C11.6508 12.295 11.6733 12.3058 11.6946 12.3175C11.6785 12.2998 11.6616 12.289 11.6508 12.2661C11.7681 12.1723 11.8791 12.0711 11.9856 11.9601C12.0078 11.9601 12.0295 11.971 12.0524 11.977C12.0355 11.9601 12.0186 11.9485 12.0025 11.9323C12.1079 11.827 12.1968 11.7032 12.286 11.5757C12.3089 11.5757 12.3359 11.5817 12.3584 11.5817C12.3355 11.5708 12.3201 11.5588 12.2976 11.548C12.3869 11.4257 12.4589 11.2866 12.5204 11.1467H12.5928C12.5699 11.1407 12.5538 11.1306 12.5313 11.1197C12.598 10.9851 12.649 10.8407 12.6873 10.6956C12.7101 10.684 12.7379 10.6787 12.7596 10.6735C12.7375 10.6675 12.7158 10.6675 12.6989 10.6618C12.7379 10.5167 12.7656 10.3667 12.7825 10.2107C12.8054 10.2055 12.8271 10.1938 12.8493 10.1878C12.8271 10.1878 12.8054 10.1878 12.7885 10.1826C12.7986 10.0772 12.8054 9.96509 12.8054 9.85971C12.8054 9.81509 12.8054 9.77121 12.7986 9.72584C12.8208 9.71496 12.8376 9.70296 12.8601 9.68759C12.838 9.69134 12.8211 9.69734 12.799 9.70184ZM11.7336 8.13509C11.3211 8.17034 10.9289 8.27121 10.5678 8.42646C10.5186 8.39346 10.4718 8.35746 10.4219 8.32109C10.8048 8.16134 11.2165 8.06046 11.6515 8.03234C11.6793 8.06609 11.707 8.10209 11.7336 8.13509ZM11.5071 7.87371C11.0421 7.89284 10.5925 7.99896 10.18 8.17034C10.1215 8.13509 10.0626 8.10209 10.0026 8.07059C10.4324 7.88909 10.9019 7.78334 11.3935 7.76459C11.4333 7.80171 11.4711 7.83696 11.5071 7.87371ZM10.2745 8.57159C10.213 8.60084 10.1523 8.63909 10.0938 8.67696C10.0446 8.63871 9.99776 8.60084 9.94451 8.56709C10.006 8.52884 10.066 8.49546 10.126 8.46546C10.1763 8.49921 10.2246 8.53334 10.2745 8.57159ZM9.70113 7.10609C10.2569 7.10609 10.7706 7.28346 11.1843 7.59321C10.6608 7.61721 10.1598 7.73009 9.70113 7.92734C9.23988 7.73046 8.74001 7.61759 8.21501 7.59321C8.63313 7.28309 9.14501 7.10609 9.70113 7.10609ZM9.70113 8.40884C9.64038 8.37434 9.57963 8.34359 9.52113 8.30909C9.57813 8.27459 9.64038 8.24534 9.70113 8.21084C9.76188 8.24534 9.82188 8.27459 9.88188 8.30909C9.82113 8.34396 9.76113 8.37471 9.70113 8.40884ZM9.84963 8.83896C9.79901 8.87834 9.74913 8.91509 9.70113 8.95334C9.65051 8.91509 9.60288 8.87871 9.55113 8.83896C9.60026 8.79959 9.65013 8.76059 9.70113 8.72609C9.75138 8.76059 9.80126 8.79921 9.84963 8.83896ZM8.00538 7.76459C8.49888 7.78371 8.96763 7.88909 9.40076 8.07059C9.33851 8.10209 9.28001 8.13509 9.22076 8.17034C8.80901 7.99896 8.36088 7.89284 7.89288 7.87371C7.92851 7.83696 7.96676 7.80171 8.00538 7.76459ZM9.45401 8.56709C9.40413 8.60084 9.35576 8.63871 9.30476 8.67696C9.24851 8.63871 9.18813 8.60084 9.12663 8.57159C9.17501 8.53334 9.22563 8.49921 9.27401 8.46546C9.33626 8.49546 9.39476 8.52921 9.45401 8.56709ZM7.75038 8.03234C8.18238 8.06009 8.59713 8.16134 8.97776 8.32109C8.92863 8.35784 8.87951 8.39346 8.83188 8.42646C8.47226 8.27121 8.07963 8.16996 7.66751 8.13509C7.69488 8.10209 7.72113 8.06609 7.75038 8.03234ZM7.16688 9.66884C7.16688 9.16109 7.31351 8.68446 7.56588 8.28734C7.94238 8.32896 8.30426 8.43396 8.63538 8.58171C8.03201 9.09359 7.56963 9.76746 7.31763 10.5403C7.22013 10.2677 7.16688 9.97634 7.16688 9.66884ZM7.75788 11.3125C7.68738 11.2288 7.62251 11.1388 7.56026 11.0398C7.75226 10.1237 8.24201 9.31634 8.92713 8.73059C8.98563 8.76434 9.04451 8.80221 9.10301 8.84346C8.39201 9.45996 7.89776 10.3281 7.75788 11.3125ZM8.30951 11.8097C8.23263 11.7606 8.15576 11.7021 8.08376 11.6428C8.14826 10.597 8.62226 9.66884 9.34713 9.01484C9.39701 9.05309 9.44538 9.09396 9.49563 9.13559C8.78313 9.80571 8.33051 10.7526 8.30951 11.8097ZM10.747 12.0021C10.429 12.1465 10.0754 12.229 9.70113 12.229C9.32613 12.229 8.97251 12.1461 8.65226 12.0021C8.65226 11.9646 8.65001 11.9267 8.65001 11.8885C8.65001 10.8887 9.05126 9.98421 9.70113 9.32421C10.348 9.98421 10.7493 10.8887 10.7493 11.8885C10.7493 11.9267 10.7493 11.965 10.747 12.0021ZM11.0898 11.8097C11.0676 10.753 10.618 9.80571 9.90776 9.13559C9.95388 9.09396 10.0045 9.05271 10.0544 9.01484C10.7796 9.66884 11.2518 10.597 11.3163 11.6428C11.245 11.7021 11.1689 11.7606 11.0898 11.8097ZM11.6418 11.3125C11.5019 10.3281 11.0088 9.46034 10.2985 8.84346C10.3548 8.80259 10.4144 8.76434 10.4729 8.73059C11.1584 9.31671 11.65 10.1237 11.8401 11.0398C11.779 11.1388 11.7145 11.2288 11.6418 11.3125ZM12.0835 10.5403C11.8315 9.76746 11.3688 9.09396 10.7635 8.58171C11.0969 8.43359 11.4565 8.32896 11.8349 8.28734C12.0869 8.68446 12.2339 9.16109 12.2339 9.66884C12.2343 9.97634 12.1795 10.2677 12.0835 10.5403Z" fill="#D51F3A"/>
<path d="M9.67937 0.546875C4.54712 0.546875 0.390625 4.70412 0.390625 9.836C0.390625 14.9675 4.54712 19.124 9.67937 19.124C14.8109 19.124 18.9681 14.9675 18.9681 9.836C18.9681 4.70412 14.8109 0.546875 9.67937 0.546875ZM15.3242 10.7499C14.7494 11.2179 13.8141 10.5331 13.0896 10.6445C13.0844 10.6505 13.0844 10.6554 13.0844 10.6606C13.7744 10.7499 14.3537 11.5629 15.1176 11.6135C14.4775 11.993 13.6469 11.1624 12.9107 11.1624C12.9107 11.1684 12.9107 11.1793 12.9055 11.1793C13.5854 11.369 14.0245 12.2652 14.7719 12.4434C14.0763 12.7171 13.3896 11.7594 12.6602 11.6525C12.6543 11.6525 12.6542 11.6585 12.6542 11.6641C13.2951 11.9476 13.597 12.9174 14.3042 13.2024C13.5741 13.3644 13.0394 12.305 12.3362 12.0875C12.3362 12.0928 12.331 12.0928 12.3261 12.0984C12.9276 12.4779 13.0667 13.4855 13.7294 13.8819C12.9719 13.9265 12.6152 12.7839 11.9466 12.4662C11.9466 12.473 11.9406 12.4779 11.9357 12.4779C12.4761 12.9399 12.4544 13.9704 13.0499 14.4672C12.2924 14.3889 12.1199 13.2024 11.5075 12.7843L11.5007 12.7902C11.9579 13.3419 11.7741 14.3446 12.2867 14.9296C11.5514 14.7343 11.5675 13.5365 11.0279 13.0299C11.0219 13.0299 11.017 13.0359 11.017 13.0359C11.3841 13.6374 11.0507 14.612 11.4625 15.2705C10.7669 14.9686 10.9675 13.7821 10.5104 13.1979L10.5044 13.2031C10.777 13.8601 10.2869 14.7631 10.5929 15.4816C9.95275 15.0691 10.3424 13.9317 9.97487 13.2871H9.96887C10.1365 13.9771 9.5125 14.7965 9.7015 15.548C9.13375 15.0462 9.697 13.9771 9.44012 13.2871C9.43412 13.2871 9.42925 13.2871 9.42925 13.2871C9.49075 13.994 8.74375 14.7013 8.81125 15.4816C8.33162 14.8962 9.05087 13.9272 8.90575 13.2031C8.90575 13.1979 8.89975 13.1979 8.89487 13.1979C8.84425 13.9104 7.9975 14.489 7.942 15.2705C7.55762 14.618 8.42087 13.7821 8.39312 13.0359C8.39312 13.0359 8.38713 13.0359 8.38713 13.0299C8.22025 13.7262 7.28987 14.1718 7.117 14.9296C6.838 14.2273 7.81862 13.5309 7.91387 12.7955C7.90787 12.7902 7.90225 12.7902 7.90225 12.7846C7.62887 13.4484 6.64337 13.7435 6.35312 14.4676C6.19112 13.7263 7.26737 13.1911 7.47287 12.4783C7.46762 12.4783 7.46762 12.4783 7.462 12.473C7.0945 13.0801 6.07487 13.2129 5.67325 13.8822C5.62937 13.13 6.77125 12.7734 7.08325 12.1047C7.08325 12.0988 7.08325 12.0988 7.07725 12.0988C6.60925 12.6283 5.58962 12.6058 5.09312 13.2024C5.16625 12.4554 6.34187 12.2772 6.75925 11.6754C6.75925 11.6701 6.75325 11.6645 6.75325 11.6585C6.20762 12.1096 5.21088 11.9319 4.6255 12.4437C4.8145 11.7144 5.99575 11.72 6.508 11.1965C6.508 11.1905 6.5035 11.1905 6.49862 11.1856C5.896 11.5314 4.93787 11.2085 4.28612 11.6143C4.58125 10.9288 5.74 11.1192 6.33175 10.6835C6.33175 10.6835 6.32575 10.6734 6.32575 10.6674C5.67325 10.9186 4.78187 10.4446 4.07425 10.751C4.47475 10.1161 5.58437 10.4784 6.2365 10.1555C6.2365 10.1488 6.2365 10.1379 6.2305 10.1326C5.55025 10.2657 4.74887 9.6755 4.0075 9.85925C4.49762 9.302 5.52812 9.82625 6.2245 9.60875V9.58587C5.52812 9.60875 4.83137 8.89513 4.07425 8.96187C4.64762 8.49388 5.578 9.16775 6.29725 9.07325C6.29725 9.06238 6.29725 9.05112 6.30325 9.04625C5.61775 8.957 5.04362 8.14813 4.28612 8.09338C4.921 7.72513 5.72912 8.52763 6.45325 8.5505C6.4585 8.53888 6.4585 8.52762 6.46487 8.52125C5.80112 8.31537 5.36125 7.44163 4.62587 7.268C5.31062 7.00588 5.98 7.91487 6.69287 8.054C6.69287 8.048 6.69887 8.03713 6.7045 8.03113C6.09137 7.72513 5.78988 6.7895 5.09312 6.50975C5.80638 6.35375 6.32575 7.346 7.00487 7.6085C7.01087 7.59087 7.01575 7.58563 7.02175 7.58075C6.46525 7.1795 6.32012 6.20975 5.67325 5.825C6.40337 5.786 6.75925 6.84462 7.38437 7.20725C7.38887 7.19637 7.4005 7.19038 7.4065 7.18438C6.92687 6.70025 6.92687 5.7305 6.35312 5.25088C7.07762 5.31763 7.26737 6.41038 7.81862 6.87238C7.8295 6.8615 7.8415 6.85625 7.85237 6.8495C7.45675 6.29862 7.60712 5.34013 7.117 4.7825C7.81862 4.967 7.8355 6.07025 8.3095 6.61063C8.32037 6.60463 8.33162 6.60462 8.3425 6.593C8.04137 5.98587 8.33725 5.0675 7.942 4.43675C8.605 4.72662 8.44825 5.819 8.83337 6.42688C8.84425 6.42688 8.8555 6.42087 8.86712 6.416C8.66575 5.76912 9.10075 4.9115 8.81162 4.23125C9.418 4.62163 9.09512 5.675 9.38012 6.332H9.41237C9.32387 5.65737 9.88112 4.87813 9.70225 4.15887C10.2434 4.64375 9.75775 5.63037 9.93137 6.32675C9.9415 6.32675 9.95837 6.32675 9.96962 6.332C9.9865 5.65212 10.6559 4.97263 10.5936 4.23125C11.0515 4.7885 10.4215 5.69112 10.483 6.40512C10.4939 6.40512 10.5051 6.41037 10.5212 6.41037C10.6386 5.74662 11.4134 5.18488 11.4632 4.43713C11.8259 5.06788 11.0627 5.85875 11.0121 6.572C11.023 6.57725 11.035 6.57725 11.0459 6.58288C11.2686 5.942 12.121 5.501 12.2882 4.7825C12.5504 5.45713 11.6642 6.11975 11.509 6.82212C11.5199 6.82662 11.5311 6.833 11.536 6.83825C11.8589 6.23675 12.7731 5.94162 13.0514 5.2505C13.2029 5.95287 12.2215 6.47675 11.9594 7.14538C11.9654 7.15625 11.977 7.16225 11.9879 7.1675C12.3891 6.62188 13.342 6.47188 13.7309 5.825C13.7699 6.56113 12.712 6.911 12.3494 7.54175C12.3602 7.54625 12.3662 7.55787 12.3722 7.56312C12.8624 7.08425 13.8321 7.08425 14.3057 6.50975C14.2382 7.23425 13.1301 7.41875 12.6782 7.98688C12.6835 7.99775 12.6891 8.00975 12.6951 8.01538C13.2524 7.60813 14.2105 7.76412 14.773 7.26762C14.5949 7.97525 13.4582 7.98688 12.9287 8.48263C12.9347 8.48263 12.9396 8.4935 12.9396 8.51038C13.5535 8.18675 14.4786 8.4935 15.1187 8.093C14.8236 8.76687 13.6979 8.6 13.0956 9.0005C13.1016 9.01812 13.1016 9.02337 13.1072 9.03425C13.7597 8.80662 14.6335 9.26262 15.325 8.96187C14.9286 9.58588 13.8374 9.24012 13.1796 9.55212C13.1849 9.55812 13.1849 9.569 13.1849 9.575C13.8647 9.452 14.6616 10.0378 15.3966 9.85925C14.9057 10.4116 13.876 9.887 13.1796 10.0981V10.1259C13.8689 10.1037 14.5652 10.8114 15.3242 10.7499Z" fill="#D51F3A"/>
<path d="M15.396 9.85858C14.6606 10.0375 13.8637 9.45133 13.1842 9.57433C13.1842 9.56833 13.1842 9.55745 13.179 9.55145C13.8367 9.23945 14.928 9.5852 15.3243 8.9612C14.6328 9.26233 13.7591 8.80595 13.1066 9.03358C13.1006 9.0227 13.1006 9.01745 13.095 8.99983C13.6968 8.59933 14.8226 8.7662 15.1181 8.09233C14.478 8.49283 13.5528 8.18608 12.939 8.5097C12.939 8.49283 12.9337 8.48195 12.9281 8.48195C13.4576 7.9862 14.5942 7.9742 14.7723 7.26695C14.2098 7.76345 13.2517 7.60745 12.6945 8.0147C12.6885 8.0087 12.6828 7.99708 12.6776 7.9862C13.1295 7.4177 14.2376 7.2332 14.3051 6.50908C13.8311 7.0832 12.8613 7.0832 12.3716 7.56245C12.3656 7.5572 12.36 7.54558 12.3487 7.54108C12.7113 6.91033 13.7688 6.56045 13.7302 5.82433C13.3413 6.4712 12.3885 6.6212 11.9872 7.16683C11.9763 7.16158 11.9643 7.15595 11.9587 7.1447C12.2208 6.47608 13.2022 5.9522 13.0507 5.24983C12.7725 5.94133 11.8582 6.23645 11.5353 6.83758C11.5301 6.83233 11.5192 6.82595 11.5083 6.82145C11.6636 6.11908 12.5497 5.45608 12.2876 4.78183C12.1207 5.50033 11.268 5.94133 11.0452 6.5822C11.0343 6.5762 11.0223 6.5762 11.0115 6.57133C11.0621 5.85808 11.8252 5.06683 11.4626 4.43645C11.4127 5.1842 10.638 5.74595 10.5206 6.4097C10.5045 6.4097 10.4936 6.40445 10.4823 6.40445C10.4208 5.69045 11.0508 4.78783 10.593 4.23058C10.6552 4.97195 9.98584 5.65145 9.96896 6.33133C9.95809 6.32608 9.94121 6.32608 9.93071 6.32608C9.75709 5.6297 10.2427 4.64308 9.70159 4.1582C9.88046 4.87745 9.32284 5.6567 9.41171 6.33133H9.37946C9.09446 5.67433 9.41771 4.62095 8.81096 4.23058C9.10009 4.91083 8.66509 5.76883 8.86646 6.41533C8.85484 6.42058 8.84359 6.4262 8.83271 6.4262C8.44759 5.81833 8.60434 4.72633 7.94134 4.43608C8.33696 5.06683 8.04109 5.9852 8.34184 6.59233C8.33096 6.60395 8.31971 6.60395 8.30884 6.60995C7.83484 6.06958 7.81796 4.96633 7.11634 4.78183C7.60646 5.33908 7.45609 6.29795 7.85171 6.84883C7.84084 6.85558 7.82884 6.86045 7.81796 6.8717C7.26634 6.4097 7.07659 5.31695 6.35246 5.2502C6.92584 5.72983 6.92584 6.69958 7.40584 7.1837C7.39984 7.1897 7.38821 7.19533 7.38371 7.20658C6.75896 6.84395 6.40309 5.7857 5.67259 5.82433C6.31946 6.2087 6.46421 7.17845 7.02109 7.58008C7.01509 7.58533 7.01021 7.5902 7.00421 7.60783C6.32509 7.3457 5.80609 6.35308 5.09246 6.50908C5.78884 6.78883 6.09071 7.72408 6.70384 8.03045C6.69784 8.03645 6.69221 8.04733 6.69221 8.05333C5.97971 7.9142 5.30996 7.0052 4.62521 7.26733C5.36059 7.44095 5.80084 8.3147 6.46421 8.52058C6.45746 8.52733 6.45746 8.5382 6.45259 8.54983C5.72809 8.52695 4.92034 7.72445 4.28546 8.0927C5.04296 8.14745 5.61709 8.95633 6.30259 9.04558C6.29659 9.05083 6.29659 9.0617 6.29659 9.07258C5.57734 9.16708 4.64734 8.4932 4.07359 8.9612C4.83109 8.89445 5.52746 9.60808 6.22384 9.5852V9.60808C5.52746 9.82558 4.49696 9.30133 4.00684 9.85858C4.74821 9.67483 5.54921 10.2651 6.22984 10.132C6.23584 10.1372 6.23584 10.1481 6.23584 10.1548C5.58409 10.4777 4.47446 10.1155 4.07359 10.7503C4.78121 10.4443 5.67259 10.918 6.32509 10.6667C6.32509 10.6727 6.33109 10.6828 6.33109 10.6828C5.73934 11.1186 4.58059 10.9281 4.28546 11.6136C4.93721 11.2078 5.89534 11.5307 6.49796 11.185C6.50321 11.1902 6.50734 11.1902 6.50734 11.1958C5.99546 11.7193 4.81384 11.7137 4.62484 12.4431C5.21021 11.9312 6.20696 12.109 6.75259 11.6578C6.75259 11.6638 6.75859 11.6695 6.75859 11.6747C6.34121 12.2766 5.16559 12.4547 5.09246 13.2017C5.58896 12.6047 6.60859 12.6276 7.07659 12.0981C7.08259 12.0981 7.08259 12.0981 7.08259 12.1041C6.77059 12.7727 5.62871 13.1293 5.67259 13.8816C6.07384 13.2122 7.09346 13.0795 7.46134 12.4723C7.46734 12.4776 7.46734 12.4776 7.47221 12.4776C7.26634 13.1901 6.19046 13.7256 6.35246 14.467C6.64234 13.7425 7.62821 13.4473 7.90159 12.784C7.90159 12.79 7.90759 12.79 7.91321 12.7948C7.81796 13.5302 6.83734 14.2266 7.11634 14.929C7.28921 14.1711 8.21921 13.7256 8.38646 13.0292C8.38646 13.0352 8.39246 13.0352 8.39246 13.0352C8.42021 13.7815 7.55659 14.6173 7.94134 15.2698C7.99684 14.4883 8.84359 13.9097 8.89421 13.1972C8.89946 13.1972 8.90509 13.1972 8.90509 13.2025C9.05021 13.927 8.33096 14.896 8.81059 15.481C8.74309 14.701 9.49046 13.9933 9.42859 13.2865H9.43946C9.69671 13.9765 9.13346 15.0456 9.70084 15.5473C9.51184 14.7958 10.1358 13.9765 9.96821 13.2865H9.97421C10.3417 13.9311 9.95209 15.0685 10.5922 15.481C10.2862 14.7625 10.776 13.8595 10.5037 13.2025L10.5097 13.1972C10.9668 13.7818 10.7662 14.9683 11.4618 15.2698C11.0501 14.6113 11.3835 13.6367 11.0163 13.0352C11.0163 13.0352 11.0216 13.0292 11.0272 13.0292C11.5668 13.5362 11.5507 14.7336 12.2861 14.929C11.7735 14.3436 11.9572 13.3412 11.5001 12.7896L11.5068 12.7836C12.1192 13.2017 12.2921 14.3882 13.0492 14.4666C12.4537 13.9701 12.4758 12.9396 11.9351 12.4772C11.9403 12.4772 11.946 12.472 11.946 12.4656C12.6146 12.7836 12.9712 13.9262 13.7287 13.8812C13.0657 13.4848 12.9266 12.4772 12.3255 12.0977C12.3307 12.0917 12.3356 12.0917 12.3356 12.0868C13.0387 12.3043 13.5735 13.3633 14.3036 13.2017C13.596 12.9167 13.2945 11.947 12.6536 11.6635C12.6536 11.6575 12.6536 11.6518 12.6596 11.6518C13.389 11.7587 14.0752 12.7168 14.7712 12.4427C14.0242 12.2646 13.5847 11.3683 12.9048 11.1786C12.9101 11.1786 12.9101 11.1677 12.9101 11.1617C13.6462 11.1617 14.4768 11.9923 15.117 11.6128C14.3531 11.5622 13.7737 10.7492 13.0837 10.66C13.0837 10.6547 13.0837 10.6498 13.089 10.6438C13.8135 10.5325 14.7487 11.2172 15.3236 10.7492C14.565 10.8107 13.8682 10.1031 13.1782 10.1245V10.0967C13.8753 9.88633 14.9055 10.4106 15.396 9.85858ZM12.8062 9.85858C12.8062 9.96395 12.7995 10.0761 12.7893 10.1815C12.8062 10.1867 12.8283 10.1867 12.8501 10.1867C12.828 10.1927 12.8062 10.2043 12.7833 10.2096C12.7665 10.3656 12.7387 10.5156 12.6997 10.6607C12.7166 10.6667 12.7387 10.6667 12.7605 10.6723C12.7383 10.6776 12.7106 10.6825 12.6881 10.6945C12.6498 10.8396 12.5988 10.9836 12.5321 11.1186C12.555 11.1295 12.5711 11.14 12.5936 11.1456H12.5212C12.4597 11.2855 12.3881 11.4246 12.2985 11.5468C12.3213 11.5577 12.3367 11.5697 12.3592 11.5806C12.3363 11.5806 12.3093 11.5746 12.2868 11.5746C12.1976 11.7021 12.1087 11.8258 12.0033 11.9312C12.0195 11.9473 12.0363 11.959 12.0532 11.9758C12.0303 11.9698 12.0086 11.959 11.9865 11.959C11.8803 12.0703 11.769 12.1712 11.6516 12.265C11.6625 12.2878 11.6793 12.2987 11.6955 12.3163C11.6741 12.3047 11.6516 12.2935 11.6287 12.2878C11.5072 12.3831 11.3835 12.466 11.2443 12.5443C11.262 12.5612 11.2736 12.5773 11.2837 12.5998C11.2616 12.5822 11.2443 12.5668 11.2222 12.5608C11.0891 12.6332 10.9548 12.706 10.8105 12.7558C10.815 12.7727 10.8266 12.7948 10.8375 12.8065C10.8146 12.7948 10.7985 12.7787 10.7827 12.7611C10.6368 12.8166 10.4928 12.8563 10.3417 12.895C10.3477 12.9111 10.3526 12.9287 10.3586 12.9512C10.3477 12.9283 10.3316 12.9167 10.314 12.9006C10.164 12.9283 10.0136 12.9452 9.85759 12.9512C9.85759 12.9726 9.86284 12.9951 9.86771 13.018C9.85759 12.9951 9.84071 12.9726 9.82871 12.9565C9.78484 12.9565 9.74021 12.9625 9.70046 12.9625C9.58909 12.9625 9.47771 12.9516 9.37234 12.9396C9.36709 12.9625 9.36709 12.9786 9.37234 13.0003C9.36146 12.9782 9.34946 12.9621 9.34459 12.9396C9.18859 12.9167 9.03784 12.895 8.89346 12.856C8.88746 12.8676 8.88259 12.895 8.88259 12.9167C8.87584 12.8946 8.87096 12.8676 8.86571 12.8451C8.71496 12.8061 8.56984 12.7498 8.43596 12.6891C8.42509 12.706 8.41984 12.7285 8.41459 12.7498C8.40859 12.7285 8.40859 12.706 8.40859 12.6775C8.26796 12.6051 8.13521 12.5383 8.00734 12.4547C7.99646 12.4723 7.98446 12.4885 7.97959 12.5102C7.97959 12.4881 7.97959 12.4656 7.98484 12.4427C7.85734 12.3542 7.73434 12.2646 7.61734 12.1592C7.60646 12.1708 7.59446 12.187 7.58434 12.2091C7.58959 12.1813 7.59446 12.1592 7.60046 12.1423C7.48909 12.031 7.38371 11.9256 7.28921 11.8026C7.27159 11.8187 7.25546 11.8303 7.23859 11.8525C7.24946 11.8303 7.26146 11.8026 7.26634 11.7801C7.17184 11.6635 7.08746 11.5303 7.00984 11.4013C6.99296 11.413 6.97684 11.4298 6.95996 11.4407C6.97084 11.4238 6.98696 11.3953 6.99896 11.3785C6.92059 11.2453 6.85384 11.1058 6.79834 10.9675C6.78146 10.9727 6.76459 10.9768 6.74359 10.9945C6.75896 10.9723 6.77584 10.9555 6.79346 10.939C6.73721 10.8006 6.69221 10.6498 6.66521 10.4935C6.64234 10.5036 6.62509 10.5096 6.60371 10.5148C6.61984 10.4987 6.64271 10.4818 6.65921 10.465C6.63146 10.3206 6.60859 10.1638 6.60371 10.0146C6.58159 10.0146 6.55909 10.0191 6.53696 10.0191C6.55909 10.0082 6.58159 9.9977 6.59696 9.98608V9.85858C6.59696 9.7472 6.60371 9.62945 6.61459 9.53045C6.59696 9.52445 6.57559 9.52445 6.54709 9.53045C6.57559 9.51883 6.59696 9.51283 6.61946 9.49595C6.63634 9.34595 6.66484 9.18995 6.70384 9.04558C6.68096 9.03958 6.66484 9.03958 6.64234 9.03958C6.66521 9.03358 6.68621 9.02795 6.70909 9.0227C6.75296 8.87195 6.80359 8.72758 6.86509 8.5877C6.84821 8.57758 6.83134 8.57758 6.80359 8.56558C6.83134 8.56558 6.85421 8.55958 6.87671 8.55958C6.94346 8.4212 7.01509 8.2862 7.09946 8.15908C7.08259 8.15308 7.06496 8.1422 7.04396 8.13133C7.07096 8.13133 7.09384 8.13658 7.11634 8.13658C7.19996 8.00908 7.29446 7.89133 7.39984 7.76908C7.38371 7.76383 7.36684 7.74695 7.34434 7.73608C7.37284 7.74133 7.39496 7.74695 7.41746 7.75745C7.52284 7.64008 7.63421 7.53545 7.75159 7.44095C7.73996 7.42333 7.72384 7.40645 7.70621 7.39558C7.72909 7.40158 7.75159 7.41245 7.77371 7.42333C7.89109 7.32883 8.01896 7.23958 8.15246 7.16683C8.14234 7.1447 8.13034 7.13383 8.11346 7.11208C8.13634 7.1282 8.15809 7.13983 8.17496 7.15033C8.30884 7.0727 8.44759 7.0112 8.59234 6.95608C8.58709 6.93845 8.57621 6.92158 8.56534 6.89458C8.58146 6.91595 8.59834 6.93358 8.62009 6.94445C8.75921 6.89458 8.90996 6.8492 9.06034 6.81695C9.05509 6.79933 9.05021 6.77758 9.04421 6.7547C9.05509 6.77758 9.07196 6.79408 9.08884 6.81695C9.23884 6.77758 9.38921 6.76633 9.54521 6.7547C9.53996 6.73933 9.53996 6.71645 9.53509 6.69395C9.54521 6.71683 9.56209 6.73933 9.57334 6.7547H9.70159C9.81371 6.7547 9.92584 6.7547 10.0305 6.77158V6.70483C10.0421 6.73258 10.0473 6.7487 10.0582 6.77158C10.215 6.7892 10.3593 6.81695 10.5101 6.85595C10.5153 6.83833 10.5153 6.81695 10.5202 6.79445C10.5262 6.81733 10.5318 6.84433 10.5378 6.8612C10.6822 6.91108 10.827 6.9617 10.9672 7.0232C10.9773 7.00558 10.9833 6.9842 10.9886 6.9617C10.9886 6.98458 10.9886 7.01158 10.9946 7.03408C11.1345 7.10083 11.268 7.1732 11.3958 7.25158C11.4067 7.23995 11.4187 7.21783 11.4236 7.20095C11.4236 7.22383 11.4183 7.25158 11.4183 7.27333C11.5458 7.35695 11.6688 7.4522 11.7795 7.55233C11.7911 7.54145 11.808 7.52383 11.8196 7.50095C11.8136 7.52383 11.802 7.54558 11.802 7.57408C11.9141 7.67458 12.0195 7.78558 12.1147 7.9082C12.1316 7.89133 12.1477 7.88045 12.1646 7.85833C12.1545 7.88533 12.1425 7.9082 12.1368 7.92583C12.2321 8.04733 12.3157 8.17633 12.3933 8.30945C12.411 8.29258 12.4263 8.28658 12.4432 8.27008C12.4323 8.29295 12.4155 8.3147 12.405 8.33233C12.4826 8.46545 12.5493 8.5997 12.5992 8.7497C12.6221 8.7437 12.6386 8.73283 12.6547 8.7167C12.6446 8.73883 12.6217 8.75495 12.6108 8.7722C12.6607 8.91658 12.7053 9.06133 12.7391 9.21245C12.7552 9.21245 12.7781 9.20158 12.7998 9.18958C12.7777 9.21245 12.7608 9.22858 12.7443 9.23945C12.7721 9.3902 12.7897 9.5462 12.7998 9.70145C12.822 9.69695 12.8388 9.69133 12.8613 9.68608C12.8385 9.70145 12.822 9.71308 12.7998 9.72433C12.8062 9.7697 12.8062 9.81358 12.8062 9.85858Z" fill="#F6EC32"/>
<path d="M9.40083 8.07065C8.96808 7.88915 8.49933 7.7834 8.00545 7.76465C7.96645 7.80215 7.92858 7.83702 7.89258 7.87377C8.36058 7.8929 8.8087 7.99902 9.22045 8.1704C9.28008 8.13515 9.33858 8.10215 9.40083 8.07065Z" fill="#F6EC32"/>
<path d="M11.1851 7.59308C10.7711 7.28333 10.2577 7.10596 9.70194 7.10596C9.14619 7.10596 8.63395 7.28333 8.21582 7.59308C8.74082 7.61708 9.24032 7.72996 9.70194 7.92721C10.1602 7.72996 10.6612 7.61708 11.1851 7.59308Z" fill="#F6EC32"/>
<path d="M8.97822 8.32098C8.59722 8.16123 8.18284 8.06035 7.75084 8.03223C7.72159 8.06598 7.69534 8.10198 7.66797 8.1346C8.08047 8.16985 8.47272 8.27073 8.83234 8.42598C8.87997 8.39335 8.92909 8.35773 8.97822 8.32098Z" fill="#F6EC32"/>
<path d="M10.0548 9.01465C10.005 9.0529 9.95433 9.09377 9.9082 9.1354C10.6188 9.80552 11.0685 10.7528 11.0902 11.8095C11.1693 11.7604 11.2455 11.7019 11.3167 11.6426C11.2522 10.5964 10.7801 9.66865 10.0548 9.01465Z" fill="#F6EC32"/>
<path d="M10.1805 8.1704C10.593 7.99902 11.0427 7.8929 11.5077 7.87377C11.4717 7.83702 11.4338 7.80215 11.394 7.76465C10.9024 7.78377 10.4329 7.88915 10.0032 8.07065C10.0632 8.10215 10.122 8.13515 10.1805 8.1704Z" fill="#F6EC32"/>
<path d="M10.4734 8.73047C10.4149 8.76422 10.3557 8.80209 10.2991 8.84334C11.0097 9.46022 11.5024 10.328 11.6423 11.3123C11.7147 11.2287 11.7792 11.1387 11.8407 11.0397C11.6506 10.1236 11.1589 9.31622 10.4734 8.73047Z" fill="#F6EC32"/>
<path d="M8.63549 8.58148C8.30437 8.43336 7.94249 8.32873 7.56599 8.28711C7.31324 8.68423 7.16699 9.16086 7.16699 9.66861C7.16699 9.97611 7.22062 10.2679 7.31774 10.5401C7.56974 9.76723 8.03174 9.09373 8.63549 8.58148Z" fill="#F6EC32"/>
<path d="M10.5677 8.42646C10.9289 8.27121 11.3215 8.16997 11.7336 8.13509C11.7074 8.10209 11.6792 8.06609 11.6515 8.03271C11.2165 8.06046 10.8048 8.16172 10.4219 8.32147C10.4717 8.35784 10.5186 8.39346 10.5677 8.42646Z" fill="#F6EC32"/>
<path d="M8.65039 11.889C8.65039 11.9272 8.65264 11.9651 8.65264 12.0026C8.97289 12.147 9.32651 12.2295 9.70151 12.2295C10.0758 12.2295 10.4294 12.1466 10.7474 12.0026C10.7496 11.9651 10.7496 11.9272 10.7496 11.889C10.7496 10.8892 10.3484 9.98471 9.70151 9.32471C9.05164 9.98471 8.65039 10.8892 8.65039 11.889Z" fill="#F6EC32"/>
<path d="M9.70148 8.21143C9.64073 8.24593 9.57848 8.27518 9.52148 8.30968C9.57998 8.34418 9.64073 8.37493 9.70148 8.40943C9.76148 8.37493 9.82148 8.34418 9.88223 8.30968C9.82223 8.27518 9.76223 8.24593 9.70148 8.21143Z" fill="#F6EC32"/>
<path d="M10.7646 8.58148C11.3695 9.09336 11.8326 9.76723 12.0846 10.5401C12.1806 10.2675 12.2354 9.97611 12.2354 9.66861C12.2354 9.16086 12.088 8.68423 11.8364 8.28711C11.4573 8.32873 11.0976 8.43373 10.7646 8.58148Z" fill="#F6EC32"/>
<path d="M9.3476 9.01465C8.62235 9.66865 8.14873 10.5968 8.08423 11.6426C8.15585 11.7019 8.23273 11.7604 8.30998 11.8095C8.33135 10.7528 8.78398 9.80552 9.49648 9.1354C9.44585 9.09377 9.39748 9.05252 9.3476 9.01465Z" fill="#F6EC32"/>
<path d="M9.55078 8.83895C9.60291 8.87832 9.65053 8.91507 9.70078 8.95332C9.74916 8.91507 9.79903 8.8787 9.84928 8.83895C9.80091 8.79957 9.75103 8.76057 9.70078 8.72607C9.64978 8.76057 9.59991 8.7992 9.55078 8.83895Z" fill="#F6EC32"/>
<path d="M9.10305 8.84334C9.04455 8.80247 8.98568 8.76422 8.92718 8.73047C8.24243 9.31659 7.7523 10.1236 7.5603 11.0397C7.62255 11.1387 7.6878 11.2287 7.75793 11.3123C7.89818 10.328 8.39243 9.45984 9.10305 8.84334Z" fill="#F6EC32"/>
<path d="M9.94434 8.56696C9.99796 8.60071 10.0448 8.63858 10.0936 8.67683C10.1521 8.63858 10.2128 8.60071 10.2743 8.57146C10.2245 8.53321 10.1761 8.49908 10.1258 8.46533C10.0658 8.49533 10.0058 8.52908 9.94434 8.56696Z" fill="#F6EC32"/>
<path d="M9.1272 8.57146C9.1887 8.60071 9.2487 8.63896 9.30532 8.67683C9.3567 8.63858 9.40507 8.60071 9.45457 8.56696C9.39532 8.52871 9.33682 8.49533 9.27457 8.46533C9.2262 8.49908 9.17557 8.53321 9.1272 8.57146Z" fill="#F6EC32"/>
</svg>
