<svg width="25" height="25" viewBox="0 0 25 25" fill="none" xmlns="http://www.w3.org/2000/svg">
<path d="M12.0371 12.6426C12.5871 12.6426 13.0581 12.4466 13.4501 12.0546C13.8414 11.6632 14.0371 11.1926 14.0371 10.6426C14.0371 10.0926 13.8414 9.62158 13.4501 9.22958C13.0581 8.83824 12.5871 8.64258 12.0371 8.64258C11.4871 8.64258 11.0164 8.83824 10.6251 9.22958C10.2331 9.62158 10.0371 10.0926 10.0371 10.6426C10.0371 11.1926 10.2331 11.6632 10.6251 12.0546C11.0164 12.4466 11.4871 12.6426 12.0371 12.6426ZM12.0371 22.6426C9.35378 20.3592 7.34978 18.2382 6.02511 16.2796C4.69978 14.3216 4.03711 12.5092 4.03711 10.8426C4.03711 8.34258 4.84144 6.35091 6.45011 4.86758C8.05811 3.38424 9.92044 2.64258 12.0371 2.64258C14.1538 2.64258 16.0161 3.38424 17.6241 4.86758C19.2328 6.35091 20.0371 8.34258 20.0371 10.8426C20.0371 12.5092 19.3748 14.3216 18.0501 16.2796C16.7248 18.2382 14.7204 20.3592 12.0371 22.6426Z" fill="#FF5714"/>
</svg>
