<svg width="98" height="94" viewBox="0 0 98 94" fill="none" xmlns="http://www.w3.org/2000/svg">
<path d="M82.75 62L51.922 3.25429C51.1856 1.851 49.1874 1.82081 48.4089 3.20121L15.25 62" stroke="#14988B" stroke-width="4" stroke-linecap="round"/>
<path d="M50.25 15L35.25 41.2088M35.25 41.2088L52.9163 57.017C54.2047 58.1698 56.25 57.2554 56.25 55.5266V43.2088C56.25 42.1042 55.3546 41.2088 54.25 41.2088H35.25Z" stroke="#14988B" stroke-width="2" stroke-linecap="round"/>
<path d="M9.94 85.34H4.38L3.46 88H0.52L5.54 74.02H8.8L13.82 88H10.86L9.94 85.34ZM9.18 83.1L7.16 77.26L5.14 83.1H9.18ZM20.0364 76.74C20.8631 76.74 21.5897 76.9067 22.2164 77.24C22.8431 77.56 23.3364 77.98 23.6964 78.5V76.92H26.5164V88.08C26.5164 89.1067 26.3097 90.02 25.8964 90.82C25.4831 91.6333 24.8631 92.2733 24.0364 92.74C23.2097 93.22 22.2097 93.46 21.0364 93.46C19.4631 93.46 18.1697 93.0933 17.1564 92.36C16.1564 91.6267 15.5897 90.6267 15.4564 89.36H18.2364C18.3831 89.8667 18.6964 90.2667 19.1764 90.56C19.6697 90.8667 20.2631 91.02 20.9564 91.02C21.7697 91.02 22.4297 90.7733 22.9364 90.28C23.4431 89.8 23.6964 89.0667 23.6964 88.08V86.36C23.3364 86.88 22.8364 87.3133 22.1964 87.66C21.5697 88.0067 20.8497 88.18 20.0364 88.18C19.1031 88.18 18.2497 87.94 17.4764 87.46C16.7031 86.98 16.0897 86.3067 15.6364 85.44C15.1964 84.56 14.9764 83.5533 14.9764 82.42C14.9764 81.3 15.1964 80.3067 15.6364 79.44C16.0897 78.5733 16.6964 77.9067 17.4564 77.44C18.2297 76.9733 19.0897 76.74 20.0364 76.74ZM23.6964 82.46C23.6964 81.78 23.5631 81.2 23.2964 80.72C23.0297 80.2267 22.6697 79.8533 22.2164 79.6C21.7631 79.3333 21.2764 79.2 20.7564 79.2C20.2364 79.2 19.7564 79.3267 19.3164 79.58C18.8764 79.8333 18.5164 80.2067 18.2364 80.7C17.9697 81.18 17.8364 81.7533 17.8364 82.42C17.8364 83.0867 17.9697 83.6733 18.2364 84.18C18.5164 84.6733 18.8764 85.0533 19.3164 85.32C19.7697 85.5867 20.2497 85.72 20.7564 85.72C21.2764 85.72 21.7631 85.5933 22.2164 85.34C22.6697 85.0733 23.0297 84.7 23.2964 84.22C23.5631 83.7267 23.6964 83.14 23.6964 82.46ZM32.0511 78.64C32.4111 78.0533 32.8778 77.5933 33.4511 77.26C34.0378 76.9267 34.7044 76.76 35.4511 76.76V79.7H34.7111C33.8311 79.7 33.1644 79.9067 32.7111 80.32C32.2711 80.7333 32.0511 81.4533 32.0511 82.48V88H29.2511V76.92H32.0511V78.64ZM38.757 75.6C38.2637 75.6 37.8504 75.4467 37.517 75.14C37.197 74.82 37.037 74.4267 37.037 73.96C37.037 73.4933 37.197 73.1067 37.517 72.8C37.8504 72.48 38.2637 72.32 38.757 72.32C39.2504 72.32 39.657 72.48 39.977 72.8C40.3104 73.1067 40.477 73.4933 40.477 73.96C40.477 74.4267 40.3104 74.82 39.977 75.14C39.657 75.4467 39.2504 75.6 38.757 75.6ZM40.137 76.92V88H37.337V76.92H40.137ZM47.2434 76.74C48.0701 76.74 48.7968 76.9067 49.4234 77.24C50.0501 77.56 50.5434 77.98 50.9034 78.5V76.92H53.7234V88.08C53.7234 89.1067 53.5168 90.02 53.1034 90.82C52.6901 91.6333 52.0701 92.2733 51.2434 92.74C50.4168 93.22 49.4168 93.46 48.2434 93.46C46.6701 93.46 45.3768 93.0933 44.3634 92.36C43.3634 91.6267 42.7968 90.6267 42.6634 89.36H45.4434C45.5901 89.8667 45.9034 90.2667 46.3834 90.56C46.8768 90.8667 47.4701 91.02 48.1634 91.02C48.9768 91.02 49.6368 90.7733 50.1434 90.28C50.6501 89.8 50.9034 89.0667 50.9034 88.08V86.36C50.5434 86.88 50.0434 87.3133 49.4034 87.66C48.7768 88.0067 48.0568 88.18 47.2434 88.18C46.3101 88.18 45.4568 87.94 44.6834 87.46C43.9101 86.98 43.2968 86.3067 42.8434 85.44C42.4034 84.56 42.1834 83.5533 42.1834 82.42C42.1834 81.3 42.4034 80.3067 42.8434 79.44C43.2968 78.5733 43.9034 77.9067 44.6634 77.44C45.4368 76.9733 46.2968 76.74 47.2434 76.74ZM50.9034 82.46C50.9034 81.78 50.7701 81.2 50.5034 80.72C50.2368 80.2267 49.8768 79.8533 49.4234 79.6C48.9701 79.3333 48.4834 79.2 47.9634 79.2C47.4434 79.2 46.9634 79.3267 46.5234 79.58C46.0834 79.8333 45.7234 80.2067 45.4434 80.7C45.1768 81.18 45.0434 81.7533 45.0434 82.42C45.0434 83.0867 45.1768 83.6733 45.4434 84.18C45.7234 84.6733 46.0834 85.0533 46.5234 85.32C46.9768 85.5867 47.4568 85.72 47.9634 85.72C48.4834 85.72 48.9701 85.5933 49.4234 85.34C49.8768 85.0733 50.2368 84.7 50.5034 84.22C50.7701 83.7267 50.9034 83.14 50.9034 82.46ZM59.2581 78.64C59.6181 78.0533 60.0848 77.5933 60.6581 77.26C61.2448 76.9267 61.9115 76.76 62.6581 76.76V79.7H61.9181C61.0381 79.7 60.3715 79.9067 59.9181 80.32C59.4781 80.7333 59.2581 81.4533 59.2581 82.48V88H56.4581V76.92H59.2581V78.64ZM63.8241 82.42C63.8241 81.3 64.0441 80.3067 64.4841 79.44C64.9374 78.5733 65.5441 77.9067 66.3041 77.44C67.0774 76.9733 67.9374 76.74 68.8841 76.74C69.7107 76.74 70.4307 76.9067 71.0441 77.24C71.6707 77.5733 72.1707 77.9933 72.5441 78.5V76.92H75.3641V88H72.5441V86.38C72.1841 86.9 71.6841 87.3333 71.0441 87.68C70.4174 88.0133 69.6907 88.18 68.8641 88.18C67.9307 88.18 67.0774 87.94 66.3041 87.46C65.5441 86.98 64.9374 86.3067 64.4841 85.44C64.0441 84.56 63.8241 83.5533 63.8241 82.42ZM72.5441 82.46C72.5441 81.78 72.4107 81.2 72.1441 80.72C71.8774 80.2267 71.5174 79.8533 71.0641 79.6C70.6107 79.3333 70.1241 79.2 69.6041 79.2C69.0841 79.2 68.6041 79.3267 68.1641 79.58C67.7241 79.8333 67.3641 80.2067 67.0841 80.7C66.8174 81.18 66.6841 81.7533 66.6841 82.42C66.6841 83.0867 66.8174 83.6733 67.0841 84.18C67.3641 84.6733 67.7241 85.0533 68.1641 85.32C68.6174 85.5867 69.0974 85.72 69.6041 85.72C70.1241 85.72 70.6107 85.5933 71.0641 85.34C71.5174 85.0733 71.8774 84.7 72.1441 84.22C72.4107 83.7267 72.5441 83.14 72.5441 82.46ZM91.8588 76.76C93.2188 76.76 94.3121 77.18 95.1388 78.02C95.9788 78.8467 96.3988 80.0067 96.3988 81.5V88H93.5988V81.88C93.5988 81.0133 93.3788 80.3533 92.9388 79.9C92.4988 79.4333 91.8988 79.2 91.1388 79.2C90.3788 79.2 89.7721 79.4333 89.3188 79.9C88.8788 80.3533 88.6588 81.0133 88.6588 81.88V88H85.8588V81.88C85.8588 81.0133 85.6388 80.3533 85.1988 79.9C84.7588 79.4333 84.1588 79.2 83.3988 79.2C82.6254 79.2 82.0121 79.4333 81.5588 79.9C81.1188 80.3533 80.8988 81.0133 80.8988 81.88V88H78.0988V76.92H80.8988V78.26C81.2588 77.7933 81.7188 77.4267 82.2788 77.16C82.8521 76.8933 83.4788 76.76 84.1588 76.76C85.0254 76.76 85.7988 76.9467 86.4788 77.32C87.1588 77.68 87.6854 78.2 88.0588 78.88C88.4188 78.24 88.9388 77.7267 89.6188 77.34C90.3121 76.9533 91.0588 76.76 91.8588 76.76Z" fill="#14988B"/>
</svg>
