<svg width="51" height="50" viewBox="0 0 51 50" fill="none" xmlns="http://www.w3.org/2000/svg">
<path d="M17.3136 3.00977H9.10576C5.98929 3.00977 3.46289 5.53617 3.46289 8.65264V16.8605C3.46289 19.9769 5.98929 22.5033 9.10576 22.5033H17.3136C20.4301 22.5033 22.9565 19.9769 22.9565 16.8605V8.65264C22.9565 5.53617 20.4301 3.00977 17.3136 3.00977Z" fill="#429DCE"/>
<path d="M41.9366 3.00977H33.7288C30.6123 3.00977 28.0859 5.53617 28.0859 8.65264V16.8605C28.0859 19.9769 30.6123 22.5033 33.7288 22.5033H41.9366C45.0531 22.5033 47.5795 19.9769 47.5795 16.8605V8.65264C47.5795 5.53617 45.0531 3.00977 41.9366 3.00977Z" fill="#606060"/>
<path d="M17.3136 27.6328H9.10576C5.98929 27.6328 3.46289 30.1592 3.46289 33.2757V41.4835C3.46289 44.6 5.98929 47.1264 9.10576 47.1264H17.3136C20.4301 47.1264 22.9565 44.6 22.9565 41.4835V33.2757C22.9565 30.1592 20.4301 27.6328 17.3136 27.6328Z" fill="#429DCE"/>
<path d="M41.9366 27.6328H33.7288C30.6123 27.6328 28.0859 30.1592 28.0859 33.2757V41.4835C28.0859 44.6 30.6123 47.1264 33.7288 47.1264H41.9366C45.0531 47.1264 47.5795 44.6 47.5795 41.4835V33.2757C47.5795 30.1592 45.0531 27.6328 41.9366 27.6328Z" fill="#429DCE"/>
</svg>
