<svg width="75" height="19" viewBox="0 0 75 19" fill="none" xmlns="http://www.w3.org/2000/svg">
<path fill-rule="evenodd" clip-rule="evenodd" d="M32.8221 3.24463C34.4708 4.29817 34.4609 4.55204 32.7459 5.31222C31.4329 5.8933 31.1677 5.93843 31.0295 5.60276C30.8786 5.23606 30.9195 3.41105 31.0873 2.99922C31.3031 2.46611 31.6966 2.52111 32.8221 3.24463ZM52.2245 0.0980951C51.6505 0.312471 51.3431 1.76092 51.1033 5.39544C50.6915 11.6194 50.7634 14.2554 51.3656 14.9859C51.6153 15.2892 53.3951 16.0719 57.6573 17.7517C58.3878 18.0338 59.2679 18.2806 59.6106 18.2862L60.2354 18.2989L60.4174 17.4428C61.1719 13.8816 61.4582 3.79044 60.856 1.92875C60.4808 0.763786 59.1311 -0.168468 58.842 0.535306C58.6883 0.907643 58.4189 12.1525 58.5275 13.5615C58.6502 15.1425 58.4682 15.677 57.8533 15.536C57.1481 15.371 55.1525 14.4655 53.9339 13.7575L52.7859 13.089L52.9029 12.3429C53.0708 11.2696 53.044 1.35332 52.8705 0.670704C52.7238 0.0839911 52.5842 -0.0401252 52.2245 0.0938599V0.0980951ZM45.6282 0.546591C45.5352 0.84841 45.4237 2.8328 45.3786 4.95823C45.3335 7.08365 45.2644 9.01868 45.2249 9.25985C45.1713 9.58001 44.8793 9.90862 44.1262 10.4911C42.902 11.4389 42.5875 11.9156 42.816 12.4797C42.9683 12.8521 43.0191 12.8676 43.7934 12.7985C45.404 12.6574 45.3969 12.9804 43.7539 14.6602C42.2772 16.1678 41.7483 17.0578 42.0078 17.5824C42.3726 18.3346 43.3914 17.8645 45.0641 16.1721C46.8976 14.3188 47.1077 13.2907 46.985 6.70427C46.906 2.42944 46.734 0.58326 46.3786 0.184126C46.081 -0.150132 45.7989 -0.0161413 45.6282 0.542365V0.546591ZM29.3695 0.264518L28.9817 0.557877L28.9323 6.8044C28.8731 14.3513 29.0169 17.4879 29.4429 17.928C29.8222 18.3201 30.2524 18.3074 30.4893 17.8984C30.5937 17.7178 30.763 16.7278 30.8659 15.6982C31.0873 13.4797 31.2086 13.2738 32.0887 13.6179C32.832 13.9661 33.5569 14.3521 34.2607 14.7744C36.4016 16.0268 37.1294 16.3568 37.6272 16.3032C38.001 16.2637 38.0503 16.1904 38.0941 15.6192C38.1406 15.0142 38.0941 14.9394 37.2944 14.2088C36.829 13.7857 35.5751 12.9635 34.5117 12.3754C31.8461 10.9114 30.9393 10.1667 30.9364 9.43896C30.9364 9.27818 31.8405 8.61955 33.4751 7.59421C36.0377 5.9878 37.3776 5.00054 37.6597 4.51396C37.9093 4.07957 37.2069 3.46888 34.9532 2.16288C31.471 0.141819 30.1283 -0.312319 29.3695 0.260291V0.264518ZM13.7807 0.0980951C13.0755 0.361834 12.7765 2.28276 12.4902 8.45735C12.3125 12.3175 12.4493 14.4063 12.9133 14.9944C13.0685 15.1876 13.5452 15.4739 13.9739 15.6291C14.4027 15.7842 15.9132 16.3977 17.332 16.9887C20.0188 18.117 21.1837 18.4794 21.5829 18.337C22.5024 18.007 23.1879 4.38421 22.4079 1.93299C22.0074 0.676348 20.5829 -0.253085 20.3911 0.619933C20.2374 1.32512 20.1443 4.54076 20.133 9.60821C20.133 12.5263 20.0554 15.0748 19.9736 15.2737C19.8523 15.5727 19.7564 15.6178 19.3996 15.5388C18.6902 15.3738 15.5789 13.8873 14.9414 13.3993C14.366 12.9536 14.3463 12.9085 14.4379 12.2639C14.7313 10.2274 14.806 7.67318 14.665 4.52101C14.4746 0.23913 14.3985 -0.140261 13.7807 0.0938599V0.0980951ZM7.69779 0.277215C7.41154 0.46156 7.08949 0.583167 6.75284 0.634034C6.17036 0.720066 5.51454 1.10933 3.68247 2.45341C2.60918 3.24181 2.17056 3.23758 1.99003 2.4379C1.72347 1.23486 0.980204 0.47184 0.50491 0.914696C0.211553 1.18972 0.00141037 4.52524 0 8.96791C0 12.4007 0.217197 17.2665 0.392082 17.6924C0.544402 18.0648 1.21997 17.9463 1.58948 17.4823C1.84053 17.1678 1.91387 16.7306 2.01259 14.9309C2.15363 12.601 2.32005 11.9057 2.7474 11.9833C2.88843 12.0087 3.48643 12.7392 4.07032 13.6052C4.65421 14.4712 5.6443 15.7969 6.24934 16.5543C7.19147 17.7235 7.42559 17.9308 7.80075 17.9308C8.38323 17.9308 8.46785 17.6628 8.17731 16.7334C7.84729 15.6813 6.84452 13.9451 5.18169 11.5545C3.29744 8.8452 3.37078 9.00034 3.77132 8.5321C3.95185 8.31772 4.67114 7.7705 5.36927 7.31636C7.183 6.13588 8.47208 4.93566 8.41144 4.49562C8.29438 3.72979 7.32122 4.057 4.43702 5.82984C2.71073 6.89184 2.52597 6.95813 2.2171 6.67606C1.69385 6.18807 2.30595 5.57314 5.10694 3.77069C7.36353 2.31942 8.59338 1.25036 8.59338 0.739811C8.59338 0.382988 8.34797 -0.0090919 8.13219 0.00219105C7.97475 0.0703845 7.82834 0.161647 7.69779 0.272979V0.277215Z" fill="#FF5714"/>
<path d="M72.8486 4.54976C73.1208 4.40872 72.9163 3.79944 72.8486 3.32132C72.7583 2.51459 72.6328 0.798175 72.8486 0.389168C73.1208 -0.122796 74.3407 0.389167 74.4084 0.661368C74.4761 0.933569 74.6115 4.20845 74.6115 4.85722V8.6765C74.6115 9.18846 74.6792 12.0191 74.6115 12.2236C74.5438 12.4281 74.7822 16.7946 74.8837 17.7832C74.9853 18.7719 74.3069 18.9778 73.8965 18.8749C73.486 18.7719 73.1842 18.1246 73.0827 17.7832C72.9811 17.4419 73.015 13.4858 73.0827 12.2236C73.1504 10.9613 72.9416 10.792 72.3366 10.1771C71.7315 9.5622 69.9968 8.09683 68.6696 7.07431C67.3425 6.05179 67.6513 7.65397 67.6175 7.92053C67.5837 8.18709 67.6852 10.5466 67.7585 11.2293C67.8319 11.9119 67.7938 18.2896 67.4539 18.597C67.114 18.9045 66.2339 17.6761 66.0647 17.1979C65.8954 16.7198 65.8672 13.4182 65.8672 13.043C65.8672 12.6678 65.5287 11.5762 65.8672 10.9274C66.2057 10.2787 65.7995 0.798175 65.8672 0.389168C65.9349 -0.019839 66.8164 -0.0212541 67.1563 0.0140051C67.4962 0.0492643 67.7656 0.559822 68.207 0.899721C68.6485 1.23962 70.9869 3.32132 71.5919 3.93624C72.197 4.55116 72.5778 4.68656 72.8486 4.54976Z" fill="#FF5714"/>
</svg>
