<svg width="316" height="301" viewBox="0 0 316 301" fill="none" xmlns="http://www.w3.org/2000/svg">
<path d="M167.814 281.461L180.752 295.031C182.176 296.524 184.297 297.131 186.296 296.617L211.496 290.131" stroke="black" stroke-width="4.83931" stroke-miterlimit="10" stroke-linecap="round" stroke-linejoin="round"/>
<path d="M253.759 85.9219L202.607 71.2869" stroke="black" stroke-width="4.83931" stroke-miterlimit="10" stroke-linecap="round" stroke-linejoin="round"/>
<path d="M233.9 284.363L262.21 277.076C264.168 276.573 265.712 275.07 266.268 273.126L313.262 108.873C314.127 105.848 312.377 102.693 309.352 101.828L288.559 95.8789" stroke="black" stroke-width="4.83931" stroke-miterlimit="10" stroke-linecap="round" stroke-linejoin="round"/>
<path d="M287.044 90.6889C287.044 99.6133 279.81 106.848 270.885 106.848C261.961 106.848 254.727 99.6133 254.727 90.6889C254.727 81.7652 261.961 74.5302 270.885 74.5302C279.81 74.5302 287.044 81.7652 287.044 90.6889Z" stroke="black" stroke-width="4.83931" stroke-miterlimit="10" stroke-linecap="round" stroke-linejoin="round"/>
<path d="M255.33 44.7305L242.658 57.4023" stroke="black" stroke-width="4.83931" stroke-miterlimit="10" stroke-linecap="round" stroke-linejoin="round"/>
<path d="M255.33 57.4023L242.658 44.7305" stroke="black" stroke-width="4.83931" stroke-miterlimit="10" stroke-linecap="round" stroke-linejoin="round"/>
<path d="M304.117 244.122L292.18 256.059" stroke="black" stroke-width="4.83931" stroke-miterlimit="10" stroke-linecap="round" stroke-linejoin="round"/>
<path d="M304.117 256.059L292.18 244.122" stroke="black" stroke-width="4.83931" stroke-miterlimit="10" stroke-linecap="round" stroke-linejoin="round"/>
<path d="M95.4102 279.941L139.779 297.9C142.142 298.856 144.837 298.46 146.825 296.864L222.311 236.249C224.258 234.686 225.231 232.209 224.868 229.739L212.548 145.945" stroke="black" stroke-width="4.83931" stroke-miterlimit="10" stroke-linecap="round" stroke-linejoin="round"/>
<path d="M17.3164 62.8908L45.7183 256.078C46.0814 258.547 47.7258 260.64 50.0395 261.576L73.912 271.238" stroke="black" stroke-width="4.83931" stroke-miterlimit="10" stroke-linecap="round" stroke-linejoin="round"/>
<path d="M209.195 123.133L194.178 20.9891C193.612 17.1441 190.038 14.4859 186.193 15.0509L37.5723 36.9016" stroke="black" stroke-width="4.83931" stroke-miterlimit="10" stroke-linecap="round" stroke-linejoin="round"/>
<path d="M150.435 250.103C151.555 257.717 146.29 264.797 138.676 265.916C131.062 267.036 123.982 261.771 122.863 254.157C121.744 246.543 127.009 239.463 134.622 238.344C142.236 237.224 149.316 242.489 150.435 250.103Z" stroke="black" stroke-width="4.83931" stroke-miterlimit="10" stroke-linecap="round" stroke-linejoin="round"/>
<path d="M125.876 178.853L95.3774 189.278C92.4805 190.268 89.3461 188.626 88.5099 185.681L79.703 154.677L60.3642 128.893C58.5274 126.444 59.1192 122.955 61.6624 121.249L88.4274 103.293L106.974 76.9331C108.735 74.4288 112.236 73.9144 114.644 75.805L139.992 95.7119L170.794 105.205C173.719 106.106 175.29 109.277 174.236 112.151L163.137 142.41L163.627 174.638C163.674 177.698 161.144 180.173 158.084 180.058L125.876 178.853Z" stroke="black" stroke-width="4.83931" stroke-miterlimit="10" stroke-linecap="round" stroke-linejoin="round"/>
<path d="M130.161 145.355C127.455 143.656 123.892 142.864 120.143 143.404C116.394 143.943 113.199 145.708 111.082 148.102" stroke="black" stroke-width="4.83931" stroke-miterlimit="10" stroke-linecap="round" stroke-linejoin="round"/>
<path d="M140.045 125.492L140.093 125.485" stroke="black" stroke-width="4.83931" stroke-miterlimit="10" stroke-linecap="round" stroke-linejoin="round"/>
<path d="M96.8984 131.836L96.9458 131.829" stroke="black" stroke-width="4.83931" stroke-miterlimit="10" stroke-linecap="round" stroke-linejoin="round"/>
<path d="M140.041 125.492L140.088 125.486" stroke="black" stroke-width="4.83931" stroke-miterlimit="10" stroke-linecap="round" stroke-linejoin="round"/>
<path d="M3.0442 47.1987C1.65045 37.7162 8.20732 28.8987 17.6898 27.5043C27.1723 26.11 35.9898 32.6675 37.3836 42.15C38.7786 51.6325 32.2217 60.45 22.7386 61.8443C13.2561 63.2387 4.43795 56.6812 3.0442 47.1987Z" stroke="black" stroke-width="4.83931" stroke-miterlimit="10" stroke-linecap="round" stroke-linejoin="round"/>
<path d="M54.6003 3.04031L42.6641 14.9766" stroke="black" stroke-width="4.83931" stroke-miterlimit="10" stroke-linecap="round" stroke-linejoin="round"/>
<path d="M54.6003 14.9766L42.6641 3.04031" stroke="black" stroke-width="4.83931" stroke-miterlimit="10" stroke-linecap="round" stroke-linejoin="round"/>
</svg>
