<svg width="30" height="29" viewBox="0 0 30 29" fill="none" xmlns="http://www.w3.org/2000/svg">
<g clip-path="url(#clip0_162_9850)">
<path d="M15.3477 26.5703C16.6768 26.5703 17.7643 25.5203 17.7643 24.237H12.931C12.931 25.5203 14.0064 26.5703 15.3477 26.5703ZM22.5977 19.5703V13.737C22.5977 10.1553 20.616 7.15698 17.1602 6.36365V5.57031C17.1602 4.60198 16.3506 3.82031 15.3477 3.82031C14.3447 3.82031 13.5352 4.60198 13.5352 5.57031V6.36365C10.0672 7.15698 8.09766 10.1436 8.09766 13.737V19.5703L6.53891 21.0753C5.77766 21.8103 6.30932 23.0703 7.38474 23.0703H23.2985C24.3739 23.0703 24.9177 21.8103 24.1564 21.0753L22.5977 19.5703Z" fill="#FFFEFF"/>
</g>
<defs>
<clipPath id="clip0_162_9850">
<rect width="29" height="28" fill="white" transform="translate(0.847656 0.904297)"/>
</clipPath>
</defs>
</svg>
