<svg width="27" height="27" viewBox="0 0 27 27" fill="none" xmlns="http://www.w3.org/2000/svg">
<g clip-path="url(#clip0_96_5167)">
<path d="M13.4303 26.5268C20.4768 26.5268 26.1891 20.8032 26.1891 13.7429C26.1891 6.68253 20.4768 0.958984 13.4303 0.958984C6.38373 0.958984 0.671387 6.68253 0.671387 13.7429C0.671387 20.8032 6.38373 26.5268 13.4303 26.5268Z" fill="#FE3F4E"/>
<path d="M15.2762 26.3924C16.2073 26.0662 16.8772 25.1775 16.8772 24.1346C16.8772 19.2012 16.8772 8.09371 16.8772 3.29974C16.8772 1.98106 15.8064 0.908203 14.4903 0.908203H5.52951C4.21333 0.908303 3.14258 1.98116 3.14258 3.29984C3.14258 4.05347 3.14258 20.4983 3.14258 21.3037V21.304C5.95406 25.1373 10.6015 27.0713 15.2762 26.3924Z" fill="#666666"/>
<path d="M3.14258 3.29974V21.3036C3.54271 21.8492 3.98512 22.3617 4.46481 22.8366V3.29974C4.46481 1.98106 5.53556 0.908203 6.85169 0.908203H5.52951C4.21333 0.908203 3.14258 1.98106 3.14258 3.29974Z" fill="#5A5B5B"/>
<path d="M14.4901 2.23438H13.2606C13.1029 2.23438 12.975 2.36252 12.975 2.52053V2.88653C12.975 3.22607 12.6977 3.50392 12.3588 3.50392H7.66059C7.3217 3.50392 7.04441 3.22612 7.04441 2.88653V2.63346C7.04441 2.41305 6.86608 2.23438 6.64608 2.23438H5.52929C4.94138 2.23438 4.46484 2.71186 4.46484 3.30088V22.838C5.4021 23.7657 6.48181 24.5493 7.66845 25.1523H14.4901C15.078 25.1523 15.5545 24.6748 15.5545 24.0858V3.30088C15.5545 2.71186 15.078 2.23438 14.4901 2.23438Z" fill="#F9F6ED"/>
<path d="M5.52929 2.23276C4.94138 2.23276 4.46484 2.71025 4.46484 3.29926V22.8364C4.86327 23.2307 5.28747 23.599 5.73469 23.9385V3.29926C5.73469 2.74222 6.16109 2.28555 6.70462 2.23751C6.64268 2.22836 6.70847 2.23476 5.52929 2.23276Z" fill="#EAE4D6"/>
<path d="M11.5599 2.61745H9.54918C9.33648 2.61745 9.16406 2.44472 9.16406 2.23157C9.16406 2.01842 9.33648 1.8457 9.54918 1.8457H11.5599C11.7726 1.8457 11.945 2.01842 11.945 2.23157C11.945 2.44472 11.7726 2.61745 11.5599 2.61745Z" fill="#7F7E7D"/>
<path d="M8.12387 2.5528C7.84818 2.37122 7.91497 1.92736 8.26197 1.85361C8.49803 1.80483 8.72259 1.988 8.72259 2.23173C8.72259 2.41095 8.59916 2.57157 8.41242 2.61039C8.38781 2.61505 8.20223 2.60589 8.12387 2.5528Z" fill="#7F7E7D"/>
<path d="M6.94331 24.033H5.91313C5.81857 24.033 5.74121 23.9556 5.74121 23.861V22.8282C5.74121 22.7336 5.81857 22.6562 5.91313 22.6562H6.94331C7.03787 22.6562 7.11523 22.7336 7.11523 22.8282V23.861C7.11523 23.9556 7.03787 24.033 6.94331 24.033Z" fill="#0EB0FF"/>
<path d="M9.3686 24.033H8.33843C8.24386 24.033 8.1665 23.9556 8.1665 23.861V22.8282C8.1665 22.7336 8.24386 22.6562 8.33843 22.6562H9.3686C9.46317 22.6562 9.54052 22.7336 9.54052 22.8282V23.861C9.54052 23.9556 9.46312 24.033 9.3686 24.033Z" fill="#FFC30A"/>
<path d="M11.7949 24.033H10.7647C10.6701 24.033 10.5928 23.9556 10.5928 23.861V22.8282C10.5928 22.7336 10.6701 22.6562 10.7647 22.6562H11.7949C11.8894 22.6562 11.9668 22.7336 11.9668 22.8282V23.861C11.9668 23.9556 11.8894 24.033 11.7949 24.033Z" fill="#E0D5BD"/>
<path d="M14.2211 24.033H13.191C13.0964 24.033 13.019 23.9556 13.019 23.861V22.8282C13.019 22.7336 13.0964 22.6562 13.191 22.6562H14.2211C14.3157 22.6562 14.3931 22.7336 14.3931 22.8282V23.861C14.3931 23.9556 14.3157 24.033 14.2211 24.033Z" fill="#FE3F4E"/>
<path d="M26.1849 18.0149C26.1849 17.0101 26.1849 12.077 26.1849 11.2367V10.295V8.15849C26.1849 7.87474 25.9527 7.64258 25.669 7.64258H25.4858C24.7497 7.64258 9.27084 7.64258 8.46953 7.64258C8.18578 7.64258 7.95361 7.87474 7.95361 8.15849V10.295C7.95361 10.9537 7.95361 11.5197 7.95361 12.1784V18.0149C7.95361 18.2987 8.18578 18.5308 8.46953 18.5308H10.9424H11.1441C11.387 18.5308 25.168 18.5308 25.669 18.5308C25.9527 18.5308 26.1849 18.2987 26.1849 18.0149Z" fill="#0EB0FF"/>
<path d="M26.1849 18.0149C26.1849 17.0101 26.1849 12.077 26.1849 11.2367V10.295V8.15849C26.1849 7.87474 25.9527 7.64258 25.669 7.64258H25.4858C24.7497 7.64258 9.27084 7.64258 8.46953 7.64258C8.18578 7.64258 7.95361 7.87474 7.95361 8.15849V10.295C7.95361 10.9537 7.95361 11.5197 7.95361 12.1784V18.0149C7.95361 18.2987 8.18578 18.5308 8.46953 18.5308H10.9424H11.1441C11.387 18.5308 25.168 18.5308 25.669 18.5308C25.9527 18.5308 26.1849 18.2987 26.1849 18.0149Z" fill="#0EB0FF"/>
<path d="M10.6672 18.0149C10.6672 16.7763 10.6672 9.39091 10.6672 8.15849C10.6672 7.87474 10.8994 7.64258 11.1831 7.64258C10.3579 7.64258 9.29216 7.64258 8.46953 7.64258C8.18578 7.64258 7.95361 7.87474 7.95361 8.15849C7.95361 8.60431 7.95361 17.7898 7.95361 18.0149C7.95361 18.2986 8.18578 18.5308 8.46953 18.5308H10.9424H11.1441H11.1831C10.8994 18.5308 10.6672 18.2986 10.6672 18.0149Z" fill="#009CF7"/>
<path d="M21.9397 16.2734C21.54 15.5812 21.7268 14.7118 22.3452 14.2389C21.8557 13.8637 21.169 13.7973 20.6016 14.125C19.8493 14.5593 19.5916 15.5211 20.0259 16.2734C20.4602 17.0256 21.4221 17.2834 22.1743 16.8491C22.2343 16.8144 22.2908 16.7761 22.3444 16.7351C22.185 16.613 22.0464 16.4582 21.9397 16.2734Z" fill="#FE3F4E"/>
<path d="M20.8264 16.0725C20.3921 15.3202 20.6498 14.3583 21.402 13.924C21.408 13.9205 21.4142 13.9178 21.4202 13.9144C21.1425 13.9084 20.8597 13.9751 20.6016 14.1241C19.8493 14.5584 19.5916 15.5203 20.0259 16.2726C20.4566 17.0185 21.4058 17.2778 22.1551 16.8587C21.6239 16.8469 21.1115 16.5663 20.8264 16.0725Z" fill="#FA243A"/>
<path d="M24.6637 14.7007C24.2294 13.9485 23.2675 13.6907 22.5152 14.125C22.4552 14.1597 22.3987 14.198 22.3451 14.239C22.5045 14.3612 22.6431 14.516 22.7498 14.7007C23.1495 15.393 22.9627 16.2624 22.3442 16.7352C22.8338 17.1104 23.5205 17.1768 24.0879 16.8492C24.8402 16.4148 25.098 15.4529 24.6637 14.7007Z" fill="#FFC30A"/>
<path d="M22.7502 14.7C22.6435 14.5152 22.5048 14.3605 22.3454 14.2383C21.7269 14.7111 21.5402 15.5805 21.9399 16.2728C22.0466 16.4575 22.1852 16.6123 22.3446 16.7345C22.9631 16.2617 23.1498 15.3922 22.7502 14.7Z" fill="#FF7110"/>
<path d="M10.0644 15.9823C10.451 15.9823 10.8379 15.9823 11.2237 15.9823C11.4966 15.9823 11.7198 15.7591 11.7198 15.4863C11.7198 15.2135 11.4966 14.9902 11.2237 14.9902C10.8709 14.9902 10.4226 14.9902 10.0644 14.9902C9.79162 14.9902 9.56836 15.2134 9.56836 15.4863C9.56841 15.7591 9.79162 15.9823 10.0644 15.9823Z" fill="#E6E6E6"/>
<path d="M10.4236 15.4863C10.4236 15.2135 10.6468 14.9902 10.9197 14.9902C10.5865 14.9902 10.2102 14.9902 10.0644 14.9902C9.79162 14.9902 9.56836 15.2134 9.56836 15.4863C9.56836 15.7591 9.79157 15.9823 10.0644 15.9823C10.211 15.9823 10.5834 15.9823 10.9197 15.9823C10.6468 15.9823 10.4236 15.7591 10.4236 15.4863Z" fill="#CCCCCC"/>
<path d="M13.0576 15.9823C14.3364 15.9823 14.0182 15.9823 14.2169 15.9823C14.4897 15.9823 14.7129 15.7591 14.7129 15.4863C14.7129 15.2135 14.4897 14.9902 14.2169 14.9902H14.0352C13.8309 14.9902 13.1944 14.9902 13.0576 14.9902C12.7848 14.9902 12.5615 15.2134 12.5615 15.4863C12.5615 15.7591 12.7847 15.9823 13.0576 15.9823Z" fill="#E6E6E6"/>
<path d="M13.4168 15.4863C13.4168 15.2135 13.64 14.9902 13.9128 14.9902C13.5797 14.9902 13.2034 14.9902 13.0576 14.9902C12.7848 14.9902 12.5615 15.2134 12.5615 15.4863C12.5615 15.7591 12.7847 15.9823 13.0576 15.9823C13.2041 15.9823 13.5766 15.9823 13.9128 15.9823C13.64 15.9823 13.4168 15.7591 13.4168 15.4863Z" fill="#CCCCCC"/>
<path d="M16.0507 15.9823H16.1447C16.5419 15.9823 16.8204 15.9823 17.2101 15.9823C17.4829 15.9823 17.7061 15.7591 17.7061 15.4863C17.7061 15.2135 17.4829 14.9902 17.2101 14.9902C16.7945 14.9902 16.4683 14.9902 16.0507 14.9902C15.7779 14.9902 15.5547 15.2134 15.5547 15.4863C15.5547 15.7591 15.7779 15.9823 16.0507 15.9823Z" fill="#E6E6E6"/>
<path d="M16.4099 15.4863C16.4099 15.2135 16.6331 14.9902 16.906 14.9902C16.5729 14.9902 16.1965 14.9902 16.0507 14.9902C15.7779 14.9902 15.5547 15.2134 15.5547 15.4863C15.5547 15.7591 15.7779 15.9823 16.0507 15.9823C16.1973 15.9823 16.5698 15.9823 16.906 15.9823C16.6332 15.9823 16.4099 15.7591 16.4099 15.4863Z" fill="#CCCCCC"/>
<path d="M12.1463 11.775H10.0561C9.78781 11.775 9.56836 11.5556 9.56836 11.2873V10.2475C9.56836 9.97922 9.78781 9.75977 10.0561 9.75977H12.1463C12.4145 9.75977 12.634 9.97922 12.634 10.2475V11.2873C12.6339 11.5556 12.4145 11.775 12.1463 11.775Z" fill="#FFC30A"/>
<path d="M10.9193 11.2873V10.2475C10.9193 9.97922 11.1388 9.75977 11.407 9.75977H10.0561C9.78781 9.75977 9.56836 9.97922 9.56836 10.2475V11.2873C9.56836 11.5556 9.78781 11.775 10.0561 11.775H11.407C11.1388 11.775 10.9193 11.5556 10.9193 11.2873Z" fill="#FFA01A"/>
<path d="M24.8748 8.76758C24.6891 8.76758 24.5371 8.91954 24.5371 9.10532V12.5827C24.5371 12.7684 24.6891 12.9204 24.8748 12.9204C25.0606 12.9204 25.2126 12.7684 25.2126 12.5827V9.10532C25.2125 8.91954 25.0606 8.76758 24.8748 8.76758Z" fill="#50D1DC"/>
</g>
<defs>
<clipPath id="clip0_96_5167">
<rect width="25.6181" height="25.6181" fill="white" transform="translate(0.621094 0.908203)"/>
</clipPath>
</defs>
</svg>
