<svg width="302" height="49" viewBox="0 0 302 49" fill="none" xmlns="http://www.w3.org/2000/svg">
<path d="M24.2574 3.8123C24.2574 1.7123 24.0074 0.512303 24.0074 0.512303C24.0074 0.512303 17.1574 0.362301 12.6074 0.262303C11.6574 0.262303 3.55742 0.512303 1.65742 0.712303C0.957422 0.762302 0.707422 1.1623 0.707422 1.3123C0.357422 13.3623 0.707422 25.2123 0.557422 37.1123C0.507422 37.6623 0.757422 37.8623 1.30742 37.7623C1.85742 37.6623 2.70742 37.9123 3.40742 37.4623C4.15742 37.0623 4.35742 37.3623 4.25742 35.6123C3.60742 25.3623 2.35742 13.9623 1.90742 3.3623C1.90742 3.0123 1.40742 2.5123 2.30742 2.3623C5.05742 1.7623 13.5574 1.3123 15.5074 1.4623C18.1074 1.5623 18.1074 1.8623 18.2574 3.1623C19.1574 14.3623 18.5074 25.7623 18.7074 36.9623C18.7574 37.4123 18.9574 37.5623 19.3574 37.6123C20.2074 37.7123 21.7074 37.5123 22.5074 37.6123C24.0074 37.7623 24.3074 36.1623 24.2574 35.1623C24.1574 26.8623 24.2074 9.6123 24.2574 3.8123ZM51.748 32.9623C51.548 32.9623 51.098 33.2123 50.398 33.6623C49.348 34.4123 48.648 34.8623 48.298 35.0623C46.598 36.0123 45.098 36.5123 43.848 36.5123C43.498 36.5623 43.148 36.5623 42.798 36.5623C39.748 36.5623 37.598 35.2123 36.398 32.5123C35.898 31.3623 35.648 30.0123 35.548 28.4623V24.4123H50.598C51.848 24.2623 52.498 23.5623 52.598 22.3123C52.598 20.6623 52.198 18.6623 51.348 16.3623C50.748 14.6123 49.898 13.1123 48.898 11.8123C47.848 10.5123 46.748 9.5623 45.598 8.9123C44.548 8.3123 43.448 8.0623 42.248 8.0623C39.348 8.0623 36.798 9.4123 34.598 12.2123C31.748 15.8123 30.348 19.9623 30.348 24.5623C30.348 27.9123 31.198 30.7623 32.998 33.1623C34.498 35.3123 36.598 36.6623 39.298 37.2123C40.598 37.4623 41.748 37.6123 42.748 37.6123C45.298 37.6123 47.748 36.8623 50.048 35.3623C51.398 34.4623 52.098 33.7623 52.098 33.2623C52.098 33.0623 51.998 32.9623 51.748 32.9623ZM35.648 16.5123C35.998 13.8123 36.948 11.8623 38.548 10.6623C39.548 9.8623 40.648 9.5123 41.748 9.5123C43.648 9.5123 45.098 10.4623 46.048 12.3623C46.948 14.1623 47.448 16.6123 47.598 19.7123C47.648 20.7623 47.598 21.5123 47.548 21.9123C47.548 22.1623 47.448 22.3123 47.398 22.4623C47.148 22.8623 46.748 23.1623 46.298 23.2623H35.548C35.598 19.0623 35.648 16.8123 35.648 16.5123ZM81.1129 17.3623C80.9129 16.0623 80.4129 14.7623 79.7129 13.3623C79.0129 11.9623 78.2129 10.8623 77.3629 10.0123C76.2129 8.8623 74.9129 8.2623 73.4129 8.2623C71.7129 8.2623 69.8129 9.8623 67.7629 13.1123C66.6129 14.8623 65.5629 16.8623 64.5629 19.1623C64.4629 19.4623 64.2129 19.9123 63.9129 20.5123C63.8129 20.7123 63.7629 20.9623 63.6629 21.1623C63.4629 21.5123 63.3129 21.6623 63.2129 21.6623C63.0629 21.6623 63.0129 21.3623 63.0129 20.8123V10.1623C63.1129 8.9623 62.6129 8.3623 61.4129 8.2623H57.9129V48.9123H61.8629C62.6129 48.3123 63.0129 47.4623 63.0129 46.3123V32.1123C63.0129 32.5123 63.6129 33.3623 64.8129 34.7123C66.2129 36.4123 67.6629 37.3123 69.2629 37.3623C70.9129 37.4623 72.5629 37.0123 74.2129 35.9123C75.1129 35.3623 75.9129 34.6123 76.6629 33.6623C78.1129 31.9623 79.2629 29.9623 80.1629 27.6623C81.4129 24.3123 81.7629 20.8623 81.1129 17.3623ZM76.1629 24.2623C75.9129 26.9123 75.3129 29.2623 74.4129 31.3623C73.0629 34.3123 71.4129 35.7623 69.5129 35.7623C68.3629 35.7623 67.2629 35.2623 66.2629 34.1623C65.3129 33.2123 64.4629 31.8623 63.7629 30.0623C63.2129 28.8123 62.9629 27.7123 63.0129 26.8623C63.0629 26.3623 63.1629 25.8123 63.3129 25.2123C65.2629 20.6123 66.8629 17.1123 68.1129 14.8623C68.4129 14.2623 68.9629 13.4623 69.6629 12.4623C70.2129 11.9123 70.8129 11.6623 71.5629 11.6623C72.3629 11.6623 73.0629 11.9623 73.6629 12.6623C74.3629 13.4623 75.0129 14.8623 75.5629 16.8123C76.2629 19.0623 76.4629 21.5623 76.1629 24.2623ZM107.07 32.9623C106.87 32.9623 106.42 33.2123 105.72 33.6623C104.67 34.4123 103.97 34.8623 103.62 35.0623C101.92 36.0123 100.42 36.5123 99.1703 36.5123C98.8203 36.5623 98.4703 36.5623 98.1203 36.5623C95.0703 36.5623 92.9203 35.2123 91.7203 32.5123C91.2203 31.3623 90.9703 30.0123 90.8703 28.4623V24.4123H105.92C107.17 24.2623 107.82 23.5623 107.92 22.3123C107.92 20.6623 107.52 18.6623 106.67 16.3623C106.07 14.6123 105.22 13.1123 104.22 11.8123C103.17 10.5123 102.07 9.5623 100.92 8.9123C99.8703 8.3123 98.7703 8.0623 97.5703 8.0623C94.6703 8.0623 92.1203 9.4123 89.9203 12.2123C87.0703 15.8123 85.6703 19.9623 85.6703 24.5623C85.6703 27.9123 86.5203 30.7623 88.3203 33.1623C89.8203 35.3123 91.9203 36.6623 94.6203 37.2123C95.9203 37.4623 97.0703 37.6123 98.0703 37.6123C100.62 37.6123 103.07 36.8623 105.37 35.3623C106.72 34.4623 107.42 33.7623 107.42 33.2623C107.42 33.0623 107.32 32.9623 107.07 32.9623ZM90.9703 16.5123C91.3203 13.8123 92.2703 11.8623 93.8703 10.6623C94.8703 9.8623 95.9703 9.5123 97.0703 9.5123C98.9703 9.5123 100.42 10.4623 101.37 12.3623C102.27 14.1623 102.77 16.6123 102.92 19.7123C102.97 20.7623 102.92 21.5123 102.87 21.9123C102.87 22.1623 102.77 22.3123 102.72 22.4623C102.47 22.8623 102.07 23.1623 101.62 23.2623H90.8703C90.9203 19.0623 90.9703 16.8123 90.9703 16.5123ZM121.785 22.6123L137.485 8.4123L135.185 8.4623C134.885 8.4623 134.285 8.8623 133.335 9.7123C132.785 10.1123 128.535 14.4123 120.585 22.5623C119.885 23.3123 119.385 23.6623 119.035 23.6623C118.635 23.6623 118.485 23.3623 118.485 22.7123C118.435 19.9623 118.435 22.4123 118.485 9.9123C118.485 8.8623 118.035 8.3123 117.185 8.2623H113.235V37.6123H117.385C118.035 37.4123 118.385 37.0623 118.435 36.5123C118.485 35.5623 118.485 32.2123 118.435 26.4623C118.435 25.8623 118.585 25.6123 118.885 25.6123C119.085 25.6123 119.335 25.7123 119.635 26.0123C120.085 26.3623 123.835 29.9623 130.935 36.7623C131.485 37.2623 132.185 37.5623 132.985 37.6123H137.535L121.785 22.6123ZM164.755 17.3623C164.555 16.0623 164.055 14.7623 163.355 13.3623C162.655 11.9623 161.855 10.8623 161.005 10.0123C159.855 8.8623 158.555 8.2623 157.055 8.2623C155.355 8.2623 153.455 9.8623 151.405 13.1123C150.255 14.8623 149.205 16.8623 148.205 19.1623C148.105 19.4623 147.855 19.9123 147.555 20.5123C147.455 20.7123 147.405 20.9623 147.305 21.1623C147.105 21.5123 146.955 21.6623 146.855 21.6623C146.705 21.6623 146.655 21.3623 146.655 20.8123V10.1623C146.755 8.9623 146.255 8.3623 145.055 8.2623H141.555V48.9123H145.505C146.255 48.3123 146.655 47.4623 146.655 46.3123V32.1123C146.655 32.5123 147.255 33.3623 148.455 34.7123C149.855 36.4123 151.305 37.3123 152.905 37.3623C154.555 37.4623 156.205 37.0123 157.855 35.9123C158.755 35.3623 159.555 34.6123 160.305 33.6623C161.755 31.9623 162.905 29.9623 163.805 27.6623C165.055 24.3123 165.405 20.8623 164.755 17.3623ZM159.805 24.2623C159.555 26.9123 158.955 29.2623 158.055 31.3623C156.705 34.3123 155.055 35.7623 153.155 35.7623C152.005 35.7623 150.905 35.2623 149.905 34.1623C148.955 33.2123 148.105 31.8623 147.405 30.0623C146.855 28.8123 146.605 27.7123 146.655 26.8623C146.705 26.3623 146.805 25.8123 146.955 25.2123C148.905 20.6123 150.505 17.1123 151.755 14.8623C152.055 14.2623 152.605 13.4623 153.305 12.4623C153.855 11.9123 154.455 11.6623 155.205 11.6623C156.005 11.6623 156.705 11.9623 157.305 12.6623C158.005 13.4623 158.655 14.8623 159.205 16.8123C159.905 19.0623 160.105 21.5623 159.805 24.2623ZM190.713 32.9623C190.513 32.9623 190.063 33.2123 189.363 33.6623C188.313 34.4123 187.613 34.8623 187.263 35.0623C185.563 36.0123 184.063 36.5123 182.813 36.5123C182.463 36.5623 182.113 36.5623 181.763 36.5623C178.713 36.5623 176.563 35.2123 175.363 32.5123C174.863 31.3623 174.613 30.0123 174.513 28.4623V24.4123H189.563C190.813 24.2623 191.463 23.5623 191.563 22.3123C191.563 20.6623 191.163 18.6623 190.313 16.3623C189.713 14.6123 188.863 13.1123 187.863 11.8123C186.813 10.5123 185.713 9.5623 184.563 8.9123C183.513 8.3123 182.413 8.0623 181.213 8.0623C178.313 8.0623 175.763 9.4123 173.563 12.2123C170.713 15.8123 169.313 19.9623 169.313 24.5623C169.313 27.9123 170.163 30.7623 171.963 33.1623C173.463 35.3123 175.563 36.6623 178.263 37.2123C179.563 37.4623 180.713 37.6123 181.713 37.6123C184.263 37.6123 186.713 36.8623 189.013 35.3623C190.363 34.4623 191.063 33.7623 191.063 33.2623C191.063 33.0623 190.963 32.9623 190.713 32.9623ZM174.613 16.5123C174.963 13.8123 175.913 11.8623 177.513 10.6623C178.513 9.8623 179.613 9.5123 180.713 9.5123C182.613 9.5123 184.063 10.4623 185.013 12.3623C185.913 14.1623 186.413 16.6123 186.563 19.7123C186.613 20.7623 186.563 21.5123 186.513 21.9123C186.513 22.1623 186.413 22.3123 186.363 22.4623C186.113 22.8623 185.713 23.1623 185.263 23.2623H174.513C174.563 19.0623 174.613 16.8123 174.613 16.5123ZM216.778 32.4623C216.578 32.4623 216.128 32.7123 215.428 33.1623C214.278 33.8623 213.428 34.3623 212.778 34.6123C211.778 35.0623 210.728 35.2623 209.628 35.2623C207.678 35.2623 205.978 34.6123 204.528 33.3623C202.228 31.4123 201.028 28.5123 201.028 24.6623C201.028 22.8623 201.328 21.1123 201.828 19.4623C202.578 17.2623 203.578 15.1623 204.828 13.2123C206.628 10.5123 208.478 9.1623 210.528 9.1623C212.328 9.1623 213.928 10.3623 215.378 12.7123C216.128 14.0623 216.628 15.0623 216.778 15.7623C216.978 14.3123 217.028 13.3123 217.028 12.7123C216.978 11.1123 216.478 10.0123 215.578 9.4123C213.978 8.4123 212.078 7.9123 209.978 7.9123C208.028 7.9123 206.228 8.4123 204.528 9.3123C200.278 11.7123 197.528 15.5123 196.228 20.7623C195.878 22.3623 195.728 23.8123 195.728 25.1123C195.728 26.8623 196.028 28.6123 196.728 30.3623C198.028 33.8623 200.178 36.0623 203.178 37.0123C204.178 37.3123 205.278 37.5123 206.478 37.5123C208.328 37.5123 210.128 37.1123 211.928 36.4123C213.728 35.6623 215.178 34.6623 216.328 33.4123C216.678 33.0123 216.878 32.7123 216.878 32.5623C216.878 32.5123 216.828 32.4623 216.778 32.4623ZM244.774 8.3123C230.224 8.2623 222.524 8.2623 220.574 8.3123C219.874 8.3623 219.574 8.6623 219.574 9.1623V13.3123C220.374 12.4123 221.124 11.6123 221.824 11.0123C222.574 10.2623 223.724 9.7623 225.324 9.5623C225.774 9.4623 226.474 9.4123 228.374 9.4123C229.824 9.4123 230.524 10.4123 230.524 12.5123C230.524 12.7623 230.524 13.0623 230.524 13.4623C230.524 13.9123 230.524 14.2123 230.524 14.3623V37.7123H234.424C235.324 37.6623 235.774 37.0623 235.774 36.0623V13.2623C235.774 11.8623 235.824 10.9623 236.024 10.5623C236.324 9.8623 237.024 9.4623 238.124 9.4123C240.974 9.4123 242.324 9.5623 243.224 9.9623C244.424 10.5123 245.524 11.5623 246.674 13.1123V9.6123C246.574 8.7123 245.924 8.3123 244.774 8.3123ZM269.204 12.6623C267.104 9.5623 264.304 8.0123 260.904 8.0123C257.304 8.0123 254.354 9.7123 252.004 13.1623C249.904 16.2123 248.904 19.6123 248.904 23.4123C248.904 26.9123 249.804 30.1123 251.704 32.8623C253.804 35.9623 256.554 37.5123 260.004 37.5123C263.604 37.5123 266.604 35.8123 268.954 32.3623C271.004 29.3123 272.054 25.9123 272.054 22.1123C272.054 18.5623 271.104 15.4123 269.204 12.6623ZM266.754 22.7123C266.654 26.5123 265.954 29.6623 264.604 32.3123C263.304 34.9123 261.754 36.1623 260.004 36.1623C258.204 36.1123 256.754 34.7123 255.554 32.0623C254.354 29.3623 253.804 26.1623 253.904 22.4123C254.004 18.6623 254.704 15.4623 256.054 12.8623C257.354 10.2123 258.904 8.9123 260.654 8.9623C262.454 9.0123 263.904 10.3623 265.104 13.0623C266.304 15.7623 266.854 18.9623 266.754 22.7123ZM285.994 22.6123L301.694 8.4123L299.394 8.4623C299.094 8.4623 298.494 8.8623 297.544 9.7123C296.994 10.1123 292.744 14.4123 284.794 22.5623C284.094 23.3123 283.594 23.6623 283.244 23.6623C282.844 23.6623 282.694 23.3623 282.694 22.7123C282.644 19.9623 282.644 22.4123 282.694 9.9123C282.694 8.8623 282.244 8.3123 281.394 8.2623H277.444V37.6123H281.594C282.244 37.4123 282.594 37.0623 282.644 36.5123C282.694 35.5623 282.694 32.2123 282.644 26.4623C282.644 25.8623 282.794 25.6123 283.094 25.6123C283.294 25.6123 283.544 25.7123 283.844 26.0123C284.294 26.3623 288.044 29.9623 295.144 36.7623C295.694 37.2623 296.394 37.5623 297.194 37.6123H301.744L285.994 22.6123Z" fill="black"/>
</svg>
