<svg width="17" height="21" viewBox="0 0 17 21" fill="none" xmlns="http://www.w3.org/2000/svg">
<path d="M9.30306 0.3125H2.13306C1.03306 0.3125 0.133057 1.2125 0.133057 2.3125V18.3125C0.133057 19.4125 1.03306 20.3125 2.13306 20.3125H14.1331C15.2331 20.3125 16.1331 19.4125 16.1331 18.3125V7.1425C16.1331 6.6125 15.9231 6.1025 15.5431 5.7325L10.7131 0.9025C10.3431 0.5225 9.83306 0.3125 9.30306 0.3125ZM12.1331 13.3125C12.1331 15.6525 10.1231 17.5225 7.74306 17.2925C5.66306 17.0925 4.13306 15.2325 4.13306 13.1425V7.9525C4.13306 6.6425 5.07306 5.4525 6.37306 5.3225C6.72169 5.28604 7.0741 5.32331 7.40739 5.43188C7.74069 5.54046 8.04743 5.71791 8.3077 5.95272C8.56797 6.18752 8.77595 6.47444 8.91814 6.79484C9.06033 7.11524 9.13356 7.46197 9.13306 7.8125V12.3125C9.13306 12.8625 8.68306 13.3125 8.13306 13.3125C7.58306 13.3125 7.13306 12.8625 7.13306 12.3125V7.8125C7.13306 7.5325 6.91306 7.3125 6.63306 7.3125C6.35306 7.3125 6.13306 7.5325 6.13306 7.8125V13.2025C6.13306 14.2025 6.81306 15.1225 7.79306 15.2825C8.08016 15.332 8.37463 15.3182 8.65584 15.2421C8.93706 15.1659 9.19825 15.0292 9.42113 14.8416C9.64401 14.654 9.8232 14.4199 9.94617 14.1558C10.0691 13.8917 10.1329 13.6038 10.1331 13.3125V10.3125C10.1331 9.7625 10.5831 9.3125 11.1331 9.3125C11.6831 9.3125 12.1331 9.7625 12.1331 10.3125V13.3125ZM10.1331 5.3125V2.3125L14.1331 6.3125H11.1331C10.5831 6.3125 10.1331 5.8625 10.1331 5.3125Z" fill="#B0B0B0"/>
</svg>
