<svg width="17" height="17" viewBox="0 0 17 17" fill="none" xmlns="http://www.w3.org/2000/svg">
<path d="M8.67969 0.835938C9.74055 0.835938 10.758 1.25736 11.5081 2.00751C12.2583 2.75766 12.6797 3.77507 12.6797 4.83594C12.6797 5.8968 12.2583 6.91422 11.5081 7.66436C10.758 8.41451 9.74055 8.83594 8.67969 8.83594C7.61882 8.83594 6.60141 8.41451 5.85126 7.66436C5.10111 6.91422 4.67969 5.8968 4.67969 4.83594C4.67969 3.77507 5.10111 2.75766 5.85126 2.00751C6.60141 1.25736 7.61882 0.835938 8.67969 0.835938ZM8.67969 10.8359C13.0997 10.8359 16.6797 12.6259 16.6797 14.8359V16.8359H0.679688V14.8359C0.679688 12.6259 4.25969 10.8359 8.67969 10.8359Z" fill="black"/>
</svg>
