<svg width="200" height="30" viewBox="0 0 200 30" fill="none" xmlns="http://www.w3.org/2000/svg">
<path d="M104.332 10.7796L101.723 2.18811C101.208 0.501751 98.8296 0.501751 98.3325 2.18811L95.7054 10.7796H87.8061C86.0843 10.7796 85.3742 12.9985 86.7766 13.9926L93.238 18.6079L90.6996 26.7912C90.1848 28.442 92.1019 29.7733 93.4687 28.726L100.019 23.7557L106.569 28.7438C107.936 29.7911 109.853 28.4598 109.338 26.8089L106.8 18.6256L113.261 14.0104C114.664 12.9985 113.954 10.7974 112.232 10.7974H104.332V10.7796Z" fill="#F2C94C"/>
<path d="M61.7211 10.7796L59.1117 2.18811C58.5969 0.501751 56.2183 0.501751 55.7212 2.18811L53.0941 10.7796H45.1948C43.4729 10.7796 42.7629 12.9985 44.1652 13.9926L50.6267 18.6079L48.0882 26.7912C47.5735 28.442 49.4906 29.7733 50.8574 28.726L57.4076 23.7557L63.9577 28.7438C65.3246 29.7911 67.2417 28.4598 66.7269 26.8089L64.1885 18.6256L70.6499 14.0104C72.0522 12.9985 71.3422 10.7974 69.6203 10.7974H61.7211V10.7796Z" fill="#F2C94C"/>
<path d="M19.1293 10.7796L16.5199 2.18811C16.0051 0.501751 13.6265 0.501751 13.1294 2.18811L10.5023 10.7796H2.60301C0.881152 10.7796 0.171107 12.9985 1.57345 13.9926L8.03485 18.6079L5.49644 26.7912C4.98166 28.442 6.89878 29.7733 8.26562 28.726L14.8158 23.7557L21.3659 28.7438C22.7328 29.7911 24.6499 28.4598 24.1351 26.8089L21.5967 18.6256L28.0581 14.0104C29.4605 12.9985 28.7504 10.7974 27.0285 10.7974H19.1293V10.7796Z" fill="#F2C94C"/>
<path d="M146.93 10.7796L144.321 2.18811C143.806 0.501751 141.427 0.501751 140.93 2.18811L138.303 10.7796H130.404C128.682 10.7796 127.972 12.9985 129.374 13.9926L135.836 18.6079L133.297 26.7912C132.782 28.442 134.7 29.7733 136.066 28.726L142.617 23.7557L149.167 28.7438C150.534 29.7911 152.451 28.4598 151.936 26.8089L149.397 18.6256L155.859 14.0104C157.261 12.9985 156.551 10.7974 154.829 10.7974H146.93V10.7796Z" fill="#F2C94C"/>
<path d="M189.545 10.7796L186.936 2.18811C186.421 0.501751 184.042 0.501751 183.545 2.18811L180.918 10.7796H173.019C171.297 10.7796 170.587 12.9985 171.989 13.9926L178.451 18.6079L175.912 26.7912C175.398 28.442 177.315 29.7733 178.682 28.726L185.232 23.7557L191.782 28.7438C193.149 29.7911 195.066 28.4598 194.551 26.8089L192.013 18.6256L198.474 14.0104C199.876 12.9985 199.166 10.7974 197.445 10.7974H189.545V10.7796Z" fill="#F2C94C"/>
</svg>
