<svg width="25" height="25" viewBox="0 0 25 25" fill="none" xmlns="http://www.w3.org/2000/svg">
<g clip-path="url(#clip0_150_6486)">
<path d="M12.5078 24.3818C19.1352 24.3818 24.5078 19.0093 24.5078 12.3818C24.5078 5.75442 19.1352 0.381836 12.5078 0.381836C5.88039 0.381836 0.507812 5.75442 0.507812 12.3818C0.507812 19.0093 5.88039 24.3818 12.5078 24.3818Z" fill="#F0F0F0"/>
<path d="M23.7614 16.5558C24.2438 15.2558 24.5078 13.8497 24.5078 12.3819C24.5078 10.9141 24.2438 9.50799 23.7614 8.20801H1.2542C0.771859 9.50799 0.507812 10.9141 0.507812 12.3819C0.507812 13.8497 0.771859 15.2558 1.2542 16.5558L12.5078 17.5993L23.7614 16.5558Z" fill="#0052B4"/>
<path d="M12.508 24.3818C17.6676 24.3818 22.0661 21.1253 23.7616 16.5557H1.25439C2.94991 21.1253 7.34842 24.3818 12.508 24.3818Z" fill="#D80027"/>
</g>
<defs>
<clipPath id="clip0_150_6486">
<rect width="24" height="24" fill="white" transform="translate(0.507812 0.381836)"/>
</clipPath>
</defs>
</svg>
