<svg width="100" height="101" viewBox="0 0 100 101" fill="none" xmlns="http://www.w3.org/2000/svg">
<circle cx="50" cy="50.1074" r="49" fill="#FFFEFF" stroke="#FF5714" stroke-width="2"/>
<g clip-path="url(#clip0_162_10189)">
<path d="M50 75.1074C63.8071 75.1074 75 63.9145 75 50.1074C75 36.3003 63.8071 25.1074 50 25.1074C36.1929 25.1074 25 36.3003 25 50.1074C25 63.9145 36.1929 75.1074 50 75.1074Z" fill="#FFE17D"/>
<path d="M41.5317 50.108C40.4183 50.108 39.5156 49.2054 39.5156 48.0919V46.479C39.5156 45.3655 40.4183 44.4629 41.5317 44.4629C42.6452 44.4629 43.5479 45.3655 43.5479 46.479V48.0919C43.5479 49.2054 42.6452 50.108 41.5317 50.108Z" fill="#7D5046"/>
<path d="M41.5321 44.4629C41.394 44.4629 41.2593 44.4771 41.1289 44.5035V47.2854C41.1289 47.9535 41.6705 48.4951 42.3386 48.4951C43.0066 48.4951 43.5482 47.9535 43.5482 47.2854V46.479C43.5482 45.3654 42.6457 44.4629 41.5321 44.4629Z" fill="#9C6846"/>
<path d="M58.4673 50.108C57.3538 50.108 56.4512 49.2054 56.4512 48.0919V46.479C56.4512 45.3655 57.3538 44.4629 58.4673 44.4629C59.5808 44.4629 60.4834 45.3655 60.4834 46.479V48.0919C60.4834 49.2054 59.5808 50.108 58.4673 50.108Z" fill="#7D5046"/>
<path d="M58.4677 44.4629C58.3296 44.4629 58.1948 44.4771 58.0645 44.5035V47.2854C58.0645 47.9535 58.6061 48.4951 59.2741 48.4951C59.9422 48.4951 60.4838 47.9535 60.4838 47.2854V46.479C60.4838 45.3654 59.5812 44.4629 58.4677 44.4629Z" fill="#9C6846"/>
<path d="M41.9321 62.4061C41.688 62.4061 41.4431 62.3179 41.2493 62.1398C40.8397 61.7626 40.813 61.1251 41.1902 60.7151C43.2363 58.4915 46.529 57.1641 49.9966 57.1641C53.4657 57.1641 56.7577 58.4919 58.8029 60.7155C59.1802 61.1251 59.1534 61.763 58.7438 62.1398C58.3351 62.5171 57.6964 62.4915 57.3191 62.0804C55.6487 60.2643 52.9112 59.1802 49.9965 59.1802C47.0825 59.1802 44.345 60.2643 42.6738 62.0808C42.4756 62.2967 42.2038 62.4061 41.9321 62.4061Z" fill="#AA7346"/>
<path d="M53.629 71.4788C39.8219 71.4788 28.629 60.2859 28.629 46.4788C28.629 40.4996 30.7307 35.0129 34.2321 30.7109C28.5999 35.2949 25 42.2799 25 50.1078C25 63.9149 36.1929 75.1078 50 75.1078C57.828 75.1078 64.813 71.5078 69.3971 65.8756C65.095 69.3771 59.6083 71.4788 53.629 71.4788Z" fill="#FFD164"/>
</g>
<defs>
<clipPath id="clip0_162_10189">
<rect width="50" height="50" fill="white" transform="translate(25 25.1074)"/>
</clipPath>
</defs>
</svg>
