<svg width="19" height="20" viewBox="0 0 19 20" fill="none" xmlns="http://www.w3.org/2000/svg">
<path d="M8.18164 16.8359C9.95662 16.8356 11.6804 16.2414 13.0786 15.1479L17.4746 19.5439L18.8886 18.1299L14.4926 13.7339C15.5866 12.3356 16.1812 10.6114 16.1816 8.83594C16.1816 4.42494 12.5926 0.835938 8.18164 0.835938C3.77064 0.835938 0.181641 4.42494 0.181641 8.83594C0.181641 13.2469 3.77064 16.8359 8.18164 16.8359ZM8.18164 2.83594C11.4906 2.83594 14.1816 5.52694 14.1816 8.83594C14.1816 12.1449 11.4906 14.8359 8.18164 14.8359C4.87264 14.8359 2.18164 12.1449 2.18164 8.83594C2.18164 5.52694 4.87264 2.83594 8.18164 2.83594Z" fill="#BDBDBD"/>
</svg>
