<svg width="113" height="54" viewBox="0 0 113 54" fill="none" xmlns="http://www.w3.org/2000/svg">
<path d="M0.697225 16.4901C0.832386 18.0445 1.64335 19.8692 3.46801 19.8692C4.68445 19.8692 6.64428 18.45 6.64428 17.1659C6.64428 16.9632 6.37396 16.6929 6.17122 16.6929C6.10364 16.6929 5.96848 16.7605 5.9009 16.828C5.563 17.0984 5.29267 17.4363 5.02235 17.7742C4.54929 18.3148 3.94107 18.6527 3.26527 18.7879C3.19769 18.7879 3.13011 18.8555 3.06253 18.8555C2.79221 18.8555 2.58947 18.6527 2.45431 18.45C2.11641 17.8418 1.98125 17.1659 1.98125 16.4901C2.04883 15.544 2.18399 14.6655 2.52189 13.8545C4.00865 9.39424 6.77944 6.01523 10.6991 3.44718C11.7128 2.7038 13.4023 1.96042 14.7539 1.96042C15.5649 1.96042 15.4973 2.50106 15.2945 3.37961C14.7539 5.33943 13.9429 7.23167 12.9292 8.98875L6.64428 20.4774C5.42783 22.6399 4.41413 24.8701 3.60317 27.2354C3.13011 28.6546 2.85979 30.1413 2.99495 31.6957C3.06253 32.9121 4.07623 34.4665 5.42783 34.4665C5.9009 34.4665 6.30638 34.3313 6.64428 33.9934C7.04976 33.5879 7.38766 33.1824 7.79314 32.7094C9.9557 30.1413 11.8479 27.303 13.7402 24.5322L23.2014 10.6107C23.6745 9.93488 24.1475 9.25907 24.6882 8.58327C24.8233 8.44811 25.0261 8.24537 25.2288 8.24537C25.2964 8.24537 25.364 8.31295 25.4316 8.31295C22.1877 12.9084 18.8763 19.1934 17.1192 24.5322C16.3758 26.6948 15.9703 28.9249 16.1731 31.155C16.2407 32.6418 17.4571 34.4665 19.079 34.4665C19.4845 34.4665 19.9576 34.2637 20.363 33.9934C22.1877 32.777 24.6206 29.1276 25.837 27.3706C28.2023 23.8564 30.5676 20.3422 33.0005 16.828C35.2983 13.449 37.5284 10.1376 40.0964 7.02893C40.5019 6.55587 40.9074 6.08281 41.3805 5.67733C41.448 5.54217 41.5156 5.54217 41.6508 5.54217C41.7184 5.54217 41.8535 5.54217 41.9887 5.60975C41.3129 6.15039 40.975 6.96135 40.5019 7.63715C35.8389 14.26 31.311 21.5587 30.5001 29.8034C30.2973 31.5605 30.838 33.1149 32.1896 34.3313C32.8654 34.9395 33.6088 35.2774 34.4197 35.2774C35.9741 35.2774 37.5284 33.8582 38.4745 32.777C41.7184 29.398 45.638 24.5998 48.0709 20.545C48.1385 20.4098 48.2061 20.2746 48.2061 20.1395C48.2736 19.8692 48.1385 19.6664 47.8682 19.5988H47.6654C47.4627 19.5988 47.2599 19.6664 47.1248 19.8692C46.7193 20.2746 46.3138 20.6801 46.0435 21.1532C44.1513 23.7888 42.0563 26.2893 40.0289 28.8573C38.8124 30.2765 37.4608 31.5605 36.1768 32.9121C35.8389 33.3176 34.7576 34.061 34.217 34.061C33.8791 34.061 33.6088 33.8582 33.4736 33.5203C33.2033 32.9797 33.3384 32.4391 33.4736 31.8984C34.8928 25.2756 37.7987 19.9367 41.1101 14.0573L44.5567 7.83989C45.0298 6.96135 45.3677 6.01523 45.5704 5.00153C45.638 4.52846 45.7056 3.98782 45.7056 3.51476C45.638 2.3659 44.7595 1.62252 43.8134 1.62252C43.4079 1.62252 43.0024 1.6901 42.6645 1.96042C41.9211 2.43348 41.3805 3.0417 40.8398 3.64992L37.3932 7.83989C34.4873 11.7595 31.7165 15.8143 29.0809 19.9367C27.0535 23.0454 24.9585 26.2217 22.6608 29.1952C21.8498 30.1413 21.1064 31.0875 20.1603 31.8984C19.9576 32.1012 19.7548 32.3715 19.4845 32.3715C19.4169 32.3715 19.3493 32.3039 19.2818 32.3039C19.1466 31.966 19.2142 31.6281 19.2818 31.2902C20.8361 25.4783 23.2014 20.1395 26.0398 14.8682C27.6617 11.8947 29.2836 8.92117 30.5676 5.81249C30.838 5.20427 30.9731 4.52846 31.0407 3.85266C31.1083 3.0417 30.7704 2.43348 30.0946 2.028C29.8918 1.89284 29.6891 1.75768 29.4188 1.75768C29.216 1.75768 29.0133 1.89284 28.743 2.09558C26.7832 3.31202 23.269 8.11021 21.985 10.0025C19.1466 14.0573 16.3758 18.1797 13.605 22.2345C11.7128 25.0052 9.82054 27.7085 7.72556 30.2765C7.2525 30.7496 6.9146 31.3578 6.17122 31.6281C6.17122 29.0601 10.8342 20.0043 12.1858 17.5714C13.7402 14.8006 15.2945 12.0974 16.511 9.19149C16.984 7.90747 17.4571 6.62345 17.6598 5.33943C17.795 4.66363 17.8626 3.98782 17.7274 3.31202C17.5247 1.55494 16.1731 0.406078 14.416 0.406078C13.7402 0.406078 13.0644 0.473657 12.3886 0.743978C7.65798 2.29832 3.60317 6.96135 1.77851 11.4216C1.03513 13.0436 0.629645 14.7331 0.697225 16.4901ZM4.75203 38.9943C4.68445 39.6701 5.15751 40.2784 5.96848 40.6163C6.17122 40.6838 6.30638 40.7514 6.50912 40.7514C6.84702 40.7514 7.11734 40.5487 7.18492 40.1432C7.18492 39.1295 7.52282 38.724 8.53652 38.5889C8.87442 38.5889 9.2799 38.5213 9.6178 38.5213C10.4288 38.4537 11.2397 38.4537 12.0507 38.4537C14.6187 38.4537 17.2544 38.724 19.8224 39.3322C23.1338 40.0756 26.5804 40.5487 29.9594 40.5487C31.9192 40.5487 35.7713 39.8729 35.9741 37.3048C35.9065 36.9669 35.9065 36.629 35.5686 36.4939C35.3658 36.4939 35.0955 36.629 34.8928 36.8318C34.0142 37.6427 32.8654 37.9806 31.6489 38.1158C30.7028 38.1834 29.6891 38.251 28.6754 38.251C25.4316 38.251 21.6471 37.5076 18.4708 36.8318C16.3758 36.4263 14.3484 36.156 12.1183 36.156C11.3073 36.156 10.4288 36.2235 9.55022 36.2911C9.14474 36.3587 8.33378 36.4263 7.45524 36.4263C6.98218 36.4939 6.44154 36.629 5.96848 36.8318C5.08993 37.3724 4.68445 38.1158 4.75203 38.9943ZM56.6409 17.3687C56.6409 17.0984 56.5733 16.4226 56.5057 15.7468C56.1003 13.5166 54.3432 11.2865 51.9103 11.2865C50.829 11.2865 49.8153 11.692 49.0719 12.4353C48.1934 13.449 47.5852 14.5303 47.3824 15.8819C47.3148 16.5577 47.3824 17.2335 47.45 17.9093C47.5176 18.3148 47.45 18.6527 47.1121 18.923C44.882 21.018 42.7194 25.681 42.2463 28.587C42.0436 29.6683 42.1112 30.8171 42.6518 31.8308C43.3952 33.3852 44.5441 34.1961 45.7605 34.1961C46.5715 34.1961 47.3824 33.8582 48.261 33.25L48.6664 32.9121C50.829 31.2226 52.5185 29.1952 53.8025 26.7623C54.0729 26.3568 54.2756 25.9514 54.4783 25.5459C54.6135 25.208 54.9514 25.1404 55.2893 25.1404C55.9651 25.2756 56.7761 25.4783 57.4519 25.4783C60.6281 25.4783 64.4802 22.7751 66.3724 20.2746C66.5752 19.9367 66.3724 19.5313 65.8994 19.3961C65.6291 19.3961 65.4263 19.3961 65.156 19.5313C64.7505 19.8016 64.4802 20.1395 64.1423 20.4774C62.1825 22.5048 59.4793 24.2619 56.6409 24.2619C55.019 24.2619 55.1541 23.9915 55.7624 22.2345C56.303 20.7477 56.6409 19.3285 56.6409 17.3687ZM53.735 23.4509C53.0592 23.3833 52.5861 23.0454 52.0455 22.7075C50.4235 21.6262 50.4235 21.3559 51.7076 19.8692L52.4509 18.9906C52.924 18.3148 52.8564 17.9769 52.2482 17.4363C51.7076 16.9632 51.0993 16.7605 50.4911 16.7605C50.2208 16.7605 50.0181 16.7605 49.7477 16.828L49.4774 16.8956C49.1395 16.8956 49.0043 16.6253 49.1395 16.2198C49.4098 15.2061 49.8829 14.26 50.6263 13.449C51.3021 12.8408 51.9103 12.5029 52.5185 12.5029C53.3971 12.5029 54.1404 13.1111 54.6135 14.26C55.2893 15.7468 55.4245 17.3011 55.2217 18.8555C54.8838 20.545 54.4783 21.9641 53.735 23.4509ZM45.4226 31.7633C45.4226 31.5605 45.4902 31.2226 45.6253 30.8171C46.3011 28.3167 47.3824 26.0189 48.6664 23.7888C48.8016 23.5185 49.4774 22.3696 49.8153 22.3696C49.9505 22.3696 50.0856 22.4372 50.2884 22.5724C51.0318 23.2482 51.8427 23.7888 52.7888 24.2619C53.2619 24.4646 53.3295 24.7349 53.1267 25.208C51.8427 27.9788 50.0856 30.4117 47.45 32.1687L46.639 32.7094C46.3687 32.8445 46.166 32.9797 45.8957 32.9797C45.8281 32.9797 45.7605 32.9121 45.6929 32.9121C45.4226 32.777 45.355 32.5066 45.4226 31.7633ZM54.717 48.1177C54.5818 47.4419 54.9197 46.9012 55.1225 46.3606C56.0686 43.9953 57.2174 41.7651 58.3663 39.535C60.4613 35.6153 62.6239 31.8308 64.6513 27.9788C66.138 25.208 68.6385 20.4098 68.8412 17.2335C68.9088 16.7605 68.9088 16.2874 68.7061 15.8819C68.5709 15.4764 68.233 15.1385 67.6924 15.071C67.2869 15.071 66.949 15.2737 66.7462 15.6116C66.4759 16.0171 66.2732 16.4226 66.0704 16.828C65.5298 17.9769 64.9216 19.1258 64.3134 20.2746C61.8129 24.8025 59.3124 29.2628 56.8795 33.7907C54.2439 38.724 50.7973 46.0227 50.5946 51.767C50.5946 53.1186 51.2028 53.5916 51.811 53.7944C52.7572 53.7944 52.9599 53.7268 53.5681 52.7807L56.001 48.7259C57.4202 46.293 58.8394 43.7925 60.3261 41.2921C63.2321 36.3587 66.2056 31.3578 69.5846 26.6272C71.7472 23.5861 74.518 20.0719 78.1673 18.8555C78.2349 18.8555 78.3024 18.7879 78.37 18.7879C78.6403 18.7879 78.8431 18.9906 78.7755 19.3961C78.7079 20.4098 78.37 21.3559 78.0321 22.302C77.0184 25.2756 75.2613 27.776 73.5718 30.4117C73.2339 30.9523 72.8285 31.2226 72.1527 31.3578C69.3819 31.6281 67.0166 32.9797 66.0029 35.6153C65.8001 36.2911 65.9353 36.8318 66.2732 37.3724C66.8138 38.1158 67.6924 38.5889 68.6385 38.5889C68.9764 38.5889 69.2467 38.5213 69.5846 38.4537C72.1527 37.5076 74.2476 35.7505 75.9371 33.6555C76.4102 33.0473 76.9508 32.7094 77.7618 32.6418C85.3984 31.6957 89.8587 26.1541 94.1162 20.4774C94.3865 20.1395 94.3865 19.8692 94.1162 19.5988C93.9135 19.3285 93.7107 19.1934 93.508 19.1934C93.3052 19.1934 93.0349 19.3285 92.8322 19.5313L92.0212 20.6125C88.3719 25.681 84.655 29.398 78.5052 31.155C78.4376 31.155 78.37 31.2226 78.3024 31.2226C78.1673 31.2226 78.0321 31.155 77.897 31.0199L79.8568 27.1678C80.8029 25.4107 81.276 23.5185 81.4787 21.5587C81.5463 20.7477 81.4787 20.0719 81.2084 19.3961C80.8029 18.0445 79.5865 17.1659 78.3024 17.1659C77.9645 17.1659 77.6942 17.2335 77.3563 17.3011C76.7481 17.5039 76.1399 17.8418 75.5317 18.1797C72.6933 20.0719 70.5307 22.9103 68.6385 25.681C63.6376 32.9797 59.1773 40.5487 54.717 48.1177ZM71.4769 33.0473V33.1824C70.5307 34.4665 69.3143 35.5477 67.9627 36.4939C67.8951 36.5614 67.8275 36.5614 67.7599 36.5614C67.6924 36.5614 67.6248 36.5614 67.5572 36.4939C67.4896 36.3587 67.422 36.156 67.422 36.0208C67.6248 34.3989 69.7198 33.1824 71.139 32.777C71.3417 32.777 71.4769 32.8445 71.4769 33.0473ZM102.772 17.3687C102.772 17.0984 102.705 16.4226 102.637 15.7468C102.232 13.5166 100.475 11.2865 98.0417 11.2865C96.9604 11.2865 95.9467 11.692 95.2033 12.4353C94.3247 13.449 93.7165 14.5303 93.5138 15.8819C93.4462 16.5577 93.5138 17.2335 93.5814 17.9093C93.6489 18.3148 93.5814 18.6527 93.2435 18.923C91.0133 21.018 88.8508 25.681 88.3777 28.587C88.175 29.6683 88.2425 30.8171 88.7832 31.8308C89.5266 33.3852 90.6754 34.1961 91.8919 34.1961C92.7028 34.1961 93.5138 33.8582 94.3923 33.25L94.7978 32.9121C96.9604 31.2226 98.6499 29.1952 99.9339 26.7623C100.204 26.3568 100.407 25.9514 100.61 25.5459C100.745 25.208 101.083 25.1404 101.421 25.1404C102.096 25.2756 102.907 25.4783 103.583 25.4783C106.759 25.4783 110.612 22.7751 112.504 20.2746C112.707 19.9367 112.504 19.5313 112.031 19.3961C111.76 19.3961 111.558 19.3961 111.287 19.5313C110.882 19.8016 110.612 20.1395 110.274 20.4774C108.314 22.5048 105.611 24.2619 102.772 24.2619C101.15 24.2619 101.286 23.9915 101.894 22.2345C102.434 20.7477 102.772 19.3285 102.772 17.3687ZM99.8663 23.4509C99.1905 23.3833 98.7175 23.0454 98.1768 22.7075C96.5549 21.6262 96.5549 21.3559 97.8389 19.8692L98.5823 18.9906C99.0554 18.3148 98.9878 17.9769 98.3796 17.4363C97.8389 16.9632 97.2307 16.7605 96.6225 16.7605C96.3522 16.7605 96.1494 16.7605 95.8791 16.828L95.6088 16.8956C95.2709 16.8956 95.1357 16.6253 95.2709 16.2198C95.5412 15.2061 96.0142 14.26 96.7576 13.449C97.4334 12.8408 98.0417 12.5029 98.6499 12.5029C99.5284 12.5029 100.272 13.1111 100.745 14.26C101.421 15.7468 101.556 17.3011 101.353 18.8555C101.015 20.545 100.61 21.9641 99.8663 23.4509ZM91.554 31.7633C91.554 31.5605 91.6215 31.2226 91.7567 30.8171C92.4325 28.3167 93.5138 26.0189 94.7978 23.7888C94.933 23.5185 95.6088 22.3696 95.9467 22.3696C96.0818 22.3696 96.217 22.4372 96.4197 22.5724C97.1631 23.2482 97.9741 23.7888 98.9202 24.2619C99.3933 24.4646 99.4608 24.7349 99.2581 25.208C97.9741 27.9788 96.217 30.4117 93.5814 32.1687L92.7704 32.7094C92.5001 32.8445 92.2973 32.9797 92.027 32.9797C91.9594 32.9797 91.8919 32.9121 91.8243 32.9121C91.554 32.777 91.4864 32.5066 91.554 31.7633Z" fill="black"/>
</svg>
