<svg width="25" height="25" viewBox="0 0 25 25" fill="none" xmlns="http://www.w3.org/2000/svg">
<path d="M11.8477 1.52344H3.84766C2.74766 1.52344 1.84766 2.42344 1.84766 3.52344V15.5234L4.84766 12.5234H9.84766V11.5234C9.84766 9.32344 11.6377 7.52344 13.8477 7.52344V3.52344C13.8477 2.42344 12.9477 1.52344 11.8477 1.52344ZM11.8477 4.52344H10.3477C10.0077 5.71344 9.38766 6.82344 8.52766 7.78344L8.50766 7.80344L9.76766 9.05344L9.39766 10.0634L7.84766 8.52344L5.34766 11.0234L4.65766 10.2934L7.18766 7.80344C6.5763 7.12691 6.0767 6.35725 5.70766 5.52344H6.69766C7.00766 6.12344 7.38766 6.69344 7.84766 7.20344C8.54783 6.42619 9.08206 5.51426 9.41766 4.52344H3.84766V3.52344H7.34766V2.52344H8.34766V3.52344H11.8477V4.52344ZM21.8477 9.52344H13.8477C12.7477 9.52344 11.8477 10.4234 11.8477 11.5234V18.5234C11.8477 19.6234 12.7477 20.5234 13.8477 20.5234H20.8477L23.8477 23.5234V11.5234C23.8477 10.4234 22.9477 9.52344 21.8477 9.52344ZM20.4777 19.5234L19.6277 17.2734H16.0677L15.2277 19.5234H13.7277L17.0977 10.5234H18.5977L21.9777 19.5234H20.4777ZM17.8477 12.5234L19.0677 15.7734H16.6377L17.8477 12.5234Z" fill="#FFFEFF"/>
</svg>
