<svg width="150" height="151" viewBox="0 0 150 151" fill="none" xmlns="http://www.w3.org/2000/svg">
<g clip-path="url(#clip0_96_5742)">
<path d="M144.722 75.0508C147.038 72.3532 148.662 69.1311 149.451 65.664C150.24 62.1969 150.172 58.5896 149.252 55.155C148.331 51.7204 146.587 48.5622 144.169 45.9544C141.752 43.3466 138.735 41.368 135.38 40.1902C136.038 36.6955 135.832 33.0933 134.782 29.6959C133.732 26.2985 131.869 23.2086 129.354 20.6944C126.84 18.1801 123.75 16.3174 120.352 15.2678C116.955 14.2181 113.352 14.0134 109.858 14.6712C108.681 11.3154 106.703 8.29751 104.095 5.87966C101.487 3.46181 98.3286 1.71705 94.8934 0.796859C91.4583 -0.123334 87.8505 -0.191144 84.3832 0.599317C80.916 1.38978 77.6941 3.01462 74.9972 5.33276C72.2996 3.01621 69.0775 1.39284 65.6104 0.603469C62.1433 -0.1859 58.536 -0.117422 55.1014 0.802959C51.6667 1.72334 48.5086 3.46783 45.9008 5.88509C43.293 8.30235 41.3144 11.3194 40.1366 14.6744C36.6422 14.0177 33.0402 14.2234 29.6433 15.2737C26.2464 16.324 23.157 18.1872 20.6431 20.7017C18.1293 23.2162 16.2668 26.3061 15.2174 29.7033C14.1679 33.1005 13.9632 36.7024 14.6208 40.1967C11.2658 41.3745 8.24873 43.3531 5.83147 45.9609C3.41421 48.5687 1.66971 51.7269 0.749326 55.1615C-0.171056 58.5961 -0.239544 62.2034 0.549825 65.6705C1.33919 69.1376 2.9626 72.3597 5.27915 75.0573C2.96189 77.7549 1.33799 80.9772 0.548397 84.4447C-0.241196 87.9121 -0.172649 91.5199 0.748136 94.9548C1.66892 98.3897 3.41409 101.548 5.83218 104.156C8.25027 106.763 11.2682 108.741 14.6241 109.918C13.9659 113.412 14.1704 117.015 15.22 120.412C16.2696 123.809 18.1325 126.899 20.647 129.413C23.1614 131.928 26.2516 133.79 29.6491 134.839C33.0466 135.888 36.6488 136.092 40.1431 135.434C41.3209 138.789 43.2995 141.806 45.9073 144.223C48.5151 146.64 51.6733 148.385 55.1079 149.305C58.5425 150.226 62.1498 150.294 65.6169 149.505C69.0839 148.715 72.3061 147.092 75.0037 144.775C77.7013 147.093 80.9237 148.717 84.3911 149.506C87.8585 150.296 91.4663 150.227 94.9012 149.306C98.3361 148.386 101.494 146.64 104.102 144.222C106.71 141.804 108.688 138.786 109.864 135.43C113.359 136.089 116.961 135.884 120.359 134.834C123.756 133.785 126.846 131.922 129.36 129.407C131.875 126.893 133.738 123.803 134.787 120.406C135.837 117.008 136.041 113.406 135.383 109.912C138.739 108.734 141.756 106.755 144.173 104.148C146.591 101.54 148.335 98.3812 149.255 94.9464C150.175 91.5115 150.243 87.904 149.453 84.437C148.663 80.9699 147.039 77.748 144.722 75.0508Z" fill="#FF5714"/>
<path d="M61.5369 103.68L40.6952 82.8515C39.9042 82.0593 39.46 80.9855 39.46 79.866C39.46 78.7465 39.9042 77.6728 40.6952 76.8805L43.2273 74.3452C44.0195 73.5542 45.0933 73.11 46.2128 73.11C47.3323 73.11 48.4061 73.5542 49.1983 74.3452L64.3485 89.4856L100.028 51.5696C100.796 50.755 101.856 50.2783 102.974 50.2442C104.093 50.21 105.18 50.6213 105.996 51.3876L108.596 53.8416C109.412 54.6095 109.889 55.6698 109.923 56.7894C109.957 57.9091 109.546 58.9965 108.778 59.8126L67.6086 103.586C67.221 103.999 66.7543 104.33 66.2361 104.559C65.718 104.788 65.1592 104.911 64.5927 104.92C64.0263 104.928 63.4638 104.823 62.9389 104.61C62.4139 104.397 61.9371 104.081 61.5369 103.68Z" fill="white"/>
</g>
<defs>
<clipPath id="clip0_96_5742">
<rect width="150" height="150" fill="white" transform="translate(0 0.0507812)"/>
</clipPath>
</defs>
</svg>
