<svg width="64" height="64" viewBox="0 0 64 64" fill="none" xmlns="http://www.w3.org/2000/svg">
<circle cx="31.8719" cy="32.0042" r="31.2308" fill="#14988B"/>
<g clip-path="url(#clip0_150_8927)">
<path d="M31.8718 13.2656C26.9031 13.2656 22.1336 15.2411 18.6231 18.7539C15.1089 22.2682 13.1343 27.0342 13.1333 32.0041C13.1333 36.9718 15.1096 41.7414 18.6231 45.2542C22.1336 48.7671 26.9031 50.7425 31.8718 50.7425C36.8404 50.7425 41.6099 48.7671 45.1204 45.2542C48.6339 41.7414 50.6102 36.9718 50.6102 32.0041C50.6102 27.0363 48.6339 22.2668 45.1204 18.7539C41.6099 15.2411 36.8404 13.2656 31.8718 13.2656Z" fill="#FFFEFF"/>
<path d="M21.6155 31.8061C27.0789 29.4264 30.7212 27.8573 32.5423 27.0993C37.7481 24.9347 38.8285 24.5587 39.5341 24.546C39.6893 24.5435 40.0348 24.5819 40.2603 24.7641C40.4476 24.9179 40.5003 25.1257 40.5267 25.2717C40.5501 25.4175 40.5823 25.7498 40.556 26.0092C40.2749 28.9722 39.054 36.1625 38.4333 39.4813C38.1727 40.8855 37.6544 41.3563 37.1538 41.4023C36.0646 41.5024 35.2389 40.6832 34.1849 39.9925C32.5365 38.9112 31.6054 38.2384 30.0039 37.1835C28.1534 35.9643 29.3539 35.2941 30.4079 34.1991C30.6831 33.9125 35.479 29.5514 35.5698 29.1558C35.5815 29.1063 35.5932 28.9219 35.4819 28.8247C35.3736 28.7272 35.2126 28.7606 35.0955 28.7869C34.9286 28.8244 32.2964 30.5659 27.1902 34.0111C26.4436 34.5247 25.7672 34.775 25.1582 34.7618C24.4907 34.7475 23.2024 34.3836 22.245 34.0726C21.0738 33.6911 20.1398 33.4894 20.2218 32.8414C20.2628 32.5041 20.7283 32.1589 21.6155 31.8061Z" fill="#14988B"/>
</g>
<defs>
<clipPath id="clip0_150_8927">
<rect width="37.4769" height="37.4769" fill="white" transform="translate(13.1333 13.2656)"/>
</clipPath>
</defs>
</svg>
