<svg width="18" height="21" viewBox="0 0 18 21" fill="none" xmlns="http://www.w3.org/2000/svg">
<path d="M8.73875 0.648438C9.61111 0.648437 10.4501 0.977133 11.0822 1.56654C11.7143 2.15595 12.0911 2.96097 12.1347 3.8151L12.1389 3.98177H16.3892C16.6058 3.98201 16.8142 4.06334 16.9718 4.20914C17.1293 4.35495 17.2241 4.55423 17.2368 4.76627C17.2495 4.9783 17.1791 5.18709 17.0401 5.34996C16.901 5.51284 16.7038 5.61752 16.4886 5.6426L16.3892 5.64844H15.6675L14.6644 17.7759C14.5997 18.5585 14.2369 19.2885 13.6481 19.8208C13.0594 20.353 12.2878 20.6485 11.487 20.6484H5.99055C5.18967 20.6485 4.41812 20.353 3.82936 19.8208C3.2406 19.2885 2.87778 18.5585 2.81307 17.7759L1.80917 5.64844H1.08833C0.880123 5.64841 0.679169 5.57347 0.523581 5.43784C0.367993 5.30221 0.268592 5.11531 0.244232 4.9126L0.238281 4.8151C0.238309 4.61099 0.314748 4.41399 0.453101 4.26146C0.591454 4.10893 0.782098 4.01149 0.988873 3.9876L1.08833 3.98177H5.33856C5.33856 3.09772 5.6968 2.24987 6.33446 1.62475C6.97212 0.999627 7.83697 0.648438 8.73875 0.648438ZM6.82615 8.35677C6.67209 8.35678 6.52324 8.41147 6.40713 8.51074C6.29103 8.61001 6.21551 8.74714 6.19456 8.89677L6.18861 8.98177V15.6484L6.19456 15.7334C6.21556 15.883 6.29109 16.0201 6.40719 16.1193C6.52329 16.2186 6.67212 16.2732 6.82615 16.2732C6.98018 16.2732 7.129 16.2186 7.2451 16.1193C7.36121 16.0201 7.43674 15.883 7.45773 15.7334L7.46368 15.6484V8.98177L7.45773 8.89677C7.43678 8.74714 7.36127 8.61001 7.24516 8.51074C7.12905 8.41147 6.98021 8.35678 6.82615 8.35677ZM10.6514 8.35677C10.4973 8.35678 10.3485 8.41147 10.2323 8.51074C10.1162 8.61001 10.0407 8.74714 10.0198 8.89677L10.0138 8.98177V15.6484L10.0198 15.7334C10.0408 15.883 10.1163 16.0201 10.2324 16.1193C10.3485 16.2186 10.4973 16.2732 10.6514 16.2732C10.8054 16.2732 10.9542 16.2186 11.0703 16.1193C11.1864 16.0201 11.2619 15.883 11.2829 15.7334L11.2889 15.6484V8.98177L11.2829 8.89677C11.262 8.74714 11.1865 8.61001 11.0704 8.51074C10.9543 8.41147 10.8054 8.35678 10.6514 8.35677ZM8.73875 2.3151C8.30984 2.31497 7.89672 2.47378 7.58222 2.75968C7.26772 3.04559 7.07508 3.43747 7.04291 3.85677L7.03866 3.98177H10.4388L10.4346 3.85677C10.4024 3.43747 10.2098 3.04559 9.89528 2.75968C9.58078 2.47378 9.16767 2.31497 8.73875 2.3151Z" fill="#FFFEFF"/>
</svg>
