<svg width="366" height="82" viewBox="0 0 366 82" fill="none" xmlns="http://www.w3.org/2000/svg">
<path fill-rule="evenodd" clip-rule="evenodd" d="M149.471 81.0495C119.031 81.0495 99.7242 59.608 94.7699 54.3765C89.8158 49.1448 70.4913 21.4477 40.0683 20.8694C18.4918 20.8694 12.654 31.3153 12.654 42.0533C12.654 52.7914 16.4975 69.9848 42.1543 69.9848C67.8139 69.9848 65.4039 40.1128 49.2121 40.1128C33.0229 40.1128 40.0683 60.245 40.0683 60.245C40.0683 60.245 30.2471 56.055 30.2471 45.0417C30.2471 34.0252 41.0823 29.5554 49.2128 29.5554C57.3432 29.5554 71.8665 36.0148 71.8665 48.4343H83.4326L82.4316 61.763C82.4316 61.763 90.3834 59.7075 99.7241 65.5199C109.064 71.3324 108.173 81.0493 108.173 81.0493C108.173 81.0493 96.8583 72.5673 82.4316 72.5673C68.0049 72.5673 70.7174 81.0493 42.1541 81.0493C13.5909 81.0493 0.796875 64.1721 0.796875 42.0531C0.796875 19.9341 15.1851 9.0324 40.0682 9.0324C72.8979 9.0324 89.8155 30.3135 94.7698 35.7028C99.7239 41.0949 117.673 68.5911 149.471 69.2099C171.048 69.2099 176.888 58.764 176.888 48.026C176.888 37.2899 173.042 20.0971 147.385 20.0971C121.729 20.0971 124.138 49.9691 140.328 49.9691C156.519 49.9691 149.471 29.8343 149.471 29.8343C149.471 29.8343 159.295 34.0242 159.295 45.0402C159.295 56.054 148.46 60.5239 140.327 60.5239C132.196 60.5239 117.673 54.0645 117.673 41.645H106.107L107.108 28.3163C107.108 28.3163 99.1563 30.3718 89.8156 24.5593C80.4755 18.7494 81.3695 9.0326 81.3695 9.0326C81.3695 9.0326 92.6814 17.5119 107.108 17.5119C121.535 17.5119 118.822 9.0326 147.386 9.0326C158.353 9.0326 166.998 11.5211 173.483 15.8387C173.483 15.8387 174.756 10.2504 177.657 6.45763C178.867 4.87588 181.432 1.5545 183.373 0.5C185.314 1.5545 187.879 4.87588 189.089 6.45763C191.99 10.2502 193.263 15.8387 193.263 15.8387C199.748 11.5214 208.393 9.0326 219.361 9.0326C247.924 9.0326 245.211 17.5119 259.638 17.5119C274.065 17.5119 285.377 9.0326 285.377 9.0326C285.377 9.0326 286.271 18.7495 276.931 24.5593C267.59 30.3718 259.638 28.3163 259.638 28.3163L260.639 41.645H249.073C249.073 54.0646 234.55 60.5239 226.419 60.5239C218.286 60.5239 207.451 56.0537 207.451 45.0402C207.451 34.0237 217.275 29.8343 217.275 29.8343C217.275 29.8343 210.227 49.9691 226.419 49.9691C242.608 49.9691 245.017 20.0971 219.361 20.0971C193.704 20.0971 189.858 37.2899 189.858 48.026C189.858 58.7646 195.698 69.2099 217.275 69.2099C249.073 68.591 267.022 41.0953 271.976 35.7028C276.93 30.3131 293.848 9.0324 326.678 9.0324C351.56 9.0324 365.949 19.9341 365.949 42.0531C365.949 64.1721 353.155 81.0493 324.592 81.0493C296.029 81.0493 298.741 72.5673 284.315 72.5673C269.888 72.5673 258.573 81.0493 258.573 81.0493C258.573 81.0493 257.682 71.3324 267.022 65.5199C276.362 59.7075 284.315 61.763 284.315 61.763L283.313 48.4343H294.88C294.88 36.0146 309.403 29.5554 317.533 29.5554C325.664 29.5554 336.499 34.0256 336.499 45.0417C336.499 56.0556 326.678 60.245 326.678 60.245C326.678 60.245 333.723 40.1128 317.534 40.1128C301.342 40.1128 298.933 69.9848 324.592 69.9848C350.249 69.9848 354.092 52.792 354.092 42.0533C354.092 31.3146 348.254 20.8694 326.678 20.8694C296.255 21.4476 276.931 49.1444 271.976 54.3765C267.022 59.6082 247.715 81.0495 217.275 81.0495C201.083 81.0495 189.603 76.4316 183.373 67.1144C177.143 76.4316 165.663 81.0495 149.471 81.0495Z" fill="black" fill-opacity="0.03"/>
</svg>
