<svg width="198" height="43" viewBox="0 0 198 43" fill="none" xmlns="http://www.w3.org/2000/svg">
<path d="M10.5392 20.4162L27.1892 3.56621H24.3392C23.8392 3.46621 23.1392 3.96621 22.2392 4.96621C21.8392 5.46621 17.1892 10.9162 8.33918 21.2662C7.78919 21.7662 7.28918 22.0162 6.93919 22.0162C6.48918 22.0162 6.23919 21.6662 6.18918 20.9662V5.61621C6.38918 4.31621 5.58919 3.66621 3.78918 3.56621H0.789185V40.6162H4.48919C5.53919 40.6162 6.08918 40.2162 6.18918 39.4662V25.5662C6.28919 24.9162 6.48918 24.6162 6.83918 24.6162C7.08919 24.6162 7.33919 24.7162 7.58918 24.9662C7.93918 25.3662 12.1392 30.0662 20.1892 39.0162C21.0892 39.9662 22.2892 40.5162 23.7392 40.6162H27.3392L10.5392 20.4162ZM48.8779 15.6662C46.7779 12.5662 43.9779 11.0162 40.5779 11.0162C36.9779 11.0162 34.0279 12.7162 31.6779 16.1662C29.5779 19.2162 28.5779 22.6162 28.5779 26.4162C28.5779 29.9162 29.4779 33.1162 31.3779 35.8662C33.4779 38.9662 36.2279 40.5162 39.6779 40.5162C43.2779 40.5162 46.2779 38.8162 48.6279 35.3662C50.6779 32.3162 51.7279 28.9162 51.7279 25.1162C51.7279 21.5662 50.7779 18.4162 48.8779 15.6662ZM46.4279 25.7162C46.3279 29.5162 45.6279 32.6662 44.2779 35.3162C42.9779 37.9162 41.4279 39.1662 39.6779 39.1662C37.8779 39.1162 36.4279 37.7162 35.2279 35.0662C34.0279 32.3662 33.4779 29.1662 33.5779 25.4162C33.6779 21.6662 34.3779 18.4662 35.7279 15.8662C37.0279 13.2162 38.5779 11.9162 40.3279 11.9662C42.1279 12.0162 43.5779 13.3662 44.7779 16.0662C45.9779 18.7662 46.5279 21.9662 46.4279 25.7162ZM82.8868 13.3162C82.7868 12.4662 82.3868 11.8662 81.7368 11.5162C81.4868 11.3662 81.1368 11.3162 80.7868 11.2662C76.4868 11.2662 74.0368 11.3162 73.3368 11.3662C73.1868 11.3662 67.0368 11.5162 65.6868 11.6662C64.8868 11.7162 64.7368 12.6162 64.7368 12.7162L60.2868 38.5162C60.2368 38.9662 59.5368 39.3662 59.1868 39.3662C55.8868 39.5662 57.0368 36.2662 57.0368 36.2662C57.0368 36.2662 54.2368 35.2662 53.8368 37.1162C52.9368 41.1662 63.8868 42.0662 64.1368 37.8162L65.3868 14.1162C65.3868 13.4162 65.8368 13.2662 66.0868 13.2162C66.8868 13.1162 74.5868 12.3662 75.5368 12.3662C76.6868 12.4662 77.2868 13.0162 77.2868 13.9662L77.4868 39.6662C77.4868 40.1662 77.9368 40.6162 78.4368 40.6162H81.0368C82.3868 40.6162 83.0368 40.3662 83.0368 37.9162L82.8868 13.3162ZM108.643 15.6662C106.543 12.5662 103.743 11.0162 100.343 11.0162C96.7435 11.0162 93.7935 12.7162 91.4435 16.1662C89.3435 19.2162 88.3435 22.6162 88.3435 26.4162C88.3435 29.9162 89.2435 33.1162 91.1435 35.8662C93.2435 38.9662 95.9935 40.5162 99.4435 40.5162C103.043 40.5162 106.043 38.8162 108.393 35.3662C110.443 32.3162 111.493 28.9162 111.493 25.1162C111.493 21.5662 110.543 18.4162 108.643 15.6662ZM106.193 25.7162C106.093 29.5162 105.393 32.6662 104.043 35.3162C102.743 37.9162 101.193 39.1662 99.4435 39.1662C97.6435 39.1162 96.1935 37.7162 94.9935 35.0662C93.7935 32.3662 93.2435 29.1662 93.3435 25.4162C93.4435 21.6662 94.1435 18.4662 95.4935 15.8662C96.7935 13.2162 98.3435 11.9162 100.093 11.9662C101.893 12.0162 103.343 13.3662 104.543 16.0662C105.743 18.7662 106.293 21.9662 106.193 25.7162ZM140.084 22.1162C139.484 19.9162 138.434 18.1662 136.984 16.9162C135.084 15.2162 132.784 14.3662 130.134 14.3662C128.734 14.3662 127.334 14.8162 125.884 15.6662C124.434 16.5162 123.384 17.4662 122.734 18.5662C122.134 19.5162 121.834 19.7162 121.834 19.1662C121.834 19.0162 122.034 18.0162 122.084 17.8662C125.534 4.16621 134.934 14.6162 138.434 3.91621C138.434 3.91621 138.634 2.41621 136.784 4.96621C133.084 10.0662 121.434 0.716209 116.784 19.8662C116.734 19.8662 116.734 19.8662 116.734 19.9162C116.184 22.1162 115.934 24.2162 115.984 26.1662C115.984 30.0162 117.034 33.2162 119.134 35.7162C120.234 37.0662 121.534 38.1662 122.934 39.0162C124.484 39.9162 126.184 40.4162 128.134 40.4162C130.534 40.4162 132.784 39.6662 134.784 38.1662C138.684 35.3162 140.634 31.4162 140.634 26.4162C140.634 24.9162 140.434 23.5162 140.084 22.1162ZM135.534 27.6162C135.434 30.8162 134.634 33.4662 133.234 35.6662C131.784 37.8162 130.134 38.8662 128.284 38.8162C126.384 38.7162 124.834 37.5162 123.534 35.2162C122.284 32.9662 121.734 30.2162 121.834 27.0662C121.934 23.8662 122.684 21.2162 124.134 19.0162C125.584 16.8662 127.234 15.8162 129.084 15.8662C130.984 15.9662 132.534 17.1662 133.834 19.4662C135.084 21.7162 135.634 24.4662 135.534 27.6162ZM165.431 15.6662C163.331 12.5662 160.531 11.0162 157.131 11.0162C153.531 11.0162 150.581 12.7162 148.231 16.1662C146.131 19.2162 145.131 22.6162 145.131 26.4162C145.131 29.9162 146.031 33.1162 147.931 35.8662C150.031 38.9662 152.781 40.5162 156.231 40.5162C159.831 40.5162 162.831 38.8162 165.181 35.3662C167.231 32.3162 168.281 28.9162 168.281 25.1162C168.281 21.5662 167.331 18.4162 165.431 15.6662ZM162.981 25.7162C162.881 29.5162 162.181 32.6662 160.831 35.3162C159.531 37.9162 157.981 39.1662 156.231 39.1662C154.431 39.1162 152.981 37.7162 151.781 35.0662C150.581 32.3662 150.031 29.1662 150.131 25.4162C150.231 21.6662 150.931 18.4662 152.281 15.8662C153.581 13.2162 155.131 11.9162 156.881 11.9662C158.681 12.0162 160.131 13.3662 161.331 16.0662C162.531 18.7662 163.081 21.9662 162.981 25.7162ZM182.221 25.6162L197.921 11.4162L195.621 11.4662C195.321 11.4662 194.721 11.8662 193.771 12.7162C193.221 13.1162 188.971 17.4162 181.021 25.5662C180.321 26.3162 179.821 26.6662 179.471 26.6662C179.071 26.6662 178.921 26.3662 178.921 25.7162C178.871 22.9662 178.871 25.4162 178.921 12.9162C178.921 11.8662 178.471 11.3162 177.621 11.2662H173.671V40.6162H177.821C178.471 40.4162 178.821 40.0662 178.871 39.5162C178.921 38.5662 178.921 35.2162 178.871 29.4662C178.871 28.8662 179.021 28.6162 179.321 28.6162C179.521 28.6162 179.771 28.7162 180.071 29.0162C180.521 29.3662 184.271 32.9662 191.371 39.7662C191.921 40.2662 192.621 40.5662 193.421 40.6162H197.971L182.221 25.6162Z" fill="black"/>
</svg>
