<svg width="91" height="38" viewBox="0 0 91 38" fill="none" xmlns="http://www.w3.org/2000/svg">
<path d="M9.16094 2.1041C9.06094 2.2041 9.09427 2.63743 9.26094 3.4041C9.4276 4.17077 9.69427 5.1541 10.0609 6.3541C10.4276 7.5541 10.8943 8.9041 11.4609 10.4041C12.0276 11.9041 12.6276 13.4541 13.2609 15.0541L16.1109 22.0541L16.0609 22.1541L12.6109 15.8041C11.7776 14.2374 10.9443 12.6874 10.1109 11.1541C9.31094 9.58743 8.56094 8.1541 7.86094 6.8541C7.16094 5.5541 6.56094 4.47077 6.06094 3.6041C5.56094 2.7041 5.21094 2.1541 5.01094 1.9541C4.8776 1.82077 4.61094 1.68743 4.21094 1.5541C3.84427 1.38743 3.4276 1.23743 2.96094 1.1041C2.5276 0.937433 2.09427 0.787433 1.66094 0.654099C1.26094 0.520766 0.944271 0.4041 0.710938 0.304101V0.204099H13.8609V0.304101C13.5609 0.4041 13.1776 0.520766 12.7109 0.654099C12.2776 0.787433 11.8276 0.920767 11.3609 1.0541C10.9276 1.18743 10.5109 1.3541 10.1109 1.5541C9.71094 1.72077 9.39427 1.9041 9.16094 2.1041ZM29.7109 2.6041C29.5443 2.77077 29.2943 3.12077 28.9609 3.6541C28.6609 4.1541 28.3276 4.77077 27.9609 5.5041C27.5943 6.23743 27.1943 7.0541 26.7609 7.9541C26.3609 8.8541 25.9609 9.77077 25.5609 10.7041C25.1943 11.6041 24.8443 12.4874 24.5109 13.3541C24.1776 14.2208 23.9109 14.9874 23.7109 15.6541H23.6109C23.9443 14.3208 24.3109 12.9041 24.7109 11.4041C25.1109 9.87077 25.4609 8.4541 25.7609 7.1541C26.0943 5.8541 26.3276 4.7541 26.4609 3.8541C26.6276 2.92077 26.6276 2.37077 26.4609 2.2041C26.2609 2.0041 25.9443 1.8041 25.5109 1.6041C25.0776 1.4041 24.6276 1.22077 24.1609 1.0541C23.6943 0.887434 23.2443 0.737434 22.8109 0.6041C22.3776 0.470766 22.0443 0.370767 21.8109 0.304101V0.204099H34.9609V0.304101C34.6276 0.370767 34.2109 0.487433 33.7109 0.654099C33.2109 0.820766 32.6943 1.02077 32.1609 1.2541C31.6609 1.4541 31.1776 1.68743 30.7109 1.9541C30.2776 2.18743 29.9443 2.4041 29.7109 2.6041ZM17.3609 32.8041C17.5276 32.6374 17.7609 32.2374 18.0609 31.6041C18.3609 30.9374 18.6943 30.1374 19.0609 29.2041C19.4276 28.2708 19.7943 27.2541 20.1609 26.1541C20.5609 25.0208 20.9276 23.9208 21.2609 22.8541C21.6276 21.7874 21.9443 20.8041 22.2109 19.9041C22.5109 18.9708 22.7443 18.2208 22.9109 17.6541H23.0109C22.6109 19.2541 22.2276 20.9374 21.8609 22.7041C21.4943 24.4374 21.1776 26.0541 20.9109 27.5541C20.6776 29.0541 20.5276 30.3374 20.4609 31.4041C20.3943 32.4374 20.4443 33.0374 20.6109 33.2041C20.8109 33.4041 21.1276 33.6041 21.5609 33.8041C21.9943 34.0041 22.4443 34.1874 22.9109 34.3541C23.3776 34.5208 23.8276 34.6708 24.2609 34.8041C24.6943 34.9374 25.0276 35.0374 25.2609 35.1041V35.2041H12.1109V35.1041C12.4443 35.0374 12.8609 34.9208 13.3609 34.7541C13.8609 34.5874 14.3609 34.4041 14.8609 34.2041C15.3943 33.9708 15.8776 33.7374 16.3109 33.5041C16.7776 33.2374 17.1276 33.0041 17.3609 32.8041ZM37.0004 12.5041C36.5671 12.0041 35.9337 11.5708 35.1004 11.2041C34.3004 10.8374 33.4004 10.5208 32.4004 10.2541V10.1541L39.2004 10.2041H39.7504L41.8004 16.1041H41.7504L41.0004 14.7041C40.6337 14.1041 40.3337 13.6374 40.1004 13.3041C39.8671 12.9708 39.6004 12.8208 39.3004 12.8541C39.0337 12.8874 38.8837 12.9708 38.8504 13.1041C38.8171 13.2374 38.7837 13.3708 38.7504 13.5041C38.6837 14.2374 38.6337 15.0041 38.6004 15.8041C38.5671 16.6041 38.5171 17.4374 38.4504 18.3041H38.3504C38.3171 17.7041 38.2504 17.1041 38.1504 16.5041C38.0504 15.8708 37.9337 15.3041 37.8004 14.8041C37.7004 14.2708 37.5671 13.8041 37.4004 13.4041C37.2671 13.0041 37.1337 12.7041 37.0004 12.5041ZM58.7504 10.2041L65.5504 10.1541V10.2541C64.5504 10.5208 63.6337 10.8374 62.8004 11.2041C62.0004 11.5708 61.3837 12.0041 60.9504 12.5041C60.8171 12.7041 60.6671 13.0041 60.5004 13.4041C60.3671 13.8041 60.2337 14.2708 60.1004 14.8041C60.0004 15.3041 59.9004 15.8708 59.8004 16.5041C59.7004 17.1041 59.6337 17.7041 59.6004 18.3041H59.5004C59.4337 17.4374 59.3837 16.6041 59.3504 15.8041C59.3171 15.0041 59.2671 14.2374 59.2004 13.5041C59.1671 13.3708 59.1337 13.2374 59.1004 13.1041C59.0671 12.9708 58.9171 12.8874 58.6504 12.8541C58.3504 12.8208 58.0837 12.9708 57.8504 13.3041C57.6171 13.6374 57.3171 14.1041 56.9504 14.7041L56.2004 16.1041H56.1504L58.2004 10.2041H58.7504ZM55.3504 17.9041H55.4004L49.1504 37.0541H49.1004L42.4004 17.9041H42.5004C43.1337 19.1708 43.7171 20.3374 44.2504 21.4041C44.7837 22.4708 45.3004 23.5208 45.8004 24.5541C46.3004 25.5541 46.8171 26.5874 47.3504 27.6541C47.8837 28.6874 48.4504 29.8374 49.0504 31.1041C49.1171 31.3041 49.1837 31.3041 49.2504 31.1041L55.3504 17.9041ZM61.2004 33.3041C61.4004 33.6041 61.6671 33.8708 62.0004 34.1041C62.3671 34.3041 62.7337 34.4708 63.1004 34.6041C63.4671 34.7374 63.8171 34.8374 64.1504 34.9041C64.4837 34.9708 64.7171 35.0208 64.8504 35.0541V35.1541H54.2504V35.0541C55.2504 34.7874 55.9504 34.5374 56.3504 34.3041C56.7837 34.0708 57.1837 33.7541 57.5504 33.3541C57.6504 33.2208 57.8004 32.8208 58.0004 32.1541C58.2004 31.4874 58.4004 30.5874 58.6004 29.4541C58.8004 28.2874 58.9837 26.8874 59.1504 25.2541C59.3504 23.6208 59.4671 21.7874 59.5004 19.7541H59.6004C59.7671 23.9208 60.0337 27.1541 60.4004 29.4541C60.7671 31.7541 61.0337 33.0374 61.2004 33.3041ZM40.0504 33.3541C40.2504 33.6541 40.5171 33.9208 40.8504 34.1541C41.2171 34.3541 41.5837 34.5208 41.9504 34.6541C42.3171 34.7874 42.6671 34.8874 43.0004 34.9541C43.3337 35.0208 43.5671 35.0708 43.7004 35.1041V35.2041H33.1004V35.1041C34.1004 34.8374 34.8004 34.5874 35.2004 34.3541C35.6337 34.1208 36.0337 33.8041 36.4004 33.4041C36.5004 33.2708 36.6504 32.8708 36.8504 32.2041C37.0504 31.5374 37.2504 30.6374 37.4504 29.5041C37.6504 28.3374 37.8337 26.9374 38.0004 25.3041C38.2004 23.6708 38.3171 21.8374 38.3504 19.8041H38.4504C38.6171 23.9708 38.8837 27.2041 39.2504 29.5041C39.6171 31.8041 39.8837 33.0874 40.0504 33.3541ZM75.5313 22.1041C75.7979 21.8708 76.2146 21.4708 76.7813 20.9041C77.3479 20.3374 77.9813 19.6874 78.6813 18.9541C79.3813 18.1874 80.0813 17.4041 80.7813 16.6041C81.5146 15.7708 82.1813 15.0041 82.7813 14.3041C83.3813 13.6041 83.8646 13.0041 84.2313 12.5041C84.6313 12.0041 84.8313 11.7041 84.8313 11.6041C84.8313 11.5374 84.7146 11.4541 84.4813 11.3541C84.2813 11.2208 84.0313 11.0874 83.7313 10.9541C83.4313 10.8208 83.1146 10.6874 82.7813 10.5541C82.4813 10.4208 82.2313 10.3208 82.0313 10.2541V10.2041H82.2813C82.9813 10.1708 83.7479 10.1541 84.5813 10.1541C85.4479 10.1541 86.2646 10.1708 87.0313 10.2041C87.9313 10.2041 88.8313 10.2041 89.7313 10.2041V10.2541L75.5813 22.2041L75.5313 22.1041ZM71.1313 12.5541C70.6979 12.0541 70.0646 11.6208 69.2313 11.2541C68.4313 10.8874 67.5313 10.5708 66.5313 10.3041V10.2041L73.3313 10.2541C73.1646 11.2208 73.0313 12.4208 72.9313 13.8541C72.8313 15.2541 72.7146 16.7541 72.5813 18.3541H72.4813C72.4479 17.7541 72.3813 17.1541 72.2812 16.5541C72.1813 15.9208 72.0646 15.3541 71.9313 14.8541C71.8313 14.3208 71.6979 13.8541 71.5313 13.4541C71.3979 13.0541 71.2646 12.7541 71.1313 12.5541ZM74.1813 33.3541C74.4146 33.6541 74.6979 33.9041 75.0313 34.1041C75.3979 34.3041 75.7646 34.4708 76.1313 34.6041C76.4979 34.7374 76.8313 34.8541 77.1313 34.9541C77.4646 35.0208 77.6979 35.0708 77.8313 35.1041V35.2041H67.2313V35.1041C68.2313 34.8374 68.9313 34.5874 69.3312 34.3541C69.7646 34.0874 70.1646 33.7708 70.5313 33.4041C70.6313 33.2708 70.7646 32.8708 70.9313 32.2041C71.1313 31.5374 71.3313 30.6208 71.5313 29.4541C71.7646 28.2874 71.9646 26.9041 72.1313 25.3041C72.3313 23.6708 72.4479 21.8374 72.4813 19.8041H72.5813C72.7479 23.9708 73.0313 27.2041 73.4313 29.5041C73.8313 31.8041 74.0813 33.0874 74.1813 33.3541ZM78.3313 22.8541L78.3813 22.8041L91.0813 35.2541V35.3041H83.4313V35.2541C83.6313 35.1541 83.8813 35.0541 84.1813 34.9541C84.5146 34.8208 84.8313 34.7041 85.1313 34.6041C85.4313 34.5041 85.6979 34.4208 85.9313 34.3541C86.1646 34.2541 86.2979 34.1708 86.3313 34.1041C86.3979 34.0041 86.2646 33.7041 85.9313 33.2041C85.6313 32.6708 85.2146 32.0374 84.6813 31.3041C84.1813 30.5708 83.5979 29.7708 82.9313 28.9041C82.2979 28.0374 81.6646 27.2041 81.0313 26.4041C80.4313 25.5708 79.8813 24.8374 79.3813 24.2041C78.9146 23.5708 78.5646 23.1208 78.3313 22.8541ZM103.617 10.2041C104.951 10.2041 106.084 10.2541 107.017 10.3541C107.984 10.4208 108.767 10.6208 109.367 10.9541C109.967 11.2541 110.417 11.7374 110.717 12.4041C111.051 13.0374 111.251 13.9374 111.317 15.1041C111.417 16.2374 111.401 17.6708 111.267 19.4041C111.134 21.1374 110.951 23.2374 110.717 25.7041H110.617C110.551 23.0041 110.401 20.7041 110.167 18.8041C109.967 16.9041 109.617 15.3374 109.117 14.1041C108.617 12.8708 107.917 11.9541 107.017 11.3541C106.151 10.7208 105.017 10.3708 103.617 10.3041V10.2041ZM93.6672 18.3541H93.5672C93.6005 17.0541 93.6172 16.0208 93.6172 15.2541C93.6172 14.4874 93.6005 13.8541 93.5672 13.3541C93.5339 12.8208 93.4505 12.3374 93.3172 11.9041C93.2172 11.4374 93.0505 10.8708 92.8172 10.2041C93.5172 10.3374 94.0839 10.4374 94.5172 10.5041C94.9505 10.5374 95.4005 10.5541 95.8672 10.5541C96.3005 10.5541 96.8005 10.5374 97.3672 10.5041C97.9339 10.4374 98.6839 10.3374 99.6172 10.2041V10.3041C98.8505 10.5374 98.1339 10.8374 97.4672 11.2041C96.8339 11.5708 96.2672 12.0708 95.7672 12.7041C95.2672 13.3374 94.8339 14.1208 94.4672 15.0541C94.1339 15.9541 93.8672 17.0541 93.6672 18.3541ZM92.1672 27.8041C92.1672 26.4374 92.4005 25.2374 92.8672 24.2041C93.3672 23.1708 94.0339 22.2874 94.8672 21.5541C95.7005 20.8208 96.6839 20.2708 97.8172 19.9041C98.9505 19.5374 100.184 19.3541 101.517 19.3541C102.351 19.3541 103.167 19.4708 103.967 19.7041C104.801 19.9041 105.551 20.2374 106.217 20.7041L106.167 20.8041C105.501 20.4374 104.801 20.1708 104.067 20.0041C103.334 19.8374 102.617 19.7541 101.917 19.7541C99.8172 19.7541 98.1339 20.4374 96.8672 21.8041C95.6005 23.1708 94.9505 25.0041 94.9172 27.3041C94.9172 28.2041 95.0339 29.1374 95.2672 30.1041C95.5005 31.0374 95.8839 31.9041 96.4172 32.7041C96.9839 33.4708 97.7172 34.1041 98.6172 34.6041C99.5505 35.1041 100.667 35.3541 101.967 35.3541C102.501 35.3541 103.017 35.3208 103.517 35.2541C104.051 35.1874 104.501 35.1208 104.867 35.0541V35.1541C103.667 35.5208 102.484 35.7041 101.317 35.7041C98.4839 35.7041 96.2339 35.0041 94.5672 33.6041C92.9339 32.2041 92.1339 30.2708 92.1672 27.8041ZM112.067 32.4041C112.134 32.5374 112.317 32.7374 112.617 33.0041C112.917 33.2708 113.284 33.5374 113.717 33.8041C114.151 34.0708 114.617 34.3208 115.117 34.5541C115.651 34.7874 116.167 34.9708 116.667 35.1041V35.2041H108.867C109.267 34.2374 109.617 33.0541 109.917 31.6541C110.251 30.2208 110.484 28.7041 110.617 27.1041H110.717C110.751 27.7041 110.834 28.3041 110.967 28.9041C111.101 29.5041 111.234 30.0541 111.367 30.5541C111.534 31.0541 111.684 31.4708 111.817 31.8041C111.951 32.1374 112.034 32.3374 112.067 32.4041Z" fill="black"/>
</svg>
