<svg width="67" height="66" viewBox="0 0 67 66" fill="none" xmlns="http://www.w3.org/2000/svg">
<path d="M45.0106 36.3232C44.1834 36.3242 43.3861 36.6329 42.7739 37.1893C42.1618 37.7457 41.7787 38.5101 41.6991 39.3334C41.6195 40.1568 41.8491 40.9804 42.3433 41.6438C42.8375 42.3072 43.5609 42.7629 44.3727 42.9223V48.4049C44.3727 48.5741 44.4399 48.7363 44.5595 48.856C44.6791 48.9756 44.8414 49.0428 45.0106 49.0428C45.1798 49.0428 45.3421 48.9756 45.4617 48.856C45.5813 48.7363 45.6485 48.5741 45.6485 48.4049V42.9223C46.4603 42.7629 47.1837 42.3072 47.6779 41.6438C48.1721 40.9804 48.4018 40.1568 48.3222 39.3334C48.2426 38.5101 47.8594 37.7457 47.2473 37.1893C46.6351 36.6329 45.8378 36.3242 45.0106 36.3232ZM45.0106 41.7085C44.6042 41.7091 44.2068 41.5892 43.8686 41.3639C43.5303 41.1386 43.2666 40.818 43.1106 40.4428C42.9546 40.0675 42.9134 39.6544 42.9923 39.2558C43.0711 38.8571 43.2664 38.4908 43.5535 38.2032C43.8406 37.9155 44.2066 37.7195 44.6051 37.6399C45.0036 37.5603 45.4168 37.6007 45.7923 37.756C46.1679 37.9113 46.4889 38.1745 46.7149 38.5123C46.9408 38.8501 47.0615 39.2473 47.0616 39.6537C47.0615 40.198 46.8455 40.7199 46.461 41.1052C46.0765 41.4904 45.5549 41.7074 45.0106 41.7085Z" fill="#FCE444"/>
<path d="M62.5876 39.6538C62.587 39.0232 62.4072 38.4058 62.0691 37.8735C61.7311 37.3412 61.2487 36.9159 60.6783 36.6472C60.1078 36.3785 59.4727 36.2775 58.8471 36.3559C58.2214 36.4343 57.6309 36.6888 57.1443 37.0899C56.6578 37.491 56.2952 38.0221 56.0989 38.6214C55.9026 39.2206 55.8806 39.8633 56.0356 40.4745C56.1905 41.0858 56.516 41.6404 56.974 42.0738C57.432 42.5071 58.0038 42.8014 58.6227 42.9224V48.405C58.6227 48.5742 58.6899 48.7364 58.8095 48.8561C58.9291 48.9757 59.0914 49.0429 59.2606 49.0429C59.4298 49.0429 59.5921 48.9757 59.7117 48.8561C59.8313 48.7364 59.8985 48.5742 59.8985 48.405V42.9224C60.6558 42.7729 61.3377 42.3654 61.8281 41.7694C62.3184 41.1733 62.5869 40.4256 62.5876 39.6538ZM59.2606 41.7086C58.8542 41.7092 58.4568 41.5893 58.1186 41.3639C57.7804 41.1386 57.5166 40.8181 57.3607 40.4428C57.2047 40.0675 57.1635 39.6544 57.2424 39.2558C57.3213 38.8571 57.5166 38.4908 57.8037 38.2032C58.0908 37.9156 58.4568 37.7196 58.8553 37.64C59.2538 37.5604 59.6669 37.6008 60.0425 37.7561C60.418 37.9114 60.7391 38.1746 60.965 38.5124C61.1909 38.8502 61.3116 39.2474 61.3117 39.6538C61.3116 40.1981 61.0956 40.7201 60.7111 41.1053C60.3265 41.4906 59.8049 41.7075 59.2606 41.7086Z" fill="#FCE444"/>
<path d="M3.69141 40.9531V58.2133H32.4346V40.9531H22.6549H13.4698H3.69141Z" fill="#27B4B4"/>
<path d="M2.21094 33.6611H33.9167V40.9528H2.21094V33.6611Z" fill="#3AA1D9"/>
<path d="M22.6585 49.5824L18.0656 47.6704L13.4727 49.5824V33.6611H22.6585V49.5824Z" fill="#A1DAF9"/>
<path d="M10.655 55.5776H7.24732C7.07813 55.5776 6.91586 55.5104 6.79622 55.3908C6.67659 55.2712 6.60938 55.1089 6.60938 54.9397C6.60938 54.7705 6.67659 54.6082 6.79622 54.4886C6.91586 54.369 7.07813 54.3018 7.24732 54.3018H10.655C10.8241 54.3018 10.9864 54.369 11.1061 54.4886C11.2257 54.6082 11.2929 54.7705 11.2929 54.9397C11.2929 55.1089 11.2257 55.2712 11.1061 55.3908C10.9864 55.5104 10.8241 55.5776 10.655 55.5776Z" fill="#A1DAF9"/>
<path d="M17.4694 55.5776H12.8762C12.707 55.5776 12.5448 55.5104 12.4251 55.3908C12.3055 55.2712 12.2383 55.1089 12.2383 54.9397C12.2383 54.7705 12.3055 54.6082 12.4251 54.4886C12.5448 54.369 12.707 54.3018 12.8762 54.3018H17.4694C17.6386 54.3018 17.8009 54.369 17.9205 54.4886C18.0401 54.6082 18.1074 54.7705 18.1074 54.9397C18.1074 55.1089 18.0401 55.2712 17.9205 55.3908C17.8009 55.5104 17.6386 55.5776 17.4694 55.5776Z" fill="#A1DAF9"/>
<path d="M50.4777 50.9264C50.4777 46.4771 46.3183 47.6191 45.0104 48.7542C43.7021 47.6186 39.543 46.4771 39.543 50.9264C39.543 56.0317 45.0025 58.2806 45.0025 58.2806C45.0025 58.2806 50.4777 56.0317 50.4777 50.9264Z" fill="#FB530A"/>
<path d="M64.7629 50.9264C64.7629 46.4771 60.6035 47.6191 59.2954 48.7542C57.9873 47.6186 53.8281 46.4771 53.8281 50.9264C53.8281 56.0317 59.2876 58.2806 59.2876 58.2806C59.2876 58.2806 64.7629 56.0317 64.7629 50.9264Z" fill="#FB530A"/>
<path d="M51.6336 29.7812C49.6625 29.7782 47.7565 29.0749 46.2558 27.7969C44.7551 26.5189 43.7572 24.7493 43.4403 22.8038C43.1233 20.8583 43.5078 18.8634 44.5252 17.1751C45.5426 15.4868 47.1267 14.2149 48.9949 13.5863C49.155 13.5338 49.3293 13.5467 49.4799 13.6222C49.6305 13.6977 49.7451 13.8297 49.7987 13.9894C49.8523 14.1491 49.8405 14.3235 49.766 14.4746C49.6915 14.6257 49.5603 14.7412 49.4009 14.7958C47.8199 15.3257 46.4789 16.4005 45.6176 17.8282C44.7562 19.2559 44.4306 20.9434 44.6991 22.5891C44.9675 24.2348 45.8124 25.7313 47.0828 26.8113C48.3532 27.8913 49.9663 28.4842 51.6337 28.4842C53.3011 28.4842 54.9142 27.8913 56.1846 26.8113C57.455 25.7313 58.2999 24.2348 58.5684 22.5891C58.8368 20.9434 58.5113 19.2559 57.6499 17.8282C56.7885 16.4005 55.4475 15.3257 53.8665 14.7958C53.7866 14.7696 53.7126 14.7278 53.6489 14.6729C53.5852 14.6179 53.533 14.5509 53.4952 14.4757C53.4575 14.4005 53.435 14.3186 53.4291 14.2347C53.4232 14.1507 53.4339 14.0665 53.4607 13.9867C53.4875 13.9069 53.5297 13.8333 53.5851 13.7699C53.6405 13.7066 53.7078 13.6548 53.7833 13.6176C53.8587 13.5803 53.9408 13.5584 54.0248 13.5531C54.1087 13.5477 54.1929 13.559 54.2725 13.5863C56.1409 14.2148 57.7251 15.4866 58.7426 17.175C59.7602 18.8633 60.1447 20.8582 59.8277 22.8037C59.5107 24.7493 58.5128 26.519 57.012 27.7969C55.5111 29.0749 53.6051 29.7781 51.6339 29.781L51.6336 29.7812Z" fill="#FCE444"/>
<path d="M57.5481 11.1023L51.6318 16.3538L45.7168 11.1023L47.0603 7.60254H56.2033L57.5481 11.1023Z" fill="#3AA1D9"/>
<path d="M49.2694 11.7398H45.7161C45.5469 11.7398 45.3846 11.6725 45.265 11.5529C45.1453 11.4333 45.0781 11.271 45.0781 11.1018C45.0781 10.9326 45.1453 10.7704 45.265 10.6507C45.3846 10.5311 45.5469 10.4639 45.7161 10.4639H49.2694C49.4386 10.4639 49.6009 10.5311 49.7205 10.6507C49.8401 10.7704 49.9074 10.9326 49.9074 11.1018C49.9074 11.271 49.8401 11.4333 49.7205 11.5529C49.6009 11.6725 49.4386 11.7398 49.2694 11.7398Z" fill="#E7EFF1"/>
<path d="M57.5476 11.7398H51.8215C51.6523 11.7398 51.4901 11.6725 51.3704 11.5529C51.2508 11.4333 51.1836 11.271 51.1836 11.1018C51.1836 10.9326 51.2508 10.7704 51.3704 10.6507C51.4901 10.5311 51.6523 10.4639 51.8215 10.4639H57.5477C57.7169 10.4639 57.8792 10.5311 57.9988 10.6507C58.1184 10.7704 58.1857 10.9326 58.1857 11.1018C58.1857 11.271 58.1184 11.4333 57.9988 11.5529C57.8792 11.6725 57.7168 11.7398 57.5476 11.7398Z" fill="#E7EFF1"/>
<path d="M32.1323 18.1954L29.0701 9.77452C29.0123 9.61548 28.8937 9.48593 28.7403 9.41436C28.587 9.34279 28.4115 9.33508 28.2524 9.39291C28.0934 9.45074 27.9638 9.56938 27.8922 9.72273C27.8207 9.87608 27.813 10.0516 27.8708 10.2106L30.6217 17.7755H30.0887C29.9332 16.5083 29.3195 15.3417 28.3634 14.4956C27.4072 13.6496 26.1746 13.1825 24.8979 13.1825C23.6211 13.1825 22.3885 13.6496 21.4323 14.4956C20.4761 15.3417 19.8625 16.5083 19.707 17.7755H16.1815C16.026 16.5083 15.4124 15.3417 14.4562 14.4956C13.5 13.6496 12.2674 13.1825 10.9907 13.1825C9.71395 13.1825 8.48132 13.6496 7.52515 14.4956C6.56898 15.3417 5.95533 16.5083 5.79987 17.7755H5.39452L8.14559 10.2106C8.17422 10.1319 8.18706 10.0483 8.18338 9.96454C8.1797 9.88083 8.15957 9.79866 8.12413 9.72273C8.0887 9.6468 8.03865 9.57859 7.97685 9.522C7.91506 9.4654 7.84272 9.42154 7.76397 9.39291C7.68522 9.36427 7.6016 9.35143 7.51789 9.35511C7.43418 9.35879 7.35201 9.37892 7.27608 9.41436C7.20014 9.4498 7.13193 9.49984 7.07534 9.56164C7.01875 9.62344 6.97489 9.69577 6.94625 9.77452L3.88412 18.1954C3.84907 18.2918 3.83777 18.3952 3.85118 18.4968C3.86459 18.5985 3.90232 18.6955 3.96116 18.7795C4.02 18.8634 4.09823 18.932 4.18921 18.9794C4.28019 19.0267 4.38124 19.0514 4.48379 19.0514H5.79987C5.95533 20.3186 6.56898 21.4852 7.52515 22.3312C8.48132 23.1773 9.71395 23.6443 10.9907 23.6443C12.2674 23.6443 13.5 23.1773 14.4562 22.3312C15.4124 21.4852 16.026 20.3186 16.1815 19.0514H19.707C19.8625 20.3186 20.4761 21.4852 21.4323 22.3312C22.3885 23.1773 23.6211 23.6443 24.8979 23.6443C26.1746 23.6443 27.4072 23.1773 28.3634 22.3312C29.3195 21.4852 29.9332 20.3186 30.0887 19.0514H31.5326C31.6351 19.0514 31.7362 19.0267 31.8272 18.9794C31.9181 18.932 31.9964 18.8634 32.0552 18.7795C32.1141 18.6955 32.1518 18.5985 32.1652 18.4968C32.1786 18.3952 32.1673 18.2918 32.1323 18.1954ZM10.9908 22.3687C10.2085 22.3687 9.44383 22.1367 8.79339 21.7021C8.14296 21.2675 7.636 20.6498 7.33664 19.927C7.03728 19.2043 6.95895 18.409 7.11156 17.6418C7.26418 16.8745 7.64088 16.1698 8.19403 15.6166C8.74718 15.0635 9.45194 14.6868 10.2192 14.5342C10.9864 14.3816 11.7817 14.4599 12.5044 14.7593C13.2271 15.0586 13.8449 15.5656 14.2795 16.216C14.7141 16.8664 14.9461 17.6312 14.9461 18.4134C14.9448 19.462 14.5277 20.4674 13.7863 21.2089C13.0448 21.9504 12.0394 22.3675 10.9908 22.3687ZM24.898 22.3687C24.1157 22.3687 23.351 22.1367 22.7006 21.7021C22.0501 21.2675 21.5432 20.6498 21.2438 19.927C20.9444 19.2043 20.8661 18.409 21.0187 17.6418C21.1713 16.8745 21.548 16.1698 22.1012 15.6166C22.6543 15.0635 23.3591 14.6868 24.1263 14.5342C24.8936 14.3816 25.6889 14.4599 26.4116 14.7593C27.1343 15.0586 27.752 15.5656 28.1866 16.216C28.6213 16.8664 28.8532 17.6312 28.8532 18.4134C28.852 19.462 28.4349 20.4674 27.6934 21.2089C26.9519 21.9504 25.9466 22.3675 24.898 22.3687Z" fill="#F8830E"/>
</svg>
