<svg width="24" height="24" viewBox="0 0 24 24" fill="none" xmlns="http://www.w3.org/2000/svg">
<path d="M21.103 20.7773C20.8402 20.5618 20.5298 20.3318 20.178 20.0914C21.9161 19.0554 23.1197 16.8802 23.1197 14.6387C23.1197 12.6069 22.3191 10.1719 20.5305 9.31227C19.7908 8.95677 18.6528 8.77227 17.1583 9.59132C17.0868 8.87702 16.8698 8.27987 16.6655 7.71922C16.2794 6.66002 15.9745 5.82342 16.6774 4.41757L15.9619 4.05977C15.1049 5.77377 15.5161 6.90202 15.9138 7.99317C16.1451 8.62767 16.3807 9.27502 16.3788 10.0906C16.3588 10.105 16.3395 10.1186 16.3196 10.1334C15.2216 9.31672 14.2843 9.02952 13.5196 9.01187V6.63867C13.5191 6.5522 13.4911 6.46812 13.4396 6.39867L11.1197 3.30537V1.03867C11.1197 0.932585 11.0775 0.830844 11.0025 0.755829C10.9275 0.680815 10.8258 0.638672 10.7197 0.638672H3.51967C3.41358 0.638672 3.31184 0.680815 3.23682 0.755829C3.16181 0.830844 3.11967 0.932585 3.11967 1.03867V3.30537L0.799665 6.39867C0.748147 6.46812 0.720122 6.5522 0.719665 6.63867V15.296C0.361392 15.5131 0.100764 15.8602 -0.00788485 16.2648C-0.176835 16.8477 -0.135235 17.6948 1.02252 18.4215C1.29138 18.5865 1.57412 18.7278 1.86752 18.8437C0.681865 19.4883 0.539915 20.2787 0.544165 20.6372C0.552915 21.3697 1.12522 22.0072 2.00217 22.2615C2.13251 22.2987 2.26747 22.3172 2.40302 22.3165C3.12377 22.3165 4.01357 21.8289 5.05547 20.8615C5.36872 20.5706 5.65547 20.2745 5.89507 20.0129C5.93735 20.3683 6.06391 20.7085 6.26422 21.0051C6.74992 21.7244 7.67667 22.2398 9.36297 22.7286C10.9837 23.1983 14.0467 23.6436 16.646 23.7876C17.2513 23.8211 17.8204 23.8376 18.3438 23.8376C18.9785 23.843 19.6129 23.8104 20.2438 23.7401C21.4721 23.5885 22.1175 23.2651 22.2747 22.7225C22.432 22.18 22.0597 21.5623 21.103 20.7773ZM16.2747 11.0349C16.2182 11.2972 16.1445 11.5555 16.054 11.8081C15.8928 11.7713 15.7409 11.7017 15.6077 11.6037C15.4745 11.5057 15.3629 11.3814 15.2798 11.2384L14.5873 11.639C14.7629 11.9429 15.0155 12.1953 15.3195 12.3708C15.6236 12.5463 15.9685 12.6387 16.3195 12.6387C16.6706 12.6387 17.0155 12.5463 17.3195 12.3708C17.6236 12.1953 17.8761 11.9429 18.0517 11.639L17.3592 11.2384C17.2578 11.4129 17.1142 11.559 16.9415 11.6634C17.0523 11.2908 17.1263 10.9082 17.1624 10.5212C18.2893 9.79007 19.3243 9.62002 20.1838 10.0331C21.4414 10.6377 22.3197 12.5315 22.3197 14.6387C22.3197 16.7258 21.0826 18.8139 19.4131 19.5931C19.0071 19.3398 18.5635 19.0786 18.0881 18.8131C15.8147 17.5447 12.9881 16.2831 11.3675 15.8134C11.0184 15.7122 10.6965 15.6297 10.398 15.5651C10.3464 15.259 10.3202 14.9491 10.3197 14.6387C10.3197 12.5315 11.1979 10.6377 12.4554 10.0333C13.4637 9.54867 14.7135 9.86602 16.0698 10.951C16.1287 10.9978 16.1998 11.0269 16.2747 11.0349ZM1.51967 7.03867H7.91967V9.43867H1.51967V7.03867ZM8.71967 7.03867H12.7197V9.09537C12.5089 9.14578 12.3042 9.21849 12.1089 9.31227C10.3203 10.1719 9.51967 12.6069 9.51967 14.6387C9.52 14.9018 9.53659 15.1646 9.56937 15.4257C9.28746 15.3917 9.00302 15.3838 8.71967 15.4022V7.03867ZM9.11967 6.23867L10.7197 4.10532L12.3197 6.23867H9.11967ZM3.91967 1.43867H10.3197V3.03867H3.91967V1.43867ZM3.71967 3.83867H9.91967L8.11967 6.23867H1.91967L3.71967 3.83867ZM1.51967 10.2387H7.91967V15.575C7.88852 15.5871 7.85757 15.5996 7.82722 15.6129C7.49946 15.756 7.2106 15.9753 6.98467 16.2525C6.92192 15.9035 6.83826 15.5007 6.72922 15.0879C6.29546 13.4463 5.67922 12.4991 4.89757 12.2726C4.02057 12.0184 3.19597 12.2511 2.79697 12.8655C2.60197 13.1659 2.29892 13.9099 2.95617 15.0886C2.64618 15.0297 2.33166 14.9979 2.01617 14.9936H2.00117C1.84017 14.993 1.67934 15.004 1.51992 15.0264L1.51967 10.2387ZM2.22467 21.4931C1.69407 21.3393 1.34837 20.9996 1.34392 20.6276C1.33892 20.2038 1.80392 19.6022 3.12462 19.1852C3.20647 19.1593 3.27783 19.1078 3.32815 19.0382C3.37847 18.9687 3.40508 18.8848 3.40405 18.799C3.40302 18.7131 3.3744 18.6299 3.32242 18.5616C3.27045 18.4933 3.19787 18.4435 3.11542 18.4196C1.30587 17.895 0.535415 17.2631 0.760415 16.4876C0.894215 16.0259 1.29877 15.7958 1.98612 15.7958C2.45337 15.7958 3.05142 15.9022 3.78382 16.1144C3.86627 16.1383 3.95423 16.1351 4.03469 16.1051C4.11515 16.0752 4.18384 16.0201 4.23061 15.9481C4.27738 15.8761 4.29974 15.791 4.29439 15.7053C4.28904 15.6196 4.25627 15.5379 4.20092 15.4723C3.30807 14.4137 3.23667 13.6567 3.46762 13.3013C3.67027 12.9893 4.14407 12.8872 4.67467 13.0409C5.54062 13.2919 6.16342 15.6865 6.34017 17.3528L5.93807 18.7401C4.89767 20.0537 3.09087 21.744 2.22492 21.4931H2.22467ZM21.5067 22.5005C21.4508 22.6934 20.446 23.1972 16.6903 22.9893C16.0599 22.9543 15.4025 22.9016 14.7463 22.835L15.1369 21.4873L14.3686 21.2646L13.9392 22.7462C12.2292 22.5432 10.6073 22.2567 9.58572 21.9606C8.11432 21.5342 7.29437 21.1015 6.92722 20.5578C6.59222 20.0617 6.58632 19.3773 6.90722 18.2692C7.22812 17.1611 7.59942 16.5858 8.14777 16.3458C8.38076 16.2438 8.66222 16.1923 9.00537 16.1923C9.54747 16.1923 10.2434 16.3209 11.1444 16.582C11.2648 16.617 11.3929 16.657 11.5265 16.7006L10.5265 20.1511L11.2949 20.3738L12.2821 16.9674C13.8555 17.5583 15.941 18.5317 17.6979 19.5119C18.1252 19.7503 18.5062 19.9738 18.8465 20.1829L18.4332 21.6097L19.2015 21.8324L19.5494 20.6324C21.2141 21.744 21.5497 22.3516 21.5067 22.5005Z" fill="black"/>
</svg>
