<svg width="18" height="18" viewBox="0 0 18 18" fill="none" xmlns="http://www.w3.org/2000/svg">
<path d="M9.17549 11.7512C9.69581 11.4466 9.89535 10.7391 9.57755 10.217C9.53336 10.1446 9.48729 10.0734 9.44041 10.0027C9.55854 9.88147 9.67599 9.76 9.7941 9.63908C10.1337 9.29046 10.1414 8.72248 9.7941 8.37438C9.62227 8.20295 9.38936 8.11576 9.15701 8.11576C9.08669 8.11576 9.01705 8.12648 8.94875 8.14268C8.93723 8.12085 8.92558 8.09916 8.91165 8.07799C8.46487 7.39389 7.91856 6.80058 7.3605 6.20836C6.89551 5.71537 6.41376 5.23993 5.93054 4.76435C4.84866 3.69734 3.708 2.68753 2.55395 1.70075C2.33551 1.51378 2.10662 1.39258 1.81036 1.39258C1.53313 1.39258 1.2634 1.50454 1.06732 1.70075C0.871245 1.89682 0.759148 2.16655 0.759148 2.44379C0.759148 2.6412 0.820218 2.86753 0.93848 3.04111C0.801337 3.09375 0.652544 3.19888 0.596291 3.33027C0.565354 3.40165 0.534683 3.47384 0.505221 3.54535C0.472141 3.66723 0.472141 3.78843 0.505221 3.91019C0.563346 4.12153 0.707051 4.27996 0.853839 4.43318C0.966608 4.55091 1.08286 4.66434 1.19697 4.77913C1.42318 5.00748 1.65352 5.23087 1.88323 5.45558C2.3189 5.88148 2.75646 6.30655 3.18448 6.74116C3.64185 7.20614 4.1019 7.66982 4.5507 8.14393C4.95102 8.5654 5.34609 8.98849 5.77963 9.37351C5.78633 9.38101 5.79303 9.38851 5.79999 9.39575C5.65401 9.54106 5.50896 9.68718 5.36566 9.83491C5.03794 10.1732 4.71022 10.5107 4.38248 10.8489C4.08838 11.1514 3.80898 11.4694 3.52253 11.7789C3.01829 12.3244 2.5387 12.8944 2.05332 13.4568C1.78291 13.7697 1.5211 14.0905 1.25844 14.4106C1.0021 14.7244 0.74871 15.0465 0.548481 15.4002C0.514062 15.4604 0.484731 15.5227 0.454062 15.5851C0.390846 15.6936 0.359375 15.8105 0.359375 15.9359C0.359375 16.1195 0.432901 16.298 0.562545 16.4274C0.638619 16.5035 0.72808 16.5553 0.822767 16.5877C0.848347 16.6993 0.903661 16.8033 0.985223 16.8849C1.1817 17.0806 1.53019 17.1262 1.76066 16.9655C1.78316 16.9833 1.80593 17.0006 1.83017 17.0148C1.93249 17.0743 2.04231 17.1037 2.16057 17.1044C2.35021 17.1044 2.47906 17.0252 2.62274 16.9126C2.75788 16.8068 2.89944 16.7005 3.01206 16.5695C3.10808 16.4574 3.20331 16.346 3.29639 16.232C3.48054 16.0058 3.66403 15.7781 3.85165 15.5548C3.88124 15.5195 3.91111 15.484 3.94098 15.4486C4.13892 15.4362 4.33458 15.3574 4.4901 15.213C4.89268 14.8384 5.25751 14.4253 5.63023 14.0211C6.04969 13.5653 6.47065 13.1114 6.89277 12.6577C7.21567 12.3104 7.54499 11.9686 7.873 11.6259C8.22268 11.9426 8.77139 11.9872 9.17545 11.7512L9.17549 11.7512Z" fill="#FF5714"/>
<path d="M17.6393 8.05458C17.6393 7.81445 17.5427 7.58113 17.3732 7.41172C17.367 7.40556 17.3594 7.40141 17.3529 7.39565C17.3528 7.39445 17.3525 7.39337 17.3524 7.39217C17.3082 7.234 17.2278 7.09592 17.1115 6.97899C16.8565 6.65127 16.592 6.33881 16.3068 6.03706C16.0422 5.75554 15.76 5.48942 15.4826 5.22051C14.9575 4.71291 14.4168 4.2206 13.8712 3.73525C12.6436 2.64226 11.3907 1.577 10.1365 0.514661C9.91239 0.324214 9.68124 0.200195 9.37802 0.200195C9.09502 0.200195 8.81995 0.314302 8.61958 0.514661C8.49637 0.637877 8.40623 0.789615 8.35494 0.953929C8.10154 0.963572 7.85752 1.06629 7.67711 1.24629C7.488 1.4354 7.38086 1.69441 7.38086 1.96132C7.38086 2.2478 7.49778 2.46477 7.67711 2.67704C7.67791 2.67784 7.67858 2.67878 7.67939 2.67972C7.72666 2.90632 7.84103 3.10709 8.00322 3.284C8.91461 4.28069 9.82935 5.27432 10.7496 6.26285C11.5979 7.23786 12.454 8.20589 13.3205 9.16441C12.0767 10.8948 10.8396 12.63 9.62377 14.3796C9.45168 14.6275 9.28252 14.8768 9.11446 15.1269C8.97758 15.2735 8.83937 15.4192 8.69634 15.5592C8.42594 15.8227 8.10666 16.0648 7.91703 16.3954C7.73208 16.7168 7.83922 17.1371 8.16065 17.3247C8.28453 17.3973 8.43426 17.423 8.57986 17.4079C8.64535 17.5293 8.74057 17.6349 8.85481 17.7018C8.96825 17.7677 9.08999 17.8005 9.22098 17.8005C9.42549 17.8005 9.58311 17.7172 9.73434 17.5884C9.79501 17.537 9.85555 17.4858 9.91448 17.4329C9.99202 17.4337 10.0696 17.4277 10.1451 17.4072C10.3576 17.3484 10.5032 17.2206 10.6282 17.0499C10.6735 16.9968 10.7163 16.9419 10.7584 16.8863C11.4054 16.0865 12.0118 15.2543 12.6304 14.4328C12.7141 14.3243 12.7973 14.2154 12.8806 14.1065C13.3466 13.5819 13.8097 13.0545 14.2862 12.5385C14.7251 12.0625 15.1642 11.5865 15.6031 11.1108C15.7419 11.0988 15.8781 11.0603 15.9978 10.9903C16.2086 10.8671 16.3661 10.6626 16.4313 10.4266C16.4517 10.3523 16.4627 10.2691 16.4644 10.184C16.6416 9.99681 16.8196 9.81026 16.9971 9.62317C17.1835 9.42562 17.2503 9.15349 17.1911 8.90543C17.2519 8.83672 17.3113 8.76681 17.3726 8.69824C17.5368 8.51396 17.6391 8.30677 17.6391 8.0547L17.6393 8.05458Z" fill="#FF5714"/>
</svg>
