<svg width="66" height="66" viewBox="0 0 66 66" fill="none" xmlns="http://www.w3.org/2000/svg">
<path d="M49.2561 20.0684L46.0191 11.976C45.7799 11.378 45.7537 10.7161 45.9447 10.1011C46.1357 9.48605 46.5324 8.95543 47.0682 8.5982L47.1407 8.54997C49.2785 7.12478 51.7903 6.36426 54.3596 6.36426C56.9289 6.36426 59.4407 7.12478 61.5785 8.54997L61.651 8.5982C62.1868 8.95545 62.5836 9.48611 62.7746 10.1012C62.9656 10.7162 62.9393 11.3783 62.7001 11.9762L59.4632 20.0684H49.2561Z" fill="#FFB3B3"/>
<path d="M53.3383 21.0894C53.1025 21.0891 52.8741 21.0072 52.6918 20.8576C52.5096 20.708 52.3848 20.4998 52.3386 20.2686L51.3179 15.165C51.2907 15.0333 51.2899 14.8975 51.3154 14.7654C51.341 14.6333 51.3924 14.5076 51.4667 14.3954C51.541 14.2833 51.6367 14.1869 51.7484 14.1119C51.8601 14.0369 51.9855 13.9847 52.1174 13.9583C52.2493 13.9319 52.3851 13.9319 52.5171 13.9582C52.649 13.9845 52.7744 14.0366 52.8862 14.1115C52.9979 14.1864 53.0937 14.2827 53.1681 14.3948C53.2425 14.5069 53.294 14.6326 53.3196 14.7647L54.3403 19.8682C54.3934 20.1337 54.3389 20.4093 54.1887 20.6346C54.0386 20.8598 53.8051 21.0162 53.5397 21.0693C53.4734 21.0826 53.406 21.0893 53.3383 21.0894Z" fill="#FAA6B2"/>
<path d="M55.3831 21.0894C55.3155 21.0893 55.2481 21.0826 55.1818 21.0693C54.9163 21.0162 54.6829 20.8598 54.5327 20.6346C54.3826 20.4093 54.3281 20.1337 54.3812 19.8682L55.4019 14.7647C55.4275 14.6326 55.479 14.5069 55.5534 14.3948C55.6278 14.2827 55.7236 14.1864 55.8353 14.1115C55.947 14.0366 56.0725 13.9845 56.2044 13.9582C56.3363 13.9319 56.4722 13.9319 56.6041 13.9583C56.736 13.9847 56.8614 14.0369 56.9731 14.1119C57.0847 14.1869 57.1805 14.2833 57.2548 14.3954C57.3291 14.5076 57.3805 14.6333 57.406 14.7654C57.4316 14.8975 57.4307 15.0333 57.4036 15.165L56.3829 20.2686C56.3367 20.4998 56.2119 20.708 56.0296 20.8576C55.8474 21.0072 55.6189 21.0891 55.3831 21.0894Z" fill="#FAA6B2"/>
<path d="M19.0114 60.8968C26.3398 60.8968 32.2806 54.956 32.2806 47.6276C32.2806 40.2992 26.3398 34.3584 19.0114 34.3584C11.683 34.3584 5.74219 40.2992 5.74219 47.6276C5.74219 54.956 11.683 60.8968 19.0114 60.8968Z" fill="#0BAFEA"/>
<path d="M31.2181 52.835C30.9312 53.5082 30.5889 54.1564 30.1948 54.773H7.826C7.43192 54.1564 7.08966 53.5082 6.80273 52.835H31.2181Z" fill="#0276B4"/>
<path d="M54.361 62.9384C53.5488 62.9384 52.77 62.6158 52.1957 62.0416C51.6214 61.4673 51.2988 60.6884 51.2988 59.8763V38.4414H57.4231V59.8763C57.4231 60.6884 57.1005 61.4673 56.5262 62.0416C55.9519 62.6158 55.1731 62.9384 54.361 62.9384Z" fill="#683B0D"/>
<path d="M51.2988 38.4414H57.4231V40.4828H51.2988V38.4414Z" fill="#683B0D"/>
<path d="M57.4235 38.4411H51.2992L50.8592 36.2411C49.7942 30.9161 49.2578 25.4989 49.2578 20.0684H59.4649C59.4649 25.4989 58.9283 30.9161 57.8632 36.2411L57.4235 38.4411Z" fill="#EAEAE8"/>
<path d="M58.4442 29.2553H55.382C55.1113 29.2553 54.8517 29.1477 54.6603 28.9563C54.4689 28.7649 54.3613 28.5053 54.3613 28.2346C54.3613 27.9639 54.4689 27.7042 54.6603 27.5128C54.8517 27.3214 55.1113 27.2139 55.382 27.2139H58.4442C58.7149 27.2139 58.9745 27.3214 59.1659 27.5128C59.3573 27.7042 59.4649 27.9639 59.4649 28.2346C59.4649 28.5053 59.3573 28.7649 59.1659 28.9563C58.9745 29.1477 58.7149 29.2553 58.4442 29.2553Z" fill="#FBFDFF"/>
<path d="M38.4062 50.6895H46.5719V62.938H38.4062V50.6895Z" fill="#EA9D2D"/>
<path d="M38.4062 46.6074H46.5719V50.6903H38.4062V46.6074Z" fill="#FBB540"/>
<path d="M45.55 46.607H39.4258V35.1079C39.4258 34.9058 39.4738 34.7065 39.5659 34.5265C39.6581 34.3466 39.7916 34.1911 39.9556 34.0729C40.1196 33.9547 40.3094 33.8771 40.5092 33.8466C40.7091 33.8161 40.9133 33.8336 41.1051 33.8975L43.1072 34.5649C43.8186 34.802 44.4373 35.2569 44.8757 35.8652C45.3141 36.4734 45.55 37.2042 45.55 37.954V46.607Z" fill="#D32B39"/>
<path d="M31.2181 52.835C30.9312 53.5082 30.5889 54.1564 30.1948 54.773H7.826C7.43192 54.1564 7.08966 53.5082 6.80273 52.835H31.2181Z" fill="#0276B4"/>
<path d="M19.0126 56.8142C24.0861 56.8142 28.1989 52.7013 28.1989 47.6278C28.1989 42.5543 24.0861 38.4414 19.0126 38.4414C13.9391 38.4414 9.82617 42.5543 9.82617 47.6278C9.82617 52.7013 13.9391 56.8142 19.0126 56.8142Z" fill="#EAEAE8"/>
<path d="M24.3673 40.1643L13.0272 54.5971C11.9295 53.6547 11.0696 52.4666 10.5176 51.1292L19.9936 38.4941C21.5719 38.6612 23.0794 39.2368 24.3673 40.1643Z" fill="#EAEAE8"/>
<path d="M28.0004 45.7254L20.4663 55.315C20.3848 55.4238 20.2823 55.5152 20.1649 55.5838C20.0475 55.6524 19.9176 55.6969 19.7828 55.7147C19.648 55.7324 19.511 55.7231 19.3799 55.6871C19.2487 55.6512 19.1261 55.5894 19.0192 55.5054C18.9122 55.4215 18.8232 55.317 18.7572 55.1981C18.6912 55.0792 18.6496 54.9483 18.6349 54.8131C18.6202 54.678 18.6326 54.5412 18.6715 54.4109C18.7104 54.2806 18.7749 54.1594 18.8612 54.0544L27.1941 43.4492C27.5634 44.1685 27.8346 44.934 28.0004 45.7254Z" fill="#EAEAE8"/>
<path d="M3.70117 54.7725H34.3225V55.2828C34.3225 56.2881 34.1244 57.2836 33.7397 58.2124C33.355 59.1412 32.7911 59.9851 32.0803 60.6959C31.3694 61.4068 30.5255 61.9707 29.5967 62.3554C28.6679 62.7401 27.6724 62.9381 26.6671 62.9381H11.3565C9.32618 62.9381 7.37901 62.1316 5.94336 60.6959C4.50771 59.2603 3.70117 57.3131 3.70117 55.2828V54.7725Z" fill="#0BAFEA"/>
<path d="M24.3654 40.1643L13.0253 54.5971C11.9275 53.6547 11.0677 52.4666 10.5156 51.1292L19.9916 38.4941C21.57 38.6612 23.0774 39.2368 24.3654 40.1643Z" fill="#FBFDFF"/>
<path d="M28.0018 45.7255L20.4677 55.3151C20.385 55.4206 20.2823 55.5087 20.1655 55.5744C20.0487 55.6402 19.9201 55.6822 19.787 55.6982C19.6539 55.7142 19.519 55.7038 19.39 55.6676C19.2609 55.6315 19.1403 55.5702 19.0349 55.4873C18.5909 55.139 17.7539 55.477 18.1022 55.0343L27.1955 43.4492C27.5648 44.1685 27.836 44.9341 28.0018 45.7255Z" fill="#FBFDFF"/>
<path d="M36.3641 12.9238C36.0471 13.8746 35.5132 14.7385 34.8045 15.4471C34.0959 16.1558 33.232 16.6897 32.2812 17.0067L33.9169 18.0972C34.8517 18.7203 35.6076 19.5766 36.1101 20.5814L36.3641 21.0895L36.6181 20.5814C37.1206 19.5766 37.8765 18.7203 38.8112 18.0972L40.4469 17.0067C39.4962 16.6897 38.6323 16.1558 37.9236 15.4471C37.215 14.7385 36.681 13.8746 36.3641 12.9238Z" fill="#FBB540"/>
<path d="M25.1356 19.0479C24.8186 19.9986 24.2847 20.8625 23.576 21.5711C22.8674 22.2798 22.0035 22.8137 21.0527 23.1307L22.6884 24.2212C23.6232 24.8444 24.3791 25.7007 24.8815 26.7055L25.1356 27.2135L25.3896 26.7055C25.892 25.7007 26.648 24.8444 27.5827 24.2212L29.2184 23.1307C28.2677 22.8137 27.4038 22.2798 26.6951 21.5711C25.9865 20.8625 25.4525 19.9986 25.1356 19.0479Z" fill="#FBB540"/>
<path d="M29.2176 3.7373C28.9007 4.68805 28.3667 5.55195 27.6581 6.2606C26.9494 6.96925 26.0855 7.50319 25.1348 7.82014L26.7705 8.91064C27.7052 9.53382 28.4611 10.3901 28.9636 11.3949L29.2176 11.903L29.4716 11.3949C29.9741 10.3901 30.73 9.53382 31.6648 8.91064L33.3004 7.82014C32.3497 7.50319 31.4858 6.96925 30.7771 6.2606C30.0685 5.55195 29.5346 4.68805 29.2176 3.7373Z" fill="#FBB540"/>
<path d="M22.0739 54.7725H15.9496C14.8222 54.7725 13.9082 55.6864 13.9082 56.8139C13.9082 57.9413 14.8222 58.8553 15.9496 58.8553H22.0739C23.2013 58.8553 24.1153 57.9413 24.1153 56.8139C24.1153 55.6864 23.2013 54.7725 22.0739 54.7725Z" fill="#0276B4"/>
<path d="M39.4258 44.5654H45.55V46.6068H39.4258V44.5654Z" fill="#961B20"/>
<path d="M51.2988 38.4414H57.4231V40.4828H51.2988V38.4414Z" fill="#533222"/>
</svg>
