<svg width="51" height="50" viewBox="0 0 51 50" fill="none" xmlns="http://www.w3.org/2000/svg">
<g clip-path="url(#clip0_179_9926)">
<path d="M36.1758 35.7926C36.1758 35.7926 38.6298 16.0463 46.0854 17.0108C55.7106 18.2558 46.5301 33.7762 36.1758 35.7926Z" fill="#C6F7CB"/>
<path d="M45.8533 26.0194C44.3824 26.0194 43.0778 26.6445 42.0284 27.4145L45.7614 21.6436C45.871 21.4743 45.8225 21.2482 45.6531 21.1386C45.4839 21.0292 45.2578 21.0776 45.1481 21.2469L41.2933 27.206C41.6598 25.5027 41.9217 23.2887 41.178 22.1442C41.0682 21.9752 40.842 21.927 40.6728 22.0371C40.5037 22.1469 40.4557 22.3731 40.5657 22.5423C41.4448 23.8951 40.4726 27.7635 40.0081 29.193L39.324 30.2506C39.3234 30.2513 39.3227 30.2525 39.3223 30.2532L35.8672 35.5945C35.7576 35.7638 35.8062 35.9899 35.9755 36.0995C36.0367 36.1391 36.1055 36.1581 36.1734 36.1581C36.2932 36.1581 36.4105 36.0993 36.4804 35.9912L39.936 30.6492C39.9686 30.5991 42.5021 26.75 45.8531 26.75C46.0548 26.75 46.2183 26.5865 46.2183 26.3848C46.2183 26.1831 46.0549 26.0194 45.8533 26.0194Z" fill="white"/>
<path d="M12.4106 34.7244C9.41591 34.8139 5.47095 30.2353 5.90874 27.5823C6.26297 25.4352 8.90665 24.5858 8.52738 23.1744C8.21844 22.0244 6.39286 22.3251 4.87685 20.4374C4.58325 20.0718 3.37607 18.5687 3.73729 17.1054C4.24363 15.0536 5.08636 14.0468 2.80483 12.0587C1.21088 10.6696 1.93852 3.93282 4.62488 2.71229C6.6703 1.78297 10.6315 5.82403 11.2668 7.43926C11.9128 9.08152 9.84015 11.1869 11.3249 12.1735C19.1649 17.3834 12.7208 20.1161 13.688 22.2032C14.3498 23.6313 16.4823 22.942 17.5202 24.3753C19.3683 26.9277 16.5775 34.6 12.4106 34.7244Z" fill="#C6F7CB"/>
<path d="M8.95815 7.09807C8.11584 7.88518 7.67147 9.49113 7.4531 10.6225C6.89135 9.19095 6.28181 7.88383 5.62178 6.77535C5.53132 6.62354 5.33517 6.57388 5.18346 6.66423C5.03155 6.7549 4.98209 6.95095 5.07234 7.10266C6.21295 9.01828 7.20644 11.5749 8.05919 14.3617C6.96167 13.1299 5.17804 11.3076 3.63657 10.563C3.47756 10.4862 3.28631 10.5527 3.20962 10.712C3.13283 10.871 3.1995 11.0622 3.35851 11.139C5.38368 12.1173 7.98897 15.2377 8.50022 15.8651C8.83566 17.0581 9.14638 18.2786 9.4332 19.4968C8.49813 18.4221 6.95677 16.9958 5.34633 16.9734C5.17 16.9709 5.02456 17.1121 5.02216 17.2888C5.01976 17.4655 5.16082 17.6106 5.33746 17.613C7.37025 17.6413 9.4501 20.506 9.76687 20.9598C10.4278 23.9518 10.9431 26.8546 11.3189 29.2209C10.7084 28.2128 9.82936 27.0442 8.80238 26.5182C8.64525 26.4377 8.45264 26.4999 8.37209 26.6571C8.29165 26.8144 8.35383 27.0071 8.51097 27.0875C10.1356 27.9195 11.4385 30.7654 11.6159 31.1668C11.9315 33.324 12.0886 34.7083 12.0943 34.7596C12.1138 34.9351 12.2719 35.0616 12.4475 35.0421C12.5225 35.0338 12.5885 35.0001 12.6381 34.9505C12.7045 34.8842 12.7411 34.7894 12.7299 34.6889C12.6786 34.2272 11.9444 27.7559 10.4014 20.7871C10.448 20.3071 10.8025 17.5916 12.9691 15.7656C13.1027 15.6521 13.1213 15.4501 13.0076 15.315C12.8938 15.18 12.692 15.1627 12.557 15.2765C11.0837 16.5184 10.3829 18.1002 10.051 19.258C9.45824 16.7565 8.77796 14.269 7.91218 11.8472C7.96852 11.3431 8.32337 8.56546 9.39511 7.56518C9.52387 7.44467 9.53086 7.24215 9.41024 7.11309C9.28953 6.98423 9.08722 6.97745 8.95815 7.09807Z" fill="white"/>
<path d="M37.6669 48.2155H12.8406C11.6881 48.2155 10.7539 47.2813 10.7539 46.1288V2.74103C10.7539 1.58853 11.6881 0.654297 12.8406 0.654297H37.6669C38.8194 0.654297 39.7536 1.58853 39.7536 2.74103V46.1288C39.7536 47.2813 38.8194 48.2155 37.6669 48.2155Z" fill="#4A5E64"/>
<path d="M12.7578 2.76855H37.7503V46.1022H12.7578V2.76855Z" fill="white"/>
<path d="M27.8502 5.2281H22.1282C21.4943 5.2281 20.9805 4.71424 20.9805 4.0804V0.654297H28.9979V4.0804C28.9979 4.71424 28.484 5.2281 27.8502 5.2281Z" fill="#4A5E64"/>
<path d="M13.3605 41.9976H2.98126C1.82876 41.9976 0.894531 41.0634 0.894531 39.9109V27.1736C0.894531 26.0211 1.82876 25.0869 2.98126 25.0869H13.3605C14.513 25.0869 15.4472 26.0211 15.4472 27.1736V39.9109C15.4472 41.0633 14.5129 41.9976 13.3605 41.9976Z" fill="#F4ABB8"/>
<path d="M13.5492 25.0868H2.79297L4.29448 18.4246C4.40309 17.9428 4.83025 17.6006 5.32313 17.6006H11.0191C11.512 17.6006 11.9391 17.9428 12.0477 18.4246L13.5492 25.0868Z" fill="#E53399"/>
<path d="M11.0191 49.4832H5.32313C4.83025 49.4832 4.40309 49.141 4.29448 48.6592L2.79297 41.9971H13.5492L12.0477 48.6593C11.9391 49.141 11.512 49.4832 11.0191 49.4832Z" fill="#E53399"/>
<path d="M15.4473 32.0322H17.5095V35.0516H15.4473V32.0322Z" fill="#FFD4E0"/>
<path d="M8.17122 38.2983C10.7921 38.2983 12.9167 36.1689 12.9167 33.5422C12.9167 30.9155 10.7921 28.7861 8.17122 28.7861C5.55039 28.7861 3.42578 30.9155 3.42578 33.5422C3.42578 36.1689 5.55039 38.2983 8.17122 38.2983Z" fill="white"/>
<path d="M6.95312 36.2161V30.8691L10.5549 33.5427L6.95312 36.2161Z" fill="#E53399"/>
<path d="M45.3541 43.1426H22.1543V28.7621C22.1543 28.1859 22.6214 27.7188 23.1977 27.7188H44.3107C44.887 27.7188 45.3541 28.1859 45.3541 28.7621V43.1426Z" fill="#D2CCFF"/>
<path d="M45.9983 49.4841H21.5065C20.7867 49.4841 20.2785 48.7773 20.5061 48.0929L22.1525 43.1426H45.3522L46.9986 48.0929C47.2263 48.7773 46.718 49.4841 45.9983 49.4841Z" fill="#A280FF"/>
<path d="M41.4397 46.8354H26.0686C25.7805 46.8354 25.5469 46.6017 25.5469 46.3137C25.5469 46.0256 25.7805 45.792 26.0686 45.792H41.4397C41.7278 45.792 41.9614 46.0256 41.9614 46.3137C41.9614 46.6017 41.7278 46.8354 41.4397 46.8354Z" fill="white"/>
<path d="M47.0181 43.2424L42.8663 43.33C41.6837 43.3549 40.712 42.4004 40.7129 41.2149L40.7175 35.3571C40.7179 34.7953 40.9415 34.2567 41.3388 33.8605L44.8223 30.3857L48.4031 33.6739C48.8396 34.0747 49.0879 34.6409 49.0875 35.2342L49.0829 41.1307C49.0818 42.2802 48.1646 43.2182 47.0181 43.2424Z" fill="#F7C74D"/>
<path d="M44.8107 35.3875C44.8105 35.3875 44.8102 35.3875 44.8099 35.3875C44.5218 35.3871 44.2885 35.1531 44.2891 34.865L44.2992 28.2201C44.2996 27.9323 44.5331 27.6992 44.8209 27.6992H44.8217C45.1098 27.6996 45.3431 27.9336 45.3425 28.2217L45.3324 34.8666C45.3319 35.1544 45.0984 35.3875 44.8107 35.3875Z" fill="#E5B148"/>
<path d="M46.1844 35.275C46.1015 36.1012 45.2437 36.5953 44.486 36.2523C44.0294 36.0456 43.7467 35.5569 43.7967 35.0572C43.8796 34.231 44.7374 33.737 45.4951 34.0799C45.9517 34.2866 46.2345 34.7753 46.1844 35.275Z" fill="white"/>
<path d="M19.493 27.781C19.2642 27.781 19.0543 27.6293 18.9904 27.3979L17.4782 21.9192C16.7726 19.3633 17.2835 16.6951 18.8796 14.5988C20.4215 12.5736 22.746 11.4121 25.2572 11.4121C27.7684 11.4121 30.093 12.5736 31.6348 14.5987C33.2309 16.695 33.7416 19.3633 33.0362 21.9192L31.524 27.3979C31.4474 27.6757 31.1598 27.8387 30.8823 27.762C30.6045 27.6853 30.4415 27.398 30.5182 27.1203L32.0304 21.6416C32.6485 19.4023 32.2017 17.0657 30.8046 15.2307C29.4617 13.467 27.4397 12.4555 25.2571 12.4555C23.0745 12.4555 21.0524 13.467 19.7096 15.2307C18.3125 17.0657 17.8658 19.4023 18.4838 21.6415L19.996 27.1202C20.0727 27.3979 19.9096 27.6853 19.632 27.7619C19.5857 27.7748 19.5389 27.781 19.493 27.781Z" fill="#D2CCFF"/>
<path d="M20.2222 23.8291H18.5632C18.1022 23.8291 17.7285 24.2028 17.7285 24.6638V27.4975C17.7285 27.9584 18.1022 28.3322 18.5632 28.3322H20.2222V23.8291Z" fill="#9E6CFF"/>
<path d="M20.2227 23.1826H22.7537V28.9796H20.2227V23.1826Z" fill="#A280FF"/>
<path d="M30.291 23.8291H31.95C32.4109 23.8291 32.7847 24.2028 32.7847 24.6638V27.4975C32.7847 27.9584 32.4109 28.3322 31.95 28.3322H30.291V23.8291Z" fill="#9E6CFF"/>
<path d="M30.291 28.9795H27.76V23.1825H30.291V28.9795Z" fill="#A280FF"/>
<path d="M33.1428 7.12739C32.8547 7.12739 32.6211 6.89378 32.6211 6.6057V5.90352C32.6211 5.61545 32.8547 5.38184 33.1428 5.38184C33.4309 5.38184 33.6645 5.61545 33.6645 5.90352V6.6057C33.6645 6.89378 33.4309 7.12739 33.1428 7.12739Z" fill="#E0E0E0"/>
<path d="M33.1428 10.51C32.8547 10.51 32.6211 10.2764 32.6211 9.98829V9.3918C32.6211 9.10373 32.8547 8.87012 33.1428 8.87012C33.4309 8.87012 33.6645 9.10373 33.6645 9.3918V9.98829C33.6645 10.2764 33.4309 10.51 33.1428 10.51Z" fill="#E0E0E0"/>
<path d="M35.1775 8.46719H34.5822C34.2942 8.46719 34.0605 8.23358 34.0605 7.94551C34.0605 7.65744 34.2942 7.42383 34.5822 7.42383H35.1775C35.4655 7.42383 35.6992 7.65744 35.6992 7.94551C35.6992 8.23358 35.4657 8.46719 35.1775 8.46719Z" fill="#E0E0E0"/>
<path d="M31.699 8.46719H31.1037C30.8156 8.46719 30.582 8.23358 30.582 7.94551C30.582 7.65744 30.8156 7.42383 31.1037 7.42383H31.699C31.987 7.42383 32.2206 7.65744 32.2206 7.94551C32.2206 8.23358 31.987 8.46719 31.699 8.46719Z" fill="#E0E0E0"/>
</g>
<defs>
<clipPath id="clip0_179_9926">
<rect width="49.2469" height="49.2469" fill="white" transform="translate(0.898438 0.445312)"/>
</clipPath>
</defs>
</svg>
