<svg width="56" height="67" viewBox="0 0 56 67" fill="none" xmlns="http://www.w3.org/2000/svg">
<g clip-path="url(#clip0_179_10236)">
<path d="M65.7826 52.6129H0.537109L0.55356 46.8188C0.561646 43.9745 2.77679 41.5702 5.61887 41.4569C5.69318 41.4539 5.7679 41.4524 5.84291 41.4524C8.44966 37.1173 13.4064 34.7632 18.4222 35.4781L20.1826 35.7291C27.9756 29.1111 39.3978 29.052 47.259 35.5887L47.4278 35.7291L48.0127 35.6323C52.8474 34.833 57.6611 37.1663 60.0199 41.4523C61.4014 41.4523 62.7 41.9236 63.7345 42.736C64.9985 43.7286 65.7147 45.2648 65.7295 46.8718L65.7826 52.6129Z" fill="#EEEEEE"/>
<path d="M17.0275 39.7545C16.7455 39.7545 16.4703 39.6119 16.3126 39.3535L11.1069 30.8202C10.8663 30.4258 10.991 29.911 11.3853 29.6704C11.7797 29.4297 12.2944 29.5546 12.535 29.949L17.7407 38.4823C17.9814 38.8767 17.8566 39.3914 17.4623 39.6321C17.3264 39.7149 17.176 39.7545 17.0275 39.7545Z" fill="#75AF23"/>
<path d="M16.9102 39.1707L15.947 37.0078C13.1276 30.6775 20.8146 24.8957 26.1145 29.3603C21.4577 30.4332 17.8727 34.1532 16.9723 38.8464L16.9102 39.1707Z" fill="#8ECC3E"/>
<path d="M25.2331 29.5991C25.5223 29.509 25.8162 29.429 26.1147 29.3603C20.8146 24.8957 13.1276 30.6776 15.947 37.0079L16.9102 39.1708L16.9725 38.8465C17.0408 38.4906 17.1263 38.1411 17.2248 37.797C15.6274 32.712 20.5903 28.2546 25.2331 29.5991Z" fill="#75AF23"/>
<path d="M8.22871 24.9433C11.1009 26.6626 12.7838 29.2156 11.9874 30.6456C11.1911 32.0756 8.21714 31.8411 5.34495 30.1218C2.47275 28.4026 0.789891 25.8495 1.58622 24.4195C2.38255 22.9896 5.35652 23.2241 8.22871 24.9433Z" fill="#E0B500"/>
<path d="M12.0263 30.623C13.619 30.623 14.9101 27.8355 14.9101 24.397C14.9101 20.9584 13.619 18.1709 12.0263 18.1709C10.4337 18.1709 9.14258 20.9584 9.14258 24.397C9.14258 27.8355 10.4337 30.623 12.0263 30.623Z" fill="#E0B500"/>
<path d="M11.6022 23.927C13.2605 26.9049 13.4866 29.9883 12.1074 30.8139C10.728 31.6395 8.26571 29.8948 6.60738 26.9169C4.94906 23.939 4.72293 20.8556 6.10215 20.03C7.48137 19.2044 9.94383 20.9492 11.6022 23.927Z" fill="#F4C500"/>
<path d="M35.6291 34.0319C35.347 34.0319 35.0718 33.8893 34.9141 33.631L29.7084 25.0976C29.4678 24.7032 29.5926 24.1885 29.9869 23.9479C30.3813 23.707 30.896 23.8319 31.1366 24.2264L36.3423 32.7598C36.5829 33.1542 36.4582 33.6689 36.0639 33.9095C35.928 33.9925 35.7775 34.0319 35.6291 34.0319Z" fill="#75AF23"/>
<path d="M35.5113 33.4471L34.3832 30.9141C31.5109 24.4648 39.6108 18.7597 44.7157 23.6367C40.0589 24.7096 36.4738 28.4296 35.5735 33.1228L35.5113 33.4471Z" fill="#8ECC3E"/>
<path d="M44.1049 23.7973C44.3065 23.7395 44.5096 23.6852 44.7157 23.6376C39.6108 18.7608 31.5109 24.4657 34.3832 30.9151L35.5113 33.4482L35.5736 33.1239C35.6382 32.7875 35.7181 32.4566 35.8097 32.1307C33.7172 26.6933 39.3122 21.9227 44.1049 23.7973Z" fill="#75AF23"/>
<path d="M26.8303 19.2207C29.7025 20.9399 31.3853 23.493 30.589 24.923C29.7927 26.3529 26.8187 26.1184 23.9465 24.3992C21.0743 22.6799 19.3915 20.1268 20.1878 18.6969C20.9841 17.2669 23.9581 17.5014 26.8303 19.2207Z" fill="#CC2929"/>
<path d="M30.626 24.9004C32.2186 24.9004 33.5097 22.1129 33.5097 18.6743C33.5097 15.2357 32.2186 12.4482 30.626 12.4482C29.0333 12.4482 27.7422 15.2357 27.7422 18.6743C27.7422 22.1129 29.0333 24.9004 30.626 24.9004Z" fill="#CC2929"/>
<path d="M30.2037 18.2044C31.862 21.1822 32.0882 24.2657 30.7089 25.0913C29.3297 25.9169 26.8673 24.1721 25.2089 21.1942C23.5506 18.2164 23.3245 15.133 24.7037 14.3073C26.0829 13.4817 28.5454 15.2265 30.2037 18.2044Z" fill="#EA2F2F"/>
<path d="M42.7857 37.1656C40.4202 33.1445 40.3928 28.1636 42.7143 24.1168L43.7853 22.2498L47.7815 24.5029L48.7299 20.7857C48.8239 20.4176 49.2436 20.2415 49.572 20.4323L53.798 22.888C54.1242 23.0776 54.181 23.5256 53.9122 23.7905L51.1837 26.4799L55.1203 28.8365L54.0496 30.7031C51.7301 34.7465 47.4244 37.2168 42.7857 37.1656Z" fill="#4C62BF"/>
<path d="M43.9786 27.9823L45.2151 25.8269L47.2585 26.9789C48.243 27.534 49.486 27.0029 49.7654 25.9078L50.957 21.2377L49.5709 20.4323C49.2425 20.2415 48.8227 20.4177 48.7289 20.7857L47.7804 24.5029L43.7844 22.25L42.7134 24.117C40.4399 28.0805 40.4208 32.9395 42.6433 36.9159C41.9616 33.9192 42.4046 30.7262 43.9786 27.9823Z" fill="#4057A0"/>
<path d="M65.0679 3.614C65.7484 4.00952 65.9818 4.88029 65.5902 5.563L63.8393 8.61532C63.1283 9.85485 61.8682 10.5753 60.547 10.6478L53.5932 22.7703L49.7656 20.546L56.7194 8.42363C56.1211 7.23568 56.111 5.77714 56.822 4.53776L58.565 1.49938C58.9598 0.811234 59.8391 0.575625 60.525 0.974208L65.0679 3.614Z" fill="#EEEEEE"/>
<path d="M51.7538 21.7012L59.5812 8.42363C58.9828 7.23568 58.9728 5.77714 59.6838 4.53776L61.4267 1.49938C61.4269 1.4991 61.4271 1.49882 61.4273 1.4984L60.525 0.974208C59.8391 0.575625 58.9598 0.811234 58.565 1.49938L56.822 4.53776C56.111 5.77728 56.1211 7.23582 56.7194 8.42363L49.7656 20.546L51.7538 21.7012Z" fill="#E0E0E0"/>
<path d="M65.7826 54.0064H0.537109L0.55356 48.2124C0.561646 45.3681 2.77679 42.9638 5.61887 42.8504C5.69318 42.8475 5.7679 42.8459 5.84291 42.8459C8.44966 38.5109 13.4064 36.1567 18.4222 36.8717L20.1826 37.1226C27.9756 30.5047 39.3978 30.4455 47.259 36.9822L47.4278 37.1226L48.0127 37.0259C52.8474 36.2266 57.6611 38.5598 60.0199 42.8458C61.4014 42.8458 62.7 43.3172 63.7345 44.1295C64.9985 45.1221 65.7147 46.6583 65.7295 48.2654L65.7826 54.0064Z" fill="#FFBD66"/>
<path d="M0.55356 51.0739C0.561646 48.2296 2.77679 45.8253 5.61887 45.712C5.69318 45.709 5.7679 45.7075 5.84277 45.7075C8.44952 41.3724 13.4062 39.0183 18.422 39.7332L20.1824 39.9842C27.9755 33.3663 39.3976 33.3071 47.2589 39.8438L47.4278 39.9842L48.0127 39.8874C52.8474 39.0881 57.6609 41.4214 60.0199 45.7074C61.4014 45.7074 62.7 46.1787 63.7345 46.9911C64.9985 47.9837 65.7147 49.5198 65.7295 51.1269L65.756 54.0061H65.7826L65.7296 48.2653C65.7148 46.6582 64.9987 45.1221 63.7346 44.1295C62.7 43.3171 61.4014 42.8458 60.0201 42.8458C57.6612 38.5596 52.8475 36.2265 48.0128 37.0258L47.428 37.1226L47.259 36.9822C39.3978 30.4455 27.9756 30.5047 20.1826 37.1226L18.4222 36.8716C13.4064 36.1567 8.44966 38.5107 5.84291 42.8459C5.76804 42.8459 5.69332 42.8474 5.61901 42.8504C2.77693 42.9637 0.561786 45.368 0.5537 48.2123L0.537109 54.0062H0.545195L0.55356 51.0739Z" fill="#F4A64A"/>
<path d="M13.1287 66.0259H5.97461V42.3238L9.55168 36.6006L13.1287 42.3238V66.0259Z" fill="#99695C"/>
<path d="M8.55013 42.753L10.9736 38.8755L9.55168 36.6006L5.97461 42.3238V66.0259H8.55013V42.753Z" fill="#895B52"/>
<path d="M28.867 66.0259H21.7129V42.3238L25.29 36.6006L28.867 42.3238V66.0259Z" fill="#99695C"/>
<path d="M24.2883 42.753L26.7118 38.8755L25.29 36.6006L21.7129 42.3238V66.0259H24.2883V42.753Z" fill="#895B52"/>
<path d="M44.6073 66.0259H37.4531V42.3238L41.0302 36.6006L44.6073 42.3238V66.0259Z" fill="#99695C"/>
<path d="M40.0286 42.753L42.4521 38.8755L41.0302 36.6006L37.4531 42.3238V66.0259H40.0286V42.753Z" fill="#895B52"/>
<path d="M60.3455 66.0259H53.1914V42.3238L56.7685 36.6006L60.3455 42.3238V66.0259Z" fill="#99695C"/>
<path d="M55.7669 42.753L58.1904 38.8755L56.7685 36.6006L53.1914 42.3238V66.0259H55.7669V42.753Z" fill="#895B52"/>
<path d="M0.537109 49.7393H65.7826V56.0349H0.537109V49.7393Z" fill="#99695C"/>
<path d="M5.8312 52.1716H65.7826V49.7393H0.537109V56.0349H2.96946V55.0333C2.96946 53.4528 4.25067 52.1716 5.8312 52.1716Z" fill="#895B52"/>
<path d="M9.55158 53.9606C10.1442 53.9606 10.6246 53.4802 10.6246 52.8875C10.6246 52.2949 10.1442 51.8145 9.55158 51.8145C8.95894 51.8145 8.47852 52.2949 8.47852 52.8875C8.47852 53.4802 8.95894 53.9606 9.55158 53.9606Z" fill="#704542"/>
<path d="M25.2899 53.9606C25.8825 53.9606 26.3629 53.4802 26.3629 52.8875C26.3629 52.2949 25.8825 51.8145 25.2899 51.8145C24.6972 51.8145 24.2168 52.2949 24.2168 52.8875C24.2168 53.4802 24.6972 53.9606 25.2899 53.9606Z" fill="#704542"/>
<path d="M41.5379 53.9606C42.1305 53.9606 42.611 53.4802 42.611 52.8875C42.611 52.2949 42.1305 51.8145 41.5379 51.8145C40.9453 51.8145 40.4648 52.2949 40.4648 52.8875C40.4648 53.4802 40.9453 53.9606 41.5379 53.9606Z" fill="#704542"/>
<path d="M56.7684 53.9606C57.361 53.9606 57.8414 53.4802 57.8414 52.8875C57.8414 52.2949 57.361 51.8145 56.7684 51.8145C56.1757 51.8145 55.6953 52.2949 55.6953 52.8875C55.6953 53.4802 56.1757 53.9606 56.7684 53.9606Z" fill="#704542"/>
<path d="M12.3958 4.65538H7.69195C7.23007 4.65538 6.85547 4.28078 6.85547 3.8189C6.85547 3.35703 7.23007 2.98242 7.69195 2.98242H12.3958C12.8576 2.98242 13.2322 3.35703 13.2322 3.8189C13.2322 4.28078 12.8576 4.65538 12.3958 4.65538Z" fill="#E0E0E0"/>
<path d="M8.10209 11.2374H1.96734C1.50546 11.2374 1.13086 10.8628 1.13086 10.4009C1.13086 9.93906 1.50546 9.56445 1.96734 9.56445H8.10209C8.56397 9.56445 8.93857 9.93906 8.93857 10.4009C8.93857 10.8628 8.56397 11.2374 8.10209 11.2374Z" fill="#4C62BF"/>
<path d="M41.4583 4.65538H36.7545C36.2926 4.65538 35.918 4.28078 35.918 3.8189C35.918 3.35703 36.2926 2.98242 36.7545 2.98242H41.4583C41.9201 2.98242 42.2947 3.35703 42.2947 3.8189C42.2947 4.28078 41.9203 4.65538 41.4583 4.65538Z" fill="#4C62BF"/>
<path d="M47.1822 11.2374H41.0474C40.5855 11.2374 40.2109 10.8628 40.2109 10.4009C40.2109 9.93906 40.5855 9.56445 41.0474 9.56445H47.1822C47.644 9.56445 48.0186 9.93906 48.0186 10.4009C48.0186 10.8628 47.6442 11.2374 47.1822 11.2374Z" fill="#E0E0E0"/>
<path d="M31.0028 44.0888C30.9602 44.9695 31.4071 45.6612 32.001 45.6341C32.5951 45.6069 33.1112 44.8709 33.1538 43.9904C33.1965 43.1097 32.7495 42.4179 32.1556 42.4451C31.5617 42.4722 31.0455 43.2081 31.0028 44.0888Z" fill="white"/>
<path d="M35.4956 40.7926C36.355 40.7926 37.0517 39.702 37.0517 38.3567C37.0517 37.0115 36.355 35.9209 35.4956 35.9209C34.6362 35.9209 33.9395 37.0115 33.9395 38.3567C33.9395 39.702 34.6362 40.7926 35.4956 40.7926Z" fill="white"/>
</g>
<defs>
<clipPath id="clip0_179_10236">
<rect width="65.2455" height="65.2455" fill="white" transform="translate(0.537109 0.780273)"/>
</clipPath>
</defs>
</svg>
