<svg width="51" height="50" viewBox="0 0 51 50" fill="none" xmlns="http://www.w3.org/2000/svg">
<g clip-path="url(#clip0_179_10064)">
<path d="M48.3316 40.5817L46.3814 41.1381C46.3814 41.1381 46.2282 40.4191 45.9727 39.2569H45.9776L47.8046 38.7305C48.1247 39.8873 48.3316 40.5817 48.3316 40.5817Z" fill="#CA1523"/>
<path d="M47.8045 38.7301L45.9774 39.2566H45.9725C45.0467 34.9972 42.7961 24.808 41.9737 22.5028C40.9247 19.5677 38.6101 21.0697 37.9995 21.8773C37.4036 22.6653 37.965 21.9217 36.2266 21.5523C36.2266 21.5523 38.1029 16.9625 42.7616 13.4561C43.6732 12.7667 44.5099 12.4219 44.8546 12.2988C44.9482 12.8455 44.9881 14.4066 44.535 18.6763C43.9682 24.0299 46.6324 34.49 47.8045 38.7301Z" fill="#E23452"/>
<path d="M44.72 11.9446C44.7299 11.9446 44.8038 11.9545 44.853 12.2992C44.5083 12.4223 43.6716 12.7671 42.76 13.4565C38.1013 16.9629 36.225 21.5527 36.225 21.5527C36.1752 21.5379 36.1215 21.5281 36.0674 21.5182C34.132 21.1538 33.7134 37.164 32.4625 42.3743C32.1325 43.7335 29.9854 44.8613 26.9961 45.792C26.9961 45.792 29.3353 22.7888 34.0187 13.8357C35.8655 10.3096 38.0323 7.10859 40.0219 4.48373L40.0613 4.44434C43.4938 7.90147 44.72 11.9446 44.72 11.9446Z" fill="#DD2238"/>
<path d="M40.0639 4.44402L40.0245 4.48342C38.0349 7.10828 35.8681 10.3093 34.0213 13.8354C29.3379 22.7885 26.9987 45.7917 26.9987 45.7917C25.6887 41.2019 23.7041 37.7497 22.5566 38.0649C23.1821 37.2528 23.6844 36.1738 23.9799 34.7604C24.0537 34.5289 24.0981 34.2734 24.1128 34.0074C24.2163 33.2933 24.2704 32.5049 24.2655 31.6382C24.2015 18.5089 34.4054 0.691406 34.4054 0.691406C36.7397 1.59755 38.6013 2.96661 40.0639 4.44402Z" fill="#E23452"/>
<path d="M26.9974 45.7917C26.0075 46.102 24.9191 46.3876 23.7766 46.6536C22.6193 42.6153 22.0382 40.5716 20.418 39.7442C21.1961 39.4093 21.9348 38.8725 22.5504 38.0649H22.5553C23.7027 37.7497 25.6874 41.2019 26.9974 45.7917Z" fill="#CA1523"/>
<path d="M16.0161 39.0546C16.1589 38.9211 16.415 38.7832 16.8582 38.6749C18.9216 38.1726 23.1716 37.5668 23.9793 34.7598C23.6838 36.1732 23.1815 37.2522 22.5561 38.0642H22.5511C21.9355 38.8724 21.1968 39.4087 20.4187 39.7436C19.4486 40.1626 18.4193 40.2606 17.5033 40.1429C16.9665 40.0735 16.4691 39.941 16.0407 39.7539C16.0407 39.7539 15.6664 39.4042 16.0111 39.0595C16.0111 39.0595 16.0111 39.0595 16.0161 39.0546Z" fill="#F4738F"/>
<path d="M20.4174 39.7441C22.0376 40.572 22.6187 42.6152 23.776 46.6535C22.9191 46.8505 22.0327 47.0376 21.1265 47.2149C19.9397 43.0732 18.3588 40.3351 17.502 40.143C18.4179 40.2612 19.4472 40.1627 20.4174 39.7441Z" fill="#DD2238"/>
<path d="M17.5001 40.143C18.357 40.3351 19.9378 43.0727 21.1247 47.2144C20.125 47.4069 19.1006 47.5837 18.0763 47.7512C16.8451 43.4672 14.3828 40.4089 12.5508 40.926C14.368 39.9362 15.7912 39.1723 16.0079 39.0596C15.6632 39.4043 16.0375 39.7539 16.0375 39.7539C16.4659 39.9411 16.9633 40.0741 17.5001 40.143Z" fill="#CA1523"/>
<path d="M18.0792 47.7514C16.9268 47.939 15.7745 48.1109 14.6418 48.2635C13.5978 44.6291 11.2832 42.1077 9.45117 42.6199C10.51 42.0343 11.5836 41.4478 12.5439 40.9263H12.5537C14.3857 40.4087 16.8481 43.4669 18.0792 47.7514Z" fill="#DD2238"/>
<path d="M14.6399 48.2641C13.4432 48.4266 12.281 48.5694 11.1778 48.6979C10.3406 45.7874 8.13437 43.8712 6.22852 44.4184C7.19375 43.8668 8.31658 43.2414 9.44926 42.6209C11.2812 42.1082 13.5959 44.6296 14.6399 48.2641Z" fill="#CA1523"/>
<path d="M11.18 48.6972C9.8651 48.8499 8.63885 48.9775 7.56527 49.0809C6.95461 46.9485 5.21619 45.5745 3.67969 46.0133C3.89145 45.8261 4.14753 45.6336 4.45286 45.4514C4.93056 45.1608 5.54122 44.8112 6.23068 44.4172C8.13653 43.871 10.3428 45.7868 11.18 48.6972Z" fill="#DD2238"/>
<path d="M3.67888 46.0133C5.21538 45.5745 6.9538 46.9485 7.56446 49.0809C4.97407 49.332 3.27013 49.4453 3.27013 49.4453C3.27013 49.4453 1.7681 47.6975 3.67888 46.0133Z" fill="#CA1523"/>
</g>
<defs>
<clipPath id="clip0_179_10064">
<rect width="49.2469" height="49.2469" fill="white" transform="translate(0.898438 0.445312)"/>
</clipPath>
</defs>
</svg>
