<svg width="51" height="50" viewBox="0 0 51 50" fill="none" xmlns="http://www.w3.org/2000/svg">
<g clip-path="url(#clip0_179_9977)">
<path d="M1.66798 32.7636C1.6692 32.3558 1.83173 31.9651 2.12008 31.6767C2.40842 31.3884 2.79916 31.2258 3.20694 31.2246H4.36117L4.74591 31.9941C4.82465 34.9421 5.57188 37.8337 6.93124 40.4507C5.52412 40.4227 4.18424 39.8434 3.19991 38.8375C2.21558 37.8315 1.66548 36.4794 1.66798 35.072V32.7636Z" fill="white"/>
<path d="M12.4801 25.9764L13.6805 20.7747C13.7822 20.3359 14.0033 19.9338 14.3192 19.6128C14.6353 19.2996 15.0319 19.08 15.4651 18.9781C15.8983 18.8763 16.3512 18.8962 16.7738 19.0357L19.9749 20.1053L17.174 20.8055C16.7689 20.9045 16.3903 21.0908 16.0647 21.3513C15.7391 21.6118 15.4743 21.9402 15.2887 22.3137L12.811 27.2615C12.6554 27.0904 12.5439 26.8839 12.4863 26.6599C12.4286 26.436 12.4265 26.2014 12.4801 25.9764Z" fill="white"/>
<path d="M20.9959 21.1289L20.9036 21.2212L13.832 28.2928L12.9702 27.4309L12.8625 27.3232C12.8426 27.3044 12.8246 27.2838 12.8086 27.2617L15.2863 22.3139C15.4719 21.9404 15.7367 21.612 16.0623 21.3515C16.3879 21.091 16.7665 20.9047 17.1716 20.8057L19.9725 20.1055L20.9959 21.1289Z" fill="white"/>
<path d="M22.0193 22.1523L21.3191 24.9532C21.2201 25.3583 21.0338 25.7369 20.7733 26.0625C20.5128 26.3881 20.1844 26.6529 19.8109 26.8385L14.8631 29.3162C14.841 29.3002 14.8204 29.2822 14.8016 29.2623L13.832 28.2928L20.9036 21.2212L20.9959 21.1289L22.0193 22.1523Z" fill="white"/>
<path d="M23.0891 25.3534C23.1717 25.5962 23.2133 25.851 23.2122 26.1075C23.2116 26.6523 23.0273 27.181 22.6889 27.608C22.6341 27.6782 22.5749 27.745 22.5119 27.808C22.1909 28.124 21.7888 28.345 21.35 28.4467L16.1483 29.6471C15.9234 29.7007 15.6887 29.6986 15.4648 29.6409C15.2408 29.5833 15.0344 29.4718 14.8633 29.3162L19.8111 26.8385C20.1845 26.653 20.5129 26.3881 20.7734 26.0625C21.0339 25.7369 21.2202 25.3583 21.3192 24.9533L22.0195 22.1523L23.0891 25.3534Z" fill="white"/>
<path d="M35.5252 31.2243C36.8002 31.2243 37.8337 30.1908 37.8337 28.9159C37.8337 27.6409 36.8002 26.6074 35.5252 26.6074C34.2503 26.6074 33.2168 27.6409 33.2168 28.9159C33.2168 30.1908 34.2503 31.2243 35.5252 31.2243Z" fill="#EDE9E1"/>
<path d="M38.6035 12.7568C39.3145 12.7578 40.0033 13.0051 40.5524 13.4569C41.1015 13.9086 41.4771 14.5367 41.6151 15.2342C41.7531 15.9317 41.6451 16.6555 41.3094 17.2823C40.9737 17.9091 40.4311 18.4001 39.774 18.6718C39.1169 18.9435 38.3859 18.9789 37.7056 18.7722C37.0253 18.5654 36.4377 18.1292 36.0429 17.5379C35.648 16.9465 35.4704 16.2366 35.5403 15.529C35.6101 14.8214 35.9231 14.1599 36.4259 13.6571C36.7119 13.3714 37.0515 13.1448 37.4251 12.9903C37.7988 12.8359 38.1992 12.7565 38.6035 12.7568Z" fill="#EDE9E1"/>
<path d="M25.906 16.2194L22.4434 12.7567L23.9823 11.2178L30.9077 18.1431L29.3687 19.6821L25.906 16.2194Z" fill="#BEB4AA"/>
<path d="M33.2162 17.3745L31.6772 18.9134L30.9077 18.1439L23.9824 11.2186L23.2129 10.4491L24.7519 8.91016L33.2162 17.3745Z" fill="#DA684E"/>
<path d="M35.5247 15.8352C35.5242 16.4443 35.7044 17.0399 36.0426 17.5465C36.3808 18.0531 36.8617 18.448 37.4244 18.6812C37.9871 18.9143 38.6064 18.9753 39.2037 18.8563C39.8011 18.7373 40.3498 18.4438 40.7802 18.0129L40.911 18.1437L48.0826 25.3153C47.8449 25.6352 47.5769 25.9316 47.2824 26.2002L40.911 31.9944V28.147C40.9105 27.1261 40.6199 26.1264 40.0731 25.2643C39.5262 24.4022 38.7456 23.7133 37.8223 23.2779C36.8989 22.8424 35.8708 22.6783 34.8578 22.8047C33.8448 22.9311 32.8885 23.3428 32.1005 23.9918L32.0774 23.9687L36.2941 20.4521L33.2162 17.3742L24.7519 8.90989L23.9824 8.14041L27.4451 4.67773L36.2941 13.5268L36.425 13.6576C35.8497 14.2365 35.5261 15.0191 35.5247 15.8352Z" fill="#918778"/>
<path d="M49.3756 21.4753C49.376 22.8621 48.9219 24.2109 48.0828 25.315L40.9113 18.1435L40.7804 18.0127C41.358 17.4351 41.6825 16.6518 41.6825 15.835C41.6825 15.0182 41.358 14.2349 40.7804 13.6574C40.2029 13.0798 39.4196 12.7554 38.6028 12.7554C37.786 12.7554 37.0027 13.0798 36.4252 13.6574L36.2944 13.5266L27.4453 4.67752L30.3693 1.75348C30.5387 1.58291 30.7401 1.44751 30.9619 1.35507C31.1838 1.26263 31.4217 1.21497 31.6621 1.21484C31.9089 1.21583 32.1531 1.26601 32.3804 1.36246C32.6076 1.45891 32.8134 1.59969 32.9856 1.77657L47.6058 17.0585C48.7426 18.2479 49.3766 19.83 49.3756 21.4753Z" fill="#DA684E"/>
<path d="M43.9898 45.3443V45.529C43.9908 45.9749 43.9037 46.4167 43.7335 46.8288C43.5633 47.241 43.3134 47.6155 42.9981 47.9308C42.6828 48.2461 42.3083 48.496 41.8962 48.6662C41.484 48.8364 41.0423 48.9235 40.5963 48.9224H7.82407C7.21183 48.9224 6.62467 48.6792 6.19175 48.2463C5.75884 47.8134 5.51562 47.2262 5.51562 46.614V45.8445H21.0823C22.8145 45.8501 24.5092 45.3401 25.9508 44.3796C27.3923 43.419 28.5154 42.0513 29.1772 40.4504C29.5865 39.457 29.9084 38.4296 30.1391 37.3802V28.1464C30.1373 27.4388 30.2757 26.7378 30.5465 26.084C30.8172 25.4302 31.2149 24.8366 31.7165 24.3375C31.8374 24.2141 31.9659 24.0984 32.1013 23.9912C32.8893 23.3422 33.8456 22.9305 34.8586 22.8041C35.8716 22.6777 36.8997 22.8418 37.8231 23.2773C38.7464 23.7128 39.527 24.4017 40.0739 25.2637C40.6207 26.1258 40.9113 27.1255 40.9118 28.1464V39.6886C40.9715 40.2852 41.1607 40.8615 41.4665 41.3772C41.7722 41.893 42.1869 42.3356 42.6816 42.6742C43.0863 42.9924 43.414 43.3977 43.6405 43.86C43.867 44.3222 43.9863 44.8296 43.9898 45.3443ZM37.8339 28.9159C37.8339 28.4593 37.6985 28.013 37.4449 27.6334C37.1912 27.2538 36.8307 26.9579 36.4089 26.7832C35.987 26.6084 35.5229 26.5627 35.0751 26.6518C34.6273 26.7409 34.216 26.9607 33.8931 27.2836C33.5703 27.6064 33.3504 28.0177 33.2614 28.4655C33.1723 28.9133 33.218 29.3775 33.3927 29.7993C33.5674 30.2211 33.8633 30.5816 34.2429 30.8353C34.6226 31.0889 35.0689 31.2243 35.5255 31.2243C36.1377 31.2243 36.7249 30.9811 37.1578 30.5482C37.5907 30.1153 37.8339 29.5281 37.8339 28.9159Z" fill="#DA684E"/>
<path d="M21.3515 28.4474C21.7903 28.3456 22.1924 28.1246 22.5134 27.8087C22.5764 27.7457 22.6355 27.6788 22.6904 27.6086C26.23 27.8702 28.6 28.3627 28.6 28.9167C28.6 29.7632 23.0905 30.4557 16.2883 30.4557C9.48606 30.4557 3.97656 29.7632 3.97656 28.9167C3.97656 28.2088 7.7855 27.6163 12.9718 27.4316L13.8336 28.2935L14.8032 29.263C14.822 29.2828 14.8426 29.3009 14.8647 29.3169C15.0358 29.4725 15.2423 29.5839 15.4663 29.6416C15.6902 29.6992 15.9248 29.7014 16.1498 29.6478L21.3515 28.4474Z" fill="#A34235"/>
<path d="M6.93142 40.4508C5.57207 37.8337 4.82483 34.9421 4.74609 31.9941C4.74609 31.9941 11.6714 32.7636 16.2883 32.7636C20.9052 32.7636 27.8306 31.9941 27.8306 31.9941C27.8306 31.9941 27.8306 45.8448 16.2883 45.8448C14.3776 45.9259 12.4833 45.4618 10.8265 44.5067C9.16969 43.5516 7.81875 42.1448 6.93142 40.4508Z" fill="#EDE9E1"/>
<path d="M16.2883 30.455C23.0905 30.455 28.6 29.7624 28.6 28.916V30.455L27.8305 31.9939C27.8305 31.9939 20.9052 32.7634 16.2883 32.7634C11.6714 32.7634 4.74605 31.9939 4.74605 31.9939L4.3613 31.2245L3.97656 30.455V28.916C3.97656 29.7624 9.48606 30.455 16.2883 30.455Z" fill="#F58569"/>
<path d="M16.2883 30.4549C23.0879 30.4549 28.6 29.7659 28.6 28.9159C28.6 28.066 23.0879 27.377 16.2883 27.377C9.48871 27.377 3.97656 28.066 3.97656 28.9159C3.97656 29.7659 9.48871 30.4549 16.2883 30.4549Z" fill="#DA684E"/>
<path d="M23.4545 25.2318L22.3857 22.0308C22.3665 21.9732 22.3347 21.9206 22.2926 21.8769L20.2457 19.83C20.202 19.7879 20.1494 19.7561 20.0918 19.7369L16.89 18.6681C16.3996 18.5063 15.8739 18.4835 15.3713 18.6023C14.8687 18.7212 14.4089 18.977 14.0429 19.3414C13.6775 19.7128 13.4218 20.1781 13.3042 20.6857L12.1031 25.8859C12.036 26.161 12.036 26.4482 12.1029 26.7234C12.1699 26.9985 12.3018 27.2536 12.4878 27.4672C12.5177 27.5124 12.5526 27.5542 12.5917 27.5918L14.5308 29.5317C14.5539 29.5563 14.5797 29.5783 14.6077 29.5971C14.9407 29.9 15.3749 30.0675 15.8251 30.0665C15.9644 30.0664 16.1032 30.0507 16.239 30.0195L21.4392 28.8184C21.9478 28.7007 22.4139 28.4445 22.7858 28.0781C22.8606 28.0038 22.9308 27.9249 22.9959 27.8419C23.3866 27.3483 23.5987 26.737 23.5976 26.1075C23.5989 25.8097 23.5505 25.5137 23.4545 25.2318ZM20.4535 21.1289L13.8359 27.7465L13.2781 27.1863L15.6319 22.4863C15.7926 22.1623 16.0221 21.8774 16.3044 21.6515C16.5867 21.4255 16.915 21.264 17.2663 21.1782L19.8564 20.531L20.4535 21.1289ZM12.8541 26.0629L14.056 20.8604C14.1409 20.4929 14.3257 20.156 14.59 19.887C14.8551 19.623 15.1883 19.4379 15.5524 19.3521C15.9165 19.2664 16.2973 19.2835 16.6523 19.4014L18.6013 20.0524L17.0832 20.4318C16.6232 20.5441 16.1933 20.7555 15.8237 21.0514C15.454 21.3473 15.1535 21.7204 14.9432 22.1446L12.831 26.363C12.824 26.2624 12.8315 26.1613 12.8533 26.0629H12.8541ZM14.3792 28.2944L20.9967 21.6768L21.5939 22.2739L20.946 24.8655C20.8601 25.2166 20.6985 25.5447 20.4726 25.8267C20.2466 26.1088 19.9617 26.338 19.6378 26.4984L14.9332 28.8538L14.3792 28.2944ZM22.388 27.371C22.3436 27.4282 22.2956 27.4825 22.2441 27.5333C21.974 27.8 21.6351 27.9865 21.2653 28.072L16.0628 29.2731C15.9666 29.2942 15.8679 29.3012 15.7697 29.2939L19.981 27.1825C20.4042 26.9723 20.7764 26.6722 21.0716 26.3033C21.3668 25.9343 21.5778 25.5054 21.6901 25.0464L22.0733 23.5297L22.7258 25.4827C22.7946 25.6851 22.8292 25.8975 22.8281 26.1113C22.8274 26.5687 22.672 27.0123 22.3872 27.3702L22.388 27.371Z" fill="#DED9D0"/>
<path d="M37.0661 14.2963C37.0678 13.861 37.1625 13.431 37.3439 13.0352C37.004 13.187 36.6938 13.3977 36.4274 13.6577C35.8499 14.2352 35.5254 15.0185 35.5254 15.8353C35.5254 16.2397 35.605 16.6402 35.7598 17.0138C35.9146 17.3875 36.1414 17.727 36.4274 18.0129C36.7134 18.2989 37.0529 18.5258 37.4265 18.6805C37.8001 18.8353 38.2006 18.9149 38.605 18.9149C39.4218 18.9149 40.2051 18.5905 40.7827 18.0129C41.0426 17.7466 41.2534 17.4363 41.4052 17.0965C40.9373 17.3106 40.4231 17.4034 39.9099 17.3665C39.3966 17.3295 38.901 17.1638 38.4687 16.8848C38.0364 16.6059 37.6813 16.2225 37.4361 15.7701C37.191 15.3177 37.0637 14.8109 37.0661 14.2963Z" fill="#DED9D0"/>
<path d="M42.6803 42.6742C42.1855 42.3356 41.7708 41.8929 41.4651 41.3772C41.1594 40.8614 40.9701 40.2851 40.9105 39.6886V28.1463C40.9178 27.3408 40.7427 26.5441 40.3984 25.8159C40.0541 25.0877 39.5494 24.4468 38.9221 23.9414C38.2949 23.4359 37.5614 23.079 36.7767 22.8973C35.9919 22.7156 35.1762 22.7139 34.3906 22.8923C35.5856 23.1583 36.6542 23.8238 37.4198 24.7791C38.1855 25.7343 38.6025 26.9221 38.602 28.1463V39.6886C38.6616 40.2851 38.8509 40.8614 39.1566 41.3772C39.4623 41.8929 39.8771 42.3356 40.3718 42.6742C40.7765 42.9924 41.1042 43.3976 41.3307 43.8599C41.5571 44.3222 41.6765 44.8295 41.6799 45.3443V45.5289C41.6809 45.9749 41.5939 46.4166 41.4237 46.8288C41.2535 47.2409 41.0036 47.6154 40.6883 47.9307C40.373 48.246 39.9985 48.496 39.5863 48.6661C39.1742 48.8363 38.7324 48.9234 38.2865 48.9224H40.595C41.0409 48.9234 41.4826 48.8363 41.8948 48.6661C42.3069 48.496 42.6814 48.246 42.9967 47.9307C43.312 47.6154 43.562 47.2409 43.7321 46.8288C43.9023 46.4166 43.9894 45.9749 43.9884 45.5289V45.3443C43.985 44.8295 43.8656 44.3222 43.6391 43.8599C43.4126 43.3976 43.0849 42.9924 42.6803 42.6742Z" fill="#F58569"/>
<path d="M7.82407 46.6142V45.8447H5.51562V46.6142C5.51562 47.2264 5.75884 47.8136 6.19175 48.2465C6.62467 48.6794 7.21183 48.9227 7.82407 48.9227H10.1325C9.52028 48.9227 8.93312 48.6794 8.5002 48.2465C8.06728 47.8136 7.82407 47.2264 7.82407 46.6142Z" fill="#BD4C3D"/>
<path d="M31.4854 40.4511C31.8948 39.4577 32.2166 38.4303 32.4473 37.3809V28.1471C32.4455 27.4395 32.5839 26.7385 32.8547 26.0847C33.1255 25.4309 33.5231 24.8373 34.0247 24.3382C34.1456 24.2148 34.2741 24.0991 34.4095 23.9919C35.0735 23.4467 35.8594 23.0697 36.7002 22.8931C35.9006 22.7119 35.0702 22.7168 34.2728 22.9073C33.4754 23.0978 32.7324 23.4689 32.101 23.9919C31.9656 24.0991 31.8371 24.2148 31.7163 24.3382C31.2147 24.8373 30.817 25.4309 30.5463 26.0847C30.2755 26.7385 30.137 27.4395 30.1388 28.1471V37.3809C29.9082 38.4303 29.5863 39.4577 29.177 40.4511C28.5152 42.052 27.3921 43.4197 25.9505 44.3803C24.509 45.3408 22.8143 45.8508 21.082 45.8452H23.3905C25.1227 45.8508 26.8174 45.3408 28.259 44.3803C29.7005 43.4197 30.8236 42.052 31.4854 40.4511Z" fill="#BD4C3D"/>
<path d="M4.7474 31.9938C4.7474 31.9938 11.6727 32.7633 16.2896 32.7633C20.9065 32.7633 27.8319 31.9938 27.8319 31.9938L28.5129 30.6318C27.8065 31.3959 22.6094 31.9938 16.2896 31.9938C9.96988 31.9938 4.77279 31.3959 4.06641 30.6318L4.36266 31.2243L4.7474 31.9938Z" fill="#DA684E"/>
<path d="M25.9055 16.2198L25.3615 15.6758L20.7246 20.3127L21.8127 21.4007L26.4496 16.7638L25.9055 16.2198Z" fill="#DED9D0"/>
<path d="M6.5158 39.6512C5.38963 39.5285 4.34907 38.9922 3.59565 38.1462C2.84222 37.3002 2.42954 36.2048 2.43754 35.072V32.7635C2.43754 32.5594 2.51861 32.3637 2.66292 32.2194C2.80723 32.0751 3.00295 31.994 3.20703 31.994H4.74599L4.36125 31.2246L3.97651 30.4551H3.20703C2.59479 30.4551 2.00762 30.6983 1.57471 31.1312C1.14179 31.5641 0.898578 32.1513 0.898578 32.7635V35.072C0.8877 36.6761 1.50843 38.22 2.62661 39.3701C3.7448 40.5203 5.27063 41.1843 6.87438 41.2186C6.93419 41.225 6.9943 41.2281 7.05444 41.2278H7.40994C7.24143 40.9724 7.07983 40.7138 6.93132 40.4507C6.78281 40.1875 6.64661 39.9197 6.5158 39.6512Z" fill="#AFA59B"/>
<path d="M38.6033 12.7568C37.9946 12.7568 37.3995 12.9374 36.8933 13.2756C36.3872 13.6138 35.9926 14.0945 35.7597 14.6569C35.5267 15.2193 35.4658 15.8382 35.5845 16.4352C35.7033 17.0323 35.9964 17.5807 36.4269 18.0112C36.8574 18.4416 37.4058 18.7348 38.0028 18.8536C38.5999 18.9723 39.2188 18.9114 39.7812 18.6784C40.3436 18.4454 40.8243 18.0509 41.1625 17.5448C41.5007 17.0386 41.6813 16.4435 41.6813 15.8348C41.6762 15.02 41.3503 14.24 40.7742 13.6639C40.198 13.0878 39.4181 12.7619 38.6033 12.7568ZM40.2362 17.4676C39.8587 17.8454 39.3618 18.0805 38.8304 18.1331C38.2989 18.1856 37.7657 18.0522 37.3215 17.7557C36.8773 17.4591 36.5497 17.0177 36.3945 16.5067C36.2393 15.9957 36.2661 15.4467 36.4703 14.9532C36.6744 14.4597 37.0434 14.0523 37.5143 13.8004C37.9852 13.5484 38.5289 13.4676 39.0527 13.5715C39.5766 13.6755 40.0482 13.9579 40.3871 14.3706C40.7261 14.7833 40.9115 15.3007 40.9118 15.8348C40.9106 16.4468 40.6678 17.0337 40.2362 17.4676Z" fill="#853929"/>
<path d="M23.9805 9.68164L24.7497 8.91239L33.2126 17.3752L32.4433 18.1445L23.9805 9.68164Z" fill="#A34235"/>
<path d="M23.2109 11.9893L23.9802 11.22L30.9045 18.1443L30.1353 18.9136L23.2109 11.9893Z" fill="#918778"/>
<path d="M35.5252 25.8379C34.9164 25.8379 34.3214 26.0184 33.8152 26.3566C33.309 26.6948 32.9145 27.1755 32.6816 27.7379C32.4486 28.3004 32.3876 28.9192 32.5064 29.5163C32.6252 30.1134 32.9183 30.6618 33.3488 31.0922C33.7792 31.5227 34.3277 31.8158 34.9247 31.9346C35.5218 32.0534 36.1407 31.9924 36.7031 31.7595C37.2655 31.5265 37.7462 31.132 38.0844 30.6258C38.4226 30.1197 38.6031 29.5246 38.6031 28.9158C38.6031 28.0995 38.2788 27.3166 37.7016 26.7394C37.1244 26.1622 36.3415 25.8379 35.5252 25.8379ZM35.5252 31.2243C35.0686 31.2243 34.6223 31.0889 34.2427 30.8352C33.8631 30.5816 33.5672 30.221 33.3925 29.7992C33.2178 29.3774 33.172 28.9133 33.2611 28.4655C33.3502 28.0177 33.57 27.6063 33.8929 27.2835C34.2157 26.9607 34.627 26.7408 35.0748 26.6517C35.5226 26.5627 35.9868 26.6084 36.4086 26.7831C36.8304 26.9578 37.1909 27.2537 37.4446 27.6333C37.6983 28.0129 37.8336 28.4593 37.8336 28.9158C37.8336 29.5281 37.5904 30.1152 37.1575 30.5481C36.7246 30.9811 36.1374 31.2243 35.5252 31.2243Z" fill="#BD4C3D"/>
<path d="M35.5252 29.6854C35.049 29.6852 34.5846 29.537 34.1963 29.2613C33.8079 28.9856 33.5149 28.596 33.3576 28.1465C33.2298 28.4953 33.1882 28.8698 33.2361 29.2382C33.284 29.6066 33.4202 29.958 33.6329 30.2626C33.8457 30.5671 34.1289 30.8158 34.4583 30.9875C34.7877 31.1592 35.1537 31.2488 35.5252 31.2488C35.8967 31.2488 36.2628 31.1592 36.5922 30.9875C36.9216 30.8158 37.2048 30.5671 37.4176 30.2626C37.6303 29.958 37.7665 29.6066 37.8144 29.2382C37.8623 28.8698 37.8206 28.4953 37.6929 28.1465C37.5356 28.596 37.2426 28.9856 36.8542 29.2613C36.4659 29.537 36.0015 29.6852 35.5252 29.6854Z" fill="#DED9D0"/>
<path d="M8.65122 32.3673C6.41279 32.1788 4.74609 31.9941 4.74609 31.9941C4.82483 34.9421 5.57207 37.8337 6.93142 40.4508C7.81875 42.1448 9.16969 43.5516 10.8265 44.5067C12.4833 45.4618 14.3776 45.9259 16.2883 45.8448C18.3219 45.8947 20.3271 45.3606 22.0664 44.3059H21.6747C18.4042 44.305 15.2527 43.0786 12.8419 40.8686C10.431 38.6586 8.93585 35.6254 8.65122 32.3673Z" fill="#DED9D0"/>
<path d="M24.6782 35.8615C24.3218 36.5492 24.0875 37.2936 23.9857 38.0615C23.9694 38.261 24.0145 38.4607 24.1149 38.634C24.1939 38.7349 24.2973 38.8139 24.4155 38.8636C24.5336 38.9133 24.6624 38.932 24.7898 38.9179C25.0204 38.8944 25.2438 38.8245 25.4467 38.7123C25.6496 38.6002 25.8276 38.4482 25.9702 38.2654C26.2691 37.885 26.4948 37.4524 26.6358 36.9896C26.8612 36.3276 27.0026 35.6399 27.0567 34.9427C27.1151 34.1979 26.7489 32.2726 25.6524 32.8805C25.2461 33.1052 25.2376 33.707 25.1568 34.1271C25.0491 34.7183 24.8889 35.2987 24.6782 35.8615Z" fill="#F7F3EB"/>
<path d="M23.1224 39.0589C22.978 39.4144 22.7337 39.7204 22.4191 39.94C21.8331 40.3657 21.2068 40.7329 20.5493 41.0365C20.395 41.1347 20.2197 41.195 20.0377 41.2125C19.8557 41.23 19.6722 41.2043 19.502 41.1373C19.4444 41.1079 19.3993 41.0588 19.375 40.9988C19.362 40.9457 19.362 40.8903 19.375 40.8372C19.4727 40.3913 19.6244 39.959 19.8267 39.5499C20.1189 38.7337 20.4857 37.9463 20.9225 37.1976C21.2638 36.5877 21.6918 36.0304 22.1929 35.5432C22.5922 35.2246 23.5941 34.7383 23.9265 35.4077C23.9908 35.5834 24.0007 35.7743 23.955 35.9556C23.8096 36.7041 23.6228 37.4439 23.3956 38.1717C23.3248 38.4733 23.2335 38.7698 23.1224 39.0589Z" fill="#F7F3EB"/>
<path d="M5.15625 29.5693C7.12382 30.0925 11.3652 30.4549 16.2899 30.4549C21.2146 30.4549 25.456 30.0925 27.4235 29.5693C26.1 28.7505 21.6239 28.1465 16.2899 28.1465C10.9558 28.1465 6.47976 28.7505 5.15625 29.5693Z" fill="#A34235"/>
<path d="M12.5947 27.5954L14.5315 29.5322C14.5546 29.5568 14.5804 29.5788 14.6084 29.5976C14.9414 29.9005 15.3756 30.068 15.8258 30.067C15.9651 30.0669 16.104 30.0512 16.2397 30.02L21.4399 28.8189C21.9485 28.7012 22.4146 28.445 22.7865 28.0786C22.8613 28.0043 22.9315 27.9254 22.9966 27.8424C23.0489 27.7762 23.0889 27.7039 23.1343 27.6346C22.8327 27.609 22.5221 27.5854 22.2025 27.5638C21.9408 27.8113 21.6186 27.9854 21.2683 28.0686L16.0658 29.2698C15.9696 29.2909 15.8709 29.2979 15.7727 29.2906L19.4908 27.4292C18.9573 27.4107 18.4112 27.3971 17.8526 27.3884L14.9386 28.8504L14.3822 28.2918L15.2902 27.3838C14.9162 27.3838 14.5484 27.3938 14.1845 27.4015L13.839 27.747L13.5119 27.4184C13.1618 27.4284 12.8194 27.44 12.4785 27.4538C12.4822 27.4598 12.4863 27.4654 12.4908 27.4707C12.5208 27.516 12.5556 27.5578 12.5947 27.5954Z" fill="#DED9D0"/>
<path d="M28.9179 8.59132L30.1383 7.37092L27.4451 4.67773L23.9824 8.14041L24.7519 8.90989L26.6756 10.8336L28.9179 8.59132Z" fill="#BEB4AA"/>
<path d="M28.9181 10.7669C28.6295 10.4783 28.4675 10.0869 28.4675 9.67887C28.4675 9.27079 28.6295 8.87942 28.9181 8.59082L26.6758 10.8331L33.2164 17.3737L36.2943 20.4516L32.0776 23.9682L32.1006 23.9912C32.8887 23.3423 33.8449 22.9306 34.858 22.8042C35.871 22.6778 36.8991 22.8419 37.8224 23.2774C38.7458 23.7128 39.5264 24.4017 40.0732 25.2638C40.6201 26.1258 40.9107 27.1256 40.9112 28.1465V31.9939L45.0857 28.1972C44.9398 27.2335 44.4901 26.3415 43.8022 25.651L28.9181 10.7669Z" fill="#80786A"/>
<path d="M34.3283 3.18087L32.9856 1.77657C32.8134 1.59969 32.6076 1.45891 32.3804 1.36246C32.1531 1.26601 31.9089 1.21583 31.6621 1.21484C31.4217 1.21497 31.1838 1.26263 30.9619 1.35507C30.7401 1.44751 30.5387 1.58291 30.3693 1.75348L27.4453 4.67752L30.1385 7.37071L34.3283 3.18087Z" fill="#F58569"/>
<path d="M48.0808 25.3147L46.104 23.3379L45.4561 23.9442C45.2008 24.1755 45.0309 24.4861 44.9741 24.8259C44.9173 25.1656 44.9768 25.5146 45.143 25.8164C45.3092 26.1181 45.5724 26.3549 45.89 26.4884C46.2075 26.6219 46.5609 26.6443 46.8928 26.552L47.2775 26.1996C47.5731 25.9312 47.8422 25.6348 48.0808 25.3147Z" fill="#BEB4AA"/>
<path d="M38.7283 11.5118L46.5808 19.7207C46.9715 20.1337 47.1971 20.6757 47.215 21.2439C47.2328 21.8122 47.0417 22.3672 46.6778 22.804L46.1061 23.338L48.0829 25.3148C48.9979 24.1066 49.4525 22.6118 49.3651 21.0987C49.2776 19.5855 48.6539 18.1531 47.6058 17.0583L39.814 8.91406C39.5147 8.91765 39.223 9.00877 38.9748 9.17617C38.7266 9.34358 38.5329 9.57995 38.4174 9.85615C38.302 10.1323 38.2699 10.4363 38.3252 10.7305C38.3804 11.0247 38.5205 11.2963 38.7283 11.5118Z" fill="#F58569"/>
</g>
<defs>
<clipPath id="clip0_179_9977">
<rect width="49.2469" height="49.2469" fill="white" transform="translate(0.898438 0.445312)"/>
</clipPath>
</defs>
</svg>
