<svg width="51" height="50" viewBox="0 0 51 50" fill="none" xmlns="http://www.w3.org/2000/svg">
<path d="M32.4453 21.9912H43.2181V32.764H32.4453V21.9912Z" fill="#3397E8"/>
<path d="M37.832 32.7637H48.6048V43.5364H37.832V32.7637Z" fill="#FFB632"/>
<path d="M37.8319 29.6853C39.1068 29.6853 40.1403 28.6517 40.1403 27.3768C40.1403 26.1019 39.1068 25.0684 37.8319 25.0684C36.557 25.0684 35.5234 26.1019 35.5234 27.3768C35.5234 28.6517 36.557 29.6853 37.8319 29.6853Z" fill="#E9EEF2"/>
<path d="M27.0586 32.7637H37.8314V43.5364H27.0586V32.7637Z" fill="#35A872"/>
<path d="M30.1367 35.8418H34.7536V40.4587H30.1367V35.8418Z" fill="#E9EEF2"/>
<path d="M43.2181 21.9907H32.4453L37.8317 14.2959L43.2181 21.9907Z" fill="#EB423F"/>
<path d="M45.5271 40.4587H40.9102L43.2186 35.8418L45.5271 40.4587Z" fill="#E9EEF2"/>
<path d="M6.28407 37.3809C5.30817 37.3807 4.36879 37.0098 3.65607 36.3432C2.94336 35.6765 2.51057 34.764 2.44531 33.7903C2.45685 33.4296 2.48154 33.0775 2.51938 32.7342C3.32156 25.3327 9.86794 21.9912 17.8263 21.9912C25.7847 21.9912 32.3311 25.3327 33.1332 32.7342C33.1708 33.0775 33.1954 33.4296 33.2073 33.7903C33.1421 34.764 32.7093 35.6765 31.9965 36.3432C31.2838 37.0098 30.3444 37.3807 29.3685 37.3809H6.28407Z" fill="#95573A"/>
<path d="M17.8257 45.8443C22.0754 45.8443 25.5205 41.0212 25.5205 35.0716C25.5205 29.122 22.0754 24.2988 17.8257 24.2988C13.576 24.2988 10.1309 29.122 10.1309 35.0716C10.1309 41.0212 13.576 45.8443 17.8257 45.8443Z" fill="#A36F58"/>
<path d="M27.0603 11.9877C29.6101 11.9877 31.6772 9.92064 31.6772 7.3708C31.6772 4.82096 29.6101 2.75391 27.0603 2.75391C24.5104 2.75391 22.4434 4.82096 22.4434 7.3708C22.4434 9.92064 24.5104 11.9877 27.0603 11.9877Z" fill="#95573A"/>
<path d="M8.59151 11.9877C11.1413 11.9877 13.2084 9.92064 13.2084 7.3708C13.2084 4.82096 11.1413 2.75391 8.59151 2.75391C6.04166 2.75391 3.97461 4.82096 3.97461 7.3708C3.97461 9.92064 6.04166 11.9877 8.59151 11.9877Z" fill="#95573A"/>
<path d="M17.8254 26.608C24.2 26.608 29.3677 21.7849 29.3677 15.8353C29.3677 9.88563 24.2 5.0625 17.8254 5.0625C11.4508 5.0625 6.2832 9.88563 6.2832 15.8353C6.2832 21.7849 11.4508 26.608 17.8254 26.608Z" fill="#AD6643"/>
<path d="M17.8258 23.5299C14.4314 23.5299 11.6699 21.2862 11.6699 18.5283C11.6699 18.3242 11.751 18.1285 11.8953 17.9842C12.0396 17.8399 12.2353 17.7588 12.4394 17.7588C12.6435 17.7588 12.8392 17.8399 12.9835 17.9842C13.1278 18.1285 13.2089 18.3242 13.2089 18.5283C13.2089 20.4376 15.28 21.9909 17.8258 21.9909C20.3716 21.9909 22.4427 20.4376 22.4427 18.5283C22.4427 18.3242 22.5237 18.1285 22.6681 17.9842C22.8124 17.8399 23.0081 17.7588 23.2122 17.7588C23.4162 17.7588 23.612 17.8399 23.7563 17.9842C23.9006 18.1285 23.9816 18.3242 23.9816 18.5283C23.9816 21.2862 21.2202 23.5299 17.8258 23.5299Z" fill="#7A4830"/>
<path d="M22.4433 15.0653C22.8683 15.0653 23.2128 14.7208 23.2128 14.2958C23.2128 13.8709 22.8683 13.5264 22.4433 13.5264C22.0183 13.5264 21.6738 13.8709 21.6738 14.2958C21.6738 14.7208 22.0183 15.0653 22.4433 15.0653Z" fill="#7A4830"/>
<path d="M13.2089 15.0653C13.6339 15.0653 13.9784 14.7208 13.9784 14.2958C13.9784 13.8709 13.6339 13.5264 13.2089 13.5264C12.784 13.5264 12.4395 13.8709 12.4395 14.2958C12.4395 14.7208 12.784 15.0653 13.2089 15.0653Z" fill="#7A4830"/>
<path d="M17.8281 22.7604C17.624 22.7604 17.4283 22.6793 17.284 22.535C17.1397 22.3907 17.0586 22.195 17.0586 21.9909V17.374C17.0586 17.1699 17.1397 16.9742 17.284 16.8299C17.4283 16.6856 17.624 16.6045 17.8281 16.6045C18.0322 16.6045 18.2279 16.6856 18.3722 16.8299C18.5165 16.9742 18.5976 17.1699 18.5976 17.374V21.9909C18.5976 22.195 18.5165 22.3907 18.3722 22.535C18.2279 22.6793 18.0322 22.7604 17.8281 22.7604Z" fill="#7A4830"/>
<path d="M10.1325 47.384C13.1073 47.384 15.5189 44.6279 15.5189 41.2281C15.5189 37.8283 13.1073 35.0723 10.1325 35.0723C7.15766 35.0723 4.74609 37.8283 4.74609 41.2281C4.74609 44.6279 7.15766 47.384 10.1325 47.384Z" fill="#7A4830"/>
<path d="M25.5231 47.384C28.4979 47.384 30.9095 44.6279 30.9095 41.2281C30.9095 37.8283 28.4979 35.0723 25.5231 35.0723C22.5483 35.0723 20.1367 37.8283 20.1367 41.2281C20.1367 44.6279 22.5483 47.384 25.5231 47.384Z" fill="#7A4830"/>
<path d="M19.6901 17.8008L18.3841 18.7326C18.2224 18.8498 18.0277 18.9129 17.828 18.9129C17.6283 18.9129 17.4337 18.8498 17.272 18.7326L15.966 17.8008C15.8262 17.698 15.7128 17.5634 15.6352 17.4082C15.5575 17.253 15.5179 17.0815 15.5196 16.908C15.5196 16.3159 15.9684 15.835 16.522 15.835H19.134C19.6877 15.835 20.1365 16.3159 20.1365 16.908C20.1381 17.0815 20.0985 17.253 20.0209 17.4082C19.9433 17.5634 19.8299 17.698 19.6901 17.8008Z" fill="#7A4830"/>
</svg>
