<svg width="51" height="50" viewBox="0 0 51 50" fill="none" xmlns="http://www.w3.org/2000/svg">
<path d="M25.5208 38.9194C31.8954 38.9194 37.063 33.7518 37.063 27.3772C37.063 21.0026 31.8954 15.835 25.5208 15.835C19.1462 15.835 13.9785 21.0026 13.9785 27.3772C13.9785 33.7518 19.1462 38.9194 25.5208 38.9194Z" fill="#FFA426"/>
<path d="M17.0559 27.377C17.0574 24.584 18.0721 21.8864 19.9117 19.7849C21.7513 17.6833 24.2909 16.3205 27.0591 15.9494C25.4223 15.7162 23.7545 15.8373 22.1686 16.3046C20.5827 16.7719 19.1157 17.5745 17.8669 18.6579C16.618 19.7414 15.6166 21.0806 14.9302 22.5847C14.2439 24.0889 13.8887 25.7229 13.8887 27.3762C13.8887 29.0296 14.2439 30.6636 14.9302 32.1677C15.6166 33.6719 16.618 35.011 17.8669 36.0945C19.1157 37.178 20.5827 37.9806 22.1686 38.4478C23.7545 38.9151 25.4223 39.0363 27.0591 38.803C24.2912 38.432 21.7518 37.0694 19.9122 34.9682C18.0726 32.8669 17.0577 30.1697 17.0559 27.377Z" fill="#FE8205"/>
<path d="M25.5194 15.835C25.0045 15.8388 24.4903 15.8771 23.9805 15.9496C26.7479 16.3208 29.2866 17.6838 31.1251 19.7853C32.9635 21.8869 33.9769 24.5842 33.9769 27.3764C33.9769 30.1687 32.9635 32.866 31.1251 34.9676C29.2866 37.0691 26.7479 38.432 23.9805 38.8033C25.5475 39.0166 27.1416 38.9054 28.6638 38.4767C30.186 38.048 31.6039 37.3109 32.8293 36.3112C34.0547 35.3116 35.0615 34.0706 35.7871 32.6655C36.5127 31.2603 36.9417 29.721 37.0475 28.1431C37.1532 26.5652 36.9334 24.9824 36.4017 23.493C35.87 22.0036 35.0378 20.6395 33.9567 19.4852C32.8756 18.331 31.5688 17.4114 30.1173 16.7834C28.6659 16.1555 27.1009 15.8326 25.5194 15.835Z" fill="#FFC247"/>
<path d="M29.9458 11.8649C31.137 10.6792 33.2869 6.6009 32.0981 5.40897C30.9092 4.21705 26.8279 6.37006 25.6421 7.56122C25.0797 8.13363 24.766 8.90505 24.7696 9.70755C24.7731 10.5101 25.0934 11.2787 25.6609 11.8462C26.2284 12.4136 26.997 12.734 27.7995 12.7375C28.602 12.741 29.3734 12.4274 29.9458 11.8649Z" fill="#A5E887"/>
<path d="M29.9469 9.55695C29.5921 9.91123 29.1552 10.1724 28.6752 10.3172C28.1951 10.462 27.6867 10.486 27.1952 10.387C26.7036 10.288 26.2441 10.0691 25.8575 9.74982C25.4709 9.4305 25.1692 9.02063 24.9791 8.55662C24.7112 9.20735 24.6772 9.93082 24.8827 10.6039C25.0882 11.2769 25.5206 11.8579 26.1063 12.248C26.692 12.6381 27.3948 12.8132 28.095 12.7434C28.7953 12.6737 29.4497 12.3634 29.9469 11.8654C31.0973 10.7158 33.141 6.86376 32.1946 5.54102C31.7238 7.01751 30.9592 8.38353 29.9469 9.55695Z" fill="#86C983"/>
<path d="M30.68 7.91422L29.592 6.82617L23.9801 12.4395C23.2646 11.7592 22.418 11.2317 21.4919 10.8893C20.5659 10.5469 19.5798 10.3968 18.5938 10.4481V11.9871C24.6503 11.9871 24.7496 17.8936 24.7496 18.143V18.9124H26.2886V18.143C26.2208 16.5571 25.7582 15.0133 24.9428 13.6515L30.68 7.91422Z" fill="#98BA5C"/>
<path d="M25.521 35.8413C23.2769 35.8386 21.1255 34.946 19.5387 33.3592C17.9519 31.7724 17.0593 29.621 17.0566 27.377H18.5956C18.5978 29.213 19.3282 30.9732 20.6265 32.2714C21.9247 33.5697 23.6849 34.3001 25.521 34.3023V35.8413Z" fill="#F5E3A7"/>
<path d="M17.0566 24.2988H18.5956V25.8378H17.0566V24.2988Z" fill="#F5E3A7"/>
<path d="M30.1367 21.2207H31.6757V22.7597H30.1367V21.2207Z" fill="#F5E3A7"/>
<path d="M33.2148 24.2988H34.7538V25.8378H33.2148V24.2988Z" fill="#F5E3A7"/>
<path d="M30.1367 24.2988H31.6757V25.8378H30.1367V24.2988Z" fill="#F5E3A7"/>
<path d="M10.9 23.5293C12.2127 23.6044 13.5093 23.8555 14.7551 24.2757C16.0478 24.6681 17.0559 25.0683 17.0559 25.0683L15.9324 25.63L13.9779 26.6072L15.5169 28.9157L10.9 27.3767L6.28311 28.9157L7.82207 26.6072L5.86759 25.63L4.74414 25.0683C4.74414 25.0683 8.34532 23.6293 10.6692 23.537C10.7461 23.5293 10.8231 23.5293 10.9 23.5293Z" fill="#A5E887"/>
<path d="M20.1352 31.9935C20.1358 32.9131 19.9526 33.8235 19.5966 34.6713L16.2878 35.0714C15.2674 35.0714 14.2888 35.4768 13.5672 36.1983C12.8457 36.9198 12.4404 37.8985 12.4404 38.9188H8.59295C6.99907 38.917 5.45463 38.3653 4.2202 37.3571C2.98576 36.3488 2.13691 34.9456 1.81685 33.3841C1.49679 31.8227 1.72512 30.1987 2.46332 28.7861C3.20151 27.3735 4.40439 26.2587 5.86899 25.6299L7.82347 26.6071L6.28451 28.9156L10.9014 27.3766L15.5183 28.9156L13.9793 26.6071L15.9338 25.6299C17.1805 26.1624 18.2433 27.0494 18.9902 28.1807C19.7372 29.312 20.1353 30.6378 20.1352 31.9935Z" fill="#FF475A"/>
<path d="M15.933 27.1688C17.065 27.6552 18.0464 28.4352 18.7756 29.4283C19.5048 30.4213 19.9553 31.5912 20.0805 32.8169C20.2679 31.3305 19.9641 29.8236 19.2153 28.526C18.4664 27.2284 17.3137 26.2113 15.933 25.6299L13.9785 26.6071L14.748 27.7614L15.933 27.1688Z" fill="#F03049"/>
<path d="M6.2832 30.4549L10.9001 28.9159L15.517 30.4549L14.1981 28.4765L10.9001 27.377L7.6021 28.4765L6.2832 30.4549Z" fill="#F03049"/>
<path d="M3.69743 28.6386C4.32011 28.0144 5.05673 27.5155 5.86737 27.1688L7.05237 27.7614L7.82186 26.6071L5.86737 25.6299C4.49722 26.2106 3.35191 27.2193 2.60276 28.5051C1.85362 29.7909 1.5409 31.2847 1.71139 32.763C1.88345 31.2019 2.58424 29.7465 3.69743 28.6386Z" fill="#F03049"/>
<path d="M41.6798 38.9195C41.6777 40.4185 41.1298 41.8655 40.1385 42.9899C39.1472 44.1143 37.7803 44.8392 36.2934 45.0292C36.0381 45.0602 35.7811 45.0756 35.5239 45.0754C35.2664 45.0769 35.0092 45.0589 34.7544 45.0215C34.5366 44.998 34.3206 44.9595 34.1081 44.9061L30.1376 44.429L28.5986 44.2444L20.1343 43.2286L16.2869 42.7669C15.2665 42.7669 14.2879 42.3616 13.5663 41.6401C12.8448 40.9185 12.4395 39.9399 12.4395 38.9195C12.4395 37.8991 12.8448 36.9205 13.5663 36.199C14.2879 35.4775 15.2665 35.0721 16.2869 35.0721L19.5956 34.672L23.2122 34.2411L24.7512 34.0564L31.6765 33.2254L35.5239 32.7637C37.0231 32.763 38.4708 33.3104 39.5945 34.3026C39.8491 34.5251 40.0834 34.7697 40.2947 35.0336C40.5295 35.3179 40.7357 35.6246 40.9103 35.9493C41.4177 36.8569 41.6827 37.8798 41.6798 38.9195Z" fill="#FFC247"/>
<path d="M49.3748 37.3806V40.4585H43.9884L47.0664 41.9975L46.2969 44.306L40.2949 42.8055C41.191 41.7087 41.6803 40.3359 41.68 38.9196C41.6829 37.8799 41.4179 36.8569 40.9105 35.9494C40.7359 35.6247 40.5297 35.3179 40.2949 35.0337L40.9105 34.8798L46.2969 33.5332L47.0664 35.8417L43.9884 37.3806H49.3748Z" fill="#A5E887"/>
<path d="M18.5957 43.0434V38.9189H20.1347V43.228L18.5957 43.0434Z" fill="#FF9500"/>
<path d="M24.7519 34.0557V38.1493H23.2129V34.2403L24.7519 34.0557Z" fill="#FF9500"/>
<path d="M30.1386 39.6885V44.4285L28.5996 44.2438V39.6885H30.1386Z" fill="#FF9500"/>
<path d="M33.2147 33.04V37.3799H31.6758V33.2247L33.2147 33.04Z" fill="#FF9500"/>
<path d="M34.7539 45.0211V41.9971H36.2929V45.0288L34.7539 45.0211Z" fill="#FF9500"/>
<path d="M23.2129 39.6885H24.7519V41.2274H23.2129V39.6885Z" fill="#FF9500"/>
<path d="M34.7539 38.9189H36.2929V40.4579H34.7539V38.9189Z" fill="#FF9500"/>
<path d="M10.1299 25.8376C10.1161 25.1132 10.0432 24.3911 9.91215 23.6785C9.80986 22.698 9.4297 21.7671 8.81641 20.9953L9.90445 19.9072C10.7541 20.8924 11.2851 22.1121 11.4273 23.4053C11.5756 24.2079 11.6564 25.0215 11.6689 25.8376H10.1299Z" fill="#98BA5C"/>
<path d="M41.6799 38.9189C41.6778 40.4179 41.1299 41.8648 40.1386 42.9892C39.1473 44.1136 37.7805 44.8386 36.2936 45.0286C36.0382 45.0595 35.7813 45.0749 35.5241 45.0747C35.2666 45.0762 35.0094 45.0582 34.7546 45.0209C34.5367 44.9974 34.3208 44.9588 34.1082 44.9054L30.1377 44.4284L28.5987 44.2437L20.1344 43.228L16.287 42.7663C15.6812 42.7728 15.0825 42.6346 14.5409 42.3632C13.9992 42.0918 13.5301 41.695 13.1726 41.2059C12.8152 40.7167 12.5796 40.1492 12.4856 39.5507C12.3915 38.9522 12.4417 38.3399 12.632 37.7646C12.8775 38.5427 13.3638 39.2228 14.0206 39.7068C14.6775 40.1908 15.4711 40.4538 16.287 40.4578L20.1344 40.9195L28.5987 41.9352L30.1377 42.1199L34.1082 42.597C34.3208 42.6503 34.5367 42.6889 34.7546 42.7124C35.0094 42.7498 35.2666 42.7678 35.5241 42.7663C35.7813 42.7665 36.0382 42.7511 36.2936 42.7201C37.8648 42.5246 39.2991 41.7274 40.2949 40.4963C40.9326 39.7105 41.3685 38.7806 41.5645 37.7877C41.638 38.1604 41.6766 38.5391 41.6799 38.9189Z" fill="#FFA426"/>
<path d="M20.1327 40.92V43.2285L18.5938 43.0438V40.7354L20.1327 40.92Z" fill="#FE8205"/>
<path d="M24.7499 34.0557V38.1493H23.2109V34.2403L24.7499 34.0557Z" fill="#FF9500"/>
<path d="M30.1366 42.1202V44.4287L28.5977 44.244V41.9355L30.1366 42.1202Z" fill="#FE8205"/>
<path d="M33.2147 33.04V37.3799H31.6758V33.2247L33.2147 33.04Z" fill="#FF9500"/>
<path d="M36.2929 42.7206V45.029L34.7539 45.0213V42.7129C35.0087 42.7502 35.2659 42.7682 35.5234 42.7668C35.7806 42.7669 36.0375 42.7515 36.2929 42.7206Z" fill="#FE8205"/>
<path d="M23.2109 39.6885H24.7499V41.2274H23.2109V39.6885Z" fill="#FF9500"/>
<path d="M34.7539 38.9189H36.2929V40.4579H34.7539V38.9189Z" fill="#FF9500"/>
<path d="M38.8568 31.432C37.8995 31.5833 36.9571 31.8176 36.0405 32.1322C35.4412 32.3326 34.8637 32.593 34.3168 32.9094L32.447 33.1326L28.8612 33.5635L27.8301 32.5324L30.0385 30.3239C31.6929 28.6696 32.2392 24.8145 32.2392 24.8145C32.7012 25.275 33.2542 25.6341 33.8628 25.8686C33.8539 26.3882 33.9502 26.9042 34.1459 27.3855C34.3416 27.8669 34.6327 28.3037 35.0017 28.6696C35.504 29.1758 36.1386 29.5305 36.833 29.693V29.7007C37.1501 29.7787 37.4761 29.8149 37.8026 29.8084C38.0372 30.4171 38.3962 30.9701 38.8568 31.432Z" fill="#98BA5C"/>
<path d="M37.8026 29.8086C37.4761 29.8151 37.1501 29.7788 36.833 29.7009V29.6932C36.7445 29.6732 36.6584 29.6401 36.5714 29.6162C35.8173 29.7631 35.0742 29.9621 34.3476 30.2118C33.7483 30.4121 33.1709 30.6725 32.624 30.989L30.7541 31.2121L28.9351 31.4307C28.1309 32.2309 27.8301 32.5326 27.8301 32.5326L28.8612 33.5637L32.447 33.1327L34.3168 32.9096C34.8637 32.5931 35.4412 32.3328 36.0405 32.1324C36.9571 31.8178 37.8995 31.5835 38.8568 31.4322C38.3962 30.9702 38.0372 30.4172 37.8026 29.8086Z" fill="#7A9E51"/>
<path d="M48.2353 20.952C48.9636 21.6854 49.3723 22.677 49.3723 23.7106C49.3723 24.7441 48.9636 25.7357 48.2353 26.4692C47.8252 26.8757 47.3278 27.1836 46.781 27.3695C46.9693 28.512 46.7269 29.6838 46.101 30.658C45.475 31.6322 44.5098 32.3396 43.3923 32.6431C42.2748 32.9467 41.0845 32.8249 40.0516 32.3013C39.0188 31.7777 38.2169 30.8895 37.8012 29.8087C37.4747 29.8152 37.1487 29.779 36.8316 29.701V29.6933C36.1372 29.5308 35.5025 29.1762 35.0002 28.6699C34.6313 28.304 34.3402 27.8672 34.1445 27.3859C33.9487 26.9045 33.8525 26.3885 33.8614 25.869C33.1342 25.5892 32.4884 25.132 31.9828 24.5391C31.4772 23.9462 31.1279 23.2363 30.9665 22.4739C30.8052 21.7116 30.837 20.921 31.059 20.1741C31.281 19.4272 31.6862 18.7476 32.2378 18.1972C32.2763 18.1588 32.3148 18.1203 32.3609 18.0818C32.8824 17.5945 33.5088 17.2335 34.1919 17.0267C34.875 16.8199 35.5965 16.7728 36.3007 16.8891C36.4865 16.3423 36.7944 15.845 37.201 15.4348C37.9344 14.7065 38.926 14.2979 39.9596 14.2979C40.9931 14.2979 41.9847 14.7065 42.7182 15.4348C42.7951 15.5117 42.849 15.6041 42.9182 15.681C43.6271 15.3968 44.4038 15.327 45.152 15.4803C45.9002 15.6335 46.587 16.0031 47.127 16.5431C47.667 17.0832 48.0366 17.7699 48.1899 18.5181C48.3431 19.2663 48.2733 20.043 47.9891 20.7519C48.0661 20.8212 48.1584 20.875 48.2353 20.952Z" fill="#A5E887"/>
<path d="M48.2364 20.9516C48.1595 20.8747 48.0671 20.8208 47.9902 20.7515C48.2744 20.0427 48.3442 19.2659 48.1909 18.5177C48.0377 17.7695 47.6681 17.0828 47.1281 16.5428C46.588 16.0027 45.9013 15.6332 45.1531 15.4799C44.4049 15.3266 43.6282 15.3964 42.9193 15.6807C42.85 15.6037 42.7962 15.5114 42.7192 15.4344C42.1287 14.8509 41.3675 14.4709 40.5462 14.3496C39.725 14.2282 38.8864 14.3718 38.1523 14.7596C38.5014 14.9352 38.8218 15.1628 39.1027 15.4344C39.1796 15.5114 39.2335 15.6037 39.3027 15.6807C40.0116 15.3964 40.7883 15.3266 41.5365 15.4799C42.2847 15.6332 42.9715 16.0027 43.5115 16.5428C44.0515 17.0828 44.4211 17.7695 44.5744 18.5177C44.7276 19.2659 44.6578 20.0427 44.3736 20.7515C44.4506 20.8208 44.5429 20.8747 44.6198 20.9516C45.3481 21.685 45.7568 22.6767 45.7568 23.7102C45.7568 24.7438 45.3481 25.7354 44.6198 26.4688C44.2097 26.8754 43.7123 27.1833 43.1655 27.3691C43.3374 28.406 43.1536 29.4705 42.6442 30.3898C42.1348 31.3091 41.3295 32.0291 40.3592 32.4331C41.1289 32.757 41.9713 32.8687 42.7988 32.7566C43.6263 32.6445 44.4086 32.3127 45.0644 31.7957C45.7202 31.2787 46.2254 30.5953 46.5275 29.8168C46.8295 29.0383 46.9175 28.1931 46.7821 27.3691C47.3289 27.1833 47.8262 26.8754 48.2364 26.4688C48.9647 25.7354 49.3733 24.7438 49.3733 23.7102C49.3733 22.6767 48.9647 21.685 48.2364 20.9516Z" fill="#86C983"/>
</svg>
